ISO-10303-21;
HEADER;
FILE_DESCRIPTION(('FreeCAD Model'),'2;1');
FILE_NAME('Open CASCADE Shape Model','2026-05-19T03:21:51',(''),(''),
  'Open CASCADE STEP processor 7.8','FreeCAD','Unknown');
FILE_SCHEMA(('AUTOMOTIVE_DESIGN { 1 0 10303 214 1 1 1 1 }'));
ENDSEC;
DATA;
#1 = APPLICATION_PROTOCOL_DEFINITION('international standard',
  'automotive_design',2000,#2);
#2 = APPLICATION_CONTEXT(
  'core data for automotive mechanical design processes');
#3 = SHAPE_DEFINITION_REPRESENTATION(#4,#10);
#4 = PRODUCT_DEFINITION_SHAPE('','',#5);
#5 = PRODUCT_DEFINITION('design','',#6,#9);
#6 = PRODUCT_DEFINITION_FORMATION('','',#7);
#7 = PRODUCT('B_motor_mount_1mm_spacer','B_motor_mount_1mm_spacer','',(
    #8));
#8 = PRODUCT_CONTEXT('',#2,'mechanical');
#9 = PRODUCT_DEFINITION_CONTEXT('part definition',#2,'design');
#10 = ADVANCED_BREP_SHAPE_REPRESENTATION('',(#11,#15),#1806);
#11 = AXIS2_PLACEMENT_3D('',#12,#13,#14);
#12 = CARTESIAN_POINT('',(0.,0.,0.));
#13 = DIRECTION('',(0.,0.,1.));
#14 = DIRECTION('',(1.,0.,-0.));
#15 = MANIFOLD_SOLID_BREP('',#16);
#16 = CLOSED_SHELL('',(#17,#57,#90,#121,#152,#185,#210,#235,#266,#291,
    #465,#490,#664,#695,#712,#729,#762,#779,#804,#821,#845,#869,#894,
    #919,#943,#967,#992,#1017,#1034,#1059,#1084,#1109,#1134,#1159,#1176,
    #1201,#1218,#1242,#1266,#1291,#1316,#1340,#1364,#1389,#1414,#1431,
    #1456,#1481,#1506,#1531,#1556,#1573,#1590,#1607,#1624,#1641,#1658,
    #1675,#1692,#1709,#1721,#1738,#1755,#1772,#1789));
#17 = ADVANCED_FACE('',(#18),#52,.F.);
#18 = FACE_BOUND('',#19,.F.);
#19 = EDGE_LOOP('',(#20,#30,#38,#46));
#20 = ORIENTED_EDGE('',*,*,#21,.F.);
#21 = EDGE_CURVE('',#22,#24,#26,.T.);
#22 = VERTEX_POINT('',#23);
#23 = CARTESIAN_POINT('',(-3.,5.,0.4));
#24 = VERTEX_POINT('',#25);
#25 = CARTESIAN_POINT('',(-3.,5.,0.8));
#26 = LINE('',#27,#28);
#27 = CARTESIAN_POINT('',(-3.,5.,0.));
#28 = VECTOR('',#29,1.);
#29 = DIRECTION('',(0.,0.,1.));
#30 = ORIENTED_EDGE('',*,*,#31,.F.);
#31 = EDGE_CURVE('',#32,#22,#34,.T.);
#32 = VERTEX_POINT('',#33);
#33 = CARTESIAN_POINT('',(-3.,6.,0.4));
#34 = LINE('',#35,#36);
#35 = CARTESIAN_POINT('',(-3.,6.,0.4));
#36 = VECTOR('',#37,1.);
#37 = DIRECTION('',(0.,-1.,0.));
#38 = ORIENTED_EDGE('',*,*,#39,.T.);
#39 = EDGE_CURVE('',#32,#40,#42,.T.);
#40 = VERTEX_POINT('',#41);
#41 = CARTESIAN_POINT('',(-3.,6.,0.8));
#42 = LINE('',#43,#44);
#43 = CARTESIAN_POINT('',(-3.,6.,0.));
#44 = VECTOR('',#45,1.);
#45 = DIRECTION('',(0.,0.,1.));
#46 = ORIENTED_EDGE('',*,*,#47,.T.);
#47 = EDGE_CURVE('',#40,#24,#48,.T.);
#48 = LINE('',#49,#50);
#49 = CARTESIAN_POINT('',(-3.,6.,0.8));
#50 = VECTOR('',#51,1.);
#51 = DIRECTION('',(0.,-1.,0.));
#52 = PLANE('',#53);
#53 = AXIS2_PLACEMENT_3D('',#54,#55,#56);
#54 = CARTESIAN_POINT('',(-3.,6.,0.));
#55 = DIRECTION('',(1.,0.,0.));
#56 = DIRECTION('',(0.,-1.,0.));
#57 = ADVANCED_FACE('',(#58),#85,.F.);
#58 = FACE_BOUND('',#59,.T.);
#59 = EDGE_LOOP('',(#60,#61,#70,#78));
#60 = ORIENTED_EDGE('',*,*,#21,.F.);
#61 = ORIENTED_EDGE('',*,*,#62,.T.);
#62 = EDGE_CURVE('',#22,#63,#65,.T.);
#63 = VERTEX_POINT('',#64);
#64 = CARTESIAN_POINT('',(-5.,3.,0.4));
#65 = CIRCLE('',#66,2.);
#66 = AXIS2_PLACEMENT_3D('',#67,#68,#69);
#67 = CARTESIAN_POINT('',(-5.,5.,0.4));
#68 = DIRECTION('',(0.,0.,-1.));
#69 = DIRECTION('',(1.,0.,0.));
#70 = ORIENTED_EDGE('',*,*,#71,.T.);
#71 = EDGE_CURVE('',#63,#72,#74,.T.);
#72 = VERTEX_POINT('',#73);
#73 = CARTESIAN_POINT('',(-5.,3.,0.8));
#74 = LINE('',#75,#76);
#75 = CARTESIAN_POINT('',(-5.,3.,0.));
#76 = VECTOR('',#77,1.);
#77 = DIRECTION('',(0.,0.,1.));
#78 = ORIENTED_EDGE('',*,*,#79,.F.);
#79 = EDGE_CURVE('',#24,#72,#80,.T.);
#80 = CIRCLE('',#81,2.);
#81 = AXIS2_PLACEMENT_3D('',#82,#83,#84);
#82 = CARTESIAN_POINT('',(-5.,5.,0.8));
#83 = DIRECTION('',(0.,0.,-1.));
#84 = DIRECTION('',(1.,0.,0.));
#85 = CYLINDRICAL_SURFACE('',#86,2.);
#86 = AXIS2_PLACEMENT_3D('',#87,#88,#89);
#87 = CARTESIAN_POINT('',(-5.,5.,0.));
#88 = DIRECTION('',(0.,0.,1.));
#89 = DIRECTION('',(1.,0.,0.));
#90 = ADVANCED_FACE('',(#91),#116,.T.);
#91 = FACE_BOUND('',#92,.F.);
#92 = EDGE_LOOP('',(#93,#101,#102,#110));
#93 = ORIENTED_EDGE('',*,*,#94,.F.);
#94 = EDGE_CURVE('',#32,#95,#97,.T.);
#95 = VERTEX_POINT('',#96);
#96 = CARTESIAN_POINT('',(-2.6,6.,0.));
#97 = LINE('',#98,#99);
#98 = CARTESIAN_POINT('',(-2.8,6.,0.2));
#99 = VECTOR('',#100,1.);
#100 = DIRECTION('',(0.707106781187,0.,-0.707106781187));
#101 = ORIENTED_EDGE('',*,*,#31,.T.);
#102 = ORIENTED_EDGE('',*,*,#103,.T.);
#103 = EDGE_CURVE('',#22,#104,#106,.T.);
#104 = VERTEX_POINT('',#105);
#105 = CARTESIAN_POINT('',(-2.6,5.,0.));
#106 = LINE('',#107,#108);
#107 = CARTESIAN_POINT('',(-2.8,5.,0.2));
#108 = VECTOR('',#109,1.);
#109 = DIRECTION('',(0.707106781187,0.,-0.707106781187));
#110 = ORIENTED_EDGE('',*,*,#111,.F.);
#111 = EDGE_CURVE('',#95,#104,#112,.T.);
#112 = LINE('',#113,#114);
#113 = CARTESIAN_POINT('',(-2.6,6.,0.));
#114 = VECTOR('',#115,1.);
#115 = DIRECTION('',(0.,-1.,0.));
#116 = PLANE('',#117);
#117 = AXIS2_PLACEMENT_3D('',#118,#119,#120);
#118 = CARTESIAN_POINT('',(-2.8,6.,0.2));
#119 = DIRECTION('',(-0.707106781187,-0.,-0.707106781187));
#120 = DIRECTION('',(-0.,1.,-0.));
#121 = ADVANCED_FACE('',(#122),#147,.F.);
#122 = FACE_BOUND('',#123,.T.);
#123 = EDGE_LOOP('',(#124,#132,#133,#141));
#124 = ORIENTED_EDGE('',*,*,#125,.F.);
#125 = EDGE_CURVE('',#40,#126,#128,.T.);
#126 = VERTEX_POINT('',#127);
#127 = CARTESIAN_POINT('',(-2.8,6.,1.));
#128 = LINE('',#129,#130);
#129 = CARTESIAN_POINT('',(-2.9,6.,0.9));
#130 = VECTOR('',#131,1.);
#131 = DIRECTION('',(0.707106781187,0.,0.707106781187));
#132 = ORIENTED_EDGE('',*,*,#47,.T.);
#133 = ORIENTED_EDGE('',*,*,#134,.T.);
#134 = EDGE_CURVE('',#24,#135,#137,.T.);
#135 = VERTEX_POINT('',#136);
#136 = CARTESIAN_POINT('',(-2.8,5.,1.));
#137 = LINE('',#138,#139);
#138 = CARTESIAN_POINT('',(-2.9,5.,0.9));
#139 = VECTOR('',#140,1.);
#140 = DIRECTION('',(0.707106781187,0.,0.707106781187));
#141 = ORIENTED_EDGE('',*,*,#142,.F.);
#142 = EDGE_CURVE('',#126,#135,#143,.T.);
#143 = LINE('',#144,#145);
#144 = CARTESIAN_POINT('',(-2.8,6.,1.));
#145 = VECTOR('',#146,1.);
#146 = DIRECTION('',(0.,-1.,0.));
#147 = PLANE('',#148);
#148 = AXIS2_PLACEMENT_3D('',#149,#150,#151);
#149 = CARTESIAN_POINT('',(-2.9,6.,0.9));
#150 = DIRECTION('',(0.707106781187,0.,-0.707106781187));
#151 = DIRECTION('',(0.,1.,0.));
#152 = ADVANCED_FACE('',(#153),#180,.T.);
#153 = FACE_BOUND('',#154,.F.);
#154 = EDGE_LOOP('',(#155,#165,#172,#173));
#155 = ORIENTED_EDGE('',*,*,#156,.T.);
#156 = EDGE_CURVE('',#157,#159,#161,.T.);
#157 = VERTEX_POINT('',#158);
#158 = CARTESIAN_POINT('',(3.,6.,0.4));
#159 = VERTEX_POINT('',#160);
#160 = CARTESIAN_POINT('',(3.,6.,0.8));
#161 = LINE('',#162,#163);
#162 = CARTESIAN_POINT('',(3.,6.,0.));
#163 = VECTOR('',#164,1.);
#164 = DIRECTION('',(0.,0.,1.));
#165 = ORIENTED_EDGE('',*,*,#166,.T.);
#166 = EDGE_CURVE('',#159,#40,#167,.T.);
#167 = CIRCLE('',#168,3.);
#168 = AXIS2_PLACEMENT_3D('',#169,#170,#171);
#169 = CARTESIAN_POINT('',(0.,6.,0.8));
#170 = DIRECTION('',(0.,-0.,1.));
#171 = DIRECTION('',(1.,1.984E-14,0.));
#172 = ORIENTED_EDGE('',*,*,#39,.F.);
#173 = ORIENTED_EDGE('',*,*,#174,.F.);
#174 = EDGE_CURVE('',#157,#32,#175,.T.);
#175 = CIRCLE('',#176,3.);
#176 = AXIS2_PLACEMENT_3D('',#177,#178,#179);
#177 = CARTESIAN_POINT('',(0.,6.,0.4));
#178 = DIRECTION('',(0.,-0.,1.));
#179 = DIRECTION('',(1.,1.984E-14,0.));
#180 = CYLINDRICAL_SURFACE('',#181,3.);
#181 = AXIS2_PLACEMENT_3D('',#182,#183,#184);
#182 = CARTESIAN_POINT('',(0.,6.,0.));
#183 = DIRECTION('',(-0.,-0.,-1.));
#184 = DIRECTION('',(1.,0.,0.));
#185 = ADVANCED_FACE('',(#186),#205,.F.);
#186 = FACE_BOUND('',#187,.F.);
#187 = EDGE_LOOP('',(#188,#189,#190,#198));
#188 = ORIENTED_EDGE('',*,*,#103,.F.);
#189 = ORIENTED_EDGE('',*,*,#62,.T.);
#190 = ORIENTED_EDGE('',*,*,#191,.T.);
#191 = EDGE_CURVE('',#63,#192,#194,.T.);
#192 = VERTEX_POINT('',#193);
#193 = CARTESIAN_POINT('',(-5.,2.6,0.));
#194 = LINE('',#195,#196);
#195 = CARTESIAN_POINT('',(-5.,3.,0.4));
#196 = VECTOR('',#197,1.);
#197 = DIRECTION('',(4.E-17,-0.707106781187,-0.707106781187));
#198 = ORIENTED_EDGE('',*,*,#199,.F.);
#199 = EDGE_CURVE('',#104,#192,#200,.T.);
#200 = CIRCLE('',#201,2.4);
#201 = AXIS2_PLACEMENT_3D('',#202,#203,#204);
#202 = CARTESIAN_POINT('',(-5.,5.,0.));
#203 = DIRECTION('',(0.,0.,-1.));
#204 = DIRECTION('',(1.,0.,0.));
#205 = CONICAL_SURFACE('',#206,2.,0.785398163397);
#206 = AXIS2_PLACEMENT_3D('',#207,#208,#209);
#207 = CARTESIAN_POINT('',(-5.,5.,0.4));
#208 = DIRECTION('',(-0.,-0.,-1.));
#209 = DIRECTION('',(1.,0.,0.));
#210 = ADVANCED_FACE('',(#211),#230,.F.);
#211 = FACE_BOUND('',#212,.T.);
#212 = EDGE_LOOP('',(#213,#214,#215,#223));
#213 = ORIENTED_EDGE('',*,*,#134,.F.);
#214 = ORIENTED_EDGE('',*,*,#79,.T.);
#215 = ORIENTED_EDGE('',*,*,#216,.T.);
#216 = EDGE_CURVE('',#72,#217,#219,.T.);
#217 = VERTEX_POINT('',#218);
#218 = CARTESIAN_POINT('',(-5.,2.8,1.));
#219 = LINE('',#220,#221);
#220 = CARTESIAN_POINT('',(-5.,3.,0.8));
#221 = VECTOR('',#222,1.);
#222 = DIRECTION('',(4.E-17,-0.707106781187,0.707106781187));
#223 = ORIENTED_EDGE('',*,*,#224,.F.);
#224 = EDGE_CURVE('',#135,#217,#225,.T.);
#225 = CIRCLE('',#226,2.2);
#226 = AXIS2_PLACEMENT_3D('',#227,#228,#229);
#227 = CARTESIAN_POINT('',(-5.,5.,1.));
#228 = DIRECTION('',(0.,0.,-1.));
#229 = DIRECTION('',(1.,0.,0.));
#230 = CONICAL_SURFACE('',#231,2.,0.785398163397);
#231 = AXIS2_PLACEMENT_3D('',#232,#233,#234);
#232 = CARTESIAN_POINT('',(-5.,5.,0.8));
#233 = DIRECTION('',(0.,0.,1.));
#234 = DIRECTION('',(1.,0.,0.));
#235 = ADVANCED_FACE('',(#236),#261,.T.);
#236 = FACE_BOUND('',#237,.T.);
#237 = EDGE_LOOP('',(#238,#239,#247,#255));
#238 = ORIENTED_EDGE('',*,*,#71,.F.);
#239 = ORIENTED_EDGE('',*,*,#240,.T.);
#240 = EDGE_CURVE('',#63,#241,#243,.T.);
#241 = VERTEX_POINT('',#242);
#242 = CARTESIAN_POINT('',(-6.,3.,0.4));
#243 = LINE('',#244,#245);
#244 = CARTESIAN_POINT('',(-5.,3.,0.4));
#245 = VECTOR('',#246,1.);
#246 = DIRECTION('',(-1.,-0.,-0.));
#247 = ORIENTED_EDGE('',*,*,#248,.T.);
#248 = EDGE_CURVE('',#241,#249,#251,.T.);
#249 = VERTEX_POINT('',#250);
#250 = CARTESIAN_POINT('',(-6.,3.,0.8));
#251 = LINE('',#252,#253);
#252 = CARTESIAN_POINT('',(-6.,3.,0.));
#253 = VECTOR('',#254,1.);
#254 = DIRECTION('',(0.,0.,1.));
#255 = ORIENTED_EDGE('',*,*,#256,.F.);
#256 = EDGE_CURVE('',#72,#249,#257,.T.);
#257 = LINE('',#258,#259);
#258 = CARTESIAN_POINT('',(-5.,3.,0.8));
#259 = VECTOR('',#260,1.);
#260 = DIRECTION('',(-1.,-0.,-0.));
#261 = PLANE('',#262);
#262 = AXIS2_PLACEMENT_3D('',#263,#264,#265);
#263 = CARTESIAN_POINT('',(-6.,3.,0.));
#264 = DIRECTION('',(0.,1.,0.));
#265 = DIRECTION('',(1.,0.,0.));
#266 = ADVANCED_FACE('',(#267),#286,.T.);
#267 = FACE_BOUND('',#268,.F.);
#268 = EDGE_LOOP('',(#269,#277,#278,#279));
#269 = ORIENTED_EDGE('',*,*,#270,.F.);
#270 = EDGE_CURVE('',#157,#271,#273,.T.);
#271 = VERTEX_POINT('',#272);
#272 = CARTESIAN_POINT('',(2.6,6.,0.));
#273 = LINE('',#274,#275);
#274 = CARTESIAN_POINT('',(2.8,6.,0.2));
#275 = VECTOR('',#276,1.);
#276 = DIRECTION('',(-0.707106781187,0.,-0.707106781187));
#277 = ORIENTED_EDGE('',*,*,#174,.T.);
#278 = ORIENTED_EDGE('',*,*,#94,.T.);
#279 = ORIENTED_EDGE('',*,*,#280,.F.);
#280 = EDGE_CURVE('',#271,#95,#281,.T.);
#281 = CIRCLE('',#282,2.6);
#282 = AXIS2_PLACEMENT_3D('',#283,#284,#285);
#283 = CARTESIAN_POINT('',(0.,6.,0.));
#284 = DIRECTION('',(0.,-0.,1.));
#285 = DIRECTION('',(1.,1.984E-14,0.));
#286 = CONICAL_SURFACE('',#287,3.,0.785398163397);
#287 = AXIS2_PLACEMENT_3D('',#288,#289,#290);
#288 = CARTESIAN_POINT('',(0.,6.,0.4));
#289 = DIRECTION('',(0.,0.,1.));
#290 = DIRECTION('',(1.,1.984E-14,-0.));
#291 = ADVANCED_FACE('',(#292,#405,#416,#427,#438,#449),#460,.F.);
#292 = FACE_BOUND('',#293,.F.);
#293 = EDGE_LOOP('',(#294,#295,#296,#304,#313,#321,#330,#338,#347,#355,
    #364,#372,#381,#389,#398,#404));
#294 = ORIENTED_EDGE('',*,*,#111,.T.);
#295 = ORIENTED_EDGE('',*,*,#199,.T.);
#296 = ORIENTED_EDGE('',*,*,#297,.T.);
#297 = EDGE_CURVE('',#192,#298,#300,.T.);
#298 = VERTEX_POINT('',#299);
#299 = CARTESIAN_POINT('',(-6.,2.6,0.));
#300 = LINE('',#301,#302);
#301 = CARTESIAN_POINT('',(-5.,2.6,0.));
#302 = VECTOR('',#303,1.);
#303 = DIRECTION('',(-1.,-0.,-0.));
#304 = ORIENTED_EDGE('',*,*,#305,.T.);
#305 = EDGE_CURVE('',#298,#306,#308,.T.);
#306 = VERTEX_POINT('',#307);
#307 = CARTESIAN_POINT('',(-6.,-2.6,0.));
#308 = CIRCLE('',#309,2.6);
#309 = AXIS2_PLACEMENT_3D('',#310,#311,#312);
#310 = CARTESIAN_POINT('',(-6.,0.,0.));
#311 = DIRECTION('',(0.,0.,1.));
#312 = DIRECTION('',(-3.E-16,1.,0.));
#313 = ORIENTED_EDGE('',*,*,#314,.T.);
#314 = EDGE_CURVE('',#306,#315,#317,.T.);
#315 = VERTEX_POINT('',#316);
#316 = CARTESIAN_POINT('',(-5.,-2.6,0.));
#317 = LINE('',#318,#319);
#318 = CARTESIAN_POINT('',(-6.,-2.6,0.));
#319 = VECTOR('',#320,1.);
#320 = DIRECTION('',(1.,0.,0.));
#321 = ORIENTED_EDGE('',*,*,#322,.T.);
#322 = EDGE_CURVE('',#315,#323,#325,.T.);
#323 = VERTEX_POINT('',#324);
#324 = CARTESIAN_POINT('',(-2.6,-5.,0.));
#325 = CIRCLE('',#326,2.4);
#326 = AXIS2_PLACEMENT_3D('',#327,#328,#329);
#327 = CARTESIAN_POINT('',(-5.,-5.,0.));
#328 = DIRECTION('',(0.,0.,-1.));
#329 = DIRECTION('',(0.,1.,0.));
#330 = ORIENTED_EDGE('',*,*,#331,.T.);
#331 = EDGE_CURVE('',#323,#332,#334,.T.);
#332 = VERTEX_POINT('',#333);
#333 = CARTESIAN_POINT('',(-2.6,-6.,0.));
#334 = LINE('',#335,#336);
#335 = CARTESIAN_POINT('',(-2.6,-5.,0.));
#336 = VECTOR('',#337,1.);
#337 = DIRECTION('',(0.,-1.,0.));
#338 = ORIENTED_EDGE('',*,*,#339,.T.);
#339 = EDGE_CURVE('',#332,#340,#342,.T.);
#340 = VERTEX_POINT('',#341);
#341 = CARTESIAN_POINT('',(2.6,-6.,0.));
#342 = CIRCLE('',#343,2.6);
#343 = AXIS2_PLACEMENT_3D('',#344,#345,#346);
#344 = CARTESIAN_POINT('',(0.,-6.,0.));
#345 = DIRECTION('',(0.,0.,1.));
#346 = DIRECTION('',(-1.,0.,0.));
#347 = ORIENTED_EDGE('',*,*,#348,.T.);
#348 = EDGE_CURVE('',#340,#349,#351,.T.);
#349 = VERTEX_POINT('',#350);
#350 = CARTESIAN_POINT('',(2.6,-5.,0.));
#351 = LINE('',#352,#353);
#352 = CARTESIAN_POINT('',(2.6,-6.,0.));
#353 = VECTOR('',#354,1.);
#354 = DIRECTION('',(0.,1.,0.));
#355 = ORIENTED_EDGE('',*,*,#356,.T.);
#356 = EDGE_CURVE('',#349,#357,#359,.T.);
#357 = VERTEX_POINT('',#358);
#358 = CARTESIAN_POINT('',(5.,-2.6,0.));
#359 = CIRCLE('',#360,2.4);
#360 = AXIS2_PLACEMENT_3D('',#361,#362,#363);
#361 = CARTESIAN_POINT('',(5.,-5.,0.));
#362 = DIRECTION('',(0.,0.,-1.));
#363 = DIRECTION('',(-1.,0.,0.));
#364 = ORIENTED_EDGE('',*,*,#365,.T.);
#365 = EDGE_CURVE('',#357,#366,#368,.T.);
#366 = VERTEX_POINT('',#367);
#367 = CARTESIAN_POINT('',(6.,-2.6,0.));
#368 = LINE('',#369,#370);
#369 = CARTESIAN_POINT('',(5.,-2.6,0.));
#370 = VECTOR('',#371,1.);
#371 = DIRECTION('',(1.,0.,0.));
#372 = ORIENTED_EDGE('',*,*,#373,.T.);
#373 = EDGE_CURVE('',#366,#374,#376,.T.);
#374 = VERTEX_POINT('',#375);
#375 = CARTESIAN_POINT('',(6.,2.6,0.));
#376 = CIRCLE('',#377,2.6);
#377 = AXIS2_PLACEMENT_3D('',#378,#379,#380);
#378 = CARTESIAN_POINT('',(6.,0.,0.));
#379 = DIRECTION('',(0.,0.,1.));
#380 = DIRECTION('',(-3.E-16,-1.,0.));
#381 = ORIENTED_EDGE('',*,*,#382,.T.);
#382 = EDGE_CURVE('',#374,#383,#385,.T.);
#383 = VERTEX_POINT('',#384);
#384 = CARTESIAN_POINT('',(5.,2.6,0.));
#385 = LINE('',#386,#387);
#386 = CARTESIAN_POINT('',(6.,2.6,0.));
#387 = VECTOR('',#388,1.);
#388 = DIRECTION('',(-1.,-0.,-0.));
#389 = ORIENTED_EDGE('',*,*,#390,.T.);
#390 = EDGE_CURVE('',#383,#391,#393,.T.);
#391 = VERTEX_POINT('',#392);
#392 = CARTESIAN_POINT('',(2.6,5.,0.));
#393 = CIRCLE('',#394,2.4);
#394 = AXIS2_PLACEMENT_3D('',#395,#396,#397);
#395 = CARTESIAN_POINT('',(5.,5.,0.));
#396 = DIRECTION('',(-0.,-0.,-1.));
#397 = DIRECTION('',(0.,-1.,0.));
#398 = ORIENTED_EDGE('',*,*,#399,.T.);
#399 = EDGE_CURVE('',#391,#271,#400,.T.);
#400 = LINE('',#401,#402);
#401 = CARTESIAN_POINT('',(2.6,5.,0.));
#402 = VECTOR('',#403,1.);
#403 = DIRECTION('',(0.,1.,0.));
#404 = ORIENTED_EDGE('',*,*,#280,.T.);
#405 = FACE_BOUND('',#406,.F.);
#406 = EDGE_LOOP('',(#407));
#407 = ORIENTED_EDGE('',*,*,#408,.F.);
#408 = EDGE_CURVE('',#409,#409,#411,.T.);
#409 = VERTEX_POINT('',#410);
#410 = CARTESIAN_POINT('',(3.9,0.,0.));
#411 = CIRCLE('',#412,3.9);
#412 = AXIS2_PLACEMENT_3D('',#413,#414,#415);
#413 = CARTESIAN_POINT('',(0.,0.,0.));
#414 = DIRECTION('',(0.,0.,1.));
#415 = DIRECTION('',(1.,0.,-0.));
#416 = FACE_BOUND('',#417,.F.);
#417 = EDGE_LOOP('',(#418));
#418 = ORIENTED_EDGE('',*,*,#419,.F.);
#419 = EDGE_CURVE('',#420,#420,#422,.T.);
#420 = VERTEX_POINT('',#421);
#421 = CARTESIAN_POINT('',(1.5,6.,0.));
#422 = CIRCLE('',#423,1.5);
#423 = AXIS2_PLACEMENT_3D('',#424,#425,#426);
#424 = CARTESIAN_POINT('',(0.,6.,0.));
#425 = DIRECTION('',(0.,0.,1.));
#426 = DIRECTION('',(1.,0.,-0.));
#427 = FACE_BOUND('',#428,.F.);
#428 = EDGE_LOOP('',(#429));
#429 = ORIENTED_EDGE('',*,*,#430,.F.);
#430 = EDGE_CURVE('',#431,#431,#433,.T.);
#431 = VERTEX_POINT('',#432);
#432 = CARTESIAN_POINT('',(7.5,0.,0.));
#433 = CIRCLE('',#434,1.5);
#434 = AXIS2_PLACEMENT_3D('',#435,#436,#437);
#435 = CARTESIAN_POINT('',(6.,0.,0.));
#436 = DIRECTION('',(0.,0.,1.));
#437 = DIRECTION('',(1.,0.,-0.));
#438 = FACE_BOUND('',#439,.F.);
#439 = EDGE_LOOP('',(#440));
#440 = ORIENTED_EDGE('',*,*,#441,.F.);
#441 = EDGE_CURVE('',#442,#442,#444,.T.);
#442 = VERTEX_POINT('',#443);
#443 = CARTESIAN_POINT('',(1.5,-6.,0.));
#444 = CIRCLE('',#445,1.5);
#445 = AXIS2_PLACEMENT_3D('',#446,#447,#448);
#446 = CARTESIAN_POINT('',(0.,-6.,0.));
#447 = DIRECTION('',(0.,0.,1.));
#448 = DIRECTION('',(1.,0.,-0.));
#449 = FACE_BOUND('',#450,.F.);
#450 = EDGE_LOOP('',(#451));
#451 = ORIENTED_EDGE('',*,*,#452,.F.);
#452 = EDGE_CURVE('',#453,#453,#455,.T.);
#453 = VERTEX_POINT('',#454);
#454 = CARTESIAN_POINT('',(-4.5,0.,0.));
#455 = CIRCLE('',#456,1.5);
#456 = AXIS2_PLACEMENT_3D('',#457,#458,#459);
#457 = CARTESIAN_POINT('',(-6.,0.,0.));
#458 = DIRECTION('',(0.,0.,1.));
#459 = DIRECTION('',(1.,0.,-0.));
#460 = PLANE('',#461);
#461 = AXIS2_PLACEMENT_3D('',#462,#463,#464);
#462 = CARTESIAN_POINT('',(7.E-17,1.45E-15,0.));
#463 = DIRECTION('',(0.,0.,1.));
#464 = DIRECTION('',(1.,0.,0.));
#465 = ADVANCED_FACE('',(#466),#485,.T.);
#466 = FACE_BOUND('',#467,.T.);
#467 = EDGE_LOOP('',(#468,#476,#477,#478));
#468 = ORIENTED_EDGE('',*,*,#469,.F.);
#469 = EDGE_CURVE('',#159,#470,#472,.T.);
#470 = VERTEX_POINT('',#471);
#471 = CARTESIAN_POINT('',(2.8,6.,1.));
#472 = LINE('',#473,#474);
#473 = CARTESIAN_POINT('',(2.9,6.,0.9));
#474 = VECTOR('',#475,1.);
#475 = DIRECTION('',(-0.707106781187,0.,0.707106781187));
#476 = ORIENTED_EDGE('',*,*,#166,.T.);
#477 = ORIENTED_EDGE('',*,*,#125,.T.);
#478 = ORIENTED_EDGE('',*,*,#479,.F.);
#479 = EDGE_CURVE('',#470,#126,#480,.T.);
#480 = CIRCLE('',#481,2.8);
#481 = AXIS2_PLACEMENT_3D('',#482,#483,#484);
#482 = CARTESIAN_POINT('',(0.,6.,1.));
#483 = DIRECTION('',(0.,-0.,1.));
#484 = DIRECTION('',(1.,1.984E-14,0.));
#485 = CONICAL_SURFACE('',#486,3.,0.785398163397);
#486 = AXIS2_PLACEMENT_3D('',#487,#488,#489);
#487 = CARTESIAN_POINT('',(0.,6.,0.8));
#488 = DIRECTION('',(-0.,-0.,-1.));
#489 = DIRECTION('',(1.,1.984E-14,0.));
#490 = ADVANCED_FACE('',(#491,#604,#615,#626,#637,#648),#659,.T.);
#491 = FACE_BOUND('',#492,.T.);
#492 = EDGE_LOOP('',(#493,#494,#495,#503,#512,#520,#529,#537,#546,#554,
    #563,#571,#580,#588,#597,#603));
#493 = ORIENTED_EDGE('',*,*,#142,.T.);
#494 = ORIENTED_EDGE('',*,*,#224,.T.);
#495 = ORIENTED_EDGE('',*,*,#496,.T.);
#496 = EDGE_CURVE('',#217,#497,#499,.T.);
#497 = VERTEX_POINT('',#498);
#498 = CARTESIAN_POINT('',(-6.,2.8,1.));
#499 = LINE('',#500,#501);
#500 = CARTESIAN_POINT('',(-5.,2.8,1.));
#501 = VECTOR('',#502,1.);
#502 = DIRECTION('',(-1.,-0.,-0.));
#503 = ORIENTED_EDGE('',*,*,#504,.T.);
#504 = EDGE_CURVE('',#497,#505,#507,.T.);
#505 = VERTEX_POINT('',#506);
#506 = CARTESIAN_POINT('',(-6.,-2.8,1.));
#507 = CIRCLE('',#508,2.8);
#508 = AXIS2_PLACEMENT_3D('',#509,#510,#511);
#509 = CARTESIAN_POINT('',(-6.,0.,1.));
#510 = DIRECTION('',(0.,0.,1.));
#511 = DIRECTION('',(-3.E-16,1.,0.));
#512 = ORIENTED_EDGE('',*,*,#513,.T.);
#513 = EDGE_CURVE('',#505,#514,#516,.T.);
#514 = VERTEX_POINT('',#515);
#515 = CARTESIAN_POINT('',(-5.,-2.8,1.));
#516 = LINE('',#517,#518);
#517 = CARTESIAN_POINT('',(-6.,-2.8,1.));
#518 = VECTOR('',#519,1.);
#519 = DIRECTION('',(1.,0.,0.));
#520 = ORIENTED_EDGE('',*,*,#521,.T.);
#521 = EDGE_CURVE('',#514,#522,#524,.T.);
#522 = VERTEX_POINT('',#523);
#523 = CARTESIAN_POINT('',(-2.8,-5.,1.));
#524 = CIRCLE('',#525,2.2);
#525 = AXIS2_PLACEMENT_3D('',#526,#527,#528);
#526 = CARTESIAN_POINT('',(-5.,-5.,1.));
#527 = DIRECTION('',(0.,0.,-1.));
#528 = DIRECTION('',(0.,1.,0.));
#529 = ORIENTED_EDGE('',*,*,#530,.T.);
#530 = EDGE_CURVE('',#522,#531,#533,.T.);
#531 = VERTEX_POINT('',#532);
#532 = CARTESIAN_POINT('',(-2.8,-6.,1.));
#533 = LINE('',#534,#535);
#534 = CARTESIAN_POINT('',(-2.8,-5.,1.));
#535 = VECTOR('',#536,1.);
#536 = DIRECTION('',(0.,-1.,0.));
#537 = ORIENTED_EDGE('',*,*,#538,.T.);
#538 = EDGE_CURVE('',#531,#539,#541,.T.);
#539 = VERTEX_POINT('',#540);
#540 = CARTESIAN_POINT('',(2.8,-6.,1.));
#541 = CIRCLE('',#542,2.8);
#542 = AXIS2_PLACEMENT_3D('',#543,#544,#545);
#543 = CARTESIAN_POINT('',(0.,-6.,1.));
#544 = DIRECTION('',(0.,0.,1.));
#545 = DIRECTION('',(-1.,0.,0.));
#546 = ORIENTED_EDGE('',*,*,#547,.T.);
#547 = EDGE_CURVE('',#539,#548,#550,.T.);
#548 = VERTEX_POINT('',#549);
#549 = CARTESIAN_POINT('',(2.8,-5.,1.));
#550 = LINE('',#551,#552);
#551 = CARTESIAN_POINT('',(2.8,-6.,1.));
#552 = VECTOR('',#553,1.);
#553 = DIRECTION('',(0.,1.,0.));
#554 = ORIENTED_EDGE('',*,*,#555,.T.);
#555 = EDGE_CURVE('',#548,#556,#558,.T.);
#556 = VERTEX_POINT('',#557);
#557 = CARTESIAN_POINT('',(5.,-2.8,1.));
#558 = CIRCLE('',#559,2.2);
#559 = AXIS2_PLACEMENT_3D('',#560,#561,#562);
#560 = CARTESIAN_POINT('',(5.,-5.,1.));
#561 = DIRECTION('',(0.,0.,-1.));
#562 = DIRECTION('',(-1.,0.,0.));
#563 = ORIENTED_EDGE('',*,*,#564,.T.);
#564 = EDGE_CURVE('',#556,#565,#567,.T.);
#565 = VERTEX_POINT('',#566);
#566 = CARTESIAN_POINT('',(6.,-2.8,1.));
#567 = LINE('',#568,#569);
#568 = CARTESIAN_POINT('',(5.,-2.8,1.));
#569 = VECTOR('',#570,1.);
#570 = DIRECTION('',(1.,0.,0.));
#571 = ORIENTED_EDGE('',*,*,#572,.T.);
#572 = EDGE_CURVE('',#565,#573,#575,.T.);
#573 = VERTEX_POINT('',#574);
#574 = CARTESIAN_POINT('',(6.,2.8,1.));
#575 = CIRCLE('',#576,2.8);
#576 = AXIS2_PLACEMENT_3D('',#577,#578,#579);
#577 = CARTESIAN_POINT('',(6.,0.,1.));
#578 = DIRECTION('',(0.,0.,1.));
#579 = DIRECTION('',(-3.E-16,-1.,0.));
#580 = ORIENTED_EDGE('',*,*,#581,.T.);
#581 = EDGE_CURVE('',#573,#582,#584,.T.);
#582 = VERTEX_POINT('',#583);
#583 = CARTESIAN_POINT('',(5.,2.8,1.));
#584 = LINE('',#585,#586);
#585 = CARTESIAN_POINT('',(6.,2.8,1.));
#586 = VECTOR('',#587,1.);
#587 = DIRECTION('',(-1.,-0.,-0.));
#588 = ORIENTED_EDGE('',*,*,#589,.T.);
#589 = EDGE_CURVE('',#582,#590,#592,.T.);
#590 = VERTEX_POINT('',#591);
#591 = CARTESIAN_POINT('',(2.8,5.,1.));
#592 = CIRCLE('',#593,2.2);
#593 = AXIS2_PLACEMENT_3D('',#594,#595,#596);
#594 = CARTESIAN_POINT('',(5.,5.,1.));
#595 = DIRECTION('',(-0.,-0.,-1.));
#596 = DIRECTION('',(0.,-1.,0.));
#597 = ORIENTED_EDGE('',*,*,#598,.T.);
#598 = EDGE_CURVE('',#590,#470,#599,.T.);
#599 = LINE('',#600,#601);
#600 = CARTESIAN_POINT('',(2.8,5.,1.));
#601 = VECTOR('',#602,1.);
#602 = DIRECTION('',(0.,1.,0.));
#603 = ORIENTED_EDGE('',*,*,#479,.T.);
#604 = FACE_BOUND('',#605,.T.);
#605 = EDGE_LOOP('',(#606));
#606 = ORIENTED_EDGE('',*,*,#607,.F.);
#607 = EDGE_CURVE('',#608,#608,#610,.T.);
#608 = VERTEX_POINT('',#609);
#609 = CARTESIAN_POINT('',(3.7,0.,1.));
#610 = CIRCLE('',#611,3.7);
#611 = AXIS2_PLACEMENT_3D('',#612,#613,#614);
#612 = CARTESIAN_POINT('',(0.,0.,1.));
#613 = DIRECTION('',(0.,0.,1.));
#614 = DIRECTION('',(1.,0.,0.));
#615 = FACE_BOUND('',#616,.T.);
#616 = EDGE_LOOP('',(#617));
#617 = ORIENTED_EDGE('',*,*,#618,.F.);
#618 = EDGE_CURVE('',#619,#619,#621,.T.);
#619 = VERTEX_POINT('',#620);
#620 = CARTESIAN_POINT('',(1.3,6.,1.));
#621 = CIRCLE('',#622,1.3);
#622 = AXIS2_PLACEMENT_3D('',#623,#624,#625);
#623 = CARTESIAN_POINT('',(0.,6.,1.));
#624 = DIRECTION('',(0.,0.,1.));
#625 = DIRECTION('',(1.,0.,0.));
#626 = FACE_BOUND('',#627,.T.);
#627 = EDGE_LOOP('',(#628));
#628 = ORIENTED_EDGE('',*,*,#629,.F.);
#629 = EDGE_CURVE('',#630,#630,#632,.T.);
#630 = VERTEX_POINT('',#631);
#631 = CARTESIAN_POINT('',(7.3,0.,1.));
#632 = CIRCLE('',#633,1.3);
#633 = AXIS2_PLACEMENT_3D('',#634,#635,#636);
#634 = CARTESIAN_POINT('',(6.,0.,1.));
#635 = DIRECTION('',(0.,0.,1.));
#636 = DIRECTION('',(1.,0.,0.));
#637 = FACE_BOUND('',#638,.T.);
#638 = EDGE_LOOP('',(#639));
#639 = ORIENTED_EDGE('',*,*,#640,.F.);
#640 = EDGE_CURVE('',#641,#641,#643,.T.);
#641 = VERTEX_POINT('',#642);
#642 = CARTESIAN_POINT('',(1.3,-6.,1.));
#643 = CIRCLE('',#644,1.3);
#644 = AXIS2_PLACEMENT_3D('',#645,#646,#647);
#645 = CARTESIAN_POINT('',(0.,-6.,1.));
#646 = DIRECTION('',(0.,0.,1.));
#647 = DIRECTION('',(1.,0.,0.));
#648 = FACE_BOUND('',#649,.T.);
#649 = EDGE_LOOP('',(#650));
#650 = ORIENTED_EDGE('',*,*,#651,.F.);
#651 = EDGE_CURVE('',#652,#652,#654,.T.);
#652 = VERTEX_POINT('',#653);
#653 = CARTESIAN_POINT('',(-4.7,0.,1.));
#654 = CIRCLE('',#655,1.3);
#655 = AXIS2_PLACEMENT_3D('',#656,#657,#658);
#656 = CARTESIAN_POINT('',(-6.,0.,1.));
#657 = DIRECTION('',(0.,0.,1.));
#658 = DIRECTION('',(1.,0.,0.));
#659 = PLANE('',#660);
#660 = AXIS2_PLACEMENT_3D('',#661,#662,#663);
#661 = CARTESIAN_POINT('',(7.E-17,1.45E-15,1.));
#662 = DIRECTION('',(0.,0.,1.));
#663 = DIRECTION('',(1.,0.,0.));
#664 = ADVANCED_FACE('',(#665),#690,.T.);
#665 = FACE_BOUND('',#666,.T.);
#666 = EDGE_LOOP('',(#667,#677,#683,#684));
#667 = ORIENTED_EDGE('',*,*,#668,.F.);
#668 = EDGE_CURVE('',#669,#671,#673,.T.);
#669 = VERTEX_POINT('',#670);
#670 = CARTESIAN_POINT('',(3.,5.,0.4));
#671 = VERTEX_POINT('',#672);
#672 = CARTESIAN_POINT('',(3.,5.,0.8));
#673 = LINE('',#674,#675);
#674 = CARTESIAN_POINT('',(3.,5.,0.));
#675 = VECTOR('',#676,1.);
#676 = DIRECTION('',(0.,0.,1.));
#677 = ORIENTED_EDGE('',*,*,#678,.T.);
#678 = EDGE_CURVE('',#669,#157,#679,.T.);
#679 = LINE('',#680,#681);
#680 = CARTESIAN_POINT('',(3.,5.,0.4));
#681 = VECTOR('',#682,1.);
#682 = DIRECTION('',(0.,1.,0.));
#683 = ORIENTED_EDGE('',*,*,#156,.T.);
#684 = ORIENTED_EDGE('',*,*,#685,.F.);
#685 = EDGE_CURVE('',#671,#159,#686,.T.);
#686 = LINE('',#687,#688);
#687 = CARTESIAN_POINT('',(3.,5.,0.8));
#688 = VECTOR('',#689,1.);
#689 = DIRECTION('',(0.,1.,0.));
#690 = PLANE('',#691);
#691 = AXIS2_PLACEMENT_3D('',#692,#693,#694);
#692 = CARTESIAN_POINT('',(3.,6.,0.));
#693 = DIRECTION('',(1.,0.,0.));
#694 = DIRECTION('',(0.,-1.,0.));
#695 = ADVANCED_FACE('',(#696),#707,.F.);
#696 = FACE_BOUND('',#697,.F.);
#697 = EDGE_LOOP('',(#698,#699,#700,#706));
#698 = ORIENTED_EDGE('',*,*,#191,.F.);
#699 = ORIENTED_EDGE('',*,*,#240,.T.);
#700 = ORIENTED_EDGE('',*,*,#701,.T.);
#701 = EDGE_CURVE('',#241,#298,#702,.T.);
#702 = LINE('',#703,#704);
#703 = CARTESIAN_POINT('',(-6.,2.8,0.2));
#704 = VECTOR('',#705,1.);
#705 = DIRECTION('',(0.,-0.707106781187,-0.707106781187));
#706 = ORIENTED_EDGE('',*,*,#297,.F.);
#707 = PLANE('',#708);
#708 = AXIS2_PLACEMENT_3D('',#709,#710,#711);
#709 = CARTESIAN_POINT('',(-5.,2.8,0.2));
#710 = DIRECTION('',(-0.,-0.707106781187,0.707106781187));
#711 = DIRECTION('',(-1.,0.,0.));
#712 = ADVANCED_FACE('',(#713),#724,.T.);
#713 = FACE_BOUND('',#714,.T.);
#714 = EDGE_LOOP('',(#715,#716,#717,#723));
#715 = ORIENTED_EDGE('',*,*,#216,.F.);
#716 = ORIENTED_EDGE('',*,*,#256,.T.);
#717 = ORIENTED_EDGE('',*,*,#718,.T.);
#718 = EDGE_CURVE('',#249,#497,#719,.T.);
#719 = LINE('',#720,#721);
#720 = CARTESIAN_POINT('',(-6.,2.9,0.9));
#721 = VECTOR('',#722,1.);
#722 = DIRECTION('',(0.,-0.707106781187,0.707106781187));
#723 = ORIENTED_EDGE('',*,*,#496,.F.);
#724 = PLANE('',#725);
#725 = AXIS2_PLACEMENT_3D('',#726,#727,#728);
#726 = CARTESIAN_POINT('',(-5.,2.9,0.9));
#727 = DIRECTION('',(0.,0.707106781187,0.707106781187));
#728 = DIRECTION('',(-1.,0.,0.));
#729 = ADVANCED_FACE('',(#730),#757,.T.);
#730 = FACE_BOUND('',#731,.F.);
#731 = EDGE_LOOP('',(#732,#733,#742,#750));
#732 = ORIENTED_EDGE('',*,*,#248,.T.);
#733 = ORIENTED_EDGE('',*,*,#734,.T.);
#734 = EDGE_CURVE('',#249,#735,#737,.T.);
#735 = VERTEX_POINT('',#736);
#736 = CARTESIAN_POINT('',(-6.,-3.,0.8));
#737 = CIRCLE('',#738,3.);
#738 = AXIS2_PLACEMENT_3D('',#739,#740,#741);
#739 = CARTESIAN_POINT('',(-6.,0.,0.8));
#740 = DIRECTION('',(0.,0.,1.));
#741 = DIRECTION('',(-3.E-16,1.,0.));
#742 = ORIENTED_EDGE('',*,*,#743,.F.);
#743 = EDGE_CURVE('',#744,#735,#746,.T.);
#744 = VERTEX_POINT('',#745);
#745 = CARTESIAN_POINT('',(-6.,-3.,0.4));
#746 = LINE('',#747,#748);
#747 = CARTESIAN_POINT('',(-6.,-3.,0.));
#748 = VECTOR('',#749,1.);
#749 = DIRECTION('',(0.,0.,1.));
#750 = ORIENTED_EDGE('',*,*,#751,.F.);
#751 = EDGE_CURVE('',#241,#744,#752,.T.);
#752 = CIRCLE('',#753,3.);
#753 = AXIS2_PLACEMENT_3D('',#754,#755,#756);
#754 = CARTESIAN_POINT('',(-6.,0.,0.4));
#755 = DIRECTION('',(0.,0.,1.));
#756 = DIRECTION('',(-3.E-16,1.,0.));
#757 = CYLINDRICAL_SURFACE('',#758,3.);
#758 = AXIS2_PLACEMENT_3D('',#759,#760,#761);
#759 = CARTESIAN_POINT('',(-6.,0.,0.));
#760 = DIRECTION('',(-0.,-0.,-1.));
#761 = DIRECTION('',(1.,0.,0.));
#762 = ADVANCED_FACE('',(#763),#774,.F.);
#763 = FACE_BOUND('',#764,.F.);
#764 = EDGE_LOOP('',(#765,#771,#772,#773));
#765 = ORIENTED_EDGE('',*,*,#766,.F.);
#766 = EDGE_CURVE('',#669,#391,#767,.T.);
#767 = LINE('',#768,#769);
#768 = CARTESIAN_POINT('',(3.,5.,0.4));
#769 = VECTOR('',#770,1.);
#770 = DIRECTION('',(-0.707106781187,-4.E-17,-0.707106781187));
#771 = ORIENTED_EDGE('',*,*,#678,.T.);
#772 = ORIENTED_EDGE('',*,*,#270,.T.);
#773 = ORIENTED_EDGE('',*,*,#399,.F.);
#774 = PLANE('',#775);
#775 = AXIS2_PLACEMENT_3D('',#776,#777,#778);
#776 = CARTESIAN_POINT('',(2.8,5.,0.2));
#777 = DIRECTION('',(-0.707106781187,0.,0.707106781187));
#778 = DIRECTION('',(0.,1.,-0.));
#779 = ADVANCED_FACE('',(#780),#799,.F.);
#780 = FACE_BOUND('',#781,.F.);
#781 = EDGE_LOOP('',(#782,#790,#797,#798));
#782 = ORIENTED_EDGE('',*,*,#783,.F.);
#783 = EDGE_CURVE('',#784,#383,#786,.T.);
#784 = VERTEX_POINT('',#785);
#785 = CARTESIAN_POINT('',(5.,3.,0.4));
#786 = LINE('',#787,#788);
#787 = CARTESIAN_POINT('',(5.,2.8,0.2));
#788 = VECTOR('',#789,1.);
#789 = DIRECTION('',(0.,-0.707106781187,-0.707106781187));
#790 = ORIENTED_EDGE('',*,*,#791,.T.);
#791 = EDGE_CURVE('',#784,#669,#792,.T.);
#792 = CIRCLE('',#793,2.);
#793 = AXIS2_PLACEMENT_3D('',#794,#795,#796);
#794 = CARTESIAN_POINT('',(5.,5.,0.4));
#795 = DIRECTION('',(-0.,-0.,-1.));
#796 = DIRECTION('',(0.,-1.,0.));
#797 = ORIENTED_EDGE('',*,*,#766,.T.);
#798 = ORIENTED_EDGE('',*,*,#390,.F.);
#799 = CONICAL_SURFACE('',#800,2.,0.785398163397);
#800 = AXIS2_PLACEMENT_3D('',#801,#802,#803);
#801 = CARTESIAN_POINT('',(5.,5.,0.4));
#802 = DIRECTION('',(-0.,-0.,-1.));
#803 = DIRECTION('',(0.,-1.,0.));
#804 = ADVANCED_FACE('',(#805),#816,.T.);
#805 = FACE_BOUND('',#806,.F.);
#806 = EDGE_LOOP('',(#807,#808,#809,#815));
#807 = ORIENTED_EDGE('',*,*,#701,.F.);
#808 = ORIENTED_EDGE('',*,*,#751,.T.);
#809 = ORIENTED_EDGE('',*,*,#810,.T.);
#810 = EDGE_CURVE('',#744,#306,#811,.T.);
#811 = LINE('',#812,#813);
#812 = CARTESIAN_POINT('',(-6.,-3.,0.4));
#813 = VECTOR('',#814,1.);
#814 = DIRECTION('',(1.9E-16,0.707106781187,-0.707106781187));
#815 = ORIENTED_EDGE('',*,*,#305,.F.);
#816 = CONICAL_SURFACE('',#817,3.,0.785398163397);
#817 = AXIS2_PLACEMENT_3D('',#818,#819,#820);
#818 = CARTESIAN_POINT('',(-6.,0.,0.4));
#819 = DIRECTION('',(0.,0.,1.));
#820 = DIRECTION('',(-3.E-16,1.,0.));
#821 = ADVANCED_FACE('',(#822),#840,.F.);
#822 = FACE_BOUND('',#823,.F.);
#823 = EDGE_LOOP('',(#824,#832,#838,#839));
#824 = ORIENTED_EDGE('',*,*,#825,.F.);
#825 = EDGE_CURVE('',#826,#374,#828,.T.);
#826 = VERTEX_POINT('',#827);
#827 = CARTESIAN_POINT('',(6.,3.,0.4));
#828 = LINE('',#829,#830);
#829 = CARTESIAN_POINT('',(6.,3.,0.4));
#830 = VECTOR('',#831,1.);
#831 = DIRECTION('',(-3.E-16,-0.707106781187,-0.707106781187));
#832 = ORIENTED_EDGE('',*,*,#833,.T.);
#833 = EDGE_CURVE('',#826,#784,#834,.T.);
#834 = LINE('',#835,#836);
#835 = CARTESIAN_POINT('',(6.,3.,0.4));
#836 = VECTOR('',#837,1.);
#837 = DIRECTION('',(-1.,-0.,-0.));
#838 = ORIENTED_EDGE('',*,*,#783,.T.);
#839 = ORIENTED_EDGE('',*,*,#382,.F.);
#840 = PLANE('',#841);
#841 = AXIS2_PLACEMENT_3D('',#842,#843,#844);
#842 = CARTESIAN_POINT('',(6.,2.8,0.2));
#843 = DIRECTION('',(-0.,-0.707106781187,0.707106781187));
#844 = DIRECTION('',(-1.,0.,0.));
#845 = ADVANCED_FACE('',(#846),#864,.T.);
#846 = FACE_BOUND('',#847,.F.);
#847 = EDGE_LOOP('',(#848,#849,#857,#863));
#848 = ORIENTED_EDGE('',*,*,#810,.F.);
#849 = ORIENTED_EDGE('',*,*,#850,.T.);
#850 = EDGE_CURVE('',#744,#851,#853,.T.);
#851 = VERTEX_POINT('',#852);
#852 = CARTESIAN_POINT('',(-5.,-3.,0.4));
#853 = LINE('',#854,#855);
#854 = CARTESIAN_POINT('',(-6.,-3.,0.4));
#855 = VECTOR('',#856,1.);
#856 = DIRECTION('',(1.,0.,0.));
#857 = ORIENTED_EDGE('',*,*,#858,.T.);
#858 = EDGE_CURVE('',#851,#315,#859,.T.);
#859 = LINE('',#860,#861);
#860 = CARTESIAN_POINT('',(-5.,-2.8,0.2));
#861 = VECTOR('',#862,1.);
#862 = DIRECTION('',(0.,0.707106781187,-0.707106781187));
#863 = ORIENTED_EDGE('',*,*,#314,.F.);
#864 = PLANE('',#865);
#865 = AXIS2_PLACEMENT_3D('',#866,#867,#868);
#866 = CARTESIAN_POINT('',(-6.,-2.8,0.2));
#867 = DIRECTION('',(0.,-0.707106781187,-0.707106781187));
#868 = DIRECTION('',(-1.,-0.,-0.));
#869 = ADVANCED_FACE('',(#870),#889,.T.);
#870 = FACE_BOUND('',#871,.F.);
#871 = EDGE_LOOP('',(#872,#880,#887,#888));
#872 = ORIENTED_EDGE('',*,*,#873,.F.);
#873 = EDGE_CURVE('',#874,#366,#876,.T.);
#874 = VERTEX_POINT('',#875);
#875 = CARTESIAN_POINT('',(6.,-3.,0.4));
#876 = LINE('',#877,#878);
#877 = CARTESIAN_POINT('',(6.,-2.8,0.2));
#878 = VECTOR('',#879,1.);
#879 = DIRECTION('',(0.,0.707106781187,-0.707106781187));
#880 = ORIENTED_EDGE('',*,*,#881,.T.);
#881 = EDGE_CURVE('',#874,#826,#882,.T.);
#882 = CIRCLE('',#883,3.);
#883 = AXIS2_PLACEMENT_3D('',#884,#885,#886);
#884 = CARTESIAN_POINT('',(6.,0.,0.4));
#885 = DIRECTION('',(0.,0.,1.));
#886 = DIRECTION('',(-3.E-16,-1.,0.));
#887 = ORIENTED_EDGE('',*,*,#825,.T.);
#888 = ORIENTED_EDGE('',*,*,#373,.F.);
#889 = CONICAL_SURFACE('',#890,3.,0.785398163397);
#890 = AXIS2_PLACEMENT_3D('',#891,#892,#893);
#891 = CARTESIAN_POINT('',(6.,0.,0.4));
#892 = DIRECTION('',(0.,0.,1.));
#893 = DIRECTION('',(-3.E-16,-1.,0.));
#894 = ADVANCED_FACE('',(#895),#914,.F.);
#895 = FACE_BOUND('',#896,.F.);
#896 = EDGE_LOOP('',(#897,#898,#907,#913));
#897 = ORIENTED_EDGE('',*,*,#858,.F.);
#898 = ORIENTED_EDGE('',*,*,#899,.T.);
#899 = EDGE_CURVE('',#851,#900,#902,.T.);
#900 = VERTEX_POINT('',#901);
#901 = CARTESIAN_POINT('',(-3.,-5.,0.4));
#902 = CIRCLE('',#903,2.);
#903 = AXIS2_PLACEMENT_3D('',#904,#905,#906);
#904 = CARTESIAN_POINT('',(-5.,-5.,0.4));
#905 = DIRECTION('',(0.,0.,-1.));
#906 = DIRECTION('',(0.,1.,0.));
#907 = ORIENTED_EDGE('',*,*,#908,.T.);
#908 = EDGE_CURVE('',#900,#323,#909,.T.);
#909 = LINE('',#910,#911);
#910 = CARTESIAN_POINT('',(-3.,-5.,0.4));
#911 = VECTOR('',#912,1.);
#912 = DIRECTION('',(0.707106781187,4.E-17,-0.707106781187));
#913 = ORIENTED_EDGE('',*,*,#322,.F.);
#914 = CONICAL_SURFACE('',#915,2.,0.785398163397);
#915 = AXIS2_PLACEMENT_3D('',#916,#917,#918);
#916 = CARTESIAN_POINT('',(-5.,-5.,0.4));
#917 = DIRECTION('',(-0.,-0.,-1.));
#918 = DIRECTION('',(0.,1.,-0.));
#919 = ADVANCED_FACE('',(#920),#938,.T.);
#920 = FACE_BOUND('',#921,.F.);
#921 = EDGE_LOOP('',(#922,#930,#936,#937));
#922 = ORIENTED_EDGE('',*,*,#923,.F.);
#923 = EDGE_CURVE('',#924,#357,#926,.T.);
#924 = VERTEX_POINT('',#925);
#925 = CARTESIAN_POINT('',(5.,-3.,0.4));
#926 = LINE('',#927,#928);
#927 = CARTESIAN_POINT('',(5.,-3.,0.4));
#928 = VECTOR('',#929,1.);
#929 = DIRECTION('',(-4.E-17,0.707106781187,-0.707106781187));
#930 = ORIENTED_EDGE('',*,*,#931,.T.);
#931 = EDGE_CURVE('',#924,#874,#932,.T.);
#932 = LINE('',#933,#934);
#933 = CARTESIAN_POINT('',(5.,-3.,0.4));
#934 = VECTOR('',#935,1.);
#935 = DIRECTION('',(1.,0.,0.));
#936 = ORIENTED_EDGE('',*,*,#873,.T.);
#937 = ORIENTED_EDGE('',*,*,#365,.F.);
#938 = PLANE('',#939);
#939 = AXIS2_PLACEMENT_3D('',#940,#941,#942);
#940 = CARTESIAN_POINT('',(5.,-2.8,0.2));
#941 = DIRECTION('',(0.,-0.707106781187,-0.707106781187));
#942 = DIRECTION('',(-1.,-0.,-0.));
#943 = ADVANCED_FACE('',(#944),#962,.T.);
#944 = FACE_BOUND('',#945,.F.);
#945 = EDGE_LOOP('',(#946,#947,#955,#961));
#946 = ORIENTED_EDGE('',*,*,#908,.F.);
#947 = ORIENTED_EDGE('',*,*,#948,.T.);
#948 = EDGE_CURVE('',#900,#949,#951,.T.);
#949 = VERTEX_POINT('',#950);
#950 = CARTESIAN_POINT('',(-3.,-6.,0.4));
#951 = LINE('',#952,#953);
#952 = CARTESIAN_POINT('',(-3.,-5.,0.4));
#953 = VECTOR('',#954,1.);
#954 = DIRECTION('',(0.,-1.,0.));
#955 = ORIENTED_EDGE('',*,*,#956,.T.);
#956 = EDGE_CURVE('',#949,#332,#957,.T.);
#957 = LINE('',#958,#959);
#958 = CARTESIAN_POINT('',(-2.8,-6.,0.2));
#959 = VECTOR('',#960,1.);
#960 = DIRECTION('',(0.707106781187,0.,-0.707106781187));
#961 = ORIENTED_EDGE('',*,*,#331,.F.);
#962 = PLANE('',#963);
#963 = AXIS2_PLACEMENT_3D('',#964,#965,#966);
#964 = CARTESIAN_POINT('',(-2.8,-5.,0.2));
#965 = DIRECTION('',(-0.707106781187,-0.,-0.707106781187));
#966 = DIRECTION('',(-0.,1.,-0.));
#967 = ADVANCED_FACE('',(#968),#987,.F.);
#968 = FACE_BOUND('',#969,.F.);
#969 = EDGE_LOOP('',(#970,#978,#985,#986));
#970 = ORIENTED_EDGE('',*,*,#971,.F.);
#971 = EDGE_CURVE('',#972,#349,#974,.T.);
#972 = VERTEX_POINT('',#973);
#973 = CARTESIAN_POINT('',(3.,-5.,0.4));
#974 = LINE('',#975,#976);
#975 = CARTESIAN_POINT('',(2.8,-5.,0.2));
#976 = VECTOR('',#977,1.);
#977 = DIRECTION('',(-0.707106781187,0.,-0.707106781187));
#978 = ORIENTED_EDGE('',*,*,#979,.T.);
#979 = EDGE_CURVE('',#972,#924,#980,.T.);
#980 = CIRCLE('',#981,2.);
#981 = AXIS2_PLACEMENT_3D('',#982,#983,#984);
#982 = CARTESIAN_POINT('',(5.,-5.,0.4));
#983 = DIRECTION('',(0.,0.,-1.));
#984 = DIRECTION('',(-1.,0.,0.));
#985 = ORIENTED_EDGE('',*,*,#923,.T.);
#986 = ORIENTED_EDGE('',*,*,#356,.F.);
#987 = CONICAL_SURFACE('',#988,2.,0.785398163397);
#988 = AXIS2_PLACEMENT_3D('',#989,#990,#991);
#989 = CARTESIAN_POINT('',(5.,-5.,0.4));
#990 = DIRECTION('',(-0.,-0.,-1.));
#991 = DIRECTION('',(-1.,0.,0.));
#992 = ADVANCED_FACE('',(#993),#1012,.T.);
#993 = FACE_BOUND('',#994,.F.);
#994 = EDGE_LOOP('',(#995,#996,#1005,#1011));
#995 = ORIENTED_EDGE('',*,*,#956,.F.);
#996 = ORIENTED_EDGE('',*,*,#997,.T.);
#997 = EDGE_CURVE('',#949,#998,#1000,.T.);
#998 = VERTEX_POINT('',#999);
#999 = CARTESIAN_POINT('',(3.,-6.,0.4));
#1000 = CIRCLE('',#1001,3.);
#1001 = AXIS2_PLACEMENT_3D('',#1002,#1003,#1004);
#1002 = CARTESIAN_POINT('',(0.,-6.,0.4));
#1003 = DIRECTION('',(0.,0.,1.));
#1004 = DIRECTION('',(-1.,0.,0.));
#1005 = ORIENTED_EDGE('',*,*,#1006,.T.);
#1006 = EDGE_CURVE('',#998,#340,#1007,.T.);
#1007 = LINE('',#1008,#1009);
#1008 = CARTESIAN_POINT('',(3.,-6.,0.4));
#1009 = VECTOR('',#1010,1.);
#1010 = DIRECTION('',(-0.707106781187,-5.4E-16,-0.707106781187));
#1011 = ORIENTED_EDGE('',*,*,#339,.F.);
#1012 = CONICAL_SURFACE('',#1013,3.,0.785398163397);
#1013 = AXIS2_PLACEMENT_3D('',#1014,#1015,#1016);
#1014 = CARTESIAN_POINT('',(0.,-6.,0.4));
#1015 = DIRECTION('',(0.,0.,1.));
#1016 = DIRECTION('',(-1.,0.,0.));
#1017 = ADVANCED_FACE('',(#1018),#1029,.F.);
#1018 = FACE_BOUND('',#1019,.F.);
#1019 = EDGE_LOOP('',(#1020,#1021,#1027,#1028));
#1020 = ORIENTED_EDGE('',*,*,#1006,.F.);
#1021 = ORIENTED_EDGE('',*,*,#1022,.T.);
#1022 = EDGE_CURVE('',#998,#972,#1023,.T.);
#1023 = LINE('',#1024,#1025);
#1024 = CARTESIAN_POINT('',(3.,-6.,0.4));
#1025 = VECTOR('',#1026,1.);
#1026 = DIRECTION('',(0.,1.,0.));
#1027 = ORIENTED_EDGE('',*,*,#971,.T.);
#1028 = ORIENTED_EDGE('',*,*,#348,.F.);
#1029 = PLANE('',#1030);
#1030 = AXIS2_PLACEMENT_3D('',#1031,#1032,#1033);
#1031 = CARTESIAN_POINT('',(2.8,-6.,0.2));
#1032 = DIRECTION('',(-0.707106781187,0.,0.707106781187));
#1033 = DIRECTION('',(0.,1.,-0.));
#1034 = ADVANCED_FACE('',(#1035),#1054,.F.);
#1035 = FACE_BOUND('',#1036,.F.);
#1036 = EDGE_LOOP('',(#1037,#1045,#1046,#1047));
#1037 = ORIENTED_EDGE('',*,*,#1038,.F.);
#1038 = EDGE_CURVE('',#409,#1039,#1041,.T.);
#1039 = VERTEX_POINT('',#1040);
#1040 = CARTESIAN_POINT('',(3.5,0.,0.4));
#1041 = LINE('',#1042,#1043);
#1042 = CARTESIAN_POINT('',(3.5,0.,0.4));
#1043 = VECTOR('',#1044,1.);
#1044 = DIRECTION('',(-0.707106781187,0.,0.707106781187));
#1045 = ORIENTED_EDGE('',*,*,#408,.T.);
#1046 = ORIENTED_EDGE('',*,*,#1038,.T.);
#1047 = ORIENTED_EDGE('',*,*,#1048,.F.);
#1048 = EDGE_CURVE('',#1039,#1039,#1049,.T.);
#1049 = CIRCLE('',#1050,3.5);
#1050 = AXIS2_PLACEMENT_3D('',#1051,#1052,#1053);
#1051 = CARTESIAN_POINT('',(0.,0.,0.4));
#1052 = DIRECTION('',(0.,0.,1.));
#1053 = DIRECTION('',(1.,0.,-0.));
#1054 = CONICAL_SURFACE('',#1055,3.5,0.785398163397);
#1055 = AXIS2_PLACEMENT_3D('',#1056,#1057,#1058);
#1056 = CARTESIAN_POINT('',(0.,0.,0.4));
#1057 = DIRECTION('',(-0.,-0.,-1.));
#1058 = DIRECTION('',(1.,0.,-0.));
#1059 = ADVANCED_FACE('',(#1060),#1079,.F.);
#1060 = FACE_BOUND('',#1061,.F.);
#1061 = EDGE_LOOP('',(#1062,#1070,#1071,#1072));
#1062 = ORIENTED_EDGE('',*,*,#1063,.F.);
#1063 = EDGE_CURVE('',#420,#1064,#1066,.T.);
#1064 = VERTEX_POINT('',#1065);
#1065 = CARTESIAN_POINT('',(1.1,6.,0.4));
#1066 = LINE('',#1067,#1068);
#1067 = CARTESIAN_POINT('',(1.1,6.,0.4));
#1068 = VECTOR('',#1069,1.);
#1069 = DIRECTION('',(-0.707106781187,0.,0.707106781187));
#1070 = ORIENTED_EDGE('',*,*,#419,.T.);
#1071 = ORIENTED_EDGE('',*,*,#1063,.T.);
#1072 = ORIENTED_EDGE('',*,*,#1073,.F.);
#1073 = EDGE_CURVE('',#1064,#1064,#1074,.T.);
#1074 = CIRCLE('',#1075,1.1);
#1075 = AXIS2_PLACEMENT_3D('',#1076,#1077,#1078);
#1076 = CARTESIAN_POINT('',(0.,6.,0.4));
#1077 = DIRECTION('',(0.,0.,1.));
#1078 = DIRECTION('',(1.,0.,-0.));
#1079 = CONICAL_SURFACE('',#1080,1.1,0.785398163397);
#1080 = AXIS2_PLACEMENT_3D('',#1081,#1082,#1083);
#1081 = CARTESIAN_POINT('',(0.,6.,0.4));
#1082 = DIRECTION('',(-0.,-0.,-1.));
#1083 = DIRECTION('',(1.,0.,-0.));
#1084 = ADVANCED_FACE('',(#1085),#1104,.F.);
#1085 = FACE_BOUND('',#1086,.F.);
#1086 = EDGE_LOOP('',(#1087,#1095,#1096,#1097));
#1087 = ORIENTED_EDGE('',*,*,#1088,.F.);
#1088 = EDGE_CURVE('',#431,#1089,#1091,.T.);
#1089 = VERTEX_POINT('',#1090);
#1090 = CARTESIAN_POINT('',(7.1,0.,0.4));
#1091 = LINE('',#1092,#1093);
#1092 = CARTESIAN_POINT('',(7.1,0.,0.4));
#1093 = VECTOR('',#1094,1.);
#1094 = DIRECTION('',(-0.707106781187,0.,0.707106781187));
#1095 = ORIENTED_EDGE('',*,*,#430,.T.);
#1096 = ORIENTED_EDGE('',*,*,#1088,.T.);
#1097 = ORIENTED_EDGE('',*,*,#1098,.F.);
#1098 = EDGE_CURVE('',#1089,#1089,#1099,.T.);
#1099 = CIRCLE('',#1100,1.1);
#1100 = AXIS2_PLACEMENT_3D('',#1101,#1102,#1103);
#1101 = CARTESIAN_POINT('',(6.,0.,0.4));
#1102 = DIRECTION('',(0.,0.,1.));
#1103 = DIRECTION('',(1.,0.,-0.));
#1104 = CONICAL_SURFACE('',#1105,1.1,0.785398163397);
#1105 = AXIS2_PLACEMENT_3D('',#1106,#1107,#1108);
#1106 = CARTESIAN_POINT('',(6.,0.,0.4));
#1107 = DIRECTION('',(-0.,-0.,-1.));
#1108 = DIRECTION('',(1.,0.,-0.));
#1109 = ADVANCED_FACE('',(#1110),#1129,.F.);
#1110 = FACE_BOUND('',#1111,.F.);
#1111 = EDGE_LOOP('',(#1112,#1120,#1121,#1122));
#1112 = ORIENTED_EDGE('',*,*,#1113,.F.);
#1113 = EDGE_CURVE('',#442,#1114,#1116,.T.);
#1114 = VERTEX_POINT('',#1115);
#1115 = CARTESIAN_POINT('',(1.1,-6.,0.4));
#1116 = LINE('',#1117,#1118);
#1117 = CARTESIAN_POINT('',(1.1,-6.,0.4));
#1118 = VECTOR('',#1119,1.);
#1119 = DIRECTION('',(-0.707106781187,0.,0.707106781187));
#1120 = ORIENTED_EDGE('',*,*,#441,.T.);
#1121 = ORIENTED_EDGE('',*,*,#1113,.T.);
#1122 = ORIENTED_EDGE('',*,*,#1123,.F.);
#1123 = EDGE_CURVE('',#1114,#1114,#1124,.T.);
#1124 = CIRCLE('',#1125,1.1);
#1125 = AXIS2_PLACEMENT_3D('',#1126,#1127,#1128);
#1126 = CARTESIAN_POINT('',(0.,-6.,0.4));
#1127 = DIRECTION('',(0.,0.,1.));
#1128 = DIRECTION('',(1.,0.,-0.));
#1129 = CONICAL_SURFACE('',#1130,1.1,0.785398163397);
#1130 = AXIS2_PLACEMENT_3D('',#1131,#1132,#1133);
#1131 = CARTESIAN_POINT('',(0.,-6.,0.4));
#1132 = DIRECTION('',(-0.,-0.,-1.));
#1133 = DIRECTION('',(1.,0.,-0.));
#1134 = ADVANCED_FACE('',(#1135),#1154,.F.);
#1135 = FACE_BOUND('',#1136,.F.);
#1136 = EDGE_LOOP('',(#1137,#1145,#1146,#1147));
#1137 = ORIENTED_EDGE('',*,*,#1138,.F.);
#1138 = EDGE_CURVE('',#453,#1139,#1141,.T.);
#1139 = VERTEX_POINT('',#1140);
#1140 = CARTESIAN_POINT('',(-4.9,0.,0.4));
#1141 = LINE('',#1142,#1143);
#1142 = CARTESIAN_POINT('',(-4.9,0.,0.4));
#1143 = VECTOR('',#1144,1.);
#1144 = DIRECTION('',(-0.707106781187,0.,0.707106781187));
#1145 = ORIENTED_EDGE('',*,*,#452,.T.);
#1146 = ORIENTED_EDGE('',*,*,#1138,.T.);
#1147 = ORIENTED_EDGE('',*,*,#1148,.F.);
#1148 = EDGE_CURVE('',#1139,#1139,#1149,.T.);
#1149 = CIRCLE('',#1150,1.1);
#1150 = AXIS2_PLACEMENT_3D('',#1151,#1152,#1153);
#1151 = CARTESIAN_POINT('',(-6.,0.,0.4));
#1152 = DIRECTION('',(0.,0.,1.));
#1153 = DIRECTION('',(1.,0.,-0.));
#1154 = CONICAL_SURFACE('',#1155,1.1,0.785398163397);
#1155 = AXIS2_PLACEMENT_3D('',#1156,#1157,#1158);
#1156 = CARTESIAN_POINT('',(-6.,0.,0.4));
#1157 = DIRECTION('',(-0.,-0.,-1.));
#1158 = DIRECTION('',(1.,0.,-0.));
#1159 = ADVANCED_FACE('',(#1160),#1171,.T.);
#1160 = FACE_BOUND('',#1161,.T.);
#1161 = EDGE_LOOP('',(#1162,#1168,#1169,#1170));
#1162 = ORIENTED_EDGE('',*,*,#1163,.F.);
#1163 = EDGE_CURVE('',#671,#590,#1164,.T.);
#1164 = LINE('',#1165,#1166);
#1165 = CARTESIAN_POINT('',(3.,5.,0.8));
#1166 = VECTOR('',#1167,1.);
#1167 = DIRECTION('',(-0.707106781187,-4.E-17,0.707106781187));
#1168 = ORIENTED_EDGE('',*,*,#685,.T.);
#1169 = ORIENTED_EDGE('',*,*,#469,.T.);
#1170 = ORIENTED_EDGE('',*,*,#598,.F.);
#1171 = PLANE('',#1172);
#1172 = AXIS2_PLACEMENT_3D('',#1173,#1174,#1175);
#1173 = CARTESIAN_POINT('',(2.9,5.,0.9));
#1174 = DIRECTION('',(0.707106781187,0.,0.707106781187));
#1175 = DIRECTION('',(0.,1.,0.));
#1176 = ADVANCED_FACE('',(#1177),#1196,.F.);
#1177 = FACE_BOUND('',#1178,.T.);
#1178 = EDGE_LOOP('',(#1179,#1187,#1194,#1195));
#1179 = ORIENTED_EDGE('',*,*,#1180,.F.);
#1180 = EDGE_CURVE('',#1181,#582,#1183,.T.);
#1181 = VERTEX_POINT('',#1182);
#1182 = CARTESIAN_POINT('',(5.,3.,0.8));
#1183 = LINE('',#1184,#1185);
#1184 = CARTESIAN_POINT('',(5.,2.9,0.9));
#1185 = VECTOR('',#1186,1.);
#1186 = DIRECTION('',(0.,-0.707106781187,0.707106781187));
#1187 = ORIENTED_EDGE('',*,*,#1188,.T.);
#1188 = EDGE_CURVE('',#1181,#671,#1189,.T.);
#1189 = CIRCLE('',#1190,2.);
#1190 = AXIS2_PLACEMENT_3D('',#1191,#1192,#1193);
#1191 = CARTESIAN_POINT('',(5.,5.,0.8));
#1192 = DIRECTION('',(-0.,-0.,-1.));
#1193 = DIRECTION('',(0.,-1.,0.));
#1194 = ORIENTED_EDGE('',*,*,#1163,.T.);
#1195 = ORIENTED_EDGE('',*,*,#589,.F.);
#1196 = CONICAL_SURFACE('',#1197,2.,0.785398163397);
#1197 = AXIS2_PLACEMENT_3D('',#1198,#1199,#1200);
#1198 = CARTESIAN_POINT('',(5.,5.,0.8));
#1199 = DIRECTION('',(0.,0.,1.));
#1200 = DIRECTION('',(0.,-1.,0.));
#1201 = ADVANCED_FACE('',(#1202),#1213,.T.);
#1202 = FACE_BOUND('',#1203,.T.);
#1203 = EDGE_LOOP('',(#1204,#1205,#1206,#1212));
#1204 = ORIENTED_EDGE('',*,*,#718,.F.);
#1205 = ORIENTED_EDGE('',*,*,#734,.T.);
#1206 = ORIENTED_EDGE('',*,*,#1207,.T.);
#1207 = EDGE_CURVE('',#735,#505,#1208,.T.);
#1208 = LINE('',#1209,#1210);
#1209 = CARTESIAN_POINT('',(-6.,-3.,0.8));
#1210 = VECTOR('',#1211,1.);
#1211 = DIRECTION('',(1.9E-16,0.707106781187,0.707106781187));
#1212 = ORIENTED_EDGE('',*,*,#504,.F.);
#1213 = CONICAL_SURFACE('',#1214,3.,0.785398163397);
#1214 = AXIS2_PLACEMENT_3D('',#1215,#1216,#1217);
#1215 = CARTESIAN_POINT('',(-6.,0.,0.8));
#1216 = DIRECTION('',(-0.,-0.,-1.));
#1217 = DIRECTION('',(-3.E-16,1.,0.));
#1218 = ADVANCED_FACE('',(#1219),#1237,.T.);
#1219 = FACE_BOUND('',#1220,.T.);
#1220 = EDGE_LOOP('',(#1221,#1229,#1235,#1236));
#1221 = ORIENTED_EDGE('',*,*,#1222,.F.);
#1222 = EDGE_CURVE('',#1223,#573,#1225,.T.);
#1223 = VERTEX_POINT('',#1224);
#1224 = CARTESIAN_POINT('',(6.,3.,0.8));
#1225 = LINE('',#1226,#1227);
#1226 = CARTESIAN_POINT('',(6.,3.,0.8));
#1227 = VECTOR('',#1228,1.);
#1228 = DIRECTION('',(-3.E-16,-0.707106781187,0.707106781187));
#1229 = ORIENTED_EDGE('',*,*,#1230,.T.);
#1230 = EDGE_CURVE('',#1223,#1181,#1231,.T.);
#1231 = LINE('',#1232,#1233);
#1232 = CARTESIAN_POINT('',(6.,3.,0.8));
#1233 = VECTOR('',#1234,1.);
#1234 = DIRECTION('',(-1.,-0.,-0.));
#1235 = ORIENTED_EDGE('',*,*,#1180,.T.);
#1236 = ORIENTED_EDGE('',*,*,#581,.F.);
#1237 = PLANE('',#1238);
#1238 = AXIS2_PLACEMENT_3D('',#1239,#1240,#1241);
#1239 = CARTESIAN_POINT('',(6.,2.9,0.9));
#1240 = DIRECTION('',(0.,0.707106781187,0.707106781187));
#1241 = DIRECTION('',(-1.,0.,0.));
#1242 = ADVANCED_FACE('',(#1243),#1261,.F.);
#1243 = FACE_BOUND('',#1244,.T.);
#1244 = EDGE_LOOP('',(#1245,#1246,#1254,#1260));
#1245 = ORIENTED_EDGE('',*,*,#1207,.F.);
#1246 = ORIENTED_EDGE('',*,*,#1247,.T.);
#1247 = EDGE_CURVE('',#735,#1248,#1250,.T.);
#1248 = VERTEX_POINT('',#1249);
#1249 = CARTESIAN_POINT('',(-5.,-3.,0.8));
#1250 = LINE('',#1251,#1252);
#1251 = CARTESIAN_POINT('',(-6.,-3.,0.8));
#1252 = VECTOR('',#1253,1.);
#1253 = DIRECTION('',(1.,0.,0.));
#1254 = ORIENTED_EDGE('',*,*,#1255,.T.);
#1255 = EDGE_CURVE('',#1248,#514,#1256,.T.);
#1256 = LINE('',#1257,#1258);
#1257 = CARTESIAN_POINT('',(-5.,-2.9,0.9));
#1258 = VECTOR('',#1259,1.);
#1259 = DIRECTION('',(0.,0.707106781187,0.707106781187));
#1260 = ORIENTED_EDGE('',*,*,#513,.F.);
#1261 = PLANE('',#1262);
#1262 = AXIS2_PLACEMENT_3D('',#1263,#1264,#1265);
#1263 = CARTESIAN_POINT('',(-6.,-2.9,0.9));
#1264 = DIRECTION('',(0.,0.707106781187,-0.707106781187));
#1265 = DIRECTION('',(-1.,-0.,-0.));
#1266 = ADVANCED_FACE('',(#1267),#1286,.T.);
#1267 = FACE_BOUND('',#1268,.T.);
#1268 = EDGE_LOOP('',(#1269,#1277,#1284,#1285));
#1269 = ORIENTED_EDGE('',*,*,#1270,.F.);
#1270 = EDGE_CURVE('',#1271,#565,#1273,.T.);
#1271 = VERTEX_POINT('',#1272);
#1272 = CARTESIAN_POINT('',(6.,-3.,0.8));
#1273 = LINE('',#1274,#1275);
#1274 = CARTESIAN_POINT('',(6.,-2.9,0.9));
#1275 = VECTOR('',#1276,1.);
#1276 = DIRECTION('',(0.,0.707106781187,0.707106781187));
#1277 = ORIENTED_EDGE('',*,*,#1278,.T.);
#1278 = EDGE_CURVE('',#1271,#1223,#1279,.T.);
#1279 = CIRCLE('',#1280,3.);
#1280 = AXIS2_PLACEMENT_3D('',#1281,#1282,#1283);
#1281 = CARTESIAN_POINT('',(6.,0.,0.8));
#1282 = DIRECTION('',(0.,0.,1.));
#1283 = DIRECTION('',(-3.E-16,-1.,0.));
#1284 = ORIENTED_EDGE('',*,*,#1222,.T.);
#1285 = ORIENTED_EDGE('',*,*,#572,.F.);
#1286 = CONICAL_SURFACE('',#1287,3.,0.785398163397);
#1287 = AXIS2_PLACEMENT_3D('',#1288,#1289,#1290);
#1288 = CARTESIAN_POINT('',(6.,0.,0.8));
#1289 = DIRECTION('',(-0.,-0.,-1.));
#1290 = DIRECTION('',(-3.E-16,-1.,0.));
#1291 = ADVANCED_FACE('',(#1292),#1311,.F.);
#1292 = FACE_BOUND('',#1293,.T.);
#1293 = EDGE_LOOP('',(#1294,#1295,#1304,#1310));
#1294 = ORIENTED_EDGE('',*,*,#1255,.F.);
#1295 = ORIENTED_EDGE('',*,*,#1296,.T.);
#1296 = EDGE_CURVE('',#1248,#1297,#1299,.T.);
#1297 = VERTEX_POINT('',#1298);
#1298 = CARTESIAN_POINT('',(-3.,-5.,0.8));
#1299 = CIRCLE('',#1300,2.);
#1300 = AXIS2_PLACEMENT_3D('',#1301,#1302,#1303);
#1301 = CARTESIAN_POINT('',(-5.,-5.,0.8));
#1302 = DIRECTION('',(0.,0.,-1.));
#1303 = DIRECTION('',(0.,1.,0.));
#1304 = ORIENTED_EDGE('',*,*,#1305,.T.);
#1305 = EDGE_CURVE('',#1297,#522,#1306,.T.);
#1306 = LINE('',#1307,#1308);
#1307 = CARTESIAN_POINT('',(-3.,-5.,0.8));
#1308 = VECTOR('',#1309,1.);
#1309 = DIRECTION('',(0.707106781187,4.E-17,0.707106781187));
#1310 = ORIENTED_EDGE('',*,*,#521,.F.);
#1311 = CONICAL_SURFACE('',#1312,2.,0.785398163397);
#1312 = AXIS2_PLACEMENT_3D('',#1313,#1314,#1315);
#1313 = CARTESIAN_POINT('',(-5.,-5.,0.8));
#1314 = DIRECTION('',(0.,0.,1.));
#1315 = DIRECTION('',(0.,1.,0.));
#1316 = ADVANCED_FACE('',(#1317),#1335,.F.);
#1317 = FACE_BOUND('',#1318,.T.);
#1318 = EDGE_LOOP('',(#1319,#1327,#1333,#1334));
#1319 = ORIENTED_EDGE('',*,*,#1320,.F.);
#1320 = EDGE_CURVE('',#1321,#556,#1323,.T.);
#1321 = VERTEX_POINT('',#1322);
#1322 = CARTESIAN_POINT('',(5.,-3.,0.8));
#1323 = LINE('',#1324,#1325);
#1324 = CARTESIAN_POINT('',(5.,-3.,0.8));
#1325 = VECTOR('',#1326,1.);
#1326 = DIRECTION('',(-4.E-17,0.707106781187,0.707106781187));
#1327 = ORIENTED_EDGE('',*,*,#1328,.T.);
#1328 = EDGE_CURVE('',#1321,#1271,#1329,.T.);
#1329 = LINE('',#1330,#1331);
#1330 = CARTESIAN_POINT('',(5.,-3.,0.8));
#1331 = VECTOR('',#1332,1.);
#1332 = DIRECTION('',(1.,0.,0.));
#1333 = ORIENTED_EDGE('',*,*,#1270,.T.);
#1334 = ORIENTED_EDGE('',*,*,#564,.F.);
#1335 = PLANE('',#1336);
#1336 = AXIS2_PLACEMENT_3D('',#1337,#1338,#1339);
#1337 = CARTESIAN_POINT('',(5.,-2.9,0.9));
#1338 = DIRECTION('',(0.,0.707106781187,-0.707106781187));
#1339 = DIRECTION('',(-1.,-0.,-0.));
#1340 = ADVANCED_FACE('',(#1341),#1359,.F.);
#1341 = FACE_BOUND('',#1342,.T.);
#1342 = EDGE_LOOP('',(#1343,#1344,#1352,#1358));
#1343 = ORIENTED_EDGE('',*,*,#1305,.F.);
#1344 = ORIENTED_EDGE('',*,*,#1345,.T.);
#1345 = EDGE_CURVE('',#1297,#1346,#1348,.T.);
#1346 = VERTEX_POINT('',#1347);
#1347 = CARTESIAN_POINT('',(-3.,-6.,0.8));
#1348 = LINE('',#1349,#1350);
#1349 = CARTESIAN_POINT('',(-3.,-5.,0.8));
#1350 = VECTOR('',#1351,1.);
#1351 = DIRECTION('',(0.,-1.,0.));
#1352 = ORIENTED_EDGE('',*,*,#1353,.T.);
#1353 = EDGE_CURVE('',#1346,#531,#1354,.T.);
#1354 = LINE('',#1355,#1356);
#1355 = CARTESIAN_POINT('',(-2.9,-6.,0.9));
#1356 = VECTOR('',#1357,1.);
#1357 = DIRECTION('',(0.707106781187,0.,0.707106781187));
#1358 = ORIENTED_EDGE('',*,*,#530,.F.);
#1359 = PLANE('',#1360);
#1360 = AXIS2_PLACEMENT_3D('',#1361,#1362,#1363);
#1361 = CARTESIAN_POINT('',(-2.9,-5.,0.9));
#1362 = DIRECTION('',(0.707106781187,0.,-0.707106781187));
#1363 = DIRECTION('',(0.,1.,0.));
#1364 = ADVANCED_FACE('',(#1365),#1384,.F.);
#1365 = FACE_BOUND('',#1366,.T.);
#1366 = EDGE_LOOP('',(#1367,#1375,#1382,#1383));
#1367 = ORIENTED_EDGE('',*,*,#1368,.F.);
#1368 = EDGE_CURVE('',#1369,#548,#1371,.T.);
#1369 = VERTEX_POINT('',#1370);
#1370 = CARTESIAN_POINT('',(3.,-5.,0.8));
#1371 = LINE('',#1372,#1373);
#1372 = CARTESIAN_POINT('',(2.9,-5.,0.9));
#1373 = VECTOR('',#1374,1.);
#1374 = DIRECTION('',(-0.707106781187,0.,0.707106781187));
#1375 = ORIENTED_EDGE('',*,*,#1376,.T.);
#1376 = EDGE_CURVE('',#1369,#1321,#1377,.T.);
#1377 = CIRCLE('',#1378,2.);
#1378 = AXIS2_PLACEMENT_3D('',#1379,#1380,#1381);
#1379 = CARTESIAN_POINT('',(5.,-5.,0.8));
#1380 = DIRECTION('',(0.,0.,-1.));
#1381 = DIRECTION('',(-1.,0.,0.));
#1382 = ORIENTED_EDGE('',*,*,#1320,.T.);
#1383 = ORIENTED_EDGE('',*,*,#555,.F.);
#1384 = CONICAL_SURFACE('',#1385,2.,0.785398163397);
#1385 = AXIS2_PLACEMENT_3D('',#1386,#1387,#1388);
#1386 = CARTESIAN_POINT('',(5.,-5.,0.8));
#1387 = DIRECTION('',(0.,0.,1.));
#1388 = DIRECTION('',(-1.,0.,0.));
#1389 = ADVANCED_FACE('',(#1390),#1409,.T.);
#1390 = FACE_BOUND('',#1391,.T.);
#1391 = EDGE_LOOP('',(#1392,#1393,#1402,#1408));
#1392 = ORIENTED_EDGE('',*,*,#1353,.F.);
#1393 = ORIENTED_EDGE('',*,*,#1394,.T.);
#1394 = EDGE_CURVE('',#1346,#1395,#1397,.T.);
#1395 = VERTEX_POINT('',#1396);
#1396 = CARTESIAN_POINT('',(3.,-6.,0.8));
#1397 = CIRCLE('',#1398,3.);
#1398 = AXIS2_PLACEMENT_3D('',#1399,#1400,#1401);
#1399 = CARTESIAN_POINT('',(0.,-6.,0.8));
#1400 = DIRECTION('',(0.,0.,1.));
#1401 = DIRECTION('',(-1.,0.,0.));
#1402 = ORIENTED_EDGE('',*,*,#1403,.T.);
#1403 = EDGE_CURVE('',#1395,#539,#1404,.T.);
#1404 = LINE('',#1405,#1406);
#1405 = CARTESIAN_POINT('',(3.,-6.,0.8));
#1406 = VECTOR('',#1407,1.);
#1407 = DIRECTION('',(-0.707106781187,-5.4E-16,0.707106781187));
#1408 = ORIENTED_EDGE('',*,*,#538,.F.);
#1409 = CONICAL_SURFACE('',#1410,3.,0.785398163397);
#1410 = AXIS2_PLACEMENT_3D('',#1411,#1412,#1413);
#1411 = CARTESIAN_POINT('',(0.,-6.,0.8));
#1412 = DIRECTION('',(-0.,-0.,-1.));
#1413 = DIRECTION('',(-1.,0.,0.));
#1414 = ADVANCED_FACE('',(#1415),#1426,.T.);
#1415 = FACE_BOUND('',#1416,.T.);
#1416 = EDGE_LOOP('',(#1417,#1418,#1424,#1425));
#1417 = ORIENTED_EDGE('',*,*,#1403,.F.);
#1418 = ORIENTED_EDGE('',*,*,#1419,.T.);
#1419 = EDGE_CURVE('',#1395,#1369,#1420,.T.);
#1420 = LINE('',#1421,#1422);
#1421 = CARTESIAN_POINT('',(3.,-6.,0.8));
#1422 = VECTOR('',#1423,1.);
#1423 = DIRECTION('',(0.,1.,0.));
#1424 = ORIENTED_EDGE('',*,*,#1368,.T.);
#1425 = ORIENTED_EDGE('',*,*,#547,.F.);
#1426 = PLANE('',#1427);
#1427 = AXIS2_PLACEMENT_3D('',#1428,#1429,#1430);
#1428 = CARTESIAN_POINT('',(2.9,-6.,0.9));
#1429 = DIRECTION('',(0.707106781187,0.,0.707106781187));
#1430 = DIRECTION('',(0.,1.,0.));
#1431 = ADVANCED_FACE('',(#1432),#1451,.F.);
#1432 = FACE_BOUND('',#1433,.T.);
#1433 = EDGE_LOOP('',(#1434,#1442,#1443,#1444));
#1434 = ORIENTED_EDGE('',*,*,#1435,.F.);
#1435 = EDGE_CURVE('',#608,#1436,#1438,.T.);
#1436 = VERTEX_POINT('',#1437);
#1437 = CARTESIAN_POINT('',(3.5,0.,0.8));
#1438 = LINE('',#1439,#1440);
#1439 = CARTESIAN_POINT('',(3.5,0.,0.8));
#1440 = VECTOR('',#1441,1.);
#1441 = DIRECTION('',(-0.707106781187,-0.,-0.707106781187));
#1442 = ORIENTED_EDGE('',*,*,#607,.T.);
#1443 = ORIENTED_EDGE('',*,*,#1435,.T.);
#1444 = ORIENTED_EDGE('',*,*,#1445,.F.);
#1445 = EDGE_CURVE('',#1436,#1436,#1446,.T.);
#1446 = CIRCLE('',#1447,3.5);
#1447 = AXIS2_PLACEMENT_3D('',#1448,#1449,#1450);
#1448 = CARTESIAN_POINT('',(0.,0.,0.8));
#1449 = DIRECTION('',(0.,0.,1.));
#1450 = DIRECTION('',(1.,0.,0.));
#1451 = CONICAL_SURFACE('',#1452,3.5,0.785398163397);
#1452 = AXIS2_PLACEMENT_3D('',#1453,#1454,#1455);
#1453 = CARTESIAN_POINT('',(0.,0.,0.8));
#1454 = DIRECTION('',(0.,0.,1.));
#1455 = DIRECTION('',(1.,0.,0.));
#1456 = ADVANCED_FACE('',(#1457),#1476,.F.);
#1457 = FACE_BOUND('',#1458,.T.);
#1458 = EDGE_LOOP('',(#1459,#1467,#1468,#1469));
#1459 = ORIENTED_EDGE('',*,*,#1460,.F.);
#1460 = EDGE_CURVE('',#619,#1461,#1463,.T.);
#1461 = VERTEX_POINT('',#1462);
#1462 = CARTESIAN_POINT('',(1.1,6.,0.8));
#1463 = LINE('',#1464,#1465);
#1464 = CARTESIAN_POINT('',(1.1,6.,0.8));
#1465 = VECTOR('',#1466,1.);
#1466 = DIRECTION('',(-0.707106781187,-0.,-0.707106781187));
#1467 = ORIENTED_EDGE('',*,*,#618,.T.);
#1468 = ORIENTED_EDGE('',*,*,#1460,.T.);
#1469 = ORIENTED_EDGE('',*,*,#1470,.F.);
#1470 = EDGE_CURVE('',#1461,#1461,#1471,.T.);
#1471 = CIRCLE('',#1472,1.1);
#1472 = AXIS2_PLACEMENT_3D('',#1473,#1474,#1475);
#1473 = CARTESIAN_POINT('',(0.,6.,0.8));
#1474 = DIRECTION('',(0.,0.,1.));
#1475 = DIRECTION('',(1.,0.,0.));
#1476 = CONICAL_SURFACE('',#1477,1.1,0.785398163397);
#1477 = AXIS2_PLACEMENT_3D('',#1478,#1479,#1480);
#1478 = CARTESIAN_POINT('',(0.,6.,0.8));
#1479 = DIRECTION('',(0.,0.,1.));
#1480 = DIRECTION('',(1.,0.,0.));
#1481 = ADVANCED_FACE('',(#1482),#1501,.F.);
#1482 = FACE_BOUND('',#1483,.T.);
#1483 = EDGE_LOOP('',(#1484,#1492,#1493,#1494));
#1484 = ORIENTED_EDGE('',*,*,#1485,.F.);
#1485 = EDGE_CURVE('',#630,#1486,#1488,.T.);
#1486 = VERTEX_POINT('',#1487);
#1487 = CARTESIAN_POINT('',(7.1,0.,0.8));
#1488 = LINE('',#1489,#1490);
#1489 = CARTESIAN_POINT('',(7.1,0.,0.8));
#1490 = VECTOR('',#1491,1.);
#1491 = DIRECTION('',(-0.707106781187,-0.,-0.707106781187));
#1492 = ORIENTED_EDGE('',*,*,#629,.T.);
#1493 = ORIENTED_EDGE('',*,*,#1485,.T.);
#1494 = ORIENTED_EDGE('',*,*,#1495,.F.);
#1495 = EDGE_CURVE('',#1486,#1486,#1496,.T.);
#1496 = CIRCLE('',#1497,1.1);
#1497 = AXIS2_PLACEMENT_3D('',#1498,#1499,#1500);
#1498 = CARTESIAN_POINT('',(6.,0.,0.8));
#1499 = DIRECTION('',(0.,0.,1.));
#1500 = DIRECTION('',(1.,0.,0.));
#1501 = CONICAL_SURFACE('',#1502,1.1,0.785398163397);
#1502 = AXIS2_PLACEMENT_3D('',#1503,#1504,#1505);
#1503 = CARTESIAN_POINT('',(6.,0.,0.8));
#1504 = DIRECTION('',(0.,0.,1.));
#1505 = DIRECTION('',(1.,0.,0.));
#1506 = ADVANCED_FACE('',(#1507),#1526,.F.);
#1507 = FACE_BOUND('',#1508,.T.);
#1508 = EDGE_LOOP('',(#1509,#1517,#1518,#1519));
#1509 = ORIENTED_EDGE('',*,*,#1510,.F.);
#1510 = EDGE_CURVE('',#641,#1511,#1513,.T.);
#1511 = VERTEX_POINT('',#1512);
#1512 = CARTESIAN_POINT('',(1.1,-6.,0.8));
#1513 = LINE('',#1514,#1515);
#1514 = CARTESIAN_POINT('',(1.1,-6.,0.8));
#1515 = VECTOR('',#1516,1.);
#1516 = DIRECTION('',(-0.707106781187,-0.,-0.707106781187));
#1517 = ORIENTED_EDGE('',*,*,#640,.T.);
#1518 = ORIENTED_EDGE('',*,*,#1510,.T.);
#1519 = ORIENTED_EDGE('',*,*,#1520,.F.);
#1520 = EDGE_CURVE('',#1511,#1511,#1521,.T.);
#1521 = CIRCLE('',#1522,1.1);
#1522 = AXIS2_PLACEMENT_3D('',#1523,#1524,#1525);
#1523 = CARTESIAN_POINT('',(0.,-6.,0.8));
#1524 = DIRECTION('',(0.,0.,1.));
#1525 = DIRECTION('',(1.,0.,0.));
#1526 = CONICAL_SURFACE('',#1527,1.1,0.785398163397);
#1527 = AXIS2_PLACEMENT_3D('',#1528,#1529,#1530);
#1528 = CARTESIAN_POINT('',(0.,-6.,0.8));
#1529 = DIRECTION('',(0.,0.,1.));
#1530 = DIRECTION('',(1.,0.,0.));
#1531 = ADVANCED_FACE('',(#1532),#1551,.F.);
#1532 = FACE_BOUND('',#1533,.T.);
#1533 = EDGE_LOOP('',(#1534,#1542,#1543,#1544));
#1534 = ORIENTED_EDGE('',*,*,#1535,.F.);
#1535 = EDGE_CURVE('',#652,#1536,#1538,.T.);
#1536 = VERTEX_POINT('',#1537);
#1537 = CARTESIAN_POINT('',(-4.9,0.,0.8));
#1538 = LINE('',#1539,#1540);
#1539 = CARTESIAN_POINT('',(-4.9,0.,0.8));
#1540 = VECTOR('',#1541,1.);
#1541 = DIRECTION('',(-0.707106781187,-0.,-0.707106781187));
#1542 = ORIENTED_EDGE('',*,*,#651,.T.);
#1543 = ORIENTED_EDGE('',*,*,#1535,.T.);
#1544 = ORIENTED_EDGE('',*,*,#1545,.F.);
#1545 = EDGE_CURVE('',#1536,#1536,#1546,.T.);
#1546 = CIRCLE('',#1547,1.1);
#1547 = AXIS2_PLACEMENT_3D('',#1548,#1549,#1550);
#1548 = CARTESIAN_POINT('',(-6.,0.,0.8));
#1549 = DIRECTION('',(0.,0.,1.));
#1550 = DIRECTION('',(1.,0.,0.));
#1551 = CONICAL_SURFACE('',#1552,1.1,0.785398163397);
#1552 = AXIS2_PLACEMENT_3D('',#1553,#1554,#1555);
#1553 = CARTESIAN_POINT('',(-6.,0.,0.8));
#1554 = DIRECTION('',(0.,0.,1.));
#1555 = DIRECTION('',(1.,0.,0.));
#1556 = ADVANCED_FACE('',(#1557),#1568,.F.);
#1557 = FACE_BOUND('',#1558,.T.);
#1558 = EDGE_LOOP('',(#1559,#1565,#1566,#1567));
#1559 = ORIENTED_EDGE('',*,*,#1560,.F.);
#1560 = EDGE_CURVE('',#784,#1181,#1561,.T.);
#1561 = LINE('',#1562,#1563);
#1562 = CARTESIAN_POINT('',(5.,3.,0.));
#1563 = VECTOR('',#1564,1.);
#1564 = DIRECTION('',(0.,0.,1.));
#1565 = ORIENTED_EDGE('',*,*,#791,.T.);
#1566 = ORIENTED_EDGE('',*,*,#668,.T.);
#1567 = ORIENTED_EDGE('',*,*,#1188,.F.);
#1568 = CYLINDRICAL_SURFACE('',#1569,2.);
#1569 = AXIS2_PLACEMENT_3D('',#1570,#1571,#1572);
#1570 = CARTESIAN_POINT('',(5.,5.,0.));
#1571 = DIRECTION('',(0.,0.,1.));
#1572 = DIRECTION('',(0.,-1.,0.));
#1573 = ADVANCED_FACE('',(#1574),#1585,.F.);
#1574 = FACE_BOUND('',#1575,.F.);
#1575 = EDGE_LOOP('',(#1576,#1582,#1583,#1584));
#1576 = ORIENTED_EDGE('',*,*,#1577,.F.);
#1577 = EDGE_CURVE('',#851,#1248,#1578,.T.);
#1578 = LINE('',#1579,#1580);
#1579 = CARTESIAN_POINT('',(-5.,-3.,0.));
#1580 = VECTOR('',#1581,1.);
#1581 = DIRECTION('',(0.,0.,1.));
#1582 = ORIENTED_EDGE('',*,*,#850,.F.);
#1583 = ORIENTED_EDGE('',*,*,#743,.T.);
#1584 = ORIENTED_EDGE('',*,*,#1247,.T.);
#1585 = PLANE('',#1586);
#1586 = AXIS2_PLACEMENT_3D('',#1587,#1588,#1589);
#1587 = CARTESIAN_POINT('',(-6.,-3.,0.));
#1588 = DIRECTION('',(0.,1.,0.));
#1589 = DIRECTION('',(1.,0.,0.));
#1590 = ADVANCED_FACE('',(#1591),#1602,.T.);
#1591 = FACE_BOUND('',#1592,.T.);
#1592 = EDGE_LOOP('',(#1593,#1594,#1595,#1601));
#1593 = ORIENTED_EDGE('',*,*,#1560,.T.);
#1594 = ORIENTED_EDGE('',*,*,#1230,.F.);
#1595 = ORIENTED_EDGE('',*,*,#1596,.F.);
#1596 = EDGE_CURVE('',#826,#1223,#1597,.T.);
#1597 = LINE('',#1598,#1599);
#1598 = CARTESIAN_POINT('',(6.,3.,0.));
#1599 = VECTOR('',#1600,1.);
#1600 = DIRECTION('',(0.,0.,1.));
#1601 = ORIENTED_EDGE('',*,*,#833,.T.);
#1602 = PLANE('',#1603);
#1603 = AXIS2_PLACEMENT_3D('',#1604,#1605,#1606);
#1604 = CARTESIAN_POINT('',(3.,3.,0.));
#1605 = DIRECTION('',(0.,1.,0.));
#1606 = DIRECTION('',(1.,0.,0.));
#1607 = ADVANCED_FACE('',(#1608),#1619,.T.);
#1608 = FACE_BOUND('',#1609,.F.);
#1609 = EDGE_LOOP('',(#1610,#1616,#1617,#1618));
#1610 = ORIENTED_EDGE('',*,*,#1611,.T.);
#1611 = EDGE_CURVE('',#874,#1271,#1612,.T.);
#1612 = LINE('',#1613,#1614);
#1613 = CARTESIAN_POINT('',(6.,-3.,0.));
#1614 = VECTOR('',#1615,1.);
#1615 = DIRECTION('',(0.,0.,1.));
#1616 = ORIENTED_EDGE('',*,*,#1278,.T.);
#1617 = ORIENTED_EDGE('',*,*,#1596,.F.);
#1618 = ORIENTED_EDGE('',*,*,#881,.F.);
#1619 = CYLINDRICAL_SURFACE('',#1620,3.);
#1620 = AXIS2_PLACEMENT_3D('',#1621,#1622,#1623);
#1621 = CARTESIAN_POINT('',(6.,0.,0.));
#1622 = DIRECTION('',(-0.,-0.,-1.));
#1623 = DIRECTION('',(1.,0.,0.));
#1624 = ADVANCED_FACE('',(#1625),#1636,.F.);
#1625 = FACE_BOUND('',#1626,.T.);
#1626 = EDGE_LOOP('',(#1627,#1628,#1629,#1635));
#1627 = ORIENTED_EDGE('',*,*,#1577,.F.);
#1628 = ORIENTED_EDGE('',*,*,#899,.T.);
#1629 = ORIENTED_EDGE('',*,*,#1630,.T.);
#1630 = EDGE_CURVE('',#900,#1297,#1631,.T.);
#1631 = LINE('',#1632,#1633);
#1632 = CARTESIAN_POINT('',(-3.,-5.,0.));
#1633 = VECTOR('',#1634,1.);
#1634 = DIRECTION('',(0.,0.,1.));
#1635 = ORIENTED_EDGE('',*,*,#1296,.F.);
#1636 = CYLINDRICAL_SURFACE('',#1637,2.);
#1637 = AXIS2_PLACEMENT_3D('',#1638,#1639,#1640);
#1638 = CARTESIAN_POINT('',(-5.,-5.,0.));
#1639 = DIRECTION('',(0.,0.,1.));
#1640 = DIRECTION('',(0.,1.,0.));
#1641 = ADVANCED_FACE('',(#1642),#1653,.F.);
#1642 = FACE_BOUND('',#1643,.F.);
#1643 = EDGE_LOOP('',(#1644,#1650,#1651,#1652));
#1644 = ORIENTED_EDGE('',*,*,#1645,.T.);
#1645 = EDGE_CURVE('',#924,#1321,#1646,.T.);
#1646 = LINE('',#1647,#1648);
#1647 = CARTESIAN_POINT('',(5.,-3.,0.));
#1648 = VECTOR('',#1649,1.);
#1649 = DIRECTION('',(0.,0.,1.));
#1650 = ORIENTED_EDGE('',*,*,#1328,.T.);
#1651 = ORIENTED_EDGE('',*,*,#1611,.F.);
#1652 = ORIENTED_EDGE('',*,*,#931,.F.);
#1653 = PLANE('',#1654);
#1654 = AXIS2_PLACEMENT_3D('',#1655,#1656,#1657);
#1655 = CARTESIAN_POINT('',(3.,-3.,0.));
#1656 = DIRECTION('',(0.,1.,0.));
#1657 = DIRECTION('',(1.,0.,0.));
#1658 = ADVANCED_FACE('',(#1659),#1670,.F.);
#1659 = FACE_BOUND('',#1660,.F.);
#1660 = EDGE_LOOP('',(#1661,#1662,#1663,#1669));
#1661 = ORIENTED_EDGE('',*,*,#1630,.T.);
#1662 = ORIENTED_EDGE('',*,*,#1345,.T.);
#1663 = ORIENTED_EDGE('',*,*,#1664,.F.);
#1664 = EDGE_CURVE('',#949,#1346,#1665,.T.);
#1665 = LINE('',#1666,#1667);
#1666 = CARTESIAN_POINT('',(-3.,-6.,0.));
#1667 = VECTOR('',#1668,1.);
#1668 = DIRECTION('',(0.,0.,1.));
#1669 = ORIENTED_EDGE('',*,*,#948,.F.);
#1670 = PLANE('',#1671);
#1671 = AXIS2_PLACEMENT_3D('',#1672,#1673,#1674);
#1672 = CARTESIAN_POINT('',(-3.,-3.,0.));
#1673 = DIRECTION('',(1.,0.,0.));
#1674 = DIRECTION('',(0.,-1.,0.));
#1675 = ADVANCED_FACE('',(#1676),#1687,.F.);
#1676 = FACE_BOUND('',#1677,.T.);
#1677 = EDGE_LOOP('',(#1678,#1684,#1685,#1686));
#1678 = ORIENTED_EDGE('',*,*,#1679,.F.);
#1679 = EDGE_CURVE('',#972,#1369,#1680,.T.);
#1680 = LINE('',#1681,#1682);
#1681 = CARTESIAN_POINT('',(3.,-5.,0.));
#1682 = VECTOR('',#1683,1.);
#1683 = DIRECTION('',(0.,0.,1.));
#1684 = ORIENTED_EDGE('',*,*,#979,.T.);
#1685 = ORIENTED_EDGE('',*,*,#1645,.T.);
#1686 = ORIENTED_EDGE('',*,*,#1376,.F.);
#1687 = CYLINDRICAL_SURFACE('',#1688,2.);
#1688 = AXIS2_PLACEMENT_3D('',#1689,#1690,#1691);
#1689 = CARTESIAN_POINT('',(5.,-5.,0.));
#1690 = DIRECTION('',(0.,0.,1.));
#1691 = DIRECTION('',(-1.,0.,0.));
#1692 = ADVANCED_FACE('',(#1693),#1704,.T.);
#1693 = FACE_BOUND('',#1694,.F.);
#1694 = EDGE_LOOP('',(#1695,#1696,#1697,#1703));
#1695 = ORIENTED_EDGE('',*,*,#1664,.T.);
#1696 = ORIENTED_EDGE('',*,*,#1394,.T.);
#1697 = ORIENTED_EDGE('',*,*,#1698,.F.);
#1698 = EDGE_CURVE('',#998,#1395,#1699,.T.);
#1699 = LINE('',#1700,#1701);
#1700 = CARTESIAN_POINT('',(3.,-6.,0.));
#1701 = VECTOR('',#1702,1.);
#1702 = DIRECTION('',(0.,0.,1.));
#1703 = ORIENTED_EDGE('',*,*,#997,.F.);
#1704 = CYLINDRICAL_SURFACE('',#1705,3.);
#1705 = AXIS2_PLACEMENT_3D('',#1706,#1707,#1708);
#1706 = CARTESIAN_POINT('',(0.,-6.,0.));
#1707 = DIRECTION('',(-0.,-0.,-1.));
#1708 = DIRECTION('',(1.,0.,0.));
#1709 = ADVANCED_FACE('',(#1710),#1716,.T.);
#1710 = FACE_BOUND('',#1711,.T.);
#1711 = EDGE_LOOP('',(#1712,#1713,#1714,#1715));
#1712 = ORIENTED_EDGE('',*,*,#1679,.T.);
#1713 = ORIENTED_EDGE('',*,*,#1419,.F.);
#1714 = ORIENTED_EDGE('',*,*,#1698,.F.);
#1715 = ORIENTED_EDGE('',*,*,#1022,.T.);
#1716 = PLANE('',#1717);
#1717 = AXIS2_PLACEMENT_3D('',#1718,#1719,#1720);
#1718 = CARTESIAN_POINT('',(3.,-3.,0.));
#1719 = DIRECTION('',(1.,0.,0.));
#1720 = DIRECTION('',(0.,-1.,0.));
#1721 = ADVANCED_FACE('',(#1722),#1733,.F.);
#1722 = FACE_BOUND('',#1723,.T.);
#1723 = EDGE_LOOP('',(#1724,#1730,#1731,#1732));
#1724 = ORIENTED_EDGE('',*,*,#1725,.T.);
#1725 = EDGE_CURVE('',#1039,#1436,#1726,.T.);
#1726 = LINE('',#1727,#1728);
#1727 = CARTESIAN_POINT('',(3.5,0.,0.));
#1728 = VECTOR('',#1729,1.);
#1729 = DIRECTION('',(0.,0.,1.));
#1730 = ORIENTED_EDGE('',*,*,#1445,.T.);
#1731 = ORIENTED_EDGE('',*,*,#1725,.F.);
#1732 = ORIENTED_EDGE('',*,*,#1048,.F.);
#1733 = CYLINDRICAL_SURFACE('',#1734,3.5);
#1734 = AXIS2_PLACEMENT_3D('',#1735,#1736,#1737);
#1735 = CARTESIAN_POINT('',(0.,0.,0.));
#1736 = DIRECTION('',(-0.,-0.,-1.));
#1737 = DIRECTION('',(1.,0.,0.));
#1738 = ADVANCED_FACE('',(#1739),#1750,.F.);
#1739 = FACE_BOUND('',#1740,.T.);
#1740 = EDGE_LOOP('',(#1741,#1747,#1748,#1749));
#1741 = ORIENTED_EDGE('',*,*,#1742,.T.);
#1742 = EDGE_CURVE('',#1064,#1461,#1743,.T.);
#1743 = LINE('',#1744,#1745);
#1744 = CARTESIAN_POINT('',(1.1,6.,0.));
#1745 = VECTOR('',#1746,1.);
#1746 = DIRECTION('',(0.,0.,1.));
#1747 = ORIENTED_EDGE('',*,*,#1470,.T.);
#1748 = ORIENTED_EDGE('',*,*,#1742,.F.);
#1749 = ORIENTED_EDGE('',*,*,#1073,.F.);
#1750 = CYLINDRICAL_SURFACE('',#1751,1.1);
#1751 = AXIS2_PLACEMENT_3D('',#1752,#1753,#1754);
#1752 = CARTESIAN_POINT('',(0.,6.,0.));
#1753 = DIRECTION('',(-0.,-0.,-1.));
#1754 = DIRECTION('',(1.,0.,0.));
#1755 = ADVANCED_FACE('',(#1756),#1767,.F.);
#1756 = FACE_BOUND('',#1757,.T.);
#1757 = EDGE_LOOP('',(#1758,#1764,#1765,#1766));
#1758 = ORIENTED_EDGE('',*,*,#1759,.T.);
#1759 = EDGE_CURVE('',#1089,#1486,#1760,.T.);
#1760 = LINE('',#1761,#1762);
#1761 = CARTESIAN_POINT('',(7.1,0.,0.));
#1762 = VECTOR('',#1763,1.);
#1763 = DIRECTION('',(0.,0.,1.));
#1764 = ORIENTED_EDGE('',*,*,#1495,.T.);
#1765 = ORIENTED_EDGE('',*,*,#1759,.F.);
#1766 = ORIENTED_EDGE('',*,*,#1098,.F.);
#1767 = CYLINDRICAL_SURFACE('',#1768,1.1);
#1768 = AXIS2_PLACEMENT_3D('',#1769,#1770,#1771);
#1769 = CARTESIAN_POINT('',(6.,0.,0.));
#1770 = DIRECTION('',(-0.,-0.,-1.));
#1771 = DIRECTION('',(1.,0.,0.));
#1772 = ADVANCED_FACE('',(#1773),#1784,.F.);
#1773 = FACE_BOUND('',#1774,.T.);
#1774 = EDGE_LOOP('',(#1775,#1781,#1782,#1783));
#1775 = ORIENTED_EDGE('',*,*,#1776,.T.);
#1776 = EDGE_CURVE('',#1114,#1511,#1777,.T.);
#1777 = LINE('',#1778,#1779);
#1778 = CARTESIAN_POINT('',(1.1,-6.,0.));
#1779 = VECTOR('',#1780,1.);
#1780 = DIRECTION('',(0.,0.,1.));
#1781 = ORIENTED_EDGE('',*,*,#1520,.T.);
#1782 = ORIENTED_EDGE('',*,*,#1776,.F.);
#1783 = ORIENTED_EDGE('',*,*,#1123,.F.);
#1784 = CYLINDRICAL_SURFACE('',#1785,1.1);
#1785 = AXIS2_PLACEMENT_3D('',#1786,#1787,#1788);
#1786 = CARTESIAN_POINT('',(0.,-6.,0.));
#1787 = DIRECTION('',(-0.,-0.,-1.));
#1788 = DIRECTION('',(1.,0.,0.));
#1789 = ADVANCED_FACE('',(#1790),#1801,.F.);
#1790 = FACE_BOUND('',#1791,.T.);
#1791 = EDGE_LOOP('',(#1792,#1798,#1799,#1800));
#1792 = ORIENTED_EDGE('',*,*,#1793,.T.);
#1793 = EDGE_CURVE('',#1139,#1536,#1794,.T.);
#1794 = LINE('',#1795,#1796);
#1795 = CARTESIAN_POINT('',(-4.9,0.,0.));
#1796 = VECTOR('',#1797,1.);
#1797 = DIRECTION('',(0.,0.,1.));
#1798 = ORIENTED_EDGE('',*,*,#1545,.T.);
#1799 = ORIENTED_EDGE('',*,*,#1793,.F.);
#1800 = ORIENTED_EDGE('',*,*,#1148,.F.);
#1801 = CYLINDRICAL_SURFACE('',#1802,1.1);
#1802 = AXIS2_PLACEMENT_3D('',#1803,#1804,#1805);
#1803 = CARTESIAN_POINT('',(-6.,0.,0.));
#1804 = DIRECTION('',(-0.,-0.,-1.));
#1805 = DIRECTION('',(1.,0.,0.));
#1806 = ( GEOMETRIC_REPRESENTATION_CONTEXT(3) 
GLOBAL_UNCERTAINTY_ASSIGNED_CONTEXT((#1810)) 
GLOBAL_UNIT_ASSIGNED_CONTEXT((#1807,#1808,#1809)) REPRESENTATION_CONTEXT
('Context #1','3D Context with UNIT and UNCERTAINTY') );
#1807 = ( LENGTH_UNIT() NAMED_UNIT(*) SI_UNIT(.MILLI.,.METRE.) );
#1808 = ( NAMED_UNIT(*) PLANE_ANGLE_UNIT() SI_UNIT($,.RADIAN.) );
#1809 = ( NAMED_UNIT(*) SI_UNIT($,.STERADIAN.) SOLID_ANGLE_UNIT() );
#1810 = UNCERTAINTY_MEASURE_WITH_UNIT(LENGTH_MEASURE(1.E-07),#1807,
  'distance_accuracy_value','confusion accuracy');
#1811 = PRODUCT_RELATED_PRODUCT_CATEGORY('part',$,(#7));
ENDSEC;
END-ISO-10303-21;
