ISO-10303-21;
HEADER;
FILE_DESCRIPTION(('FreeCAD Model'),'2;1');
FILE_NAME('Open CASCADE Shape Model','2026-05-18T18:57:50',(''),(''),
  'Open CASCADE STEP processor 7.8','FreeCAD','Unknown');
FILE_SCHEMA(('AUTOMOTIVE_DESIGN { 1 0 10303 214 1 1 1 1 }'));
ENDSEC;
DATA;
#1 = APPLICATION_PROTOCOL_DEFINITION('international standard',
  'automotive_design',2000,#2);
#2 = APPLICATION_CONTEXT(
  'core data for automotive mechanical design processes');
#3 = SHAPE_DEFINITION_REPRESENTATION(#4,#10);
#4 = PRODUCT_DEFINITION_SHAPE('','',#5);
#5 = PRODUCT_DEFINITION('design','',#6,#9);
#6 = PRODUCT_DEFINITION_FORMATION('','',#7);
#7 = PRODUCT('B_quick_release_base','B_quick_release_base','',(#8));
#8 = PRODUCT_CONTEXT('',#2,'mechanical');
#9 = PRODUCT_DEFINITION_CONTEXT('part definition',#2,'design');
#10 = ADVANCED_BREP_SHAPE_REPRESENTATION('',(#11,#15),#1453);
#11 = AXIS2_PLACEMENT_3D('',#12,#13,#14);
#12 = CARTESIAN_POINT('',(0.,0.,0.));
#13 = DIRECTION('',(0.,0.,1.));
#14 = DIRECTION('',(1.,0.,-0.));
#15 = MANIFOLD_SOLID_BREP('',#16);
#16 = CLOSED_SHELL('',(#17,#150,#211,#242,#351,#412,#527,#552,#577,#637,
    #697,#721,#745,#770,#795,#812,#837,#864,#889,#946,#1017,#1038,#1062,
    #1079,#1104,#1128,#1145,#1170,#1195,#1220,#1237,#1254,#1271,#1283,
    #1308,#1333,#1350,#1367,#1379,#1399,#1419,#1436));
#17 = ADVANCED_FACE('',(#18),#145,.T.);
#18 = FACE_BOUND('',#19,.T.);
#19 = EDGE_LOOP('',(#20,#30,#38,#46,#55,#63,#71,#79,#88,#96,#105,#113,
    #121,#129,#138));
#20 = ORIENTED_EDGE('',*,*,#21,.T.);
#21 = EDGE_CURVE('',#22,#24,#26,.T.);
#22 = VERTEX_POINT('',#23);
#23 = CARTESIAN_POINT('',(1.25,8.769259301592,5.639444214752));
#24 = VERTEX_POINT('',#25);
#25 = CARTESIAN_POINT('',(1.25,8.769259301592,7.6));
#26 = LINE('',#27,#28);
#27 = CARTESIAN_POINT('',(1.25,8.769259301592,0.));
#28 = VECTOR('',#29,1.);
#29 = DIRECTION('',(0.,0.,1.));
#30 = ORIENTED_EDGE('',*,*,#31,.F.);
#31 = EDGE_CURVE('',#32,#24,#34,.T.);
#32 = VERTEX_POINT('',#33);
#33 = CARTESIAN_POINT('',(1.25,-8.769259301592,7.6));
#34 = LINE('',#35,#36);
#35 = CARTESIAN_POINT('',(1.25,-8.769259301592,7.6));
#36 = VECTOR('',#37,1.);
#37 = DIRECTION('',(0.,1.,0.));
#38 = ORIENTED_EDGE('',*,*,#39,.F.);
#39 = EDGE_CURVE('',#40,#32,#42,.T.);
#40 = VERTEX_POINT('',#41);
#41 = CARTESIAN_POINT('',(1.25,-8.769259301592,5.639444214752));
#42 = LINE('',#43,#44);
#43 = CARTESIAN_POINT('',(1.25,-8.769259301592,0.));
#44 = VECTOR('',#45,1.);
#45 = DIRECTION('',(0.,0.,1.));
#46 = ORIENTED_EDGE('',*,*,#47,.T.);
#47 = EDGE_CURVE('',#40,#48,#50,.T.);
#48 = VERTEX_POINT('',#49);
#49 = CARTESIAN_POINT('',(1.25,-8.769259301592,2.360555785248));
#50 = CIRCLE('',#51,2.05);
#51 = AXIS2_PLACEMENT_3D('',#52,#53,#54);
#52 = CARTESIAN_POINT('',(1.25,-10.,4.));
#53 = DIRECTION('',(-1.,0.,0.));
#54 = DIRECTION('',(0.,-1.,0.));
#55 = ORIENTED_EDGE('',*,*,#56,.F.);
#56 = EDGE_CURVE('',#57,#48,#59,.T.);
#57 = VERTEX_POINT('',#58);
#58 = CARTESIAN_POINT('',(1.25,-8.769259301592,0.));
#59 = LINE('',#60,#61);
#60 = CARTESIAN_POINT('',(1.25,-8.769259301592,0.));
#61 = VECTOR('',#62,1.);
#62 = DIRECTION('',(0.,0.,1.));
#63 = ORIENTED_EDGE('',*,*,#64,.F.);
#64 = EDGE_CURVE('',#65,#57,#67,.T.);
#65 = VERTEX_POINT('',#66);
#66 = CARTESIAN_POINT('',(1.25,-8.330127018922,0.));
#67 = LINE('',#68,#69);
#68 = CARTESIAN_POINT('',(1.25,8.769259301592,0.));
#69 = VECTOR('',#70,1.);
#70 = DIRECTION('',(0.,-1.,0.));
#71 = ORIENTED_EDGE('',*,*,#72,.T.);
#72 = EDGE_CURVE('',#65,#73,#75,.T.);
#73 = VERTEX_POINT('',#74);
#74 = CARTESIAN_POINT('',(1.25,-6.598076211353,3.));
#75 = LINE('',#76,#77);
#76 = CARTESIAN_POINT('',(1.25,-8.041451884327,0.5));
#77 = VECTOR('',#78,1.);
#78 = DIRECTION('',(0.,0.5,0.866025403784));
#79 = ORIENTED_EDGE('',*,*,#80,.T.);
#80 = EDGE_CURVE('',#73,#81,#83,.T.);
#81 = VERTEX_POINT('',#82);
#82 = CARTESIAN_POINT('',(1.25,-4.,4.5));
#83 = CIRCLE('',#84,3.);
#84 = AXIS2_PLACEMENT_3D('',#85,#86,#87);
#85 = CARTESIAN_POINT('',(1.25,-4.,1.5));
#86 = DIRECTION('',(-1.,0.,0.));
#87 = DIRECTION('',(0.,-0.866025403784,0.5));
#88 = ORIENTED_EDGE('',*,*,#89,.T.);
#89 = EDGE_CURVE('',#81,#90,#92,.T.);
#90 = VERTEX_POINT('',#91);
#91 = CARTESIAN_POINT('',(1.25,4.,4.5));
#92 = LINE('',#93,#94);
#93 = CARTESIAN_POINT('',(1.25,-4.,4.5));
#94 = VECTOR('',#95,1.);
#95 = DIRECTION('',(0.,1.,-6.E-17));
#96 = ORIENTED_EDGE('',*,*,#97,.T.);
#97 = EDGE_CURVE('',#90,#98,#100,.T.);
#98 = VERTEX_POINT('',#99);
#99 = CARTESIAN_POINT('',(1.25,6.598076211353,3.));
#100 = CIRCLE('',#101,3.);
#101 = AXIS2_PLACEMENT_3D('',#102,#103,#104);
#102 = CARTESIAN_POINT('',(1.25,4.,1.5));
#103 = DIRECTION('',(-1.,0.,0.));
#104 = DIRECTION('',(0.,-5.33E-15,1.));
#105 = ORIENTED_EDGE('',*,*,#106,.T.);
#106 = EDGE_CURVE('',#98,#107,#109,.T.);
#107 = VERTEX_POINT('',#108);
#108 = CARTESIAN_POINT('',(1.25,8.330127018922,0.));
#109 = LINE('',#110,#111);
#110 = CARTESIAN_POINT('',(1.25,6.598076211353,3.));
#111 = VECTOR('',#112,1.);
#112 = DIRECTION('',(0.,0.5,-0.866025403784));
#113 = ORIENTED_EDGE('',*,*,#114,.F.);
#114 = EDGE_CURVE('',#115,#107,#117,.T.);
#115 = VERTEX_POINT('',#116);
#116 = CARTESIAN_POINT('',(1.25,8.769259301592,0.));
#117 = LINE('',#118,#119);
#118 = CARTESIAN_POINT('',(1.25,8.769259301592,0.));
#119 = VECTOR('',#120,1.);
#120 = DIRECTION('',(0.,-1.,0.));
#121 = ORIENTED_EDGE('',*,*,#122,.T.);
#122 = EDGE_CURVE('',#115,#123,#125,.T.);
#123 = VERTEX_POINT('',#124);
#124 = CARTESIAN_POINT('',(1.25,8.769259301592,2.360555785248));
#125 = LINE('',#126,#127);
#126 = CARTESIAN_POINT('',(1.25,8.769259301592,0.));
#127 = VECTOR('',#128,1.);
#128 = DIRECTION('',(0.,0.,1.));
#129 = ORIENTED_EDGE('',*,*,#130,.T.);
#130 = EDGE_CURVE('',#123,#131,#133,.T.);
#131 = VERTEX_POINT('',#132);
#132 = CARTESIAN_POINT('',(1.25,7.95,4.));
#133 = CIRCLE('',#134,2.05);
#134 = AXIS2_PLACEMENT_3D('',#135,#136,#137);
#135 = CARTESIAN_POINT('',(1.25,10.,4.));
#136 = DIRECTION('',(-1.,0.,0.));
#137 = DIRECTION('',(0.,-1.,0.));
#138 = ORIENTED_EDGE('',*,*,#139,.T.);
#139 = EDGE_CURVE('',#131,#22,#140,.T.);
#140 = CIRCLE('',#141,2.05);
#141 = AXIS2_PLACEMENT_3D('',#142,#143,#144);
#142 = CARTESIAN_POINT('',(1.25,10.,4.));
#143 = DIRECTION('',(-1.,0.,0.));
#144 = DIRECTION('',(0.,-1.,0.));
#145 = PLANE('',#146);
#146 = AXIS2_PLACEMENT_3D('',#147,#148,#149);
#147 = CARTESIAN_POINT('',(1.25,8.769259301592,0.));
#148 = DIRECTION('',(1.,0.,0.));
#149 = DIRECTION('',(0.,-1.,0.));
#150 = ADVANCED_FACE('',(#151),#206,.F.);
#151 = FACE_BOUND('',#152,.T.);
#152 = EDGE_LOOP('',(#153,#154,#191,#199));
#153 = ORIENTED_EDGE('',*,*,#21,.F.);
#154 = ORIENTED_EDGE('',*,*,#155,.T.);
#155 = EDGE_CURVE('',#22,#156,#158,.T.);
#156 = VERTEX_POINT('',#157);
#157 = CARTESIAN_POINT('',(2.604838709677,11.277933120331,5.602930734611
    ));
#158 = B_SPLINE_CURVE_WITH_KNOTS('',7,(#159,#160,#161,#162,#163,#164,
    #165,#166,#167,#168,#169,#170,#171,#172,#173,#174,#175,#176,#177,
    #178,#179,#180,#181,#182,#183,#184,#185,#186,#187,#188,#189,#190),
  .UNSPECIFIED.,.F.,.F.,(8,6,6,6,6,8),(0.,9.852120945899E-02,
    0.262212556742,0.390116500982,0.567821950676,1.),.UNSPECIFIED.);
#159 = CARTESIAN_POINT('',(1.25,8.769259301592,5.639444214752));
#160 = CARTESIAN_POINT('',(1.25,8.803936619621,5.665476687358));
#161 = CARTESIAN_POINT('',(1.250467520168,8.839485515399,5.690825356532)
  );
#162 = CARTESIAN_POINT('',(1.251445178942,8.875882387249,5.715440937852)
  );
#163 = CARTESIAN_POINT('',(1.252975352472,8.913101725772,5.739276626036)
  );
#164 = CARTESIAN_POINT('',(1.255100174627,8.951116113841,5.762288094942)
  );
#165 = CARTESIAN_POINT('',(1.257861536988,8.989896226607,5.784433497566)
  );
#166 = CARTESIAN_POINT('',(1.267015846944,9.095063688847,5.840963319624)
  );
#167 = CARTESIAN_POINT('',(1.274608095665,9.162811738573,5.873789716955)
  );
#168 = CARTESIAN_POINT('',(1.284260134671,9.232346510852,5.903869422376)
  );
#169 = CARTESIAN_POINT('',(1.296122413617,9.303338611259,5.93098803821)
  );
#170 = CARTESIAN_POINT('',(1.310307162632,9.375444043373,5.954996559179)
  );
#171 = CARTESIAN_POINT('',(1.326882022797,9.448310531387,5.975807926827)
  );
#172 = CARTESIAN_POINT('',(1.360695422039,9.57883760526,6.007134535684)
  );
#173 = CARTESIAN_POINT('',(1.376977423741,9.636265296488,6.018888219494)
  );
#174 = CARTESIAN_POINT('',(1.394708320203,9.693685582479,6.028647690591)
  );
#175 = CARTESIAN_POINT('',(1.413865859568,9.750916307097,6.036429956669)
  );
#176 = CARTESIAN_POINT('',(1.434405809704,9.807775970709,6.042275147346)
  );
#177 = CARTESIAN_POINT('',(1.456260868282,9.864085208908,6.046245683624)
  );
#178 = CARTESIAN_POINT('',(1.511404350817,9.996893513525,6.051453937954)
  );
#179 = CARTESIAN_POINT('',(1.545797752217,10.072636174779,6.05102253869)
  );
#180 = CARTESIAN_POINT('',(1.582373915211,10.146691029939,6.047379122934
    ));
#181 = CARTESIAN_POINT('',(1.620960368534,10.218870380863,6.040780974316
    ));
#182 = CARTESIAN_POINT('',(1.661358582259,10.289003960562,6.031495218429
    ));
#183 = CARTESIAN_POINT('',(1.703344518557,10.356938837454,6.01979925452)
  );
#184 = CARTESIAN_POINT('',(1.852034373938,10.582079099949,5.972375772218
    ));
#185 = CARTESIAN_POINT('',(1.965607521108,10.728251580557,5.926125927231
    ));
#186 = CARTESIAN_POINT('',(2.085411213774,10.861282950147,5.870759578361
    ));
#187 = CARTESIAN_POINT('',(2.209913648915,10.98186696364,5.808930859433)
  );
#188 = CARTESIAN_POINT('',(2.338142462303,11.090886809438,5.742699837775
    ));
#189 = CARTESIAN_POINT('',(2.469675776427,11.189294723418,5.673597508104
    ));
#190 = CARTESIAN_POINT('',(2.604838709677,11.277933120331,5.602930734611
    ));
#191 = ORIENTED_EDGE('',*,*,#192,.T.);
#192 = EDGE_CURVE('',#156,#193,#195,.T.);
#193 = VERTEX_POINT('',#194);
#194 = CARTESIAN_POINT('',(2.604838709677,11.277933120331,7.6));
#195 = LINE('',#196,#197);
#196 = CARTESIAN_POINT('',(2.604838709677,11.277933120331,0.));
#197 = VECTOR('',#198,1.);
#198 = DIRECTION('',(0.,0.,1.));
#199 = ORIENTED_EDGE('',*,*,#200,.F.);
#200 = EDGE_CURVE('',#24,#193,#201,.T.);
#201 = CIRCLE('',#202,3.);
#202 = AXIS2_PLACEMENT_3D('',#203,#204,#205);
#203 = CARTESIAN_POINT('',(4.25,8.769259301592,7.6));
#204 = DIRECTION('',(0.,0.,-1.));
#205 = DIRECTION('',(-1.,0.,0.));
#206 = CYLINDRICAL_SURFACE('',#207,3.);
#207 = AXIS2_PLACEMENT_3D('',#208,#209,#210);
#208 = CARTESIAN_POINT('',(4.25,8.769259301592,0.));
#209 = DIRECTION('',(-0.,-0.,-1.));
#210 = DIRECTION('',(1.,0.,0.));
#211 = ADVANCED_FACE('',(#212),#237,.T.);
#212 = FACE_BOUND('',#213,.T.);
#213 = EDGE_LOOP('',(#214,#222,#223,#231));
#214 = ORIENTED_EDGE('',*,*,#215,.F.);
#215 = EDGE_CURVE('',#32,#216,#218,.T.);
#216 = VERTEX_POINT('',#217);
#217 = CARTESIAN_POINT('',(0.85,-8.769259301592,8.));
#218 = LINE('',#219,#220);
#219 = CARTESIAN_POINT('',(1.25,-8.769259301592,7.6));
#220 = VECTOR('',#221,1.);
#221 = DIRECTION('',(-0.707106781187,-6.E-17,0.707106781187));
#222 = ORIENTED_EDGE('',*,*,#31,.T.);
#223 = ORIENTED_EDGE('',*,*,#224,.T.);
#224 = EDGE_CURVE('',#24,#225,#227,.T.);
#225 = VERTEX_POINT('',#226);
#226 = CARTESIAN_POINT('',(0.85,8.769259301592,8.));
#227 = LINE('',#228,#229);
#228 = CARTESIAN_POINT('',(1.05,8.769259301592,7.8));
#229 = VECTOR('',#230,1.);
#230 = DIRECTION('',(-0.707106781187,0.,0.707106781187));
#231 = ORIENTED_EDGE('',*,*,#232,.F.);
#232 = EDGE_CURVE('',#216,#225,#233,.T.);
#233 = LINE('',#234,#235);
#234 = CARTESIAN_POINT('',(0.85,-8.769259301592,8.));
#235 = VECTOR('',#236,1.);
#236 = DIRECTION('',(0.,1.,0.));
#237 = PLANE('',#238);
#238 = AXIS2_PLACEMENT_3D('',#239,#240,#241);
#239 = CARTESIAN_POINT('',(1.05,-8.769259301592,7.8));
#240 = DIRECTION('',(0.707106781187,0.,0.707106781187));
#241 = DIRECTION('',(-0.,1.,0.));
#242 = ADVANCED_FACE('',(#243),#346,.F.);
#243 = FACE_BOUND('',#244,.F.);
#244 = EDGE_LOOP('',(#245,#254,#260,#261,#262,#309,#344,#345));
#245 = ORIENTED_EDGE('',*,*,#246,.F.);
#246 = EDGE_CURVE('',#247,#247,#249,.T.);
#247 = VERTEX_POINT('',#248);
#248 = CARTESIAN_POINT('',(-4.75,7.95,4.));
#249 = CIRCLE('',#250,2.05);
#250 = AXIS2_PLACEMENT_3D('',#251,#252,#253);
#251 = CARTESIAN_POINT('',(-4.75,10.,4.));
#252 = DIRECTION('',(-1.,0.,0.));
#253 = DIRECTION('',(0.,-1.,0.));
#254 = ORIENTED_EDGE('',*,*,#255,.T.);
#255 = EDGE_CURVE('',#247,#131,#256,.T.);
#256 = LINE('',#257,#258);
#257 = CARTESIAN_POINT('',(-4.75,7.95,4.));
#258 = VECTOR('',#259,1.);
#259 = DIRECTION('',(1.,0.,0.));
#260 = ORIENTED_EDGE('',*,*,#139,.T.);
#261 = ORIENTED_EDGE('',*,*,#155,.T.);
#262 = ORIENTED_EDGE('',*,*,#263,.T.);
#263 = EDGE_CURVE('',#156,#264,#266,.T.);
#264 = VERTEX_POINT('',#265);
#265 = CARTESIAN_POINT('',(2.604838709677,11.277933120331,2.397069265389
    ));
#266 = B_SPLINE_CURVE_WITH_KNOTS('',5,(#267,#268,#269,#270,#271,#272,
    #273,#274,#275,#276,#277,#278,#279,#280,#281,#282,#283,#284,#285,
    #286,#287,#288,#289,#290,#291,#292,#293,#294,#295,#296,#297,#298,
    #299,#300,#301,#302,#303,#304,#305,#306,#307,#308),.UNSPECIFIED.,.F.
  ,.F.,(6,4,4,4,4,4,4,4,4,4,6),(0.,7.923660907944E-02,0.12766866984,
    0.244570189773,0.363652774335,0.500001448932,0.636404932352,
    0.756461635041,0.87253736332,0.920363869179,1.),.UNSPECIFIED.);
#267 = CARTESIAN_POINT('',(2.604838709677,11.277933120331,5.602930734611
    ));
#268 = CARTESIAN_POINT('',(2.658418378631,11.31307009057,5.574917859789)
  );
#269 = CARTESIAN_POINT('',(2.710726846009,11.348665365971,5.544964905499
    ));
#270 = CARTESIAN_POINT('',(2.761597830803,11.38454450033,5.512991074701)
  );
#271 = CARTESIAN_POINT('',(2.810889449096,11.420515495091,5.47892940443)
  );
#272 = CARTESIAN_POINT('',(2.887572361066,11.478295801505,5.420602539453
    ));
#273 = CARTESIAN_POINT('',(2.916022425925,11.500170008746,5.397681110668
    ));
#274 = CARTESIAN_POINT('',(2.943799483586,11.52194830587,5.373958057189)
  );
#275 = CARTESIAN_POINT('',(2.970872542348,11.543577317244,5.349432919627
    ));
#276 = CARTESIAN_POINT('',(3.060789682964,11.616711875863,5.262993340328
    ));
#277 = CARTESIAN_POINT('',(3.120106834915,11.667235894045,5.197227185846
    ));
#278 = CARTESIAN_POINT('',(3.174727329842,11.715767672498,5.126923057644
    ));
#279 = CARTESIAN_POINT('',(3.224384873357,11.761502721559,5.052386769636
    ));
#280 = CARTESIAN_POINT('',(3.314323539868,11.846814349033,4.894418477793
    ));
#281 = CARTESIAN_POINT('',(3.354385223369,11.886234499338,4.810893511922
    ));
#282 = CARTESIAN_POINT('',(3.389050958559,11.921377553582,4.723999997809
    ));
#283 = CARTESIAN_POINT('',(3.418324828222,11.951703314111,4.634341808496
    ));
#284 = CARTESIAN_POINT('',(3.469647381156,12.005677623983,4.43772444865)
  );
#285 = CARTESIAN_POINT('',(3.490041550822,12.027729533415,4.330107993789
    ));
#286 = CARTESIAN_POINT('',(3.503578173551,12.042580755352,4.220663748789
    ));
#287 = CARTESIAN_POINT('',(3.510341863694,12.05,4.110304165723));
#288 = CARTESIAN_POINT('',(3.510341863694,12.05,3.889651494707));
#289 = CARTESIAN_POINT('',(3.503572733526,12.042574788876,3.779247446592
    ));
#290 = CARTESIAN_POINT('',(3.490025205815,12.027711599485,3.669759862014
    ));
#291 = CARTESIAN_POINT('',(3.469614540424,12.005642115142,3.562102324462
    ));
#292 = CARTESIAN_POINT('',(3.418064079124,11.951429949226,3.364701079567
    ));
#293 = CARTESIAN_POINT('',(3.388496295092,11.92080407018,3.274329443359)
  );
#294 = CARTESIAN_POINT('',(3.353447366791,11.885284976625,3.186775166063
    ));
#295 = CARTESIAN_POINT('',(3.312913919545,11.845428566448,3.102656528285
    ));
#296 = CARTESIAN_POINT('',(3.222554781377,11.75981594382,2.944852451932)
  );
#297 = CARTESIAN_POINT('',(3.173108498367,11.714324298857,2.870959499742
    ));
#298 = CARTESIAN_POINT('',(3.11877386901,11.666090351576,2.801245385463)
  );
#299 = CARTESIAN_POINT('',(3.059813322696,11.61590194227,2.736007435944)
  );
#300 = CARTESIAN_POINT('',(2.970631778184,11.54338810201,2.650360986423)
  );
#301 = CARTESIAN_POINT('',(2.94389411463,11.522029117802,2.626145822397)
  );
#302 = CARTESIAN_POINT('',(2.91646995262,11.500524542081,2.602712775773)
  );
#303 = CARTESIAN_POINT('',(2.888389131568,11.478925787446,2.580061427895
    ));
#304 = CARTESIAN_POINT('',(2.811884955753,11.421242169585,2.521759013403
    ));
#305 = CARTESIAN_POINT('',(2.762368493481,11.385088145113,2.48749352957)
  );
#306 = CARTESIAN_POINT('',(2.711255116861,11.349024877302,2.455337653007
    ));
#307 = CARTESIAN_POINT('',(2.658688865601,11.313247473014,2.425223557987
    ));
#308 = CARTESIAN_POINT('',(2.604838709677,11.277933120331,2.397069265389
    ));
#309 = ORIENTED_EDGE('',*,*,#310,.T.);
#310 = EDGE_CURVE('',#264,#123,#311,.T.);
#311 = B_SPLINE_CURVE_WITH_KNOTS('',7,(#312,#313,#314,#315,#316,#317,
    #318,#319,#320,#321,#322,#323,#324,#325,#326,#327,#328,#329,#330,
    #331,#332,#333,#334,#335,#336,#337,#338,#339,#340,#341,#342,#343),
  .UNSPECIFIED.,.F.,.F.,(8,6,6,6,6,8),(0.,0.430792395259,0.54998975185,
    0.734483259868,0.847631832257,1.),.UNSPECIFIED.);
#312 = CARTESIAN_POINT('',(2.604838709677,11.277933120331,2.397069265389
    ));
#313 = CARTESIAN_POINT('',(2.470112315717,11.189581001186,2.326630726237
    ));
#314 = CARTESIAN_POINT('',(2.338995854167,11.091524814357,2.257748498878
    ));
#315 = CARTESIAN_POINT('',(2.211161583169,10.982927672409,2.191713777836
    ));
#316 = CARTESIAN_POINT('',(2.087024314604,10.862845016,2.130041523905));
#317 = CARTESIAN_POINT('',(1.967545300951,10.730401962949,2.074769840338
    ));
#318 = CARTESIAN_POINT('',(1.854238635535,10.58491223696,2.028523083782)
  );
#319 = CARTESIAN_POINT('',(1.719955399857,10.382222716103,1.985447286375
    ));
#320 = CARTESIAN_POINT('',(1.691473734711,10.337277006546,1.97706885004)
  );
#321 = CARTESIAN_POINT('',(1.663676257185,10.291341199327,1.969728279511
    ));
#322 = CARTESIAN_POINT('',(1.636623161792,10.244446183295,1.963506324444
    ));
#323 = CARTESIAN_POINT('',(1.610371721116,10.196626315669,1.958483849025
    ));
#324 = CARTESIAN_POINT('',(1.584976285808,10.147919422038,1.954741831966
    ));
#325 = CARTESIAN_POINT('',(1.52258578927,10.021669309064,1.948676885275)
  );
#326 = CARTESIAN_POINT('',(1.486790745184,9.942812102932,1.948247965208)
  );
#327 = CARTESIAN_POINT('',(1.453458321249,9.86224155547,1.951411456126)
  );
#328 = CARTESIAN_POINT('',(1.422849877704,9.780425283802,1.958430133596)
  );
#329 = CARTESIAN_POINT('',(1.39513771012,9.697845246024,1.969488834071)
  );
#330 = CARTESIAN_POINT('',(1.370409793412,9.614990842557,1.98469059003)
  );
#331 = CARTESIAN_POINT('',(1.335344438952,9.481670206635,2.015927451067)
  );
#332 = CARTESIAN_POINT('',(1.323157415455,9.431135700899,2.029351470757)
  );
#333 = CARTESIAN_POINT('',(1.312114476162,9.38087699573,2.04431769936));
#334 = CARTESIAN_POINT('',(1.302203472641,9.331022154055,2.060803668979)
  );
#335 = CARTESIAN_POINT('',(1.29340012328,9.281697702182,2.078770969286)
  );
#336 = CARTESIAN_POINT('',(1.28566904935,9.233027525697,2.098164648153)
  );
#337 = CARTESIAN_POINT('',(1.269936747504,9.120634360818,2.1468522426));
#338 = CARTESIAN_POINT('',(1.262777057221,9.05758665277,2.177228080495)
  );
#339 = CARTESIAN_POINT('',(1.257351978677,8.996145733932,2.209915143412)
  );
#340 = CARTESIAN_POINT('',(1.253516822208,8.936460457013,2.244768544273)
  );
#341 = CARTESIAN_POINT('',(1.251118823988,8.878669334561,2.281622370024)
  );
#342 = CARTESIAN_POINT('',(1.25,8.822898438821,2.32028856016));
#343 = CARTESIAN_POINT('',(1.25,8.769259301592,2.360555785248));
#344 = ORIENTED_EDGE('',*,*,#130,.T.);
#345 = ORIENTED_EDGE('',*,*,#255,.F.);
#346 = CYLINDRICAL_SURFACE('',#347,2.05);
#347 = AXIS2_PLACEMENT_3D('',#348,#349,#350);
#348 = CARTESIAN_POINT('',(-4.75,10.,4.));
#349 = DIRECTION('',(-1.,0.,0.));
#350 = DIRECTION('',(0.,-1.,0.));
#351 = ADVANCED_FACE('',(#352),#407,.F.);
#352 = FACE_BOUND('',#353,.T.);
#353 = EDGE_LOOP('',(#354,#364,#399,#400));
#354 = ORIENTED_EDGE('',*,*,#355,.F.);
#355 = EDGE_CURVE('',#356,#358,#360,.T.);
#356 = VERTEX_POINT('',#357);
#357 = CARTESIAN_POINT('',(2.604838709677,-11.27793312033,5.602930734611
    ));
#358 = VERTEX_POINT('',#359);
#359 = CARTESIAN_POINT('',(2.604838709677,-11.27793312033,7.6));
#360 = LINE('',#361,#362);
#361 = CARTESIAN_POINT('',(2.604838709677,-11.27793312033,0.));
#362 = VECTOR('',#363,1.);
#363 = DIRECTION('',(0.,0.,1.));
#364 = ORIENTED_EDGE('',*,*,#365,.T.);
#365 = EDGE_CURVE('',#356,#40,#366,.T.);
#366 = B_SPLINE_CURVE_WITH_KNOTS('',7,(#367,#368,#369,#370,#371,#372,
    #373,#374,#375,#376,#377,#378,#379,#380,#381,#382,#383,#384,#385,
    #386,#387,#388,#389,#390,#391,#392,#393,#394,#395,#396,#397,#398),
  .UNSPECIFIED.,.F.,.F.,(8,6,6,6,6,8),(0.,0.430792205751,0.549989559727,
    0.734483146502,0.847631767202,1.),.UNSPECIFIED.);
#367 = CARTESIAN_POINT('',(2.604838709677,-11.27793312033,5.602930734611
    ));
#368 = CARTESIAN_POINT('',(2.470112315717,-11.18958100118,5.673369273763
    ));
#369 = CARTESIAN_POINT('',(2.338995854167,-11.09152481435,5.742251501122
    ));
#370 = CARTESIAN_POINT('',(2.211161583169,-10.9829276724,5.808286222164)
  );
#371 = CARTESIAN_POINT('',(2.087024314604,-10.862845016,5.869958476095)
  );
#372 = CARTESIAN_POINT('',(1.967545300951,-10.73040196294,5.925230159662
    ));
#373 = CARTESIAN_POINT('',(1.854238635535,-10.58491223696,5.971476916218
    ));
#374 = CARTESIAN_POINT('',(1.719955387693,-10.38222269774,6.014552717527
    ));
#375 = CARTESIAN_POINT('',(1.69147373284,-10.33727700594,6.022931151519)
  );
#376 = CARTESIAN_POINT('',(1.663676266217,-10.29134121582,6.030271718827
    ));
#377 = CARTESIAN_POINT('',(1.636623171294,-10.24444619823,6.036493672759
    ));
#378 = CARTESIAN_POINT('',(1.610371720421,-10.19662631118,6.0415161497)
  );
#379 = CARTESIAN_POINT('',(1.584976274819,-10.1479193998,6.045258169103)
  );
#380 = CARTESIAN_POINT('',(1.522585789267,-10.02166930905,6.051323114725
    ));
#381 = CARTESIAN_POINT('',(1.486790745184,-9.942812102931,6.051752034791
    ));
#382 = CARTESIAN_POINT('',(1.453458321251,-9.862241555474,6.048588543874
    ));
#383 = CARTESIAN_POINT('',(1.422849877705,-9.780425283807,6.041569866405
    ));
#384 = CARTESIAN_POINT('',(1.395137710119,-9.697845246024,6.030511165929
    ));
#385 = CARTESIAN_POINT('',(1.37040979341,-9.614990842551,6.015309409969)
  );
#386 = CARTESIAN_POINT('',(1.335344438952,-9.481670206635,5.984072548933
    ));
#387 = CARTESIAN_POINT('',(1.323157415455,-9.431135700899,5.970648529243
    ));
#388 = CARTESIAN_POINT('',(1.312114476162,-9.38087699573,5.95568230064)
  );
#389 = CARTESIAN_POINT('',(1.302203472641,-9.331022154055,5.939196331021
    ));
#390 = CARTESIAN_POINT('',(1.29340012328,-9.281697702182,5.921229030714)
  );
#391 = CARTESIAN_POINT('',(1.28566904935,-9.233027525697,5.901835351847)
  );
#392 = CARTESIAN_POINT('',(1.269936747504,-9.120634360818,5.8531477574)
  );
#393 = CARTESIAN_POINT('',(1.262777057221,-9.05758665277,5.822771919505)
  );
#394 = CARTESIAN_POINT('',(1.257351978677,-8.996145733932,5.790084856588
    ));
#395 = CARTESIAN_POINT('',(1.253516822208,-8.936460457013,5.755231455727
    ));
#396 = CARTESIAN_POINT('',(1.251118823988,-8.878669334561,5.718377629976
    ));
#397 = CARTESIAN_POINT('',(1.25,-8.822898438821,5.67971143984));
#398 = CARTESIAN_POINT('',(1.25,-8.769259301592,5.639444214752));
#399 = ORIENTED_EDGE('',*,*,#39,.T.);
#400 = ORIENTED_EDGE('',*,*,#401,.F.);
#401 = EDGE_CURVE('',#358,#32,#402,.T.);
#402 = CIRCLE('',#403,3.);
#403 = AXIS2_PLACEMENT_3D('',#404,#405,#406);
#404 = CARTESIAN_POINT('',(4.25,-8.769259301592,7.6));
#405 = DIRECTION('',(-0.,0.,-1.));
#406 = DIRECTION('',(-0.548387096774,-0.836224606246,0.));
#407 = CYLINDRICAL_SURFACE('',#408,3.);
#408 = AXIS2_PLACEMENT_3D('',#409,#410,#411);
#409 = CARTESIAN_POINT('',(4.25,-8.769259301592,0.));
#410 = DIRECTION('',(-0.,-0.,-1.));
#411 = DIRECTION('',(1.,0.,0.));
#412 = ADVANCED_FACE('',(#413),#522,.F.);
#413 = FACE_BOUND('',#414,.F.);
#414 = EDGE_LOOP('',(#415,#424,#432,#457,#458,#459,#496,#521));
#415 = ORIENTED_EDGE('',*,*,#416,.F.);
#416 = EDGE_CURVE('',#417,#417,#419,.T.);
#417 = VERTEX_POINT('',#418);
#418 = CARTESIAN_POINT('',(-4.75,-12.05,4.));
#419 = CIRCLE('',#420,2.05);
#420 = AXIS2_PLACEMENT_3D('',#421,#422,#423);
#421 = CARTESIAN_POINT('',(-4.75,-10.,4.));
#422 = DIRECTION('',(-1.,0.,0.));
#423 = DIRECTION('',(0.,-1.,0.));
#424 = ORIENTED_EDGE('',*,*,#425,.T.);
#425 = EDGE_CURVE('',#417,#426,#428,.T.);
#426 = VERTEX_POINT('',#427);
#427 = CARTESIAN_POINT('',(3.510341863694,-12.05,4.));
#428 = LINE('',#429,#430);
#429 = CARTESIAN_POINT('',(-4.75,-12.05,4.));
#430 = VECTOR('',#431,1.);
#431 = DIRECTION('',(1.,0.,0.));
#432 = ORIENTED_EDGE('',*,*,#433,.T.);
#433 = EDGE_CURVE('',#426,#356,#434,.T.);
#434 = B_SPLINE_CURVE_WITH_KNOTS('',5,(#435,#436,#437,#438,#439,#440,
    #441,#442,#443,#444,#445,#446,#447,#448,#449,#450,#451,#452,#453,
    #454,#455,#456),.UNSPECIFIED.,.F.,.F.,(6,4,4,4,4,6),(0.,
    0.272807757402,0.512921858596,0.7450739879,0.840727276809,1.),
  .UNSPECIFIED.);
#435 = CARTESIAN_POINT('',(3.510341863694,-12.05,4.));
#436 = CARTESIAN_POINT('',(3.510341863694,-12.05,4.110348505293));
#437 = CARTESIAN_POINT('',(3.503572733526,-12.04257478887,4.220752553408
    ));
#438 = CARTESIAN_POINT('',(3.490025205815,-12.02771159948,4.330240137986
    ));
#439 = CARTESIAN_POINT('',(3.469614540424,-12.00564211514,4.437897675538
    ));
#440 = CARTESIAN_POINT('',(3.418064079124,-11.95142994922,4.635298920433
    ));
#441 = CARTESIAN_POINT('',(3.388496295092,-11.92080407018,4.725670556641
    ));
#442 = CARTESIAN_POINT('',(3.353447366791,-11.88528497662,4.813224833937
    ));
#443 = CARTESIAN_POINT('',(3.312913919545,-11.84542856644,4.897343471715
    ));
#444 = CARTESIAN_POINT('',(3.222554781377,-11.75981594382,5.055147548068
    ));
#445 = CARTESIAN_POINT('',(3.173108498367,-11.71432429885,5.129040500258
    ));
#446 = CARTESIAN_POINT('',(3.11877386901,-11.66609035157,5.198754614537)
  );
#447 = CARTESIAN_POINT('',(3.059813322695,-11.61590194227,5.263992564056
    ));
#448 = CARTESIAN_POINT('',(2.970631778184,-11.54338810201,5.349639013577
    ));
#449 = CARTESIAN_POINT('',(2.94389411463,-11.5220291178,5.373854177603)
  );
#450 = CARTESIAN_POINT('',(2.91646995262,-11.50052454208,5.397287224227)
  );
#451 = CARTESIAN_POINT('',(2.888389131568,-11.47892578744,5.419938572105
    ));
#452 = CARTESIAN_POINT('',(2.811884955754,-11.42124216958,5.478240986596
    ));
#453 = CARTESIAN_POINT('',(2.76236849348,-11.38508814511,5.51250647043)
  );
#454 = CARTESIAN_POINT('',(2.711255116861,-11.3490248773,5.544662346993)
  );
#455 = CARTESIAN_POINT('',(2.658688865602,-11.31324747301,5.574776442013
    ));
#456 = CARTESIAN_POINT('',(2.604838709677,-11.27793312033,5.602930734611
    ));
#457 = ORIENTED_EDGE('',*,*,#365,.T.);
#458 = ORIENTED_EDGE('',*,*,#47,.T.);
#459 = ORIENTED_EDGE('',*,*,#460,.T.);
#460 = EDGE_CURVE('',#48,#461,#463,.T.);
#461 = VERTEX_POINT('',#462);
#462 = CARTESIAN_POINT('',(2.604838709677,-11.27793312033,2.397069265389
    ));
#463 = B_SPLINE_CURVE_WITH_KNOTS('',7,(#464,#465,#466,#467,#468,#469,
    #470,#471,#472,#473,#474,#475,#476,#477,#478,#479,#480,#481,#482,
    #483,#484,#485,#486,#487,#488,#489,#490,#491,#492,#493,#494,#495),
  .UNSPECIFIED.,.F.,.F.,(8,6,6,6,6,8),(0.,9.852124020843E-02,
    0.262212581908,0.390116521785,0.567821965418,1.),.UNSPECIFIED.);
#464 = CARTESIAN_POINT('',(1.25,-8.769259301592,2.360555785248));
#465 = CARTESIAN_POINT('',(1.25,-8.803936609265,2.334523320416));
#466 = CARTESIAN_POINT('',(1.25046752066,-8.839485515514,2.309174644593)
  );
#467 = CARTESIAN_POINT('',(1.251445179588,-8.875882397148,2.284559056314
    ));
#468 = CARTESIAN_POINT('',(1.252975352643,-8.913101734341,2.260723367962
    ));
#469 = CARTESIAN_POINT('',(1.255100173928,-8.951116110632,2.237711905762
    ));
#470 = CARTESIAN_POINT('',(1.257861535797,-8.989896212926,2.215566509787
    ));
#471 = CARTESIAN_POINT('',(1.267015846944,-9.095063688847,2.159036680376
    ));
#472 = CARTESIAN_POINT('',(1.274608095665,-9.162811738573,2.126210283044
    ));
#473 = CARTESIAN_POINT('',(1.284260134671,-9.232346510852,2.096130577624
    ));
#474 = CARTESIAN_POINT('',(1.296122413617,-9.303338611259,2.06901196179)
  );
#475 = CARTESIAN_POINT('',(1.310307162632,-9.375444043373,2.045003440821
    ));
#476 = CARTESIAN_POINT('',(1.326882022797,-9.448310531387,2.024192073173
    ));
#477 = CARTESIAN_POINT('',(1.360695422039,-9.57883760526,1.992865464316)
  );
#478 = CARTESIAN_POINT('',(1.376977423741,-9.636265296488,1.981111780506
    ));
#479 = CARTESIAN_POINT('',(1.394708320203,-9.693685582479,1.971352309409
    ));
#480 = CARTESIAN_POINT('',(1.413865859568,-9.750916307097,1.963570043331
    ));
#481 = CARTESIAN_POINT('',(1.434405809704,-9.807775970709,1.957724852654
    ));
#482 = CARTESIAN_POINT('',(1.456260868282,-9.864085208908,1.953754316376
    ));
#483 = CARTESIAN_POINT('',(1.511404350817,-9.996893513525,1.948546062046
    ));
#484 = CARTESIAN_POINT('',(1.545797752217,-10.07263617477,1.94897746131)
  );
#485 = CARTESIAN_POINT('',(1.582373915211,-10.14669102993,1.952620877066
    ));
#486 = CARTESIAN_POINT('',(1.620960368534,-10.21887038086,1.959219025684
    ));
#487 = CARTESIAN_POINT('',(1.661358582259,-10.28900396056,1.968504781571
    ));
#488 = CARTESIAN_POINT('',(1.703344518557,-10.35693883745,1.98020074548)
  );
#489 = CARTESIAN_POINT('',(1.852034373938,-10.58207909994,2.027624227782
    ));
#490 = CARTESIAN_POINT('',(1.965607521109,-10.72825158055,2.073874072769
    ));
#491 = CARTESIAN_POINT('',(2.085411213773,-10.86128295014,2.129240421639
    ));
#492 = CARTESIAN_POINT('',(2.209913648916,-10.98186696364,2.191069140568
    ));
#493 = CARTESIAN_POINT('',(2.338142462303,-11.09088680943,2.257300162224
    ));
#494 = CARTESIAN_POINT('',(2.469675776427,-11.18929472341,2.326402491896
    ));
#495 = CARTESIAN_POINT('',(2.604838709677,-11.27793312033,2.397069265389
    ));
#496 = ORIENTED_EDGE('',*,*,#497,.T.);
#497 = EDGE_CURVE('',#461,#426,#498,.T.);
#498 = B_SPLINE_CURVE_WITH_KNOTS('',5,(#499,#500,#501,#502,#503,#504,
    #505,#506,#507,#508,#509,#510,#511,#512,#513,#514,#515,#516,#517,
    #518,#519,#520),.UNSPECIFIED.,.F.,.F.,(6,4,4,4,4,6),(0.,
    0.158472758926,0.255336599749,0.489138962089,0.727303441043,1.),
  .UNSPECIFIED.);
#499 = CARTESIAN_POINT('',(2.604838709677,-11.27793312033,2.397069265389
    ));
#500 = CARTESIAN_POINT('',(2.658418378631,-11.31307009057,2.425082140211
    ));
#501 = CARTESIAN_POINT('',(2.710726846009,-11.34866536597,2.455035094501
    ));
#502 = CARTESIAN_POINT('',(2.761597830803,-11.38454450033,2.487008925299
    ));
#503 = CARTESIAN_POINT('',(2.810889449096,-11.42051549509,2.52107059557)
  );
#504 = CARTESIAN_POINT('',(2.887572361066,-11.4782958015,2.579397460547)
  );
#505 = CARTESIAN_POINT('',(2.916022425925,-11.50017000874,2.602318889332
    ));
#506 = CARTESIAN_POINT('',(2.943799483586,-11.52194830587,2.626041942811
    ));
#507 = CARTESIAN_POINT('',(2.970872542348,-11.54357731724,2.650567080373
    ));
#508 = CARTESIAN_POINT('',(3.060789682964,-11.61671187586,2.737006659672
    ));
#509 = CARTESIAN_POINT('',(3.120106834915,-11.66723589404,2.802772814154
    ));
#510 = CARTESIAN_POINT('',(3.174727329842,-11.71576767249,2.873076942356
    ));
#511 = CARTESIAN_POINT('',(3.224384873357,-11.76150272155,2.947613230364
    ));
#512 = CARTESIAN_POINT('',(3.314323539868,-11.84681434903,3.105581522207
    ));
#513 = CARTESIAN_POINT('',(3.354385223369,-11.88623449933,3.189106488078
    ));
#514 = CARTESIAN_POINT('',(3.389050958559,-11.92137755358,3.276000002191
    ));
#515 = CARTESIAN_POINT('',(3.418324828222,-11.95170331411,3.365658191504
    ));
#516 = CARTESIAN_POINT('',(3.469647381156,-12.00567762398,3.56227555135)
  );
#517 = CARTESIAN_POINT('',(3.490041550822,-12.02772953341,3.669892006211
    ));
#518 = CARTESIAN_POINT('',(3.503578173551,-12.04258075535,3.779336251211
    ));
#519 = CARTESIAN_POINT('',(3.510341863694,-12.05,3.889695834277));
#520 = CARTESIAN_POINT('',(3.510341863694,-12.05,4.));
#521 = ORIENTED_EDGE('',*,*,#425,.F.);
#522 = CYLINDRICAL_SURFACE('',#523,2.05);
#523 = AXIS2_PLACEMENT_3D('',#524,#525,#526);
#524 = CARTESIAN_POINT('',(-4.75,-10.,4.));
#525 = DIRECTION('',(-1.,0.,0.));
#526 = DIRECTION('',(0.,-1.,0.));
#527 = ADVANCED_FACE('',(#528),#547,.F.);
#528 = FACE_BOUND('',#529,.T.);
#529 = EDGE_LOOP('',(#530,#539,#545,#546));
#530 = ORIENTED_EDGE('',*,*,#531,.F.);
#531 = EDGE_CURVE('',#532,#115,#534,.T.);
#532 = VERTEX_POINT('',#533);
#533 = CARTESIAN_POINT('',(2.604838709677,11.277933120331,0.));
#534 = CIRCLE('',#535,3.);
#535 = AXIS2_PLACEMENT_3D('',#536,#537,#538);
#536 = CARTESIAN_POINT('',(4.25,8.769259301592,0.));
#537 = DIRECTION('',(0.,0.,1.));
#538 = DIRECTION('',(1.,0.,0.));
#539 = ORIENTED_EDGE('',*,*,#540,.T.);
#540 = EDGE_CURVE('',#532,#264,#541,.T.);
#541 = LINE('',#542,#543);
#542 = CARTESIAN_POINT('',(2.604838709677,11.277933120331,0.));
#543 = VECTOR('',#544,1.);
#544 = DIRECTION('',(0.,0.,1.));
#545 = ORIENTED_EDGE('',*,*,#310,.T.);
#546 = ORIENTED_EDGE('',*,*,#122,.F.);
#547 = CYLINDRICAL_SURFACE('',#548,3.);
#548 = AXIS2_PLACEMENT_3D('',#549,#550,#551);
#549 = CARTESIAN_POINT('',(4.25,8.769259301592,0.));
#550 = DIRECTION('',(-0.,-0.,-1.));
#551 = DIRECTION('',(1.,0.,0.));
#552 = ADVANCED_FACE('',(#553),#572,.F.);
#553 = FACE_BOUND('',#554,.T.);
#554 = EDGE_LOOP('',(#555,#564,#565,#566));
#555 = ORIENTED_EDGE('',*,*,#556,.F.);
#556 = EDGE_CURVE('',#57,#557,#559,.T.);
#557 = VERTEX_POINT('',#558);
#558 = CARTESIAN_POINT('',(2.604838709677,-11.27793312033,0.));
#559 = CIRCLE('',#560,3.);
#560 = AXIS2_PLACEMENT_3D('',#561,#562,#563);
#561 = CARTESIAN_POINT('',(4.25,-8.769259301592,0.));
#562 = DIRECTION('',(0.,0.,1.));
#563 = DIRECTION('',(1.,0.,0.));
#564 = ORIENTED_EDGE('',*,*,#56,.T.);
#565 = ORIENTED_EDGE('',*,*,#460,.T.);
#566 = ORIENTED_EDGE('',*,*,#567,.F.);
#567 = EDGE_CURVE('',#557,#461,#568,.T.);
#568 = LINE('',#569,#570);
#569 = CARTESIAN_POINT('',(2.604838709677,-11.27793312033,0.));
#570 = VECTOR('',#571,1.);
#571 = DIRECTION('',(0.,0.,1.));
#572 = CYLINDRICAL_SURFACE('',#573,3.);
#573 = AXIS2_PLACEMENT_3D('',#574,#575,#576);
#574 = CARTESIAN_POINT('',(4.25,-8.769259301592,0.));
#575 = DIRECTION('',(-0.,-0.,-1.));
#576 = DIRECTION('',(1.,0.,0.));
#577 = ADVANCED_FACE('',(#578,#621),#632,.F.);
#578 = FACE_BOUND('',#579,.F.);
#579 = EDGE_LOOP('',(#580,#581,#582,#591,#599,#607,#615));
#580 = ORIENTED_EDGE('',*,*,#114,.F.);
#581 = ORIENTED_EDGE('',*,*,#531,.F.);
#582 = ORIENTED_EDGE('',*,*,#583,.T.);
#583 = EDGE_CURVE('',#532,#584,#586,.T.);
#584 = VERTEX_POINT('',#585);
#585 = CARTESIAN_POINT('',(-4.75,15.25,0.));
#586 = CIRCLE('',#587,4.75);
#587 = AXIS2_PLACEMENT_3D('',#588,#589,#590);
#588 = CARTESIAN_POINT('',(0.,15.25,0.));
#589 = DIRECTION('',(0.,0.,1.));
#590 = DIRECTION('',(1.,0.,0.));
#591 = ORIENTED_EDGE('',*,*,#592,.F.);
#592 = EDGE_CURVE('',#593,#584,#595,.T.);
#593 = VERTEX_POINT('',#594);
#594 = CARTESIAN_POINT('',(-4.75,8.330127018922,0.));
#595 = LINE('',#596,#597);
#596 = CARTESIAN_POINT('',(-4.75,-15.25,0.));
#597 = VECTOR('',#598,1.);
#598 = DIRECTION('',(0.,1.,0.));
#599 = ORIENTED_EDGE('',*,*,#600,.T.);
#600 = EDGE_CURVE('',#593,#601,#603,.T.);
#601 = VERTEX_POINT('',#602);
#602 = CARTESIAN_POINT('',(-3.75,7.175426480543,0.));
#603 = LINE('',#604,#605);
#604 = CARTESIAN_POINT('',(-1.545804743618,4.630241031306,-3.E-17));
#605 = VECTOR('',#606,1.);
#606 = DIRECTION('',(0.654653670708,-0.755928946018,0.));
#607 = ORIENTED_EDGE('',*,*,#608,.T.);
#608 = EDGE_CURVE('',#601,#609,#611,.T.);
#609 = VERTEX_POINT('',#610);
#610 = CARTESIAN_POINT('',(0.25,7.175426480543,0.));
#611 = LINE('',#612,#613);
#612 = CARTESIAN_POINT('',(-4.75,7.175426480543,0.));
#613 = VECTOR('',#614,1.);
#614 = DIRECTION('',(1.,0.,0.));
#615 = ORIENTED_EDGE('',*,*,#616,.F.);
#616 = EDGE_CURVE('',#107,#609,#617,.T.);
#617 = LINE('',#618,#619);
#618 = CARTESIAN_POINT('',(-1.882434237983,4.713103517886,-2.2E-16));
#619 = VECTOR('',#620,1.);
#620 = DIRECTION('',(-0.654653670708,-0.755928946018,0.));
#621 = FACE_BOUND('',#622,.F.);
#622 = EDGE_LOOP('',(#623));
#623 = ORIENTED_EDGE('',*,*,#624,.T.);
#624 = EDGE_CURVE('',#625,#625,#627,.T.);
#625 = VERTEX_POINT('',#626);
#626 = CARTESIAN_POINT('',(2.4,15.25,0.));
#627 = CIRCLE('',#628,2.4);
#628 = AXIS2_PLACEMENT_3D('',#629,#630,#631);
#629 = CARTESIAN_POINT('',(0.,15.25,0.));
#630 = DIRECTION('',(0.,0.,-1.));
#631 = DIRECTION('',(1.,0.,0.));
#632 = PLANE('',#633);
#633 = AXIS2_PLACEMENT_3D('',#634,#635,#636);
#634 = CARTESIAN_POINT('',(-0.749224290402,-1.3E-16,0.));
#635 = DIRECTION('',(0.,0.,1.));
#636 = DIRECTION('',(1.,0.,0.));
#637 = ADVANCED_FACE('',(#638,#681),#692,.F.);
#638 = FACE_BOUND('',#639,.F.);
#639 = EDGE_LOOP('',(#640,#650,#658,#666,#673,#674,#675));
#640 = ORIENTED_EDGE('',*,*,#641,.F.);
#641 = EDGE_CURVE('',#642,#644,#646,.T.);
#642 = VERTEX_POINT('',#643);
#643 = CARTESIAN_POINT('',(-3.75,-7.175426480543,-2.E-15));
#644 = VERTEX_POINT('',#645);
#645 = CARTESIAN_POINT('',(0.25,-7.175426480543,1.E-15));
#646 = LINE('',#647,#648);
#647 = CARTESIAN_POINT('',(-4.75,-7.175426480543,0.));
#648 = VECTOR('',#649,1.);
#649 = DIRECTION('',(1.,0.,0.));
#650 = ORIENTED_EDGE('',*,*,#651,.F.);
#651 = EDGE_CURVE('',#652,#642,#654,.T.);
#652 = VERTEX_POINT('',#653);
#653 = CARTESIAN_POINT('',(-4.75,-8.330127018922,0.));
#654 = LINE('',#655,#656);
#655 = CARTESIAN_POINT('',(-1.188661886475,-4.217847981885,-4.4E-16));
#656 = VECTOR('',#657,1.);
#657 = DIRECTION('',(0.654653670708,0.755928946018,0.));
#658 = ORIENTED_EDGE('',*,*,#659,.F.);
#659 = EDGE_CURVE('',#660,#652,#662,.T.);
#660 = VERTEX_POINT('',#661);
#661 = CARTESIAN_POINT('',(-4.75,-15.25,0.));
#662 = LINE('',#663,#664);
#663 = CARTESIAN_POINT('',(-4.75,-15.25,0.));
#664 = VECTOR('',#665,1.);
#665 = DIRECTION('',(0.,1.,0.));
#666 = ORIENTED_EDGE('',*,*,#667,.T.);
#667 = EDGE_CURVE('',#660,#557,#668,.T.);
#668 = CIRCLE('',#669,4.75);
#669 = AXIS2_PLACEMENT_3D('',#670,#671,#672);
#670 = CARTESIAN_POINT('',(0.,-15.25,0.));
#671 = DIRECTION('',(0.,0.,1.));
#672 = DIRECTION('',(1.,0.,0.));
#673 = ORIENTED_EDGE('',*,*,#556,.F.);
#674 = ORIENTED_EDGE('',*,*,#64,.F.);
#675 = ORIENTED_EDGE('',*,*,#676,.T.);
#676 = EDGE_CURVE('',#65,#644,#677,.T.);
#677 = LINE('',#678,#679);
#678 = CARTESIAN_POINT('',(-1.52529138084,-5.125496567307,3.E-17));
#679 = VECTOR('',#680,1.);
#680 = DIRECTION('',(-0.654653670708,0.755928946018,0.));
#681 = FACE_BOUND('',#682,.F.);
#682 = EDGE_LOOP('',(#683));
#683 = ORIENTED_EDGE('',*,*,#684,.T.);
#684 = EDGE_CURVE('',#685,#685,#687,.T.);
#685 = VERTEX_POINT('',#686);
#686 = CARTESIAN_POINT('',(2.4,-15.25,0.));
#687 = CIRCLE('',#688,2.4);
#688 = AXIS2_PLACEMENT_3D('',#689,#690,#691);
#689 = CARTESIAN_POINT('',(0.,-15.25,0.));
#690 = DIRECTION('',(0.,0.,-1.));
#691 = DIRECTION('',(1.,0.,0.));
#692 = PLANE('',#693);
#693 = AXIS2_PLACEMENT_3D('',#694,#695,#696);
#694 = CARTESIAN_POINT('',(-0.749224290402,-1.3E-16,0.));
#695 = DIRECTION('',(0.,0.,1.));
#696 = DIRECTION('',(1.,0.,0.));
#697 = ADVANCED_FACE('',(#698),#716,.T.);
#698 = FACE_BOUND('',#699,.F.);
#699 = EDGE_LOOP('',(#700,#708,#709,#710));
#700 = ORIENTED_EDGE('',*,*,#701,.F.);
#701 = EDGE_CURVE('',#98,#702,#704,.T.);
#702 = VERTEX_POINT('',#703);
#703 = CARTESIAN_POINT('',(0.25,5.732050807569,2.5));
#704 = LINE('',#705,#706);
#705 = CARTESIAN_POINT('',(0.25,5.732050807569,2.5));
#706 = VECTOR('',#707,1.);
#707 = DIRECTION('',(-0.707106781187,-0.612372435696,-0.353553390593));
#708 = ORIENTED_EDGE('',*,*,#106,.T.);
#709 = ORIENTED_EDGE('',*,*,#616,.T.);
#710 = ORIENTED_EDGE('',*,*,#711,.F.);
#711 = EDGE_CURVE('',#702,#609,#712,.T.);
#712 = LINE('',#713,#714);
#713 = CARTESIAN_POINT('',(0.25,5.732050807569,2.5));
#714 = VECTOR('',#715,1.);
#715 = DIRECTION('',(0.,0.5,-0.866025403784));
#716 = PLANE('',#717);
#717 = AXIS2_PLACEMENT_3D('',#718,#719,#720);
#718 = CARTESIAN_POINT('',(0.75,6.165063509461,2.75));
#719 = DIRECTION('',(0.707106781187,-0.612372435696,-0.353553390593));
#720 = DIRECTION('',(-2.775557561563E-17,-0.5,0.866025403784));
#721 = ADVANCED_FACE('',(#722),#740,.F.);
#722 = FACE_BOUND('',#723,.F.);
#723 = EDGE_LOOP('',(#724,#725,#726,#734));
#724 = ORIENTED_EDGE('',*,*,#676,.F.);
#725 = ORIENTED_EDGE('',*,*,#72,.T.);
#726 = ORIENTED_EDGE('',*,*,#727,.T.);
#727 = EDGE_CURVE('',#73,#728,#730,.T.);
#728 = VERTEX_POINT('',#729);
#729 = CARTESIAN_POINT('',(0.25,-5.732050807569,2.5));
#730 = LINE('',#731,#732);
#731 = CARTESIAN_POINT('',(0.75,-6.165063509461,2.75));
#732 = VECTOR('',#733,1.);
#733 = DIRECTION('',(-0.707106781187,0.612372435696,-0.353553390593));
#734 = ORIENTED_EDGE('',*,*,#735,.F.);
#735 = EDGE_CURVE('',#644,#728,#736,.T.);
#736 = LINE('',#737,#738);
#737 = CARTESIAN_POINT('',(0.25,-7.175426480543,-4.4E-16));
#738 = VECTOR('',#739,1.);
#739 = DIRECTION('',(0.,0.5,0.866025403784));
#740 = PLANE('',#741);
#741 = AXIS2_PLACEMENT_3D('',#742,#743,#744);
#742 = CARTESIAN_POINT('',(0.75,-7.608439182435,0.25));
#743 = DIRECTION('',(-0.707106781187,-0.612372435696,0.353553390593));
#744 = DIRECTION('',(2.775557561563E-17,0.5,0.866025403784));
#745 = ADVANCED_FACE('',(#746),#765,.F.);
#746 = FACE_BOUND('',#747,.F.);
#747 = EDGE_LOOP('',(#748,#756,#757,#758));
#748 = ORIENTED_EDGE('',*,*,#749,.F.);
#749 = EDGE_CURVE('',#90,#750,#752,.T.);
#750 = VERTEX_POINT('',#751);
#751 = CARTESIAN_POINT('',(0.25,4.,3.5));
#752 = LINE('',#753,#754);
#753 = CARTESIAN_POINT('',(0.75,4.,4.));
#754 = VECTOR('',#755,1.);
#755 = DIRECTION('',(-0.707106781187,-4.E-17,-0.707106781187));
#756 = ORIENTED_EDGE('',*,*,#97,.T.);
#757 = ORIENTED_EDGE('',*,*,#701,.T.);
#758 = ORIENTED_EDGE('',*,*,#759,.F.);
#759 = EDGE_CURVE('',#750,#702,#760,.T.);
#760 = CIRCLE('',#761,2.);
#761 = AXIS2_PLACEMENT_3D('',#762,#763,#764);
#762 = CARTESIAN_POINT('',(0.25,4.,1.5));
#763 = DIRECTION('',(-1.,0.,0.));
#764 = DIRECTION('',(0.,-5.33E-15,1.));
#765 = CONICAL_SURFACE('',#766,2.,0.785398163397);
#766 = AXIS2_PLACEMENT_3D('',#767,#768,#769);
#767 = CARTESIAN_POINT('',(0.25,4.,1.5));
#768 = DIRECTION('',(1.,0.,0.));
#769 = DIRECTION('',(0.,-5.33E-15,1.));
#770 = ADVANCED_FACE('',(#771),#790,.F.);
#771 = FACE_BOUND('',#772,.F.);
#772 = EDGE_LOOP('',(#773,#774,#775,#783));
#773 = ORIENTED_EDGE('',*,*,#727,.F.);
#774 = ORIENTED_EDGE('',*,*,#80,.T.);
#775 = ORIENTED_EDGE('',*,*,#776,.T.);
#776 = EDGE_CURVE('',#81,#777,#779,.T.);
#777 = VERTEX_POINT('',#778);
#778 = CARTESIAN_POINT('',(0.25,-4.,3.5));
#779 = LINE('',#780,#781);
#780 = CARTESIAN_POINT('',(0.25,-4.,3.5));
#781 = VECTOR('',#782,1.);
#782 = DIRECTION('',(-0.707106781187,-3.66E-15,-0.707106781187));
#783 = ORIENTED_EDGE('',*,*,#784,.F.);
#784 = EDGE_CURVE('',#728,#777,#785,.T.);
#785 = CIRCLE('',#786,2.);
#786 = AXIS2_PLACEMENT_3D('',#787,#788,#789);
#787 = CARTESIAN_POINT('',(0.25,-4.,1.5));
#788 = DIRECTION('',(-1.,0.,0.));
#789 = DIRECTION('',(0.,-0.866025403784,0.5));
#790 = CONICAL_SURFACE('',#791,2.,0.785398163397);
#791 = AXIS2_PLACEMENT_3D('',#792,#793,#794);
#792 = CARTESIAN_POINT('',(0.25,-4.,1.5));
#793 = DIRECTION('',(1.,0.,0.));
#794 = DIRECTION('',(0.,-0.866025403784,0.5));
#795 = ADVANCED_FACE('',(#796),#807,.F.);
#796 = FACE_BOUND('',#797,.F.);
#797 = EDGE_LOOP('',(#798,#799,#800,#801));
#798 = ORIENTED_EDGE('',*,*,#776,.F.);
#799 = ORIENTED_EDGE('',*,*,#89,.T.);
#800 = ORIENTED_EDGE('',*,*,#749,.T.);
#801 = ORIENTED_EDGE('',*,*,#802,.F.);
#802 = EDGE_CURVE('',#777,#750,#803,.T.);
#803 = LINE('',#804,#805);
#804 = CARTESIAN_POINT('',(0.25,-4.,3.5));
#805 = VECTOR('',#806,1.);
#806 = DIRECTION('',(0.,1.,-6.E-17));
#807 = PLANE('',#808);
#808 = AXIS2_PLACEMENT_3D('',#809,#810,#811);
#809 = CARTESIAN_POINT('',(0.75,-4.,4.));
#810 = DIRECTION('',(-0.707106781187,1.E-17,0.707106781187));
#811 = DIRECTION('',(-2.292893218813E-17,1.,-3.707106781187E-17));
#812 = ADVANCED_FACE('',(#813),#832,.F.);
#813 = FACE_BOUND('',#814,.T.);
#814 = EDGE_LOOP('',(#815,#816,#817,#825));
#815 = ORIENTED_EDGE('',*,*,#224,.F.);
#816 = ORIENTED_EDGE('',*,*,#200,.T.);
#817 = ORIENTED_EDGE('',*,*,#818,.T.);
#818 = EDGE_CURVE('',#193,#819,#821,.T.);
#819 = VERTEX_POINT('',#820);
#820 = CARTESIAN_POINT('',(2.385483870968,11.612422962829,8.));
#821 = LINE('',#822,#823);
#822 = CARTESIAN_POINT('',(2.604838709677,11.277933120331,7.6));
#823 = VECTOR('',#824,1.);
#824 = DIRECTION('',(-0.387768234844,0.591300089672,0.707106781187));
#825 = ORIENTED_EDGE('',*,*,#826,.F.);
#826 = EDGE_CURVE('',#225,#819,#827,.T.);
#827 = CIRCLE('',#828,3.4);
#828 = AXIS2_PLACEMENT_3D('',#829,#830,#831);
#829 = CARTESIAN_POINT('',(4.25,8.769259301592,8.));
#830 = DIRECTION('',(0.,0.,-1.));
#831 = DIRECTION('',(-1.,0.,0.));
#832 = CONICAL_SURFACE('',#833,3.,0.785398163397);
#833 = AXIS2_PLACEMENT_3D('',#834,#835,#836);
#834 = CARTESIAN_POINT('',(4.25,8.769259301592,7.6));
#835 = DIRECTION('',(0.,0.,1.));
#836 = DIRECTION('',(-1.,0.,0.));
#837 = ADVANCED_FACE('',(#838),#859,.T.);
#838 = FACE_BOUND('',#839,.F.);
#839 = EDGE_LOOP('',(#840,#848,#849,#850,#851,#852));
#840 = ORIENTED_EDGE('',*,*,#841,.F.);
#841 = EDGE_CURVE('',#584,#842,#844,.T.);
#842 = VERTEX_POINT('',#843);
#843 = CARTESIAN_POINT('',(-4.75,15.25,7.6));
#844 = LINE('',#845,#846);
#845 = CARTESIAN_POINT('',(-4.75,15.25,0.));
#846 = VECTOR('',#847,1.);
#847 = DIRECTION('',(0.,0.,1.));
#848 = ORIENTED_EDGE('',*,*,#583,.F.);
#849 = ORIENTED_EDGE('',*,*,#540,.T.);
#850 = ORIENTED_EDGE('',*,*,#263,.F.);
#851 = ORIENTED_EDGE('',*,*,#192,.T.);
#852 = ORIENTED_EDGE('',*,*,#853,.T.);
#853 = EDGE_CURVE('',#193,#842,#854,.T.);
#854 = CIRCLE('',#855,4.75);
#855 = AXIS2_PLACEMENT_3D('',#856,#857,#858);
#856 = CARTESIAN_POINT('',(0.,15.25,7.6));
#857 = DIRECTION('',(-0.,0.,1.));
#858 = DIRECTION('',(0.548387096774,-0.836224606246,0.));
#859 = CYLINDRICAL_SURFACE('',#860,4.75);
#860 = AXIS2_PLACEMENT_3D('',#861,#862,#863);
#861 = CARTESIAN_POINT('',(0.,15.25,0.));
#862 = DIRECTION('',(-0.,-0.,-1.));
#863 = DIRECTION('',(1.,0.,0.));
#864 = ADVANCED_FACE('',(#865),#884,.F.);
#865 = FACE_BOUND('',#866,.T.);
#866 = EDGE_LOOP('',(#867,#875,#876,#877));
#867 = ORIENTED_EDGE('',*,*,#868,.F.);
#868 = EDGE_CURVE('',#358,#869,#871,.T.);
#869 = VERTEX_POINT('',#870);
#870 = CARTESIAN_POINT('',(2.385483870968,-11.61242296282,8.));
#871 = LINE('',#872,#873);
#872 = CARTESIAN_POINT('',(2.604838709677,-11.27793312033,7.6));
#873 = VECTOR('',#874,1.);
#874 = DIRECTION('',(-0.387768234844,-0.591300089672,0.707106781187));
#875 = ORIENTED_EDGE('',*,*,#401,.T.);
#876 = ORIENTED_EDGE('',*,*,#215,.T.);
#877 = ORIENTED_EDGE('',*,*,#878,.F.);
#878 = EDGE_CURVE('',#869,#216,#879,.T.);
#879 = CIRCLE('',#880,3.4);
#880 = AXIS2_PLACEMENT_3D('',#881,#882,#883);
#881 = CARTESIAN_POINT('',(4.25,-8.769259301592,8.));
#882 = DIRECTION('',(-0.,0.,-1.));
#883 = DIRECTION('',(-0.548387096774,-0.836224606246,0.));
#884 = CONICAL_SURFACE('',#885,3.,0.785398163397);
#885 = AXIS2_PLACEMENT_3D('',#886,#887,#888);
#886 = CARTESIAN_POINT('',(4.25,-8.769259301592,7.6));
#887 = DIRECTION('',(0.,0.,1.));
#888 = DIRECTION('',(-0.548387096774,-0.836224606246,0.));
#889 = ADVANCED_FACE('',(#890,#919,#930),#941,.T.);
#890 = FACE_BOUND('',#891,.T.);
#891 = EDGE_LOOP('',(#892,#901,#909,#916,#917,#918));
#892 = ORIENTED_EDGE('',*,*,#893,.T.);
#893 = EDGE_CURVE('',#819,#894,#896,.T.);
#894 = VERTEX_POINT('',#895);
#895 = CARTESIAN_POINT('',(-4.35,15.25,8.));
#896 = CIRCLE('',#897,4.35);
#897 = AXIS2_PLACEMENT_3D('',#898,#899,#900);
#898 = CARTESIAN_POINT('',(0.,15.25,8.));
#899 = DIRECTION('',(-0.,0.,1.));
#900 = DIRECTION('',(0.548387096774,-0.836224606246,0.));
#901 = ORIENTED_EDGE('',*,*,#902,.T.);
#902 = EDGE_CURVE('',#894,#903,#905,.T.);
#903 = VERTEX_POINT('',#904);
#904 = CARTESIAN_POINT('',(-4.35,-15.25,8.));
#905 = LINE('',#906,#907);
#906 = CARTESIAN_POINT('',(-4.35,15.25,8.));
#907 = VECTOR('',#908,1.);
#908 = DIRECTION('',(-0.,-1.,-0.));
#909 = ORIENTED_EDGE('',*,*,#910,.T.);
#910 = EDGE_CURVE('',#903,#869,#911,.T.);
#911 = CIRCLE('',#912,4.35);
#912 = AXIS2_PLACEMENT_3D('',#913,#914,#915);
#913 = CARTESIAN_POINT('',(0.,-15.25,8.));
#914 = DIRECTION('',(0.,0.,1.));
#915 = DIRECTION('',(-1.,0.,0.));
#916 = ORIENTED_EDGE('',*,*,#878,.T.);
#917 = ORIENTED_EDGE('',*,*,#232,.T.);
#918 = ORIENTED_EDGE('',*,*,#826,.T.);
#919 = FACE_BOUND('',#920,.T.);
#920 = EDGE_LOOP('',(#921));
#921 = ORIENTED_EDGE('',*,*,#922,.F.);
#922 = EDGE_CURVE('',#923,#923,#925,.T.);
#923 = VERTEX_POINT('',#924);
#924 = CARTESIAN_POINT('',(2.45,15.25,8.));
#925 = CIRCLE('',#926,2.45);
#926 = AXIS2_PLACEMENT_3D('',#927,#928,#929);
#927 = CARTESIAN_POINT('',(0.,15.25,8.));
#928 = DIRECTION('',(0.,0.,1.));
#929 = DIRECTION('',(1.,0.,-0.));
#930 = FACE_BOUND('',#931,.T.);
#931 = EDGE_LOOP('',(#932));
#932 = ORIENTED_EDGE('',*,*,#933,.F.);
#933 = EDGE_CURVE('',#934,#934,#936,.T.);
#934 = VERTEX_POINT('',#935);
#935 = CARTESIAN_POINT('',(2.45,-15.25,8.));
#936 = CIRCLE('',#937,2.45);
#937 = AXIS2_PLACEMENT_3D('',#938,#939,#940);
#938 = CARTESIAN_POINT('',(0.,-15.25,8.));
#939 = DIRECTION('',(0.,0.,1.));
#940 = DIRECTION('',(1.,0.,-0.));
#941 = PLANE('',#942);
#942 = AXIS2_PLACEMENT_3D('',#943,#944,#945);
#943 = CARTESIAN_POINT('',(-0.749224290402,-1.3E-16,8.));
#944 = DIRECTION('',(0.,0.,1.));
#945 = DIRECTION('',(1.,0.,0.));
#946 = ADVANCED_FACE('',(#947,#1006,#1009),#1012,.T.);
#947 = FACE_BOUND('',#948,.T.);
#948 = EDGE_LOOP('',(#949,#957,#963,#964,#965,#973,#982,#990,#999,#1005)
  );
#949 = ORIENTED_EDGE('',*,*,#950,.T.);
#950 = EDGE_CURVE('',#660,#951,#953,.T.);
#951 = VERTEX_POINT('',#952);
#952 = CARTESIAN_POINT('',(-4.75,-15.25,7.6));
#953 = LINE('',#954,#955);
#954 = CARTESIAN_POINT('',(-4.75,-15.25,0.));
#955 = VECTOR('',#956,1.);
#956 = DIRECTION('',(0.,0.,1.));
#957 = ORIENTED_EDGE('',*,*,#958,.F.);
#958 = EDGE_CURVE('',#842,#951,#959,.T.);
#959 = LINE('',#960,#961);
#960 = CARTESIAN_POINT('',(-4.75,15.25,7.6));
#961 = VECTOR('',#962,1.);
#962 = DIRECTION('',(-0.,-1.,-0.));
#963 = ORIENTED_EDGE('',*,*,#841,.F.);
#964 = ORIENTED_EDGE('',*,*,#592,.F.);
#965 = ORIENTED_EDGE('',*,*,#966,.T.);
#966 = EDGE_CURVE('',#593,#967,#969,.T.);
#967 = VERTEX_POINT('',#968);
#968 = CARTESIAN_POINT('',(-4.75,6.598076211353,3.));
#969 = LINE('',#970,#971);
#970 = CARTESIAN_POINT('',(-4.75,8.041451884327,0.5));
#971 = VECTOR('',#972,1.);
#972 = DIRECTION('',(0.,-0.5,0.866025403784));
#973 = ORIENTED_EDGE('',*,*,#974,.T.);
#974 = EDGE_CURVE('',#967,#975,#977,.T.);
#975 = VERTEX_POINT('',#976);
#976 = CARTESIAN_POINT('',(-4.75,4.,4.5));
#977 = CIRCLE('',#978,3.);
#978 = AXIS2_PLACEMENT_3D('',#979,#980,#981);
#979 = CARTESIAN_POINT('',(-4.75,4.,1.5));
#980 = DIRECTION('',(1.,0.,-0.));
#981 = DIRECTION('',(0.,0.866025403784,0.5));
#982 = ORIENTED_EDGE('',*,*,#983,.T.);
#983 = EDGE_CURVE('',#975,#984,#986,.T.);
#984 = VERTEX_POINT('',#985);
#985 = CARTESIAN_POINT('',(-4.75,-4.,4.5));
#986 = LINE('',#987,#988);
#987 = CARTESIAN_POINT('',(-4.75,4.,4.5));
#988 = VECTOR('',#989,1.);
#989 = DIRECTION('',(0.,-1.,6.E-17));
#990 = ORIENTED_EDGE('',*,*,#991,.T.);
#991 = EDGE_CURVE('',#984,#992,#994,.T.);
#992 = VERTEX_POINT('',#993);
#993 = CARTESIAN_POINT('',(-4.75,-6.598076211353,3.));
#994 = CIRCLE('',#995,3.);
#995 = AXIS2_PLACEMENT_3D('',#996,#997,#998);
#996 = CARTESIAN_POINT('',(-4.75,-4.,1.5));
#997 = DIRECTION('',(1.,0.,-0.));
#998 = DIRECTION('',(0.,5.77E-15,1.));
#999 = ORIENTED_EDGE('',*,*,#1000,.T.);
#1000 = EDGE_CURVE('',#992,#652,#1001,.T.);
#1001 = LINE('',#1002,#1003);
#1002 = CARTESIAN_POINT('',(-4.75,-6.598076211353,3.));
#1003 = VECTOR('',#1004,1.);
#1004 = DIRECTION('',(-0.,-0.5,-0.866025403784));
#1005 = ORIENTED_EDGE('',*,*,#659,.F.);
#1006 = FACE_BOUND('',#1007,.T.);
#1007 = EDGE_LOOP('',(#1008));
#1008 = ORIENTED_EDGE('',*,*,#416,.F.);
#1009 = FACE_BOUND('',#1010,.T.);
#1010 = EDGE_LOOP('',(#1011));
#1011 = ORIENTED_EDGE('',*,*,#246,.F.);
#1012 = PLANE('',#1013);
#1013 = AXIS2_PLACEMENT_3D('',#1014,#1015,#1016);
#1014 = CARTESIAN_POINT('',(-4.75,-15.25,0.));
#1015 = DIRECTION('',(-1.,0.,0.));
#1016 = DIRECTION('',(0.,1.,0.));
#1017 = ADVANCED_FACE('',(#1018),#1033,.T.);
#1018 = FACE_BOUND('',#1019,.F.);
#1019 = EDGE_LOOP('',(#1020,#1021,#1022,#1023,#1024,#1025,#1026));
#1020 = ORIENTED_EDGE('',*,*,#355,.F.);
#1021 = ORIENTED_EDGE('',*,*,#433,.F.);
#1022 = ORIENTED_EDGE('',*,*,#497,.F.);
#1023 = ORIENTED_EDGE('',*,*,#567,.F.);
#1024 = ORIENTED_EDGE('',*,*,#667,.F.);
#1025 = ORIENTED_EDGE('',*,*,#950,.T.);
#1026 = ORIENTED_EDGE('',*,*,#1027,.T.);
#1027 = EDGE_CURVE('',#951,#358,#1028,.T.);
#1028 = CIRCLE('',#1029,4.75);
#1029 = AXIS2_PLACEMENT_3D('',#1030,#1031,#1032);
#1030 = CARTESIAN_POINT('',(0.,-15.25,7.6));
#1031 = DIRECTION('',(0.,0.,1.));
#1032 = DIRECTION('',(-1.,0.,0.));
#1033 = CYLINDRICAL_SURFACE('',#1034,4.75);
#1034 = AXIS2_PLACEMENT_3D('',#1035,#1036,#1037);
#1035 = CARTESIAN_POINT('',(0.,-15.25,0.));
#1036 = DIRECTION('',(-0.,-0.,-1.));
#1037 = DIRECTION('',(1.,0.,0.));
#1038 = ADVANCED_FACE('',(#1039),#1057,.T.);
#1039 = FACE_BOUND('',#1040,.T.);
#1040 = EDGE_LOOP('',(#1041,#1049,#1055,#1056));
#1041 = ORIENTED_EDGE('',*,*,#1042,.F.);
#1042 = EDGE_CURVE('',#1043,#702,#1045,.T.);
#1043 = VERTEX_POINT('',#1044);
#1044 = CARTESIAN_POINT('',(-3.75,5.732050807569,2.5));
#1045 = LINE('',#1046,#1047);
#1046 = CARTESIAN_POINT('',(-4.75,5.732050807569,2.5));
#1047 = VECTOR('',#1048,1.);
#1048 = DIRECTION('',(1.,0.,0.));
#1049 = ORIENTED_EDGE('',*,*,#1050,.F.);
#1050 = EDGE_CURVE('',#601,#1043,#1051,.T.);
#1051 = LINE('',#1052,#1053);
#1052 = CARTESIAN_POINT('',(-3.75,7.175426480543,8.9E-16));
#1053 = VECTOR('',#1054,1.);
#1054 = DIRECTION('',(0.,-0.5,0.866025403784));
#1055 = ORIENTED_EDGE('',*,*,#608,.T.);
#1056 = ORIENTED_EDGE('',*,*,#711,.F.);
#1057 = PLANE('',#1058);
#1058 = AXIS2_PLACEMENT_3D('',#1059,#1060,#1061);
#1059 = CARTESIAN_POINT('',(-4.75,7.175426480543,0.));
#1060 = DIRECTION('',(0.,-0.866025403784,-0.5));
#1061 = DIRECTION('',(0.,-0.5,0.866025403784));
#1062 = ADVANCED_FACE('',(#1063),#1074,.T.);
#1063 = FACE_BOUND('',#1064,.F.);
#1064 = EDGE_LOOP('',(#1065,#1066,#1067,#1073));
#1065 = ORIENTED_EDGE('',*,*,#600,.F.);
#1066 = ORIENTED_EDGE('',*,*,#966,.T.);
#1067 = ORIENTED_EDGE('',*,*,#1068,.T.);
#1068 = EDGE_CURVE('',#967,#1043,#1069,.T.);
#1069 = LINE('',#1070,#1071);
#1070 = CARTESIAN_POINT('',(-4.25,6.165063509461,2.75));
#1071 = VECTOR('',#1072,1.);
#1072 = DIRECTION('',(0.707106781187,-0.612372435696,-0.353553390593));
#1073 = ORIENTED_EDGE('',*,*,#1050,.F.);
#1074 = PLANE('',#1075);
#1075 = AXIS2_PLACEMENT_3D('',#1076,#1077,#1078);
#1076 = CARTESIAN_POINT('',(-4.25,7.608439182435,0.25));
#1077 = DIRECTION('',(-0.707106781187,-0.612372435696,-0.353553390593));
#1078 = DIRECTION('',(-2.775557561563E-17,0.5,-0.866025403784));
#1079 = ADVANCED_FACE('',(#1080),#1099,.F.);
#1080 = FACE_BOUND('',#1081,.F.);
#1081 = EDGE_LOOP('',(#1082,#1090,#1097,#1098));
#1082 = ORIENTED_EDGE('',*,*,#1083,.T.);
#1083 = EDGE_CURVE('',#625,#1084,#1086,.T.);
#1084 = VERTEX_POINT('',#1085);
#1085 = CARTESIAN_POINT('',(2.4,15.25,0.8));
#1086 = LINE('',#1087,#1088);
#1087 = CARTESIAN_POINT('',(2.4,15.25,0.));
#1088 = VECTOR('',#1089,1.);
#1089 = DIRECTION('',(0.,0.,1.));
#1090 = ORIENTED_EDGE('',*,*,#1091,.T.);
#1091 = EDGE_CURVE('',#1084,#1084,#1092,.T.);
#1092 = CIRCLE('',#1093,2.4);
#1093 = AXIS2_PLACEMENT_3D('',#1094,#1095,#1096);
#1094 = CARTESIAN_POINT('',(0.,15.25,0.8));
#1095 = DIRECTION('',(0.,0.,-1.));
#1096 = DIRECTION('',(1.,0.,0.));
#1097 = ORIENTED_EDGE('',*,*,#1083,.F.);
#1098 = ORIENTED_EDGE('',*,*,#624,.F.);
#1099 = CYLINDRICAL_SURFACE('',#1100,2.4);
#1100 = AXIS2_PLACEMENT_3D('',#1101,#1102,#1103);
#1101 = CARTESIAN_POINT('',(0.,15.25,0.));
#1102 = DIRECTION('',(0.,0.,-1.));
#1103 = DIRECTION('',(1.,0.,0.));
#1104 = ADVANCED_FACE('',(#1105),#1123,.F.);
#1105 = FACE_BOUND('',#1106,.F.);
#1106 = EDGE_LOOP('',(#1107,#1115,#1121,#1122));
#1107 = ORIENTED_EDGE('',*,*,#1108,.F.);
#1108 = EDGE_CURVE('',#1109,#728,#1111,.T.);
#1109 = VERTEX_POINT('',#1110);
#1110 = CARTESIAN_POINT('',(-3.75,-5.732050807569,2.5));
#1111 = LINE('',#1112,#1113);
#1112 = CARTESIAN_POINT('',(-4.75,-5.732050807569,2.5));
#1113 = VECTOR('',#1114,1.);
#1114 = DIRECTION('',(1.,0.,0.));
#1115 = ORIENTED_EDGE('',*,*,#1116,.T.);
#1116 = EDGE_CURVE('',#1109,#642,#1117,.T.);
#1117 = LINE('',#1118,#1119);
#1118 = CARTESIAN_POINT('',(-3.75,-5.732050807569,2.5));
#1119 = VECTOR('',#1120,1.);
#1120 = DIRECTION('',(-0.,-0.5,-0.866025403784));
#1121 = ORIENTED_EDGE('',*,*,#641,.T.);
#1122 = ORIENTED_EDGE('',*,*,#735,.T.);
#1123 = PLANE('',#1124);
#1124 = AXIS2_PLACEMENT_3D('',#1125,#1126,#1127);
#1125 = CARTESIAN_POINT('',(-4.75,-7.175426480543,0.));
#1126 = DIRECTION('',(0.,-0.866025403784,0.5));
#1127 = DIRECTION('',(0.,0.5,0.866025403784));
#1128 = ADVANCED_FACE('',(#1129),#1140,.F.);
#1129 = FACE_BOUND('',#1130,.F.);
#1130 = EDGE_LOOP('',(#1131,#1137,#1138,#1139));
#1131 = ORIENTED_EDGE('',*,*,#1132,.F.);
#1132 = EDGE_CURVE('',#992,#1109,#1133,.T.);
#1133 = LINE('',#1134,#1135);
#1134 = CARTESIAN_POINT('',(-3.75,-5.732050807569,2.5));
#1135 = VECTOR('',#1136,1.);
#1136 = DIRECTION('',(0.707106781187,0.612372435696,-0.353553390593));
#1137 = ORIENTED_EDGE('',*,*,#1000,.T.);
#1138 = ORIENTED_EDGE('',*,*,#651,.T.);
#1139 = ORIENTED_EDGE('',*,*,#1116,.F.);
#1140 = PLANE('',#1141);
#1141 = AXIS2_PLACEMENT_3D('',#1142,#1143,#1144);
#1142 = CARTESIAN_POINT('',(-4.25,-6.165063509461,2.75));
#1143 = DIRECTION('',(0.707106781187,-0.612372435696,0.353553390593));
#1144 = DIRECTION('',(8.326672684689E-17,-0.5,-0.866025403784));
#1145 = ADVANCED_FACE('',(#1146),#1165,.F.);
#1146 = FACE_BOUND('',#1147,.F.);
#1147 = EDGE_LOOP('',(#1148,#1156,#1163,#1164));
#1148 = ORIENTED_EDGE('',*,*,#1149,.T.);
#1149 = EDGE_CURVE('',#685,#1150,#1152,.T.);
#1150 = VERTEX_POINT('',#1151);
#1151 = CARTESIAN_POINT('',(2.4,-15.25,0.8));
#1152 = LINE('',#1153,#1154);
#1153 = CARTESIAN_POINT('',(2.4,-15.25,0.));
#1154 = VECTOR('',#1155,1.);
#1155 = DIRECTION('',(0.,0.,1.));
#1156 = ORIENTED_EDGE('',*,*,#1157,.T.);
#1157 = EDGE_CURVE('',#1150,#1150,#1158,.T.);
#1158 = CIRCLE('',#1159,2.4);
#1159 = AXIS2_PLACEMENT_3D('',#1160,#1161,#1162);
#1160 = CARTESIAN_POINT('',(0.,-15.25,0.8));
#1161 = DIRECTION('',(0.,0.,-1.));
#1162 = DIRECTION('',(1.,0.,0.));
#1163 = ORIENTED_EDGE('',*,*,#1149,.F.);
#1164 = ORIENTED_EDGE('',*,*,#684,.F.);
#1165 = CYLINDRICAL_SURFACE('',#1166,2.4);
#1166 = AXIS2_PLACEMENT_3D('',#1167,#1168,#1169);
#1167 = CARTESIAN_POINT('',(0.,-15.25,0.));
#1168 = DIRECTION('',(0.,0.,-1.));
#1169 = DIRECTION('',(1.,0.,0.));
#1170 = ADVANCED_FACE('',(#1171),#1190,.F.);
#1171 = FACE_BOUND('',#1172,.F.);
#1172 = EDGE_LOOP('',(#1173,#1174,#1183,#1189));
#1173 = ORIENTED_EDGE('',*,*,#1042,.F.);
#1174 = ORIENTED_EDGE('',*,*,#1175,.T.);
#1175 = EDGE_CURVE('',#1043,#1176,#1178,.T.);
#1176 = VERTEX_POINT('',#1177);
#1177 = CARTESIAN_POINT('',(-3.75,4.,3.5));
#1178 = CIRCLE('',#1179,2.);
#1179 = AXIS2_PLACEMENT_3D('',#1180,#1181,#1182);
#1180 = CARTESIAN_POINT('',(-3.75,4.,1.5));
#1181 = DIRECTION('',(1.,0.,-0.));
#1182 = DIRECTION('',(0.,0.866025403784,0.5));
#1183 = ORIENTED_EDGE('',*,*,#1184,.T.);
#1184 = EDGE_CURVE('',#1176,#750,#1185,.T.);
#1185 = LINE('',#1186,#1187);
#1186 = CARTESIAN_POINT('',(-4.75,4.,3.5));
#1187 = VECTOR('',#1188,1.);
#1188 = DIRECTION('',(1.,0.,0.));
#1189 = ORIENTED_EDGE('',*,*,#759,.T.);
#1190 = CYLINDRICAL_SURFACE('',#1191,2.);
#1191 = AXIS2_PLACEMENT_3D('',#1192,#1193,#1194);
#1192 = CARTESIAN_POINT('',(-4.75,4.,1.5));
#1193 = DIRECTION('',(-1.,0.,0.));
#1194 = DIRECTION('',(0.,-1.,0.));
#1195 = ADVANCED_FACE('',(#1196),#1215,.F.);
#1196 = FACE_BOUND('',#1197,.F.);
#1197 = EDGE_LOOP('',(#1198,#1206,#1213,#1214));
#1198 = ORIENTED_EDGE('',*,*,#1199,.F.);
#1199 = EDGE_CURVE('',#1200,#777,#1202,.T.);
#1200 = VERTEX_POINT('',#1201);
#1201 = CARTESIAN_POINT('',(-3.75,-4.,3.5));
#1202 = LINE('',#1203,#1204);
#1203 = CARTESIAN_POINT('',(-4.75,-4.,3.5));
#1204 = VECTOR('',#1205,1.);
#1205 = DIRECTION('',(1.,0.,0.));
#1206 = ORIENTED_EDGE('',*,*,#1207,.T.);
#1207 = EDGE_CURVE('',#1200,#1109,#1208,.T.);
#1208 = CIRCLE('',#1209,2.);
#1209 = AXIS2_PLACEMENT_3D('',#1210,#1211,#1212);
#1210 = CARTESIAN_POINT('',(-3.75,-4.,1.5));
#1211 = DIRECTION('',(1.,0.,-0.));
#1212 = DIRECTION('',(0.,5.77E-15,1.));
#1213 = ORIENTED_EDGE('',*,*,#1108,.T.);
#1214 = ORIENTED_EDGE('',*,*,#784,.T.);
#1215 = CYLINDRICAL_SURFACE('',#1216,2.);
#1216 = AXIS2_PLACEMENT_3D('',#1217,#1218,#1219);
#1217 = CARTESIAN_POINT('',(-4.75,-4.,1.5));
#1218 = DIRECTION('',(-1.,0.,0.));
#1219 = DIRECTION('',(0.,-1.,0.));
#1220 = ADVANCED_FACE('',(#1221),#1232,.F.);
#1221 = FACE_BOUND('',#1222,.F.);
#1222 = EDGE_LOOP('',(#1223,#1224,#1230,#1231));
#1223 = ORIENTED_EDGE('',*,*,#1184,.F.);
#1224 = ORIENTED_EDGE('',*,*,#1225,.T.);
#1225 = EDGE_CURVE('',#1176,#1200,#1226,.T.);
#1226 = LINE('',#1227,#1228);
#1227 = CARTESIAN_POINT('',(-3.75,4.,3.5));
#1228 = VECTOR('',#1229,1.);
#1229 = DIRECTION('',(0.,-1.,6.E-17));
#1230 = ORIENTED_EDGE('',*,*,#1199,.T.);
#1231 = ORIENTED_EDGE('',*,*,#802,.T.);
#1232 = PLANE('',#1233);
#1233 = AXIS2_PLACEMENT_3D('',#1234,#1235,#1236);
#1234 = CARTESIAN_POINT('',(-4.75,-4.,3.5));
#1235 = DIRECTION('',(0.,6.E-17,1.));
#1236 = DIRECTION('',(0.,1.,-6.E-17));
#1237 = ADVANCED_FACE('',(#1238),#1249,.T.);
#1238 = FACE_BOUND('',#1239,.T.);
#1239 = EDGE_LOOP('',(#1240,#1241,#1242,#1248));
#1240 = ORIENTED_EDGE('',*,*,#818,.F.);
#1241 = ORIENTED_EDGE('',*,*,#853,.T.);
#1242 = ORIENTED_EDGE('',*,*,#1243,.T.);
#1243 = EDGE_CURVE('',#842,#894,#1244,.T.);
#1244 = LINE('',#1245,#1246);
#1245 = CARTESIAN_POINT('',(-4.75,15.25,7.6));
#1246 = VECTOR('',#1247,1.);
#1247 = DIRECTION('',(0.707106781187,-2.8E-16,0.707106781187));
#1248 = ORIENTED_EDGE('',*,*,#893,.F.);
#1249 = CONICAL_SURFACE('',#1250,4.75,0.785398163397);
#1250 = AXIS2_PLACEMENT_3D('',#1251,#1252,#1253);
#1251 = CARTESIAN_POINT('',(0.,15.25,7.6));
#1252 = DIRECTION('',(-0.,-0.,-1.));
#1253 = DIRECTION('',(0.548387096774,-0.836224606246,0.));
#1254 = ADVANCED_FACE('',(#1255),#1266,.T.);
#1255 = FACE_BOUND('',#1256,.T.);
#1256 = EDGE_LOOP('',(#1257,#1263,#1264,#1265));
#1257 = ORIENTED_EDGE('',*,*,#1258,.F.);
#1258 = EDGE_CURVE('',#951,#903,#1259,.T.);
#1259 = LINE('',#1260,#1261);
#1260 = CARTESIAN_POINT('',(-4.55,-15.25,7.8));
#1261 = VECTOR('',#1262,1.);
#1262 = DIRECTION('',(0.707106781187,0.,0.707106781187));
#1263 = ORIENTED_EDGE('',*,*,#1027,.T.);
#1264 = ORIENTED_EDGE('',*,*,#868,.T.);
#1265 = ORIENTED_EDGE('',*,*,#910,.F.);
#1266 = CONICAL_SURFACE('',#1267,4.75,0.785398163397);
#1267 = AXIS2_PLACEMENT_3D('',#1268,#1269,#1270);
#1268 = CARTESIAN_POINT('',(0.,-15.25,7.6));
#1269 = DIRECTION('',(-0.,-0.,-1.));
#1270 = DIRECTION('',(-1.,0.,0.));
#1271 = ADVANCED_FACE('',(#1272),#1278,.T.);
#1272 = FACE_BOUND('',#1273,.T.);
#1273 = EDGE_LOOP('',(#1274,#1275,#1276,#1277));
#1274 = ORIENTED_EDGE('',*,*,#1243,.F.);
#1275 = ORIENTED_EDGE('',*,*,#958,.T.);
#1276 = ORIENTED_EDGE('',*,*,#1258,.T.);
#1277 = ORIENTED_EDGE('',*,*,#902,.F.);
#1278 = PLANE('',#1279);
#1279 = AXIS2_PLACEMENT_3D('',#1280,#1281,#1282);
#1280 = CARTESIAN_POINT('',(-4.55,15.25,7.8));
#1281 = DIRECTION('',(-0.707106781187,0.,0.707106781187));
#1282 = DIRECTION('',(0.,-1.,0.));
#1283 = ADVANCED_FACE('',(#1284),#1303,.F.);
#1284 = FACE_BOUND('',#1285,.T.);
#1285 = EDGE_LOOP('',(#1286,#1294,#1295,#1296));
#1286 = ORIENTED_EDGE('',*,*,#1287,.F.);
#1287 = EDGE_CURVE('',#923,#1288,#1290,.T.);
#1288 = VERTEX_POINT('',#1289);
#1289 = CARTESIAN_POINT('',(2.05,15.25,7.6));
#1290 = LINE('',#1291,#1292);
#1291 = CARTESIAN_POINT('',(2.05,15.25,7.6));
#1292 = VECTOR('',#1293,1.);
#1293 = DIRECTION('',(-0.707106781187,-0.,-0.707106781187));
#1294 = ORIENTED_EDGE('',*,*,#922,.T.);
#1295 = ORIENTED_EDGE('',*,*,#1287,.T.);
#1296 = ORIENTED_EDGE('',*,*,#1297,.F.);
#1297 = EDGE_CURVE('',#1288,#1288,#1298,.T.);
#1298 = CIRCLE('',#1299,2.05);
#1299 = AXIS2_PLACEMENT_3D('',#1300,#1301,#1302);
#1300 = CARTESIAN_POINT('',(0.,15.25,7.6));
#1301 = DIRECTION('',(0.,0.,1.));
#1302 = DIRECTION('',(1.,0.,-0.));
#1303 = CONICAL_SURFACE('',#1304,2.05,0.785398163397);
#1304 = AXIS2_PLACEMENT_3D('',#1305,#1306,#1307);
#1305 = CARTESIAN_POINT('',(0.,15.25,7.6));
#1306 = DIRECTION('',(0.,0.,1.));
#1307 = DIRECTION('',(1.,0.,0.));
#1308 = ADVANCED_FACE('',(#1309),#1328,.F.);
#1309 = FACE_BOUND('',#1310,.T.);
#1310 = EDGE_LOOP('',(#1311,#1319,#1320,#1321));
#1311 = ORIENTED_EDGE('',*,*,#1312,.F.);
#1312 = EDGE_CURVE('',#934,#1313,#1315,.T.);
#1313 = VERTEX_POINT('',#1314);
#1314 = CARTESIAN_POINT('',(2.05,-15.25,7.6));
#1315 = LINE('',#1316,#1317);
#1316 = CARTESIAN_POINT('',(2.05,-15.25,7.6));
#1317 = VECTOR('',#1318,1.);
#1318 = DIRECTION('',(-0.707106781187,-0.,-0.707106781187));
#1319 = ORIENTED_EDGE('',*,*,#933,.T.);
#1320 = ORIENTED_EDGE('',*,*,#1312,.T.);
#1321 = ORIENTED_EDGE('',*,*,#1322,.F.);
#1322 = EDGE_CURVE('',#1313,#1313,#1323,.T.);
#1323 = CIRCLE('',#1324,2.05);
#1324 = AXIS2_PLACEMENT_3D('',#1325,#1326,#1327);
#1325 = CARTESIAN_POINT('',(0.,-15.25,7.6));
#1326 = DIRECTION('',(0.,0.,1.));
#1327 = DIRECTION('',(1.,0.,-0.));
#1328 = CONICAL_SURFACE('',#1329,2.05,0.785398163397);
#1329 = AXIS2_PLACEMENT_3D('',#1330,#1331,#1332);
#1330 = CARTESIAN_POINT('',(0.,-15.25,7.6));
#1331 = DIRECTION('',(0.,0.,1.));
#1332 = DIRECTION('',(1.,0.,0.));
#1333 = ADVANCED_FACE('',(#1334),#1345,.F.);
#1334 = FACE_BOUND('',#1335,.F.);
#1335 = EDGE_LOOP('',(#1336,#1342,#1343,#1344));
#1336 = ORIENTED_EDGE('',*,*,#1337,.F.);
#1337 = EDGE_CURVE('',#984,#1200,#1338,.T.);
#1338 = LINE('',#1339,#1340);
#1339 = CARTESIAN_POINT('',(-4.25,-4.,4.));
#1340 = VECTOR('',#1341,1.);
#1341 = DIRECTION('',(0.707106781187,-4.E-17,-0.707106781187));
#1342 = ORIENTED_EDGE('',*,*,#991,.T.);
#1343 = ORIENTED_EDGE('',*,*,#1132,.T.);
#1344 = ORIENTED_EDGE('',*,*,#1207,.F.);
#1345 = CONICAL_SURFACE('',#1346,2.,0.785398163397);
#1346 = AXIS2_PLACEMENT_3D('',#1347,#1348,#1349);
#1347 = CARTESIAN_POINT('',(-3.75,-4.,1.5));
#1348 = DIRECTION('',(-1.,-0.,-0.));
#1349 = DIRECTION('',(0.,5.77E-15,1.));
#1350 = ADVANCED_FACE('',(#1351),#1362,.F.);
#1351 = FACE_BOUND('',#1352,.F.);
#1352 = EDGE_LOOP('',(#1353,#1359,#1360,#1361));
#1353 = ORIENTED_EDGE('',*,*,#1354,.F.);
#1354 = EDGE_CURVE('',#975,#1176,#1355,.T.);
#1355 = LINE('',#1356,#1357);
#1356 = CARTESIAN_POINT('',(-3.75,4.,3.5));
#1357 = VECTOR('',#1358,1.);
#1358 = DIRECTION('',(0.707106781187,3.61E-15,-0.707106781187));
#1359 = ORIENTED_EDGE('',*,*,#983,.T.);
#1360 = ORIENTED_EDGE('',*,*,#1337,.T.);
#1361 = ORIENTED_EDGE('',*,*,#1225,.F.);
#1362 = PLANE('',#1363);
#1363 = AXIS2_PLACEMENT_3D('',#1364,#1365,#1366);
#1364 = CARTESIAN_POINT('',(-4.25,4.,4.));
#1365 = DIRECTION('',(0.707106781187,3.E-17,0.707106781187));
#1366 = DIRECTION('',(-8.786796564404E-18,-1.,5.12132034356E-17));
#1367 = ADVANCED_FACE('',(#1368),#1374,.F.);
#1368 = FACE_BOUND('',#1369,.F.);
#1369 = EDGE_LOOP('',(#1370,#1371,#1372,#1373));
#1370 = ORIENTED_EDGE('',*,*,#1068,.F.);
#1371 = ORIENTED_EDGE('',*,*,#974,.T.);
#1372 = ORIENTED_EDGE('',*,*,#1354,.T.);
#1373 = ORIENTED_EDGE('',*,*,#1175,.F.);
#1374 = CONICAL_SURFACE('',#1375,2.,0.785398163397);
#1375 = AXIS2_PLACEMENT_3D('',#1376,#1377,#1378);
#1376 = CARTESIAN_POINT('',(-3.75,4.,1.5));
#1377 = DIRECTION('',(-1.,-0.,-0.));
#1378 = DIRECTION('',(0.,0.866025403784,0.5));
#1379 = ADVANCED_FACE('',(#1380,#1383),#1394,.F.);
#1380 = FACE_BOUND('',#1381,.F.);
#1381 = EDGE_LOOP('',(#1382));
#1382 = ORIENTED_EDGE('',*,*,#1091,.F.);
#1383 = FACE_BOUND('',#1384,.F.);
#1384 = EDGE_LOOP('',(#1385));
#1385 = ORIENTED_EDGE('',*,*,#1386,.T.);
#1386 = EDGE_CURVE('',#1387,#1387,#1389,.T.);
#1387 = VERTEX_POINT('',#1388);
#1388 = CARTESIAN_POINT('',(2.05,15.25,0.8));
#1389 = CIRCLE('',#1390,2.05);
#1390 = AXIS2_PLACEMENT_3D('',#1391,#1392,#1393);
#1391 = CARTESIAN_POINT('',(0.,15.25,0.8));
#1392 = DIRECTION('',(0.,0.,-1.));
#1393 = DIRECTION('',(1.,0.,0.));
#1394 = PLANE('',#1395);
#1395 = AXIS2_PLACEMENT_3D('',#1396,#1397,#1398);
#1396 = CARTESIAN_POINT('',(-7.E-17,1.42E-15,0.8));
#1397 = DIRECTION('',(0.,0.,1.));
#1398 = DIRECTION('',(1.,0.,0.));
#1399 = ADVANCED_FACE('',(#1400,#1403),#1414,.F.);
#1400 = FACE_BOUND('',#1401,.F.);
#1401 = EDGE_LOOP('',(#1402));
#1402 = ORIENTED_EDGE('',*,*,#1157,.F.);
#1403 = FACE_BOUND('',#1404,.F.);
#1404 = EDGE_LOOP('',(#1405));
#1405 = ORIENTED_EDGE('',*,*,#1406,.T.);
#1406 = EDGE_CURVE('',#1407,#1407,#1409,.T.);
#1407 = VERTEX_POINT('',#1408);
#1408 = CARTESIAN_POINT('',(2.05,-15.25,0.8));
#1409 = CIRCLE('',#1410,2.05);
#1410 = AXIS2_PLACEMENT_3D('',#1411,#1412,#1413);
#1411 = CARTESIAN_POINT('',(0.,-15.25,0.8));
#1412 = DIRECTION('',(0.,0.,-1.));
#1413 = DIRECTION('',(1.,0.,0.));
#1414 = PLANE('',#1415);
#1415 = AXIS2_PLACEMENT_3D('',#1416,#1417,#1418);
#1416 = CARTESIAN_POINT('',(-7.E-17,1.42E-15,0.8));
#1417 = DIRECTION('',(0.,0.,1.));
#1418 = DIRECTION('',(1.,0.,0.));
#1419 = ADVANCED_FACE('',(#1420),#1431,.F.);
#1420 = FACE_BOUND('',#1421,.T.);
#1421 = EDGE_LOOP('',(#1422,#1428,#1429,#1430));
#1422 = ORIENTED_EDGE('',*,*,#1423,.F.);
#1423 = EDGE_CURVE('',#1387,#1288,#1424,.T.);
#1424 = LINE('',#1425,#1426);
#1425 = CARTESIAN_POINT('',(2.05,15.25,0.));
#1426 = VECTOR('',#1427,1.);
#1427 = DIRECTION('',(0.,0.,1.));
#1428 = ORIENTED_EDGE('',*,*,#1386,.T.);
#1429 = ORIENTED_EDGE('',*,*,#1423,.T.);
#1430 = ORIENTED_EDGE('',*,*,#1297,.T.);
#1431 = CYLINDRICAL_SURFACE('',#1432,2.05);
#1432 = AXIS2_PLACEMENT_3D('',#1433,#1434,#1435);
#1433 = CARTESIAN_POINT('',(0.,15.25,0.));
#1434 = DIRECTION('',(-0.,-0.,-1.));
#1435 = DIRECTION('',(1.,0.,0.));
#1436 = ADVANCED_FACE('',(#1437),#1448,.F.);
#1437 = FACE_BOUND('',#1438,.T.);
#1438 = EDGE_LOOP('',(#1439,#1445,#1446,#1447));
#1439 = ORIENTED_EDGE('',*,*,#1440,.F.);
#1440 = EDGE_CURVE('',#1407,#1313,#1441,.T.);
#1441 = LINE('',#1442,#1443);
#1442 = CARTESIAN_POINT('',(2.05,-15.25,0.));
#1443 = VECTOR('',#1444,1.);
#1444 = DIRECTION('',(0.,0.,1.));
#1445 = ORIENTED_EDGE('',*,*,#1406,.T.);
#1446 = ORIENTED_EDGE('',*,*,#1440,.T.);
#1447 = ORIENTED_EDGE('',*,*,#1322,.T.);
#1448 = CYLINDRICAL_SURFACE('',#1449,2.05);
#1449 = AXIS2_PLACEMENT_3D('',#1450,#1451,#1452);
#1450 = CARTESIAN_POINT('',(0.,-15.25,0.));
#1451 = DIRECTION('',(-0.,-0.,-1.));
#1452 = DIRECTION('',(1.,0.,0.));
#1453 = ( GEOMETRIC_REPRESENTATION_CONTEXT(3) 
GLOBAL_UNCERTAINTY_ASSIGNED_CONTEXT((#1457)) 
GLOBAL_UNIT_ASSIGNED_CONTEXT((#1454,#1455,#1456)) REPRESENTATION_CONTEXT
('Context #1','3D Context with UNIT and UNCERTAINTY') );
#1454 = ( LENGTH_UNIT() NAMED_UNIT(*) SI_UNIT(.MILLI.,.METRE.) );
#1455 = ( NAMED_UNIT(*) PLANE_ANGLE_UNIT() SI_UNIT($,.RADIAN.) );
#1456 = ( NAMED_UNIT(*) SI_UNIT($,.STERADIAN.) SOLID_ANGLE_UNIT() );
#1457 = UNCERTAINTY_MEASURE_WITH_UNIT(LENGTH_MEASURE(1.E-07),#1454,
  'distance_accuracy_value','confusion accuracy');
#1458 = PRODUCT_RELATED_PRODUCT_CATEGORY('part',$,(#7));
ENDSEC;
END-ISO-10303-21;
