ISO-10303-21;
HEADER;
FILE_DESCRIPTION(('FreeCAD Model'),'2;1');
FILE_NAME('Open CASCADE Shape Model','2026-04-28T11:58:38',(''),(''),
  'Open CASCADE STEP processor 7.8','FreeCAD','Unknown');
FILE_SCHEMA(('AUTOMOTIVE_DESIGN { 1 0 10303 214 1 1 1 1 }'));
ENDSEC;
DATA;
#1 = APPLICATION_PROTOCOL_DEFINITION('international standard',
  'automotive_design',2000,#2);
#2 = APPLICATION_CONTEXT(
  'core data for automotive mechanical design processes');
#3 = SHAPE_DEFINITION_REPRESENTATION(#4,#10);
#4 = PRODUCT_DEFINITION_SHAPE('','',#5);
#5 = PRODUCT_DEFINITION('design','',#6,#9);
#6 = PRODUCT_DEFINITION_FORMATION('','',#7);
#7 = PRODUCT('B_rc_receiver_mount','B_rc_receiver_mount','',(#8));
#8 = PRODUCT_CONTEXT('',#2,'mechanical');
#9 = PRODUCT_DEFINITION_CONTEXT('part definition',#2,'design');
#10 = ADVANCED_BREP_SHAPE_REPRESENTATION('',(#11,#15),#2168);
#11 = AXIS2_PLACEMENT_3D('',#12,#13,#14);
#12 = CARTESIAN_POINT('',(0.,0.,0.));
#13 = DIRECTION('',(0.,0.,1.));
#14 = DIRECTION('',(1.,0.,-0.));
#15 = MANIFOLD_SOLID_BREP('',#16);
#16 = CLOSED_SHELL('',(#17,#107,#274,#299,#324,#459,#553,#578,#611,#750,
    #881,#915,#937,#954,#971,#988,#1005,#1022,#1066,#1083,#1108,#1125,
    #1174,#1191,#1208,#1225,#1242,#1254,#1271,#1288,#1300,#1317,#1339,
    #1356,#1373,#1385,#1407,#1419,#1466,#1483,#1500,#1517,#1529,#1547,
    #1606,#1711,#1736,#1832,#1897,#1951,#1963,#1989,#2006,#2037,#2049,
    #2075,#2109,#2121,#2138,#2156));
#17 = ADVANCED_FACE('',(#18),#102,.T.);
#18 = FACE_BOUND('',#19,.T.);
#19 = EDGE_LOOP('',(#20,#30,#39,#47,#55,#63,#71,#79,#88,#96));
#20 = ORIENTED_EDGE('',*,*,#21,.F.);
#21 = EDGE_CURVE('',#22,#24,#26,.T.);
#22 = VERTEX_POINT('',#23);
#23 = CARTESIAN_POINT('',(5.,-9.1,1.5));
#24 = VERTEX_POINT('',#25);
#25 = CARTESIAN_POINT('',(5.,-2.7,1.5));
#26 = LINE('',#27,#28);
#27 = CARTESIAN_POINT('',(5.,-12.6,1.5));
#28 = VECTOR('',#29,1.);
#29 = DIRECTION('',(0.,1.,0.));
#30 = ORIENTED_EDGE('',*,*,#31,.T.);
#31 = EDGE_CURVE('',#22,#32,#34,.T.);
#32 = VERTEX_POINT('',#33);
#33 = CARTESIAN_POINT('',(5.,-11.1,3.5));
#34 = CIRCLE('',#35,2.);
#35 = AXIS2_PLACEMENT_3D('',#36,#37,#38);
#36 = CARTESIAN_POINT('',(5.,-9.1,3.5));
#37 = DIRECTION('',(-1.,0.,0.));
#38 = DIRECTION('',(0.,0.,-1.));
#39 = ORIENTED_EDGE('',*,*,#40,.T.);
#40 = EDGE_CURVE('',#32,#41,#43,.T.);
#41 = VERTEX_POINT('',#42);
#42 = CARTESIAN_POINT('',(5.,-11.1,14.5));
#43 = LINE('',#44,#45);
#44 = CARTESIAN_POINT('',(5.,-11.1,1.5));
#45 = VECTOR('',#46,1.);
#46 = DIRECTION('',(0.,0.,1.));
#47 = ORIENTED_EDGE('',*,*,#48,.F.);
#48 = EDGE_CURVE('',#49,#41,#51,.T.);
#49 = VERTEX_POINT('',#50);
#50 = CARTESIAN_POINT('',(5.,-11.1,16.5));
#51 = LINE('',#52,#53);
#52 = CARTESIAN_POINT('',(5.,-11.1,16.5));
#53 = VECTOR('',#54,1.);
#54 = DIRECTION('',(0.,-2.2E-16,-1.));
#55 = ORIENTED_EDGE('',*,*,#56,.T.);
#56 = EDGE_CURVE('',#49,#57,#59,.T.);
#57 = VERTEX_POINT('',#58);
#58 = CARTESIAN_POINT('',(5.,-11.1,40.5));
#59 = LINE('',#60,#61);
#60 = CARTESIAN_POINT('',(5.,-11.1,1.5));
#61 = VECTOR('',#62,1.);
#62 = DIRECTION('',(0.,0.,1.));
#63 = ORIENTED_EDGE('',*,*,#64,.T.);
#64 = EDGE_CURVE('',#57,#65,#67,.T.);
#65 = VERTEX_POINT('',#66);
#66 = CARTESIAN_POINT('',(5.,-12.6,40.5));
#67 = LINE('',#68,#69);
#68 = CARTESIAN_POINT('',(5.,-11.1,40.5));
#69 = VECTOR('',#70,1.);
#70 = DIRECTION('',(0.,-1.,2.2E-16));
#71 = ORIENTED_EDGE('',*,*,#72,.F.);
#72 = EDGE_CURVE('',#73,#65,#75,.T.);
#73 = VERTEX_POINT('',#74);
#74 = CARTESIAN_POINT('',(5.,-12.6,3.));
#75 = LINE('',#76,#77);
#76 = CARTESIAN_POINT('',(5.,-12.6,0.));
#77 = VECTOR('',#78,1.);
#78 = DIRECTION('',(0.,0.,1.));
#79 = ORIENTED_EDGE('',*,*,#80,.F.);
#80 = EDGE_CURVE('',#81,#73,#83,.T.);
#81 = VERTEX_POINT('',#82);
#82 = CARTESIAN_POINT('',(5.,-9.6,0.));
#83 = CIRCLE('',#84,3.);
#84 = AXIS2_PLACEMENT_3D('',#85,#86,#87);
#85 = CARTESIAN_POINT('',(5.,-9.6,3.));
#86 = DIRECTION('',(-1.,0.,0.));
#87 = DIRECTION('',(0.,0.,1.));
#88 = ORIENTED_EDGE('',*,*,#89,.T.);
#89 = EDGE_CURVE('',#81,#90,#92,.T.);
#90 = VERTEX_POINT('',#91);
#91 = CARTESIAN_POINT('',(5.,-2.7,0.));
#92 = LINE('',#93,#94);
#93 = CARTESIAN_POINT('',(5.,-12.6,0.));
#94 = VECTOR('',#95,1.);
#95 = DIRECTION('',(0.,1.,0.));
#96 = ORIENTED_EDGE('',*,*,#97,.F.);
#97 = EDGE_CURVE('',#24,#90,#98,.T.);
#98 = LINE('',#99,#100);
#99 = CARTESIAN_POINT('',(5.,-2.7,1.5));
#100 = VECTOR('',#101,1.);
#101 = DIRECTION('',(-0.,-0.,-1.));
#102 = PLANE('',#103);
#103 = AXIS2_PLACEMENT_3D('',#104,#105,#106);
#104 = CARTESIAN_POINT('',(5.,-3.177017989729,36.354330765721));
#105 = DIRECTION('',(1.,0.,0.));
#106 = DIRECTION('',(0.,0.,1.));
#107 = ADVANCED_FACE('',(#108),#269,.T.);
#108 = FACE_BOUND('',#109,.T.);
#109 = EDGE_LOOP('',(#110,#121,#129,#138,#146,#154,#162,#170,#176,#177,
    #186,#194,#203,#211,#220,#228,#237,#245,#254,#262));
#110 = ORIENTED_EDGE('',*,*,#111,.F.);
#111 = EDGE_CURVE('',#112,#114,#116,.T.);
#112 = VERTEX_POINT('',#113);
#113 = CARTESIAN_POINT('',(1.E-02,40.,1.5));
#114 = VERTEX_POINT('',#115);
#115 = CARTESIAN_POINT('',(3.755268419531,38.307433011551,1.5));
#116 = CIRCLE('',#117,4.99);
#117 = AXIS2_PLACEMENT_3D('',#118,#119,#120);
#118 = CARTESIAN_POINT('',(1.E-02,35.01,1.5));
#119 = DIRECTION('',(-0.,-0.,-1.));
#120 = DIRECTION('',(0.,-1.,0.));
#121 = ORIENTED_EDGE('',*,*,#122,.F.);
#122 = EDGE_CURVE('',#123,#112,#125,.T.);
#123 = VERTEX_POINT('',#124);
#124 = CARTESIAN_POINT('',(-9.999999999999E-03,40.,1.5));
#125 = LINE('',#126,#127);
#126 = CARTESIAN_POINT('',(-5.,40.,1.5));
#127 = VECTOR('',#128,1.);
#128 = DIRECTION('',(1.,0.,0.));
#129 = ORIENTED_EDGE('',*,*,#130,.T.);
#130 = EDGE_CURVE('',#123,#131,#133,.T.);
#131 = VERTEX_POINT('',#132);
#132 = CARTESIAN_POINT('',(-5.,35.01,1.5));
#133 = CIRCLE('',#134,4.99);
#134 = AXIS2_PLACEMENT_3D('',#135,#136,#137);
#135 = CARTESIAN_POINT('',(-9.999999999999E-03,35.01,1.5));
#136 = DIRECTION('',(-0.,0.,1.));
#137 = DIRECTION('',(0.,-1.,0.));
#138 = ORIENTED_EDGE('',*,*,#139,.T.);
#139 = EDGE_CURVE('',#131,#140,#142,.T.);
#140 = VERTEX_POINT('',#141);
#141 = CARTESIAN_POINT('',(-5.,-2.942055637146,1.5));
#142 = LINE('',#143,#144);
#143 = CARTESIAN_POINT('',(-5.,40.,1.5));
#144 = VECTOR('',#145,1.);
#145 = DIRECTION('',(0.,-1.,0.));
#146 = ORIENTED_EDGE('',*,*,#147,.T.);
#147 = EDGE_CURVE('',#140,#148,#150,.T.);
#148 = VERTEX_POINT('',#149);
#149 = CARTESIAN_POINT('',(-3.5,-2.942055637146,1.5));
#150 = LINE('',#151,#152);
#151 = CARTESIAN_POINT('',(-5.,-2.942055637146,1.5));
#152 = VECTOR('',#153,1.);
#153 = DIRECTION('',(1.,0.,0.));
#154 = ORIENTED_EDGE('',*,*,#155,.F.);
#155 = EDGE_CURVE('',#156,#148,#158,.T.);
#156 = VERTEX_POINT('',#157);
#157 = CARTESIAN_POINT('',(-3.5,-4.6,1.5));
#158 = LINE('',#159,#160);
#159 = CARTESIAN_POINT('',(-3.5,2.620569051153,1.5));
#160 = VECTOR('',#161,1.);
#161 = DIRECTION('',(0.,1.,0.));
#162 = ORIENTED_EDGE('',*,*,#163,.F.);
#163 = EDGE_CURVE('',#164,#156,#166,.T.);
#164 = VERTEX_POINT('',#165);
#165 = CARTESIAN_POINT('',(-3.5,-9.1,1.5));
#166 = LINE('',#167,#168);
#167 = CARTESIAN_POINT('',(-3.5,-11.1,1.5));
#168 = VECTOR('',#169,1.);
#169 = DIRECTION('',(0.,1.,0.));
#170 = ORIENTED_EDGE('',*,*,#171,.F.);
#171 = EDGE_CURVE('',#22,#164,#172,.T.);
#172 = LINE('',#173,#174);
#173 = CARTESIAN_POINT('',(5.,-9.1,1.5));
#174 = VECTOR('',#175,1.);
#175 = DIRECTION('',(-1.,0.,0.));
#176 = ORIENTED_EDGE('',*,*,#21,.T.);
#177 = ORIENTED_EDGE('',*,*,#178,.T.);
#178 = EDGE_CURVE('',#24,#179,#181,.T.);
#179 = VERTEX_POINT('',#180);
#180 = CARTESIAN_POINT('',(4.,-1.7,1.5));
#181 = CIRCLE('',#182,1.);
#182 = AXIS2_PLACEMENT_3D('',#183,#184,#185);
#183 = CARTESIAN_POINT('',(4.,-2.7,1.5));
#184 = DIRECTION('',(0.,-0.,1.));
#185 = DIRECTION('',(0.,1.,0.));
#186 = ORIENTED_EDGE('',*,*,#187,.F.);
#187 = EDGE_CURVE('',#188,#179,#190,.T.);
#188 = VERTEX_POINT('',#189);
#189 = CARTESIAN_POINT('',(0.,-1.7,1.5));
#190 = LINE('',#191,#192);
#191 = CARTESIAN_POINT('',(-3.E-16,-1.7,1.5));
#192 = VECTOR('',#193,1.);
#193 = DIRECTION('',(1.,0.,0.));
#194 = ORIENTED_EDGE('',*,*,#195,.F.);
#195 = EDGE_CURVE('',#196,#188,#198,.T.);
#196 = VERTEX_POINT('',#197);
#197 = CARTESIAN_POINT('',(0.,1.7,1.5));
#198 = CIRCLE('',#199,1.7);
#199 = AXIS2_PLACEMENT_3D('',#200,#201,#202);
#200 = CARTESIAN_POINT('',(0.,0.,1.5));
#201 = DIRECTION('',(0.,0.,1.));
#202 = DIRECTION('',(1.,0.,0.));
#203 = ORIENTED_EDGE('',*,*,#204,.T.);
#204 = EDGE_CURVE('',#196,#205,#207,.T.);
#205 = VERTEX_POINT('',#206);
#206 = CARTESIAN_POINT('',(4.,1.7,1.5));
#207 = LINE('',#208,#209);
#208 = CARTESIAN_POINT('',(-3.E-16,1.7,1.5));
#209 = VECTOR('',#210,1.);
#210 = DIRECTION('',(1.,0.,0.));
#211 = ORIENTED_EDGE('',*,*,#212,.F.);
#212 = EDGE_CURVE('',#213,#205,#215,.T.);
#213 = VERTEX_POINT('',#214);
#214 = CARTESIAN_POINT('',(5.,2.7,1.5));
#215 = CIRCLE('',#216,1.);
#216 = AXIS2_PLACEMENT_3D('',#217,#218,#219);
#217 = CARTESIAN_POINT('',(4.,2.7,1.5));
#218 = DIRECTION('',(0.,0.,-1.));
#219 = DIRECTION('',(0.,1.,0.));
#220 = ORIENTED_EDGE('',*,*,#221,.T.);
#221 = EDGE_CURVE('',#213,#222,#224,.T.);
#222 = VERTEX_POINT('',#223);
#223 = CARTESIAN_POINT('',(5.,32.387219805082,1.5));
#224 = LINE('',#225,#226);
#225 = CARTESIAN_POINT('',(5.,-12.6,1.5));
#226 = VECTOR('',#227,1.);
#227 = DIRECTION('',(0.,1.,0.));
#228 = ORIENTED_EDGE('',*,*,#229,.F.);
#229 = EDGE_CURVE('',#230,#222,#232,.T.);
#230 = VERTEX_POINT('',#231);
#231 = CARTESIAN_POINT('',(3.977862552317,33.386974741759,1.5));
#232 = CIRCLE('',#233,1.);
#233 = AXIS2_PLACEMENT_3D('',#234,#235,#236);
#234 = CARTESIAN_POINT('',(4.,32.387219805082,1.5));
#235 = DIRECTION('',(0.,0.,-1.));
#236 = DIRECTION('',(0.,1.,0.));
#237 = ORIENTED_EDGE('',*,*,#238,.F.);
#238 = EDGE_CURVE('',#239,#230,#241,.T.);
#239 = VERTEX_POINT('',#240);
#240 = CARTESIAN_POINT('',(3.764892901485E-02,33.299727087615,1.5));
#241 = LINE('',#242,#243);
#242 = CARTESIAN_POINT('',(3.764892901485E-02,33.299727087615,1.5));
#243 = VECTOR('',#244,1.);
#244 = DIRECTION('',(0.999754936677,2.213744768251E-02,0.));
#245 = ORIENTED_EDGE('',*,*,#246,.F.);
#246 = EDGE_CURVE('',#247,#239,#249,.T.);
#247 = VERTEX_POINT('',#248);
#248 = CARTESIAN_POINT('',(3.084756337953E-02,36.70040990537,1.5));
#249 = CIRCLE('',#250,1.700689689052);
#250 = AXIS2_PLACEMENT_3D('',#251,#252,#253);
#251 = CARTESIAN_POINT('',(0.,35.,1.5));
#252 = DIRECTION('',(0.,0.,1.));
#253 = DIRECTION('',(1.,0.,0.));
#254 = ORIENTED_EDGE('',*,*,#255,.T.);
#255 = EDGE_CURVE('',#247,#256,#258,.T.);
#256 = VERTEX_POINT('',#257);
#257 = CARTESIAN_POINT('',(2.986575359205,36.646789304697,1.5));
#258 = LINE('',#259,#260);
#259 = CARTESIAN_POINT('',(3.084756337953E-02,36.70040990537,1.5));
#260 = VECTOR('',#261,1.);
#261 = DIRECTION('',(0.999835488106,-1.813826683291E-02,0.));
#262 = ORIENTED_EDGE('',*,*,#263,.F.);
#263 = EDGE_CURVE('',#114,#256,#264,.T.);
#264 = CIRCLE('',#265,1.);
#265 = AXIS2_PLACEMENT_3D('',#266,#267,#268);
#266 = CARTESIAN_POINT('',(3.004713626037,37.646624792803,1.5));
#267 = DIRECTION('',(-0.,-0.,-1.));
#268 = DIRECTION('',(0.,-1.,0.));
#269 = PLANE('',#270);
#270 = AXIS2_PLACEMENT_3D('',#271,#272,#273);
#271 = CARTESIAN_POINT('',(-1.E-17,14.145506899685,1.5));
#272 = DIRECTION('',(0.,0.,1.));
#273 = DIRECTION('',(1.,0.,0.));
#274 = ADVANCED_FACE('',(#275),#294,.T.);
#275 = FACE_BOUND('',#276,.F.);
#276 = EDGE_LOOP('',(#277,#278,#286,#293));
#277 = ORIENTED_EDGE('',*,*,#178,.T.);
#278 = ORIENTED_EDGE('',*,*,#279,.T.);
#279 = EDGE_CURVE('',#179,#280,#282,.T.);
#280 = VERTEX_POINT('',#281);
#281 = CARTESIAN_POINT('',(4.,-1.7,0.));
#282 = LINE('',#283,#284);
#283 = CARTESIAN_POINT('',(4.,-1.7,1.5));
#284 = VECTOR('',#285,1.);
#285 = DIRECTION('',(-0.,-0.,-1.));
#286 = ORIENTED_EDGE('',*,*,#287,.F.);
#287 = EDGE_CURVE('',#90,#280,#288,.T.);
#288 = CIRCLE('',#289,1.);
#289 = AXIS2_PLACEMENT_3D('',#290,#291,#292);
#290 = CARTESIAN_POINT('',(4.,-2.7,0.));
#291 = DIRECTION('',(0.,-0.,1.));
#292 = DIRECTION('',(0.,1.,0.));
#293 = ORIENTED_EDGE('',*,*,#97,.F.);
#294 = CYLINDRICAL_SURFACE('',#295,1.);
#295 = AXIS2_PLACEMENT_3D('',#296,#297,#298);
#296 = CARTESIAN_POINT('',(4.,-2.7,1.5));
#297 = DIRECTION('',(-0.,-0.,-1.));
#298 = DIRECTION('',(1.,0.,0.));
#299 = ADVANCED_FACE('',(#300),#319,.F.);
#300 = FACE_BOUND('',#301,.F.);
#301 = EDGE_LOOP('',(#302,#303,#304,#312));
#302 = ORIENTED_EDGE('',*,*,#171,.F.);
#303 = ORIENTED_EDGE('',*,*,#31,.T.);
#304 = ORIENTED_EDGE('',*,*,#305,.T.);
#305 = EDGE_CURVE('',#32,#306,#308,.T.);
#306 = VERTEX_POINT('',#307);
#307 = CARTESIAN_POINT('',(-3.5,-11.1,3.5));
#308 = LINE('',#309,#310);
#309 = CARTESIAN_POINT('',(5.,-11.1,3.5));
#310 = VECTOR('',#311,1.);
#311 = DIRECTION('',(-1.,0.,0.));
#312 = ORIENTED_EDGE('',*,*,#313,.F.);
#313 = EDGE_CURVE('',#164,#306,#314,.T.);
#314 = CIRCLE('',#315,2.);
#315 = AXIS2_PLACEMENT_3D('',#316,#317,#318);
#316 = CARTESIAN_POINT('',(-3.5,-9.1,3.5));
#317 = DIRECTION('',(-1.,0.,0.));
#318 = DIRECTION('',(0.,0.,-1.));
#319 = CYLINDRICAL_SURFACE('',#320,2.);
#320 = AXIS2_PLACEMENT_3D('',#321,#322,#323);
#321 = CARTESIAN_POINT('',(5.,-9.1,3.5));
#322 = DIRECTION('',(-1.,0.,0.));
#323 = DIRECTION('',(0.,0.,-1.));
#324 = ADVANCED_FACE('',(#325),#454,.F.);
#325 = FACE_BOUND('',#326,.F.);
#326 = EDGE_LOOP('',(#327,#338,#346,#355,#363,#369,#370,#371,#379,#388,
    #396,#405,#413,#422,#430,#439,#447));
#327 = ORIENTED_EDGE('',*,*,#328,.F.);
#328 = EDGE_CURVE('',#329,#331,#333,.T.);
#329 = VERTEX_POINT('',#330);
#330 = CARTESIAN_POINT('',(1.E-02,40.,0.));
#331 = VERTEX_POINT('',#332);
#332 = CARTESIAN_POINT('',(3.755268419531,38.307433011551,0.));
#333 = CIRCLE('',#334,4.99);
#334 = AXIS2_PLACEMENT_3D('',#335,#336,#337);
#335 = CARTESIAN_POINT('',(1.E-02,35.01,0.));
#336 = DIRECTION('',(-0.,-0.,-1.));
#337 = DIRECTION('',(0.,-1.,0.));
#338 = ORIENTED_EDGE('',*,*,#339,.F.);
#339 = EDGE_CURVE('',#340,#329,#342,.T.);
#340 = VERTEX_POINT('',#341);
#341 = CARTESIAN_POINT('',(-9.999999999999E-03,40.,0.));
#342 = LINE('',#343,#344);
#343 = CARTESIAN_POINT('',(-5.,40.,0.));
#344 = VECTOR('',#345,1.);
#345 = DIRECTION('',(1.,0.,0.));
#346 = ORIENTED_EDGE('',*,*,#347,.T.);
#347 = EDGE_CURVE('',#340,#348,#350,.T.);
#348 = VERTEX_POINT('',#349);
#349 = CARTESIAN_POINT('',(-5.,35.01,0.));
#350 = CIRCLE('',#351,4.99);
#351 = AXIS2_PLACEMENT_3D('',#352,#353,#354);
#352 = CARTESIAN_POINT('',(-9.999999999999E-03,35.01,0.));
#353 = DIRECTION('',(-0.,0.,1.));
#354 = DIRECTION('',(0.,-1.,0.));
#355 = ORIENTED_EDGE('',*,*,#356,.T.);
#356 = EDGE_CURVE('',#348,#357,#359,.T.);
#357 = VERTEX_POINT('',#358);
#358 = CARTESIAN_POINT('',(-5.,-9.6,-0.));
#359 = LINE('',#360,#361);
#360 = CARTESIAN_POINT('',(-5.,40.,0.));
#361 = VECTOR('',#362,1.);
#362 = DIRECTION('',(0.,-1.,0.));
#363 = ORIENTED_EDGE('',*,*,#364,.T.);
#364 = EDGE_CURVE('',#357,#81,#365,.T.);
#365 = LINE('',#366,#367);
#366 = CARTESIAN_POINT('',(-5.,-9.6,-4.4E-16));
#367 = VECTOR('',#368,1.);
#368 = DIRECTION('',(1.,0.,0.));
#369 = ORIENTED_EDGE('',*,*,#89,.T.);
#370 = ORIENTED_EDGE('',*,*,#287,.T.);
#371 = ORIENTED_EDGE('',*,*,#372,.F.);
#372 = EDGE_CURVE('',#373,#280,#375,.T.);
#373 = VERTEX_POINT('',#374);
#374 = CARTESIAN_POINT('',(0.,-1.7,0.));
#375 = LINE('',#376,#377);
#376 = CARTESIAN_POINT('',(-1.5E-16,-1.7,0.));
#377 = VECTOR('',#378,1.);
#378 = DIRECTION('',(1.,0.,0.));
#379 = ORIENTED_EDGE('',*,*,#380,.F.);
#380 = EDGE_CURVE('',#381,#373,#383,.T.);
#381 = VERTEX_POINT('',#382);
#382 = CARTESIAN_POINT('',(0.,1.7,0.));
#383 = CIRCLE('',#384,1.7);
#384 = AXIS2_PLACEMENT_3D('',#385,#386,#387);
#385 = CARTESIAN_POINT('',(0.,0.,0.));
#386 = DIRECTION('',(0.,0.,1.));
#387 = DIRECTION('',(1.,0.,0.));
#388 = ORIENTED_EDGE('',*,*,#389,.T.);
#389 = EDGE_CURVE('',#381,#390,#392,.T.);
#390 = VERTEX_POINT('',#391);
#391 = CARTESIAN_POINT('',(4.,1.7,0.));
#392 = LINE('',#393,#394);
#393 = CARTESIAN_POINT('',(-1.5E-16,1.7,0.));
#394 = VECTOR('',#395,1.);
#395 = DIRECTION('',(1.,0.,0.));
#396 = ORIENTED_EDGE('',*,*,#397,.F.);
#397 = EDGE_CURVE('',#398,#390,#400,.T.);
#398 = VERTEX_POINT('',#399);
#399 = CARTESIAN_POINT('',(5.,2.7,0.));
#400 = CIRCLE('',#401,1.);
#401 = AXIS2_PLACEMENT_3D('',#402,#403,#404);
#402 = CARTESIAN_POINT('',(4.,2.7,0.));
#403 = DIRECTION('',(0.,0.,-1.));
#404 = DIRECTION('',(0.,1.,0.));
#405 = ORIENTED_EDGE('',*,*,#406,.T.);
#406 = EDGE_CURVE('',#398,#407,#409,.T.);
#407 = VERTEX_POINT('',#408);
#408 = CARTESIAN_POINT('',(5.,32.387219805082,0.));
#409 = LINE('',#410,#411);
#410 = CARTESIAN_POINT('',(5.,-12.6,0.));
#411 = VECTOR('',#412,1.);
#412 = DIRECTION('',(0.,1.,0.));
#413 = ORIENTED_EDGE('',*,*,#414,.F.);
#414 = EDGE_CURVE('',#415,#407,#417,.T.);
#415 = VERTEX_POINT('',#416);
#416 = CARTESIAN_POINT('',(3.977862552317,33.386974741759,0.));
#417 = CIRCLE('',#418,1.);
#418 = AXIS2_PLACEMENT_3D('',#419,#420,#421);
#419 = CARTESIAN_POINT('',(4.,32.387219805082,0.));
#420 = DIRECTION('',(0.,0.,-1.));
#421 = DIRECTION('',(0.,1.,0.));
#422 = ORIENTED_EDGE('',*,*,#423,.F.);
#423 = EDGE_CURVE('',#424,#415,#426,.T.);
#424 = VERTEX_POINT('',#425);
#425 = CARTESIAN_POINT('',(3.764892901485E-02,33.299727087615,0.));
#426 = LINE('',#427,#428);
#427 = CARTESIAN_POINT('',(-0.193127127351,33.294617042456,0.));
#428 = VECTOR('',#429,1.);
#429 = DIRECTION('',(0.999754936677,2.213744768251E-02,0.));
#430 = ORIENTED_EDGE('',*,*,#431,.F.);
#431 = EDGE_CURVE('',#432,#424,#434,.T.);
#432 = VERTEX_POINT('',#433);
#433 = CARTESIAN_POINT('',(3.084756337953E-02,36.70040990537,0.));
#434 = CIRCLE('',#435,1.700689689052);
#435 = AXIS2_PLACEMENT_3D('',#436,#437,#438);
#436 = CARTESIAN_POINT('',(0.,35.,0.));
#437 = DIRECTION('',(0.,0.,1.));
#438 = DIRECTION('',(1.,0.,0.));
#439 = ORIENTED_EDGE('',*,*,#440,.T.);
#440 = EDGE_CURVE('',#432,#441,#443,.T.);
#441 = VERTEX_POINT('',#442);
#442 = CARTESIAN_POINT('',(2.986575359205,36.646789304697,0.));
#443 = LINE('',#444,#445);
#444 = CARTESIAN_POINT('',(0.219948629146,36.696979375418,0.));
#445 = VECTOR('',#446,1.);
#446 = DIRECTION('',(0.999835488106,-1.813826683291E-02,0.));
#447 = ORIENTED_EDGE('',*,*,#448,.F.);
#448 = EDGE_CURVE('',#331,#441,#449,.T.);
#449 = CIRCLE('',#450,1.);
#450 = AXIS2_PLACEMENT_3D('',#451,#452,#453);
#451 = CARTESIAN_POINT('',(3.004713626037,37.646624792803,0.));
#452 = DIRECTION('',(-0.,-0.,-1.));
#453 = DIRECTION('',(0.,-1.,0.));
#454 = PLANE('',#455);
#455 = AXIS2_PLACEMENT_3D('',#456,#457,#458);
#456 = CARTESIAN_POINT('',(-1.E-17,14.145506899685,0.));
#457 = DIRECTION('',(0.,0.,1.));
#458 = DIRECTION('',(1.,0.,0.));
#459 = ADVANCED_FACE('',(#460,#512),#548,.F.);
#460 = FACE_BOUND('',#461,.F.);
#461 = EDGE_LOOP('',(#462,#463,#464,#472,#480,#489,#497,#506));
#462 = ORIENTED_EDGE('',*,*,#305,.F.);
#463 = ORIENTED_EDGE('',*,*,#40,.T.);
#464 = ORIENTED_EDGE('',*,*,#465,.T.);
#465 = EDGE_CURVE('',#41,#466,#468,.T.);
#466 = VERTEX_POINT('',#467);
#467 = CARTESIAN_POINT('',(-3.5,-11.1,14.5));
#468 = LINE('',#469,#470);
#469 = CARTESIAN_POINT('',(5.,-11.1,14.5));
#470 = VECTOR('',#471,1.);
#471 = DIRECTION('',(-1.,0.,0.));
#472 = ORIENTED_EDGE('',*,*,#473,.T.);
#473 = EDGE_CURVE('',#466,#474,#476,.T.);
#474 = VERTEX_POINT('',#475);
#475 = CARTESIAN_POINT('',(-3.5,-11.1,12.));
#476 = LINE('',#477,#478);
#477 = CARTESIAN_POINT('',(-3.5,-11.1,14.5));
#478 = VECTOR('',#479,1.);
#479 = DIRECTION('',(0.,0.,-1.));
#480 = ORIENTED_EDGE('',*,*,#481,.T.);
#481 = EDGE_CURVE('',#474,#482,#484,.T.);
#482 = VERTEX_POINT('',#483);
#483 = CARTESIAN_POINT('',(-1.5,-11.1,12.));
#484 = CIRCLE('',#485,1.);
#485 = AXIS2_PLACEMENT_3D('',#486,#487,#488);
#486 = CARTESIAN_POINT('',(-2.5,-11.1,12.));
#487 = DIRECTION('',(0.,1.,-0.));
#488 = DIRECTION('',(-1.,0.,0.));
#489 = ORIENTED_EDGE('',*,*,#490,.T.);
#490 = EDGE_CURVE('',#482,#491,#493,.T.);
#491 = VERTEX_POINT('',#492);
#492 = CARTESIAN_POINT('',(-1.5,-11.1,10.));
#493 = LINE('',#494,#495);
#494 = CARTESIAN_POINT('',(-1.5,-11.1,12.));
#495 = VECTOR('',#496,1.);
#496 = DIRECTION('',(0.,0.,-1.));
#497 = ORIENTED_EDGE('',*,*,#498,.T.);
#498 = EDGE_CURVE('',#491,#499,#501,.T.);
#499 = VERTEX_POINT('',#500);
#500 = CARTESIAN_POINT('',(-3.5,-11.1,10.));
#501 = CIRCLE('',#502,1.);
#502 = AXIS2_PLACEMENT_3D('',#503,#504,#505);
#503 = CARTESIAN_POINT('',(-2.5,-11.1,10.));
#504 = DIRECTION('',(0.,1.,-0.));
#505 = DIRECTION('',(-1.,0.,0.));
#506 = ORIENTED_EDGE('',*,*,#507,.T.);
#507 = EDGE_CURVE('',#499,#306,#508,.T.);
#508 = LINE('',#509,#510);
#509 = CARTESIAN_POINT('',(-3.5,-11.1,14.5));
#510 = VECTOR('',#511,1.);
#511 = DIRECTION('',(0.,0.,-1.));
#512 = FACE_BOUND('',#513,.F.);
#513 = EDGE_LOOP('',(#514,#524,#533,#541));
#514 = ORIENTED_EDGE('',*,*,#515,.T.);
#515 = EDGE_CURVE('',#516,#518,#520,.T.);
#516 = VERTEX_POINT('',#517);
#517 = CARTESIAN_POINT('',(1.5,-11.1,10.));
#518 = VERTEX_POINT('',#519);
#519 = CARTESIAN_POINT('',(1.5,-11.1,12.));
#520 = LINE('',#521,#522);
#521 = CARTESIAN_POINT('',(1.5,-11.1,10.));
#522 = VECTOR('',#523,1.);
#523 = DIRECTION('',(0.,0.,1.));
#524 = ORIENTED_EDGE('',*,*,#525,.T.);
#525 = EDGE_CURVE('',#518,#526,#528,.T.);
#526 = VERTEX_POINT('',#527);
#527 = CARTESIAN_POINT('',(3.5,-11.1,12.));
#528 = CIRCLE('',#529,1.);
#529 = AXIS2_PLACEMENT_3D('',#530,#531,#532);
#530 = CARTESIAN_POINT('',(2.5,-11.1,12.));
#531 = DIRECTION('',(0.,1.,-0.));
#532 = DIRECTION('',(-1.,0.,0.));
#533 = ORIENTED_EDGE('',*,*,#534,.T.);
#534 = EDGE_CURVE('',#526,#535,#537,.T.);
#535 = VERTEX_POINT('',#536);
#536 = CARTESIAN_POINT('',(3.5,-11.1,10.));
#537 = LINE('',#538,#539);
#538 = CARTESIAN_POINT('',(3.5,-11.1,12.));
#539 = VECTOR('',#540,1.);
#540 = DIRECTION('',(0.,0.,-1.));
#541 = ORIENTED_EDGE('',*,*,#542,.T.);
#542 = EDGE_CURVE('',#535,#516,#543,.T.);
#543 = CIRCLE('',#544,1.);
#544 = AXIS2_PLACEMENT_3D('',#545,#546,#547);
#545 = CARTESIAN_POINT('',(2.5,-11.1,10.));
#546 = DIRECTION('',(0.,1.,-0.));
#547 = DIRECTION('',(-1.,0.,0.));
#548 = PLANE('',#549);
#549 = AXIS2_PLACEMENT_3D('',#550,#551,#552);
#550 = CARTESIAN_POINT('',(5.,-11.1,1.5));
#551 = DIRECTION('',(0.,-1.,0.));
#552 = DIRECTION('',(-1.,0.,0.));
#553 = ADVANCED_FACE('',(#554),#573,.T.);
#554 = FACE_BOUND('',#555,.F.);
#555 = EDGE_LOOP('',(#556,#565,#571,#572));
#556 = ORIENTED_EDGE('',*,*,#557,.T.);
#557 = EDGE_CURVE('',#357,#558,#560,.T.);
#558 = VERTEX_POINT('',#559);
#559 = CARTESIAN_POINT('',(-5.,-12.6,3.));
#560 = CIRCLE('',#561,3.);
#561 = AXIS2_PLACEMENT_3D('',#562,#563,#564);
#562 = CARTESIAN_POINT('',(-5.,-9.6,3.));
#563 = DIRECTION('',(-1.,0.,0.));
#564 = DIRECTION('',(0.,0.,1.));
#565 = ORIENTED_EDGE('',*,*,#566,.T.);
#566 = EDGE_CURVE('',#558,#73,#567,.T.);
#567 = LINE('',#568,#569);
#568 = CARTESIAN_POINT('',(-5.,-12.6,3.));
#569 = VECTOR('',#570,1.);
#570 = DIRECTION('',(1.,0.,0.));
#571 = ORIENTED_EDGE('',*,*,#80,.F.);
#572 = ORIENTED_EDGE('',*,*,#364,.F.);
#573 = CYLINDRICAL_SURFACE('',#574,3.);
#574 = AXIS2_PLACEMENT_3D('',#575,#576,#577);
#575 = CARTESIAN_POINT('',(-5.,-9.6,3.));
#576 = DIRECTION('',(1.,0.,0.));
#577 = DIRECTION('',(0.,0.,-1.));
#578 = ADVANCED_FACE('',(#579),#606,.T.);
#579 = FACE_BOUND('',#580,.F.);
#580 = EDGE_LOOP('',(#581,#590,#598,#605));
#581 = ORIENTED_EDGE('',*,*,#582,.T.);
#582 = EDGE_CURVE('',#49,#583,#585,.T.);
#583 = VERTEX_POINT('',#584);
#584 = CARTESIAN_POINT('',(2.8,-8.9,16.5));
#585 = CIRCLE('',#586,2.2);
#586 = AXIS2_PLACEMENT_3D('',#587,#588,#589);
#587 = CARTESIAN_POINT('',(2.8,-11.1,16.5));
#588 = DIRECTION('',(0.,2.2E-16,1.));
#589 = DIRECTION('',(0.,1.,-2.2E-16));
#590 = ORIENTED_EDGE('',*,*,#591,.T.);
#591 = EDGE_CURVE('',#583,#592,#594,.T.);
#592 = VERTEX_POINT('',#593);
#593 = CARTESIAN_POINT('',(2.8,-8.9,14.5));
#594 = LINE('',#595,#596);
#595 = CARTESIAN_POINT('',(2.8,-8.9,16.5));
#596 = VECTOR('',#597,1.);
#597 = DIRECTION('',(0.,-2.2E-16,-1.));
#598 = ORIENTED_EDGE('',*,*,#599,.F.);
#599 = EDGE_CURVE('',#41,#592,#600,.T.);
#600 = CIRCLE('',#601,2.2);
#601 = AXIS2_PLACEMENT_3D('',#602,#603,#604);
#602 = CARTESIAN_POINT('',(2.8,-11.1,14.5));
#603 = DIRECTION('',(0.,2.2E-16,1.));
#604 = DIRECTION('',(0.,1.,-2.2E-16));
#605 = ORIENTED_EDGE('',*,*,#48,.F.);
#606 = CYLINDRICAL_SURFACE('',#607,2.2);
#607 = AXIS2_PLACEMENT_3D('',#608,#609,#610);
#608 = CARTESIAN_POINT('',(2.8,-11.1,16.5));
#609 = DIRECTION('',(0.,-2.2E-16,-1.));
#610 = DIRECTION('',(1.,0.,0.));
#611 = ADVANCED_FACE('',(#612,#673,#709),#745,.T.);
#612 = FACE_BOUND('',#613,.T.);
#613 = EDGE_LOOP('',(#614,#624,#633,#642,#651,#657,#658,#659,#667));
#614 = ORIENTED_EDGE('',*,*,#615,.F.);
#615 = EDGE_CURVE('',#616,#618,#620,.T.);
#616 = VERTEX_POINT('',#617);
#617 = CARTESIAN_POINT('',(-5.,-12.6,26.372281323269));
#618 = VERTEX_POINT('',#619);
#619 = CARTESIAN_POINT('',(-5.,-12.6,51.5));
#620 = LINE('',#621,#622);
#621 = CARTESIAN_POINT('',(-5.,-12.6,0.));
#622 = VECTOR('',#623,1.);
#623 = DIRECTION('',(0.,0.,1.));
#624 = ORIENTED_EDGE('',*,*,#625,.F.);
#625 = EDGE_CURVE('',#626,#616,#628,.T.);
#626 = VERTEX_POINT('',#627);
#627 = CARTESIAN_POINT('',(-4.142857142857,-12.6,24.730977709972));
#628 = CIRCLE('',#629,2.);
#629 = AXIS2_PLACEMENT_3D('',#630,#631,#632);
#630 = CARTESIAN_POINT('',(-3.,-12.6,26.372281323269));
#631 = DIRECTION('',(0.,1.,-2.2E-16));
#632 = DIRECTION('',(0.,2.2E-16,1.));
#633 = ORIENTED_EDGE('',*,*,#634,.T.);
#634 = EDGE_CURVE('',#626,#635,#637,.T.);
#635 = VERTEX_POINT('',#636);
#636 = CARTESIAN_POINT('',(-4.142857142857,-12.6,22.269022290028));
#637 = CIRCLE('',#638,1.5);
#638 = AXIS2_PLACEMENT_3D('',#639,#640,#641);
#639 = CARTESIAN_POINT('',(-5.,-12.6,23.5));
#640 = DIRECTION('',(0.,1.,-2.2E-16));
#641 = DIRECTION('',(-1.,0.,0.));
#642 = ORIENTED_EDGE('',*,*,#643,.F.);
#643 = EDGE_CURVE('',#644,#635,#646,.T.);
#644 = VERTEX_POINT('',#645);
#645 = CARTESIAN_POINT('',(-5.,-12.6,20.627718676731));
#646 = CIRCLE('',#647,2.);
#647 = AXIS2_PLACEMENT_3D('',#648,#649,#650);
#648 = CARTESIAN_POINT('',(-3.,-12.6,20.627718676731));
#649 = DIRECTION('',(0.,1.,-2.2E-16));
#650 = DIRECTION('',(0.,2.2E-16,1.));
#651 = ORIENTED_EDGE('',*,*,#652,.F.);
#652 = EDGE_CURVE('',#558,#644,#653,.T.);
#653 = LINE('',#654,#655);
#654 = CARTESIAN_POINT('',(-5.,-12.6,0.));
#655 = VECTOR('',#656,1.);
#656 = DIRECTION('',(0.,0.,1.));
#657 = ORIENTED_EDGE('',*,*,#566,.T.);
#658 = ORIENTED_EDGE('',*,*,#72,.T.);
#659 = ORIENTED_EDGE('',*,*,#660,.T.);
#660 = EDGE_CURVE('',#65,#661,#663,.T.);
#661 = VERTEX_POINT('',#662);
#662 = CARTESIAN_POINT('',(4.033333333333,-12.6,51.5));
#663 = LINE('',#664,#665);
#664 = CARTESIAN_POINT('',(1.524907281691,-12.6,80.044158518694));
#665 = VECTOR('',#666,1.);
#666 = DIRECTION('',(-8.754141077943E-02,0.,0.996160881283));
#667 = ORIENTED_EDGE('',*,*,#668,.F.);
#668 = EDGE_CURVE('',#618,#661,#669,.T.);
#669 = LINE('',#670,#671);
#670 = CARTESIAN_POINT('',(-5.,-12.6,51.5));
#671 = VECTOR('',#672,1.);
#672 = DIRECTION('',(1.,0.,0.));
#673 = FACE_BOUND('',#674,.T.);
#674 = EDGE_LOOP('',(#675,#685,#694,#702));
#675 = ORIENTED_EDGE('',*,*,#676,.T.);
#676 = EDGE_CURVE('',#677,#679,#681,.T.);
#677 = VERTEX_POINT('',#678);
#678 = CARTESIAN_POINT('',(-1.5,-12.6,12.));
#679 = VERTEX_POINT('',#680);
#680 = CARTESIAN_POINT('',(-1.5,-12.6,10.));
#681 = LINE('',#682,#683);
#682 = CARTESIAN_POINT('',(-1.5,-12.6,32.625));
#683 = VECTOR('',#684,1.);
#684 = DIRECTION('',(0.,0.,-1.));
#685 = ORIENTED_EDGE('',*,*,#686,.T.);
#686 = EDGE_CURVE('',#679,#687,#689,.T.);
#687 = VERTEX_POINT('',#688);
#688 = CARTESIAN_POINT('',(-3.5,-12.6,10.));
#689 = CIRCLE('',#690,1.);
#690 = AXIS2_PLACEMENT_3D('',#691,#692,#693);
#691 = CARTESIAN_POINT('',(-2.5,-12.6,10.));
#692 = DIRECTION('',(0.,1.,-2.2E-16));
#693 = DIRECTION('',(-1.,0.,0.));
#694 = ORIENTED_EDGE('',*,*,#695,.T.);
#695 = EDGE_CURVE('',#687,#696,#698,.T.);
#696 = VERTEX_POINT('',#697);
#697 = CARTESIAN_POINT('',(-3.5,-12.6,12.));
#698 = LINE('',#699,#700);
#699 = CARTESIAN_POINT('',(-3.5,-12.6,31.625));
#700 = VECTOR('',#701,1.);
#701 = DIRECTION('',(0.,0.,1.));
#702 = ORIENTED_EDGE('',*,*,#703,.T.);
#703 = EDGE_CURVE('',#696,#677,#704,.T.);
#704 = CIRCLE('',#705,1.);
#705 = AXIS2_PLACEMENT_3D('',#706,#707,#708);
#706 = CARTESIAN_POINT('',(-2.5,-12.6,12.));
#707 = DIRECTION('',(0.,1.,-2.2E-16));
#708 = DIRECTION('',(-1.,0.,0.));
#709 = FACE_BOUND('',#710,.T.);
#710 = EDGE_LOOP('',(#711,#721,#730,#738));
#711 = ORIENTED_EDGE('',*,*,#712,.T.);
#712 = EDGE_CURVE('',#713,#715,#717,.T.);
#713 = VERTEX_POINT('',#714);
#714 = CARTESIAN_POINT('',(1.5,-12.6,10.));
#715 = VERTEX_POINT('',#716);
#716 = CARTESIAN_POINT('',(1.5,-12.6,12.));
#717 = LINE('',#718,#719);
#718 = CARTESIAN_POINT('',(1.5,-12.6,31.625));
#719 = VECTOR('',#720,1.);
#720 = DIRECTION('',(0.,0.,1.));
#721 = ORIENTED_EDGE('',*,*,#722,.T.);
#722 = EDGE_CURVE('',#715,#723,#725,.T.);
#723 = VERTEX_POINT('',#724);
#724 = CARTESIAN_POINT('',(3.5,-12.6,12.));
#725 = CIRCLE('',#726,1.);
#726 = AXIS2_PLACEMENT_3D('',#727,#728,#729);
#727 = CARTESIAN_POINT('',(2.5,-12.6,12.));
#728 = DIRECTION('',(0.,1.,-2.2E-16));
#729 = DIRECTION('',(-1.,0.,0.));
#730 = ORIENTED_EDGE('',*,*,#731,.T.);
#731 = EDGE_CURVE('',#723,#732,#734,.T.);
#732 = VERTEX_POINT('',#733);
#733 = CARTESIAN_POINT('',(3.5,-12.6,10.));
#734 = LINE('',#735,#736);
#735 = CARTESIAN_POINT('',(3.5,-12.6,32.625));
#736 = VECTOR('',#737,1.);
#737 = DIRECTION('',(0.,0.,-1.));
#738 = ORIENTED_EDGE('',*,*,#739,.T.);
#739 = EDGE_CURVE('',#732,#713,#740,.T.);
#740 = CIRCLE('',#741,1.);
#741 = AXIS2_PLACEMENT_3D('',#742,#743,#744);
#742 = CARTESIAN_POINT('',(2.5,-12.6,10.));
#743 = DIRECTION('',(0.,1.,-2.2E-16));
#744 = DIRECTION('',(-1.,0.,0.));
#745 = PLANE('',#746);
#746 = AXIS2_PLACEMENT_3D('',#747,#748,#749);
#747 = CARTESIAN_POINT('',(0.,-12.6,53.25));
#748 = DIRECTION('',(-0.,-1.,-0.));
#749 = DIRECTION('',(0.,0.,-1.));
#750 = ADVANCED_FACE('',(#751),#876,.F.);
#751 = FACE_BOUND('',#752,.F.);
#752 = EDGE_LOOP('',(#753,#761,#762,#770,#778,#786,#794,#802,#810,#818,
    #826,#835,#844,#853,#861,#869));
#753 = ORIENTED_EDGE('',*,*,#754,.T.);
#754 = EDGE_CURVE('',#755,#49,#757,.T.);
#755 = VERTEX_POINT('',#756);
#756 = CARTESIAN_POINT('',(-3.5,-11.1,16.5));
#757 = LINE('',#758,#759);
#758 = CARTESIAN_POINT('',(-5.,-11.1,16.5));
#759 = VECTOR('',#760,1.);
#760 = DIRECTION('',(1.,0.,0.));
#761 = ORIENTED_EDGE('',*,*,#56,.T.);
#762 = ORIENTED_EDGE('',*,*,#763,.F.);
#763 = EDGE_CURVE('',#764,#57,#766,.T.);
#764 = VERTEX_POINT('',#765);
#765 = CARTESIAN_POINT('',(0.2,-11.1,95.120689655172));
#766 = LINE('',#767,#768);
#767 = CARTESIAN_POINT('',(-0.8,-11.1,106.5));
#768 = VECTOR('',#769,1.);
#769 = DIRECTION('',(8.754141077943E-02,0.,-0.996160881283));
#770 = ORIENTED_EDGE('',*,*,#771,.T.);
#771 = EDGE_CURVE('',#764,#772,#774,.T.);
#772 = VERTEX_POINT('',#773);
#773 = CARTESIAN_POINT('',(0.2,-11.1,45.));
#774 = LINE('',#775,#776);
#775 = CARTESIAN_POINT('',(0.2,-11.1,106.5));
#776 = VECTOR('',#777,1.);
#777 = DIRECTION('',(0.,-2.2E-16,-1.));
#778 = ORIENTED_EDGE('',*,*,#779,.T.);
#779 = EDGE_CURVE('',#772,#780,#782,.T.);
#780 = VERTEX_POINT('',#781);
#781 = CARTESIAN_POINT('',(-2.8,-11.1,45.));
#782 = LINE('',#783,#784);
#783 = CARTESIAN_POINT('',(-1.8,-11.1,45.));
#784 = VECTOR('',#785,1.);
#785 = DIRECTION('',(-1.,-0.,-4.07E-15));
#786 = ORIENTED_EDGE('',*,*,#787,.T.);
#787 = EDGE_CURVE('',#780,#788,#790,.T.);
#788 = VERTEX_POINT('',#789);
#789 = CARTESIAN_POINT('',(-2.8,-11.1,106.5));
#790 = LINE('',#791,#792);
#791 = CARTESIAN_POINT('',(-2.8,-11.1,46.5));
#792 = VECTOR('',#793,1.);
#793 = DIRECTION('',(0.,2.2E-16,1.));
#794 = ORIENTED_EDGE('',*,*,#795,.T.);
#795 = EDGE_CURVE('',#788,#796,#798,.T.);
#796 = VERTEX_POINT('',#797);
#797 = CARTESIAN_POINT('',(-3.,-11.1,106.5));
#798 = LINE('',#799,#800);
#799 = CARTESIAN_POINT('',(5.,-11.1,106.5));
#800 = VECTOR('',#801,1.);
#801 = DIRECTION('',(-1.,0.,0.));
#802 = ORIENTED_EDGE('',*,*,#803,.T.);
#803 = EDGE_CURVE('',#796,#804,#806,.T.);
#804 = VERTEX_POINT('',#805);
#805 = CARTESIAN_POINT('',(-3.000000122878,-11.1,45.));
#806 = LINE('',#807,#808);
#807 = CARTESIAN_POINT('',(-3.,-11.1,106.5));
#808 = VECTOR('',#809,1.);
#809 = DIRECTION('',(0.,-2.2E-16,-1.));
#810 = ORIENTED_EDGE('',*,*,#811,.F.);
#811 = EDGE_CURVE('',#812,#804,#814,.T.);
#812 = VERTEX_POINT('',#813);
#813 = CARTESIAN_POINT('',(-5.,-11.1,45.));
#814 = LINE('',#815,#816);
#815 = CARTESIAN_POINT('',(-5.,-11.1,45.));
#816 = VECTOR('',#817,1.);
#817 = DIRECTION('',(1.,0.,0.));
#818 = ORIENTED_EDGE('',*,*,#819,.F.);
#819 = EDGE_CURVE('',#820,#812,#822,.T.);
#820 = VERTEX_POINT('',#821);
#821 = CARTESIAN_POINT('',(-5.,-11.1,26.372281323269));
#822 = LINE('',#823,#824);
#823 = CARTESIAN_POINT('',(-5.,-11.1,1.5));
#824 = VECTOR('',#825,1.);
#825 = DIRECTION('',(0.,0.,1.));
#826 = ORIENTED_EDGE('',*,*,#827,.F.);
#827 = EDGE_CURVE('',#828,#820,#830,.T.);
#828 = VERTEX_POINT('',#829);
#829 = CARTESIAN_POINT('',(-4.142857142857,-11.1,24.730977709972));
#830 = CIRCLE('',#831,2.);
#831 = AXIS2_PLACEMENT_3D('',#832,#833,#834);
#832 = CARTESIAN_POINT('',(-3.,-11.1,26.372281323269));
#833 = DIRECTION('',(0.,1.,-2.2E-16));
#834 = DIRECTION('',(0.,2.2E-16,1.));
#835 = ORIENTED_EDGE('',*,*,#836,.T.);
#836 = EDGE_CURVE('',#828,#837,#839,.T.);
#837 = VERTEX_POINT('',#838);
#838 = CARTESIAN_POINT('',(-4.142857142857,-11.1,22.269022290028));
#839 = CIRCLE('',#840,1.5);
#840 = AXIS2_PLACEMENT_3D('',#841,#842,#843);
#841 = CARTESIAN_POINT('',(-5.,-11.1,23.5));
#842 = DIRECTION('',(0.,1.,-0.));
#843 = DIRECTION('',(-1.,0.,0.));
#844 = ORIENTED_EDGE('',*,*,#845,.F.);
#845 = EDGE_CURVE('',#846,#837,#848,.T.);
#846 = VERTEX_POINT('',#847);
#847 = CARTESIAN_POINT('',(-5.,-11.1,20.627718676731));
#848 = CIRCLE('',#849,2.);
#849 = AXIS2_PLACEMENT_3D('',#850,#851,#852);
#850 = CARTESIAN_POINT('',(-3.,-11.1,20.627718676731));
#851 = DIRECTION('',(0.,1.,-2.2E-16));
#852 = DIRECTION('',(0.,2.2E-16,1.));
#853 = ORIENTED_EDGE('',*,*,#854,.F.);
#854 = EDGE_CURVE('',#855,#846,#857,.T.);
#855 = VERTEX_POINT('',#856);
#856 = CARTESIAN_POINT('',(-5.,-11.1,16.5));
#857 = LINE('',#858,#859);
#858 = CARTESIAN_POINT('',(-5.,-11.1,1.5));
#859 = VECTOR('',#860,1.);
#860 = DIRECTION('',(0.,0.,1.));
#861 = ORIENTED_EDGE('',*,*,#862,.T.);
#862 = EDGE_CURVE('',#855,#863,#865,.T.);
#863 = VERTEX_POINT('',#864);
#864 = CARTESIAN_POINT('',(-5.,-11.1,15.));
#865 = LINE('',#866,#867);
#866 = CARTESIAN_POINT('',(-5.,-11.1,2.874112797503));
#867 = VECTOR('',#868,1.);
#868 = DIRECTION('',(0.,0.,-1.));
#869 = ORIENTED_EDGE('',*,*,#870,.F.);
#870 = EDGE_CURVE('',#755,#863,#871,.T.);
#871 = CIRCLE('',#872,1.5);
#872 = AXIS2_PLACEMENT_3D('',#873,#874,#875);
#873 = CARTESIAN_POINT('',(-3.5,-11.1,15.));
#874 = DIRECTION('',(0.,-1.,2.2E-16));
#875 = DIRECTION('',(0.,2.2E-16,1.));
#876 = PLANE('',#877);
#877 = AXIS2_PLACEMENT_3D('',#878,#879,#880);
#878 = CARTESIAN_POINT('',(5.,-11.1,1.5));
#879 = DIRECTION('',(0.,-1.,0.));
#880 = DIRECTION('',(-1.,0.,0.));
#881 = ADVANCED_FACE('',(#882),#910,.T.);
#882 = FACE_BOUND('',#883,.T.);
#883 = EDGE_LOOP('',(#884,#885,#894,#902,#908,#909));
#884 = ORIENTED_EDGE('',*,*,#763,.F.);
#885 = ORIENTED_EDGE('',*,*,#886,.F.);
#886 = EDGE_CURVE('',#887,#764,#889,.T.);
#887 = VERTEX_POINT('',#888);
#888 = CARTESIAN_POINT('',(-0.8,-10.1,106.5));
#889 = ELLIPSE('',#890,11.423165232277,1.);
#890 = AXIS2_PLACEMENT_3D('',#891,#892,#893);
#891 = CARTESIAN_POINT('',(0.2,-10.1,95.120689655172));
#892 = DIRECTION('',(0.996160881283,2.E-17,8.754141077943E-02));
#893 = DIRECTION('',(8.754141077943E-02,-2.2E-16,-0.996160881283));
#894 = ORIENTED_EDGE('',*,*,#895,.T.);
#895 = EDGE_CURVE('',#887,#896,#898,.T.);
#896 = VERTEX_POINT('',#897);
#897 = CARTESIAN_POINT('',(-0.8,-11.6,106.5));
#898 = LINE('',#899,#900);
#899 = CARTESIAN_POINT('',(-0.8,-11.1,106.5));
#900 = VECTOR('',#901,1.);
#901 = DIRECTION('',(0.,-1.,2.2E-16));
#902 = ORIENTED_EDGE('',*,*,#903,.T.);
#903 = EDGE_CURVE('',#896,#661,#904,.T.);
#904 = LINE('',#905,#906);
#905 = CARTESIAN_POINT('',(0.382591981927,-11.84467420315,
    93.042918826348));
#906 = VECTOR('',#907,1.);
#907 = DIRECTION('',(8.752705554471E-02,-1.810904597477E-02,
    -0.995997528612));
#908 = ORIENTED_EDGE('',*,*,#660,.F.);
#909 = ORIENTED_EDGE('',*,*,#64,.F.);
#910 = PLANE('',#911);
#911 = AXIS2_PLACEMENT_3D('',#912,#913,#914);
#912 = CARTESIAN_POINT('',(-0.8,-11.1,106.5));
#913 = DIRECTION('',(0.996160881283,2.E-17,8.754141077943E-02));
#914 = DIRECTION('',(8.754141077943E-02,-2.2E-16,-0.996160881283));
#915 = ADVANCED_FACE('',(#916),#932,.T.);
#916 = FACE_BOUND('',#917,.F.);
#917 = EDGE_LOOP('',(#918,#919,#925,#926));
#918 = ORIENTED_EDGE('',*,*,#111,.F.);
#919 = ORIENTED_EDGE('',*,*,#920,.F.);
#920 = EDGE_CURVE('',#329,#112,#921,.T.);
#921 = LINE('',#922,#923);
#922 = CARTESIAN_POINT('',(1.E-02,40.,0.));
#923 = VECTOR('',#924,1.);
#924 = DIRECTION('',(0.,0.,1.));
#925 = ORIENTED_EDGE('',*,*,#328,.T.);
#926 = ORIENTED_EDGE('',*,*,#927,.T.);
#927 = EDGE_CURVE('',#331,#114,#928,.T.);
#928 = LINE('',#929,#930);
#929 = CARTESIAN_POINT('',(3.755268419531,38.307433011551,0.));
#930 = VECTOR('',#931,1.);
#931 = DIRECTION('',(0.,0.,1.));
#932 = CYLINDRICAL_SURFACE('',#933,4.99);
#933 = AXIS2_PLACEMENT_3D('',#934,#935,#936);
#934 = CARTESIAN_POINT('',(1.E-02,35.01,0.));
#935 = DIRECTION('',(0.,0.,1.));
#936 = DIRECTION('',(0.,1.,0.));
#937 = ADVANCED_FACE('',(#938),#949,.T.);
#938 = FACE_BOUND('',#939,.F.);
#939 = EDGE_LOOP('',(#940,#941,#947,#948));
#940 = ORIENTED_EDGE('',*,*,#448,.T.);
#941 = ORIENTED_EDGE('',*,*,#942,.T.);
#942 = EDGE_CURVE('',#441,#256,#943,.T.);
#943 = LINE('',#944,#945);
#944 = CARTESIAN_POINT('',(2.986575359205,36.646789304697,0.));
#945 = VECTOR('',#946,1.);
#946 = DIRECTION('',(0.,0.,1.));
#947 = ORIENTED_EDGE('',*,*,#263,.F.);
#948 = ORIENTED_EDGE('',*,*,#927,.F.);
#949 = CYLINDRICAL_SURFACE('',#950,1.);
#950 = AXIS2_PLACEMENT_3D('',#951,#952,#953);
#951 = CARTESIAN_POINT('',(3.004713626037,37.646624792803,0.));
#952 = DIRECTION('',(0.,0.,1.));
#953 = DIRECTION('',(0.750554793493,0.660808218748,-0.));
#954 = ADVANCED_FACE('',(#955),#966,.T.);
#955 = FACE_BOUND('',#956,.T.);
#956 = EDGE_LOOP('',(#957,#958,#964,#965));
#957 = ORIENTED_EDGE('',*,*,#339,.F.);
#958 = ORIENTED_EDGE('',*,*,#959,.T.);
#959 = EDGE_CURVE('',#340,#123,#960,.T.);
#960 = LINE('',#961,#962);
#961 = CARTESIAN_POINT('',(-9.999999999999E-03,40.,0.));
#962 = VECTOR('',#963,1.);
#963 = DIRECTION('',(0.,0.,1.));
#964 = ORIENTED_EDGE('',*,*,#122,.T.);
#965 = ORIENTED_EDGE('',*,*,#920,.F.);
#966 = PLANE('',#967);
#967 = AXIS2_PLACEMENT_3D('',#968,#969,#970);
#968 = CARTESIAN_POINT('',(-5.,40.,0.));
#969 = DIRECTION('',(0.,1.,0.));
#970 = DIRECTION('',(1.,0.,0.));
#971 = ADVANCED_FACE('',(#972),#983,.T.);
#972 = FACE_BOUND('',#973,.T.);
#973 = EDGE_LOOP('',(#974,#975,#981,#982));
#974 = ORIENTED_EDGE('',*,*,#255,.F.);
#975 = ORIENTED_EDGE('',*,*,#976,.T.);
#976 = EDGE_CURVE('',#247,#432,#977,.T.);
#977 = LINE('',#978,#979);
#978 = CARTESIAN_POINT('',(3.084756337953E-02,36.70040990537,1.5));
#979 = VECTOR('',#980,1.);
#980 = DIRECTION('',(-0.,-0.,-1.));
#981 = ORIENTED_EDGE('',*,*,#440,.T.);
#982 = ORIENTED_EDGE('',*,*,#942,.T.);
#983 = PLANE('',#984);
#984 = AXIS2_PLACEMENT_3D('',#985,#986,#987);
#985 = CARTESIAN_POINT('',(3.084756337953E-02,36.70040990537,1.5));
#986 = DIRECTION('',(-1.813826683291E-02,-0.999835488106,0.));
#987 = DIRECTION('',(0.999835488106,-1.813826683291E-02,0.));
#988 = ADVANCED_FACE('',(#989),#1000,.T.);
#989 = FACE_BOUND('',#990,.T.);
#990 = EDGE_LOOP('',(#991,#992,#998,#999));
#991 = ORIENTED_EDGE('',*,*,#347,.T.);
#992 = ORIENTED_EDGE('',*,*,#993,.T.);
#993 = EDGE_CURVE('',#348,#131,#994,.T.);
#994 = LINE('',#995,#996);
#995 = CARTESIAN_POINT('',(-5.,35.01,0.));
#996 = VECTOR('',#997,1.);
#997 = DIRECTION('',(0.,0.,1.));
#998 = ORIENTED_EDGE('',*,*,#130,.F.);
#999 = ORIENTED_EDGE('',*,*,#959,.F.);
#1000 = CYLINDRICAL_SURFACE('',#1001,4.99);
#1001 = AXIS2_PLACEMENT_3D('',#1002,#1003,#1004);
#1002 = CARTESIAN_POINT('',(-9.999999999999E-03,35.01,0.));
#1003 = DIRECTION('',(0.,0.,1.));
#1004 = DIRECTION('',(0.,1.,0.));
#1005 = ADVANCED_FACE('',(#1006),#1017,.F.);
#1006 = FACE_BOUND('',#1007,.F.);
#1007 = EDGE_LOOP('',(#1008,#1009,#1010,#1011));
#1008 = ORIENTED_EDGE('',*,*,#246,.F.);
#1009 = ORIENTED_EDGE('',*,*,#976,.T.);
#1010 = ORIENTED_EDGE('',*,*,#431,.T.);
#1011 = ORIENTED_EDGE('',*,*,#1012,.F.);
#1012 = EDGE_CURVE('',#239,#424,#1013,.T.);
#1013 = LINE('',#1014,#1015);
#1014 = CARTESIAN_POINT('',(3.764892901485E-02,33.299727087615,1.5));
#1015 = VECTOR('',#1016,1.);
#1016 = DIRECTION('',(-0.,-0.,-1.));
#1017 = CYLINDRICAL_SURFACE('',#1018,1.700689689052);
#1018 = AXIS2_PLACEMENT_3D('',#1019,#1020,#1021);
#1019 = CARTESIAN_POINT('',(0.,35.,1.5));
#1020 = DIRECTION('',(0.,0.,1.));
#1021 = DIRECTION('',(1.,0.,0.));
#1022 = ADVANCED_FACE('',(#1023),#1061,.T.);
#1023 = FACE_BOUND('',#1024,.T.);
#1024 = EDGE_LOOP('',(#1025,#1035,#1042,#1043,#1044,#1045,#1046,#1047,
    #1053,#1054,#1055));
#1025 = ORIENTED_EDGE('',*,*,#1026,.T.);
#1026 = EDGE_CURVE('',#1027,#1029,#1031,.T.);
#1027 = VERTEX_POINT('',#1028);
#1028 = CARTESIAN_POINT('',(-5.,-8.47,15.));
#1029 = VERTEX_POINT('',#1030);
#1030 = CARTESIAN_POINT('',(-5.,-5.05687547222,3.093751647279));
#1031 = LINE('',#1032,#1033);
#1032 = CARTESIAN_POINT('',(-5.,-8.9,16.5));
#1033 = VECTOR('',#1034,1.);
#1034 = DIRECTION('',(-0.,0.275567433055,-0.961281743215));
#1035 = ORIENTED_EDGE('',*,*,#1036,.F.);
#1036 = EDGE_CURVE('',#140,#1029,#1037,.T.);
#1037 = CIRCLE('',#1038,2.2);
#1038 = AXIS2_PLACEMENT_3D('',#1039,#1040,#1041);
#1039 = CARTESIAN_POINT('',(-5.,-2.942055637146,3.7));
#1040 = DIRECTION('',(-1.,0.,0.));
#1041 = DIRECTION('',(0.,0.,1.));
#1042 = ORIENTED_EDGE('',*,*,#139,.F.);
#1043 = ORIENTED_EDGE('',*,*,#993,.F.);
#1044 = ORIENTED_EDGE('',*,*,#356,.T.);
#1045 = ORIENTED_EDGE('',*,*,#557,.T.);
#1046 = ORIENTED_EDGE('',*,*,#652,.T.);
#1047 = ORIENTED_EDGE('',*,*,#1048,.T.);
#1048 = EDGE_CURVE('',#644,#846,#1049,.T.);
#1049 = LINE('',#1050,#1051);
#1050 = CARTESIAN_POINT('',(-5.,-12.6,20.627718676731));
#1051 = VECTOR('',#1052,1.);
#1052 = DIRECTION('',(0.,1.,-2.2E-16));
#1053 = ORIENTED_EDGE('',*,*,#854,.F.);
#1054 = ORIENTED_EDGE('',*,*,#862,.T.);
#1055 = ORIENTED_EDGE('',*,*,#1056,.T.);
#1056 = EDGE_CURVE('',#863,#1027,#1057,.T.);
#1057 = LINE('',#1058,#1059);
#1058 = CARTESIAN_POINT('',(-5.,-11.1,15.));
#1059 = VECTOR('',#1060,1.);
#1060 = DIRECTION('',(0.,1.,-2.2E-16));
#1061 = PLANE('',#1062);
#1062 = AXIS2_PLACEMENT_3D('',#1063,#1064,#1065);
#1063 = CARTESIAN_POINT('',(-5.,5.744958028477,4.248225595007));
#1064 = DIRECTION('',(-1.,-0.,-0.));
#1065 = DIRECTION('',(0.,0.,-1.));
#1066 = ADVANCED_FACE('',(#1067),#1078,.F.);
#1067 = FACE_BOUND('',#1068,.F.);
#1068 = EDGE_LOOP('',(#1069,#1070,#1071,#1072));
#1069 = ORIENTED_EDGE('',*,*,#238,.F.);
#1070 = ORIENTED_EDGE('',*,*,#1012,.T.);
#1071 = ORIENTED_EDGE('',*,*,#423,.T.);
#1072 = ORIENTED_EDGE('',*,*,#1073,.F.);
#1073 = EDGE_CURVE('',#230,#415,#1074,.T.);
#1074 = LINE('',#1075,#1076);
#1075 = CARTESIAN_POINT('',(3.977862552317,33.386974741759,1.5));
#1076 = VECTOR('',#1077,1.);
#1077 = DIRECTION('',(0.,0.,-1.));
#1078 = PLANE('',#1079);
#1079 = AXIS2_PLACEMENT_3D('',#1080,#1081,#1082);
#1080 = CARTESIAN_POINT('',(3.764892901485E-02,33.299727087615,1.5));
#1081 = DIRECTION('',(2.213744768251E-02,-0.999754936677,0.));
#1082 = DIRECTION('',(0.999754936677,2.213744768251E-02,0.));
#1083 = ADVANCED_FACE('',(#1084),#1103,.F.);
#1084 = FACE_BOUND('',#1085,.T.);
#1085 = EDGE_LOOP('',(#1086,#1087,#1095,#1102));
#1086 = ORIENTED_EDGE('',*,*,#1036,.T.);
#1087 = ORIENTED_EDGE('',*,*,#1088,.T.);
#1088 = EDGE_CURVE('',#1029,#1089,#1091,.T.);
#1089 = VERTEX_POINT('',#1090);
#1090 = CARTESIAN_POINT('',(-3.5,-5.05687547222,3.093751647279));
#1091 = LINE('',#1092,#1093);
#1092 = CARTESIAN_POINT('',(-5.,-5.05687547222,3.093751647279));
#1093 = VECTOR('',#1094,1.);
#1094 = DIRECTION('',(1.,0.,0.));
#1095 = ORIENTED_EDGE('',*,*,#1096,.F.);
#1096 = EDGE_CURVE('',#148,#1089,#1097,.T.);
#1097 = CIRCLE('',#1098,2.2);
#1098 = AXIS2_PLACEMENT_3D('',#1099,#1100,#1101);
#1099 = CARTESIAN_POINT('',(-3.5,-2.942055637146,3.7));
#1100 = DIRECTION('',(-1.,0.,0.));
#1101 = DIRECTION('',(0.,0.,1.));
#1102 = ORIENTED_EDGE('',*,*,#147,.F.);
#1103 = CYLINDRICAL_SURFACE('',#1104,2.2);
#1104 = AXIS2_PLACEMENT_3D('',#1105,#1106,#1107);
#1105 = CARTESIAN_POINT('',(-5.,-2.942055637146,3.7));
#1106 = DIRECTION('',(1.,0.,0.));
#1107 = DIRECTION('',(0.,0.,-1.));
#1108 = ADVANCED_FACE('',(#1109),#1120,.T.);
#1109 = FACE_BOUND('',#1110,.T.);
#1110 = EDGE_LOOP('',(#1111,#1112,#1118,#1119));
#1111 = ORIENTED_EDGE('',*,*,#229,.T.);
#1112 = ORIENTED_EDGE('',*,*,#1113,.T.);
#1113 = EDGE_CURVE('',#222,#407,#1114,.T.);
#1114 = LINE('',#1115,#1116);
#1115 = CARTESIAN_POINT('',(5.,32.387219805082,1.5));
#1116 = VECTOR('',#1117,1.);
#1117 = DIRECTION('',(0.,0.,-1.));
#1118 = ORIENTED_EDGE('',*,*,#414,.F.);
#1119 = ORIENTED_EDGE('',*,*,#1073,.F.);
#1120 = CYLINDRICAL_SURFACE('',#1121,1.);
#1121 = AXIS2_PLACEMENT_3D('',#1122,#1123,#1124);
#1122 = CARTESIAN_POINT('',(4.,32.387219805082,1.5));
#1123 = DIRECTION('',(0.,0.,-1.));
#1124 = DIRECTION('',(-2.213744768251E-02,0.999754936677,0.));
#1125 = ADVANCED_FACE('',(#1126),#1169,.T.);
#1126 = FACE_BOUND('',#1127,.T.);
#1127 = EDGE_LOOP('',(#1128,#1136,#1144,#1150,#1151,#1157,#1158,#1164,
    #1165,#1166,#1167,#1168));
#1128 = ORIENTED_EDGE('',*,*,#1129,.F.);
#1129 = EDGE_CURVE('',#1130,#1089,#1132,.T.);
#1130 = VERTEX_POINT('',#1131);
#1131 = CARTESIAN_POINT('',(-3.5,-8.9,16.5));
#1132 = LINE('',#1133,#1134);
#1133 = CARTESIAN_POINT('',(-3.5,-8.9,16.5));
#1134 = VECTOR('',#1135,1.);
#1135 = DIRECTION('',(-0.,0.275567433055,-0.961281743215));
#1136 = ORIENTED_EDGE('',*,*,#1137,.T.);
#1137 = EDGE_CURVE('',#1130,#1138,#1140,.T.);
#1138 = VERTEX_POINT('',#1139);
#1139 = CARTESIAN_POINT('',(-3.5,-8.9,14.5));
#1140 = LINE('',#1141,#1142);
#1141 = CARTESIAN_POINT('',(-3.5,-8.9,11.6929224019));
#1142 = VECTOR('',#1143,1.);
#1143 = DIRECTION('',(0.,0.,-1.));
#1144 = ORIENTED_EDGE('',*,*,#1145,.F.);
#1145 = EDGE_CURVE('',#466,#1138,#1146,.T.);
#1146 = LINE('',#1147,#1148);
#1147 = CARTESIAN_POINT('',(-3.5,-9.888340242367,14.5));
#1148 = VECTOR('',#1149,1.);
#1149 = DIRECTION('',(0.,1.,-2.2E-16));
#1150 = ORIENTED_EDGE('',*,*,#473,.T.);
#1151 = ORIENTED_EDGE('',*,*,#1152,.T.);
#1152 = EDGE_CURVE('',#474,#696,#1153,.T.);
#1153 = LINE('',#1154,#1155);
#1154 = CARTESIAN_POINT('',(-3.5,-11.1,12.));
#1155 = VECTOR('',#1156,1.);
#1156 = DIRECTION('',(0.,-1.,2.2E-16));
#1157 = ORIENTED_EDGE('',*,*,#695,.F.);
#1158 = ORIENTED_EDGE('',*,*,#1159,.F.);
#1159 = EDGE_CURVE('',#499,#687,#1160,.T.);
#1160 = LINE('',#1161,#1162);
#1161 = CARTESIAN_POINT('',(-3.5,-11.1,10.));
#1162 = VECTOR('',#1163,1.);
#1163 = DIRECTION('',(0.,-1.,2.2E-16));
#1164 = ORIENTED_EDGE('',*,*,#507,.T.);
#1165 = ORIENTED_EDGE('',*,*,#313,.F.);
#1166 = ORIENTED_EDGE('',*,*,#163,.T.);
#1167 = ORIENTED_EDGE('',*,*,#155,.T.);
#1168 = ORIENTED_EDGE('',*,*,#1096,.T.);
#1169 = PLANE('',#1170);
#1170 = AXIS2_PLACEMENT_3D('',#1171,#1172,#1173);
#1171 = CARTESIAN_POINT('',(-3.5,-8.904368797379,8.430191660722));
#1172 = DIRECTION('',(1.,0.,0.));
#1173 = DIRECTION('',(0.,0.,1.));
#1174 = ADVANCED_FACE('',(#1175),#1186,.T.);
#1175 = FACE_BOUND('',#1176,.T.);
#1176 = EDGE_LOOP('',(#1177,#1178,#1184,#1185));
#1177 = ORIENTED_EDGE('',*,*,#221,.F.);
#1178 = ORIENTED_EDGE('',*,*,#1179,.T.);
#1179 = EDGE_CURVE('',#213,#398,#1180,.T.);
#1180 = LINE('',#1181,#1182);
#1181 = CARTESIAN_POINT('',(5.,2.7,1.5));
#1182 = VECTOR('',#1183,1.);
#1183 = DIRECTION('',(-0.,-0.,-1.));
#1184 = ORIENTED_EDGE('',*,*,#406,.T.);
#1185 = ORIENTED_EDGE('',*,*,#1113,.F.);
#1186 = PLANE('',#1187);
#1187 = AXIS2_PLACEMENT_3D('',#1188,#1189,#1190);
#1188 = CARTESIAN_POINT('',(5.,-3.177017989729,36.354330765721));
#1189 = DIRECTION('',(1.,0.,0.));
#1190 = DIRECTION('',(0.,0.,1.));
#1191 = ADVANCED_FACE('',(#1192),#1203,.T.);
#1192 = FACE_BOUND('',#1193,.T.);
#1193 = EDGE_LOOP('',(#1194,#1195,#1201,#1202));
#1194 = ORIENTED_EDGE('',*,*,#212,.T.);
#1195 = ORIENTED_EDGE('',*,*,#1196,.T.);
#1196 = EDGE_CURVE('',#205,#390,#1197,.T.);
#1197 = LINE('',#1198,#1199);
#1198 = CARTESIAN_POINT('',(4.,1.7,1.5));
#1199 = VECTOR('',#1200,1.);
#1200 = DIRECTION('',(-0.,-0.,-1.));
#1201 = ORIENTED_EDGE('',*,*,#397,.F.);
#1202 = ORIENTED_EDGE('',*,*,#1179,.F.);
#1203 = CYLINDRICAL_SURFACE('',#1204,1.);
#1204 = AXIS2_PLACEMENT_3D('',#1205,#1206,#1207);
#1205 = CARTESIAN_POINT('',(4.,2.7,1.5));
#1206 = DIRECTION('',(-0.,-0.,-1.));
#1207 = DIRECTION('',(1.,0.,0.));
#1208 = ADVANCED_FACE('',(#1209),#1220,.T.);
#1209 = FACE_BOUND('',#1210,.T.);
#1210 = EDGE_LOOP('',(#1211,#1212,#1218,#1219));
#1211 = ORIENTED_EDGE('',*,*,#204,.F.);
#1212 = ORIENTED_EDGE('',*,*,#1213,.T.);
#1213 = EDGE_CURVE('',#196,#381,#1214,.T.);
#1214 = LINE('',#1215,#1216);
#1215 = CARTESIAN_POINT('',(-2.9E-16,1.7,1.5));
#1216 = VECTOR('',#1217,1.);
#1217 = DIRECTION('',(-0.,-0.,-1.));
#1218 = ORIENTED_EDGE('',*,*,#389,.T.);
#1219 = ORIENTED_EDGE('',*,*,#1196,.F.);
#1220 = PLANE('',#1221);
#1221 = AXIS2_PLACEMENT_3D('',#1222,#1223,#1224);
#1222 = CARTESIAN_POINT('',(-3.E-16,1.7,1.5));
#1223 = DIRECTION('',(0.,-1.,0.));
#1224 = DIRECTION('',(1.,0.,0.));
#1225 = ADVANCED_FACE('',(#1226),#1237,.F.);
#1226 = FACE_BOUND('',#1227,.F.);
#1227 = EDGE_LOOP('',(#1228,#1229,#1230,#1231));
#1228 = ORIENTED_EDGE('',*,*,#195,.F.);
#1229 = ORIENTED_EDGE('',*,*,#1213,.T.);
#1230 = ORIENTED_EDGE('',*,*,#380,.T.);
#1231 = ORIENTED_EDGE('',*,*,#1232,.F.);
#1232 = EDGE_CURVE('',#188,#373,#1233,.T.);
#1233 = LINE('',#1234,#1235);
#1234 = CARTESIAN_POINT('',(-3.1E-16,-1.7,1.5));
#1235 = VECTOR('',#1236,1.);
#1236 = DIRECTION('',(-0.,-0.,-1.));
#1237 = CYLINDRICAL_SURFACE('',#1238,1.7);
#1238 = AXIS2_PLACEMENT_3D('',#1239,#1240,#1241);
#1239 = CARTESIAN_POINT('',(0.,0.,1.5));
#1240 = DIRECTION('',(0.,0.,1.));
#1241 = DIRECTION('',(1.,0.,0.));
#1242 = ADVANCED_FACE('',(#1243),#1249,.F.);
#1243 = FACE_BOUND('',#1244,.F.);
#1244 = EDGE_LOOP('',(#1245,#1246,#1247,#1248));
#1245 = ORIENTED_EDGE('',*,*,#187,.F.);
#1246 = ORIENTED_EDGE('',*,*,#1232,.T.);
#1247 = ORIENTED_EDGE('',*,*,#372,.T.);
#1248 = ORIENTED_EDGE('',*,*,#279,.F.);
#1249 = PLANE('',#1250);
#1250 = AXIS2_PLACEMENT_3D('',#1251,#1252,#1253);
#1251 = CARTESIAN_POINT('',(-3.E-16,-1.7,1.5));
#1252 = DIRECTION('',(0.,-1.,0.));
#1253 = DIRECTION('',(1.,0.,0.));
#1254 = ADVANCED_FACE('',(#1255),#1266,.F.);
#1255 = FACE_BOUND('',#1256,.F.);
#1256 = EDGE_LOOP('',(#1257,#1258,#1264,#1265));
#1257 = ORIENTED_EDGE('',*,*,#498,.F.);
#1258 = ORIENTED_EDGE('',*,*,#1259,.T.);
#1259 = EDGE_CURVE('',#491,#679,#1260,.T.);
#1260 = LINE('',#1261,#1262);
#1261 = CARTESIAN_POINT('',(-1.5,-11.1,10.));
#1262 = VECTOR('',#1263,1.);
#1263 = DIRECTION('',(0.,-1.,2.2E-16));
#1264 = ORIENTED_EDGE('',*,*,#686,.T.);
#1265 = ORIENTED_EDGE('',*,*,#1159,.F.);
#1266 = CYLINDRICAL_SURFACE('',#1267,1.);
#1267 = AXIS2_PLACEMENT_3D('',#1268,#1269,#1270);
#1268 = CARTESIAN_POINT('',(-2.5,-11.1,10.));
#1269 = DIRECTION('',(0.,1.,-2.2E-16));
#1270 = DIRECTION('',(-1.,0.,0.));
#1271 = ADVANCED_FACE('',(#1272),#1283,.F.);
#1272 = FACE_BOUND('',#1273,.F.);
#1273 = EDGE_LOOP('',(#1274,#1275,#1281,#1282));
#1274 = ORIENTED_EDGE('',*,*,#490,.F.);
#1275 = ORIENTED_EDGE('',*,*,#1276,.T.);
#1276 = EDGE_CURVE('',#482,#677,#1277,.T.);
#1277 = LINE('',#1278,#1279);
#1278 = CARTESIAN_POINT('',(-1.5,-11.1,12.));
#1279 = VECTOR('',#1280,1.);
#1280 = DIRECTION('',(0.,-1.,2.2E-16));
#1281 = ORIENTED_EDGE('',*,*,#676,.T.);
#1282 = ORIENTED_EDGE('',*,*,#1259,.F.);
#1283 = PLANE('',#1284);
#1284 = AXIS2_PLACEMENT_3D('',#1285,#1286,#1287);
#1285 = CARTESIAN_POINT('',(-1.5,-11.1,12.));
#1286 = DIRECTION('',(1.,0.,0.));
#1287 = DIRECTION('',(0.,-2.2E-16,-1.));
#1288 = ADVANCED_FACE('',(#1289),#1295,.F.);
#1289 = FACE_BOUND('',#1290,.F.);
#1290 = EDGE_LOOP('',(#1291,#1292,#1293,#1294));
#1291 = ORIENTED_EDGE('',*,*,#481,.F.);
#1292 = ORIENTED_EDGE('',*,*,#1152,.T.);
#1293 = ORIENTED_EDGE('',*,*,#703,.T.);
#1294 = ORIENTED_EDGE('',*,*,#1276,.F.);
#1295 = CYLINDRICAL_SURFACE('',#1296,1.);
#1296 = AXIS2_PLACEMENT_3D('',#1297,#1298,#1299);
#1297 = CARTESIAN_POINT('',(-2.5,-11.1,12.));
#1298 = DIRECTION('',(0.,1.,-2.2E-16));
#1299 = DIRECTION('',(-1.,0.,0.));
#1300 = ADVANCED_FACE('',(#1301),#1312,.F.);
#1301 = FACE_BOUND('',#1302,.F.);
#1302 = EDGE_LOOP('',(#1303,#1309,#1310,#1311));
#1303 = ORIENTED_EDGE('',*,*,#1304,.T.);
#1304 = EDGE_CURVE('',#592,#1138,#1305,.T.);
#1305 = LINE('',#1306,#1307);
#1306 = CARTESIAN_POINT('',(5.,-8.9,14.5));
#1307 = VECTOR('',#1308,1.);
#1308 = DIRECTION('',(-1.,0.,0.));
#1309 = ORIENTED_EDGE('',*,*,#1145,.F.);
#1310 = ORIENTED_EDGE('',*,*,#465,.F.);
#1311 = ORIENTED_EDGE('',*,*,#599,.T.);
#1312 = PLANE('',#1313);
#1313 = AXIS2_PLACEMENT_3D('',#1314,#1315,#1316);
#1314 = CARTESIAN_POINT('',(5.,-11.1,14.5));
#1315 = DIRECTION('',(0.,2.2E-16,1.));
#1316 = DIRECTION('',(-1.,0.,0.));
#1317 = ADVANCED_FACE('',(#1318),#1334,.F.);
#1318 = FACE_BOUND('',#1319,.F.);
#1319 = EDGE_LOOP('',(#1320,#1321,#1327,#1328));
#1320 = ORIENTED_EDGE('',*,*,#515,.F.);
#1321 = ORIENTED_EDGE('',*,*,#1322,.T.);
#1322 = EDGE_CURVE('',#516,#713,#1323,.T.);
#1323 = LINE('',#1324,#1325);
#1324 = CARTESIAN_POINT('',(1.5,-11.1,10.));
#1325 = VECTOR('',#1326,1.);
#1326 = DIRECTION('',(0.,-1.,2.2E-16));
#1327 = ORIENTED_EDGE('',*,*,#712,.T.);
#1328 = ORIENTED_EDGE('',*,*,#1329,.F.);
#1329 = EDGE_CURVE('',#518,#715,#1330,.T.);
#1330 = LINE('',#1331,#1332);
#1331 = CARTESIAN_POINT('',(1.5,-11.1,12.));
#1332 = VECTOR('',#1333,1.);
#1333 = DIRECTION('',(0.,-1.,2.2E-16));
#1334 = PLANE('',#1335);
#1335 = AXIS2_PLACEMENT_3D('',#1336,#1337,#1338);
#1336 = CARTESIAN_POINT('',(1.5,-11.1,10.));
#1337 = DIRECTION('',(-1.,0.,0.));
#1338 = DIRECTION('',(0.,2.2E-16,1.));
#1339 = ADVANCED_FACE('',(#1340),#1351,.F.);
#1340 = FACE_BOUND('',#1341,.F.);
#1341 = EDGE_LOOP('',(#1342,#1343,#1349,#1350));
#1342 = ORIENTED_EDGE('',*,*,#542,.F.);
#1343 = ORIENTED_EDGE('',*,*,#1344,.T.);
#1344 = EDGE_CURVE('',#535,#732,#1345,.T.);
#1345 = LINE('',#1346,#1347);
#1346 = CARTESIAN_POINT('',(3.5,-11.1,10.));
#1347 = VECTOR('',#1348,1.);
#1348 = DIRECTION('',(0.,-1.,2.2E-16));
#1349 = ORIENTED_EDGE('',*,*,#739,.T.);
#1350 = ORIENTED_EDGE('',*,*,#1322,.F.);
#1351 = CYLINDRICAL_SURFACE('',#1352,1.);
#1352 = AXIS2_PLACEMENT_3D('',#1353,#1354,#1355);
#1353 = CARTESIAN_POINT('',(2.5,-11.1,10.));
#1354 = DIRECTION('',(0.,1.,-2.2E-16));
#1355 = DIRECTION('',(-1.,0.,0.));
#1356 = ADVANCED_FACE('',(#1357),#1368,.F.);
#1357 = FACE_BOUND('',#1358,.F.);
#1358 = EDGE_LOOP('',(#1359,#1360,#1361,#1362));
#1359 = ORIENTED_EDGE('',*,*,#525,.F.);
#1360 = ORIENTED_EDGE('',*,*,#1329,.T.);
#1361 = ORIENTED_EDGE('',*,*,#722,.T.);
#1362 = ORIENTED_EDGE('',*,*,#1363,.F.);
#1363 = EDGE_CURVE('',#526,#723,#1364,.T.);
#1364 = LINE('',#1365,#1366);
#1365 = CARTESIAN_POINT('',(3.5,-11.1,12.));
#1366 = VECTOR('',#1367,1.);
#1367 = DIRECTION('',(0.,-1.,2.2E-16));
#1368 = CYLINDRICAL_SURFACE('',#1369,1.);
#1369 = AXIS2_PLACEMENT_3D('',#1370,#1371,#1372);
#1370 = CARTESIAN_POINT('',(2.5,-11.1,12.));
#1371 = DIRECTION('',(0.,1.,-2.2E-16));
#1372 = DIRECTION('',(-1.,0.,0.));
#1373 = ADVANCED_FACE('',(#1374),#1380,.F.);
#1374 = FACE_BOUND('',#1375,.F.);
#1375 = EDGE_LOOP('',(#1376,#1377,#1378,#1379));
#1376 = ORIENTED_EDGE('',*,*,#534,.F.);
#1377 = ORIENTED_EDGE('',*,*,#1363,.T.);
#1378 = ORIENTED_EDGE('',*,*,#731,.T.);
#1379 = ORIENTED_EDGE('',*,*,#1344,.F.);
#1380 = PLANE('',#1381);
#1381 = AXIS2_PLACEMENT_3D('',#1382,#1383,#1384);
#1382 = CARTESIAN_POINT('',(3.5,-11.1,12.));
#1383 = DIRECTION('',(1.,0.,0.));
#1384 = DIRECTION('',(0.,-2.2E-16,-1.));
#1385 = ADVANCED_FACE('',(#1386),#1402,.F.);
#1386 = FACE_BOUND('',#1387,.F.);
#1387 = EDGE_LOOP('',(#1388,#1389,#1395,#1401));
#1388 = ORIENTED_EDGE('',*,*,#754,.F.);
#1389 = ORIENTED_EDGE('',*,*,#1390,.T.);
#1390 = EDGE_CURVE('',#755,#1130,#1391,.T.);
#1391 = LINE('',#1392,#1393);
#1392 = CARTESIAN_POINT('',(-3.5,-11.1,16.5));
#1393 = VECTOR('',#1394,1.);
#1394 = DIRECTION('',(0.,1.,-2.2E-16));
#1395 = ORIENTED_EDGE('',*,*,#1396,.T.);
#1396 = EDGE_CURVE('',#1130,#583,#1397,.T.);
#1397 = LINE('',#1398,#1399);
#1398 = CARTESIAN_POINT('',(-5.,-8.9,16.5));
#1399 = VECTOR('',#1400,1.);
#1400 = DIRECTION('',(1.,0.,0.));
#1401 = ORIENTED_EDGE('',*,*,#582,.F.);
#1402 = PLANE('',#1403);
#1403 = AXIS2_PLACEMENT_3D('',#1404,#1405,#1406);
#1404 = CARTESIAN_POINT('',(-5.,-11.1,16.5));
#1405 = DIRECTION('',(0.,-2.2E-16,-1.));
#1406 = DIRECTION('',(1.,0.,0.));
#1407 = ADVANCED_FACE('',(#1408),#1414,.T.);
#1408 = FACE_BOUND('',#1409,.T.);
#1409 = EDGE_LOOP('',(#1410,#1411,#1412,#1413));
#1410 = ORIENTED_EDGE('',*,*,#1396,.T.);
#1411 = ORIENTED_EDGE('',*,*,#591,.T.);
#1412 = ORIENTED_EDGE('',*,*,#1304,.T.);
#1413 = ORIENTED_EDGE('',*,*,#1137,.F.);
#1414 = PLANE('',#1415);
#1415 = AXIS2_PLACEMENT_3D('',#1416,#1417,#1418);
#1416 = CARTESIAN_POINT('',(0.,-8.9,15.5));
#1417 = DIRECTION('',(0.,1.,0.));
#1418 = DIRECTION('',(0.,0.,1.));
#1419 = ADVANCED_FACE('',(#1420),#1461,.T.);
#1420 = FACE_BOUND('',#1421,.T.);
#1421 = EDGE_LOOP('',(#1422,#1432,#1439,#1440,#1446,#1447,#1455));
#1422 = ORIENTED_EDGE('',*,*,#1423,.F.);
#1423 = EDGE_CURVE('',#1424,#1426,#1428,.T.);
#1424 = VERTEX_POINT('',#1425);
#1425 = CARTESIAN_POINT('',(-5.,-9.89,46.471699697629));
#1426 = VERTEX_POINT('',#1427);
#1427 = CARTESIAN_POINT('',(-5.,-9.89,106.5));
#1428 = LINE('',#1429,#1430);
#1429 = CARTESIAN_POINT('',(-5.,-9.89,46.5));
#1430 = VECTOR('',#1431,1.);
#1431 = DIRECTION('',(0.,2.2E-16,1.));
#1432 = ORIENTED_EDGE('',*,*,#1433,.F.);
#1433 = EDGE_CURVE('',#812,#1424,#1434,.T.);
#1434 = CIRCLE('',#1435,1.5);
#1435 = AXIS2_PLACEMENT_3D('',#1436,#1437,#1438);
#1436 = CARTESIAN_POINT('',(-5.,-9.6,45.));
#1437 = DIRECTION('',(-1.,0.,0.));
#1438 = DIRECTION('',(0.,0.,1.));
#1439 = ORIENTED_EDGE('',*,*,#819,.F.);
#1440 = ORIENTED_EDGE('',*,*,#1441,.F.);
#1441 = EDGE_CURVE('',#616,#820,#1442,.T.);
#1442 = LINE('',#1443,#1444);
#1443 = CARTESIAN_POINT('',(-5.,-12.6,26.372281323269));
#1444 = VECTOR('',#1445,1.);
#1445 = DIRECTION('',(0.,1.,-2.2E-16));
#1446 = ORIENTED_EDGE('',*,*,#615,.T.);
#1447 = ORIENTED_EDGE('',*,*,#1448,.F.);
#1448 = EDGE_CURVE('',#1449,#618,#1451,.T.);
#1449 = VERTEX_POINT('',#1450);
#1450 = CARTESIAN_POINT('',(-5.,-11.6,106.5));
#1451 = LINE('',#1452,#1453);
#1452 = CARTESIAN_POINT('',(-5.,-12.210486034,72.923268129958));
#1453 = VECTOR('',#1454,1.);
#1454 = DIRECTION('',(0.,-1.817881366751E-02,-0.999834751713));
#1455 = ORIENTED_EDGE('',*,*,#1456,.F.);
#1456 = EDGE_CURVE('',#1426,#1449,#1457,.T.);
#1457 = LINE('',#1458,#1459);
#1458 = CARTESIAN_POINT('',(-5.,-11.1,106.5));
#1459 = VECTOR('',#1460,1.);
#1460 = DIRECTION('',(0.,-1.,0.));
#1461 = PLANE('',#1462);
#1462 = AXIS2_PLACEMENT_3D('',#1463,#1464,#1465);
#1463 = CARTESIAN_POINT('',(-5.,-10.62964418217,66.815784843809));
#1464 = DIRECTION('',(-1.,-0.,-0.));
#1465 = DIRECTION('',(0.,0.,-1.));
#1466 = ADVANCED_FACE('',(#1467),#1478,.T.);
#1467 = FACE_BOUND('',#1468,.F.);
#1468 = EDGE_LOOP('',(#1469,#1470,#1476,#1477));
#1469 = ORIENTED_EDGE('',*,*,#1448,.F.);
#1470 = ORIENTED_EDGE('',*,*,#1471,.T.);
#1471 = EDGE_CURVE('',#1449,#896,#1472,.T.);
#1472 = LINE('',#1473,#1474);
#1473 = CARTESIAN_POINT('',(-5.,-11.6,106.5));
#1474 = VECTOR('',#1475,1.);
#1475 = DIRECTION('',(1.,0.,0.));
#1476 = ORIENTED_EDGE('',*,*,#903,.T.);
#1477 = ORIENTED_EDGE('',*,*,#668,.F.);
#1478 = PLANE('',#1479);
#1479 = AXIS2_PLACEMENT_3D('',#1480,#1481,#1482);
#1480 = CARTESIAN_POINT('',(-5.,-12.1,79.));
#1481 = DIRECTION('',(0.,-0.999834751713,1.817881366751E-02));
#1482 = DIRECTION('',(-1.,-0.,-0.));
#1483 = ADVANCED_FACE('',(#1484),#1495,.T.);
#1484 = FACE_BOUND('',#1485,.T.);
#1485 = EDGE_LOOP('',(#1486,#1487,#1488,#1489));
#1486 = ORIENTED_EDGE('',*,*,#625,.T.);
#1487 = ORIENTED_EDGE('',*,*,#1441,.T.);
#1488 = ORIENTED_EDGE('',*,*,#827,.F.);
#1489 = ORIENTED_EDGE('',*,*,#1490,.F.);
#1490 = EDGE_CURVE('',#626,#828,#1491,.T.);
#1491 = LINE('',#1492,#1493);
#1492 = CARTESIAN_POINT('',(-4.142857142857,-12.6,24.730977709972));
#1493 = VECTOR('',#1494,1.);
#1494 = DIRECTION('',(0.,1.,-2.2E-16));
#1495 = CYLINDRICAL_SURFACE('',#1496,2.);
#1496 = AXIS2_PLACEMENT_3D('',#1497,#1498,#1499);
#1497 = CARTESIAN_POINT('',(-3.,-12.6,26.372281323269));
#1498 = DIRECTION('',(0.,1.,-2.2E-16));
#1499 = DIRECTION('',(-0.571428571429,-1.805433974626E-16,
    -0.820651806648));
#1500 = ADVANCED_FACE('',(#1501),#1512,.F.);
#1501 = FACE_BOUND('',#1502,.F.);
#1502 = EDGE_LOOP('',(#1503,#1504,#1505,#1506));
#1503 = ORIENTED_EDGE('',*,*,#836,.F.);
#1504 = ORIENTED_EDGE('',*,*,#1490,.F.);
#1505 = ORIENTED_EDGE('',*,*,#634,.T.);
#1506 = ORIENTED_EDGE('',*,*,#1507,.T.);
#1507 = EDGE_CURVE('',#635,#837,#1508,.T.);
#1508 = LINE('',#1509,#1510);
#1509 = CARTESIAN_POINT('',(-4.142857142857,-12.6,22.269022290028));
#1510 = VECTOR('',#1511,1.);
#1511 = DIRECTION('',(0.,1.,-2.2E-16));
#1512 = CYLINDRICAL_SURFACE('',#1513,1.5);
#1513 = AXIS2_PLACEMENT_3D('',#1514,#1515,#1516);
#1514 = CARTESIAN_POINT('',(-5.,-11.1,23.5));
#1515 = DIRECTION('',(0.,1.,-2.2E-16));
#1516 = DIRECTION('',(-1.,0.,0.));
#1517 = ADVANCED_FACE('',(#1518),#1524,.T.);
#1518 = FACE_BOUND('',#1519,.T.);
#1519 = EDGE_LOOP('',(#1520,#1521,#1522,#1523));
#1520 = ORIENTED_EDGE('',*,*,#643,.T.);
#1521 = ORIENTED_EDGE('',*,*,#1507,.T.);
#1522 = ORIENTED_EDGE('',*,*,#845,.F.);
#1523 = ORIENTED_EDGE('',*,*,#1048,.F.);
#1524 = CYLINDRICAL_SURFACE('',#1525,2.);
#1525 = AXIS2_PLACEMENT_3D('',#1526,#1527,#1528);
#1526 = CARTESIAN_POINT('',(-3.,-12.6,20.627718676731));
#1527 = DIRECTION('',(0.,1.,-2.2E-16));
#1528 = DIRECTION('',(-1.,0.,0.));
#1529 = ADVANCED_FACE('',(#1530),#1542,.T.);
#1530 = FACE_BOUND('',#1531,.F.);
#1531 = EDGE_LOOP('',(#1532,#1533,#1534,#1541));
#1532 = ORIENTED_EDGE('',*,*,#870,.T.);
#1533 = ORIENTED_EDGE('',*,*,#1056,.T.);
#1534 = ORIENTED_EDGE('',*,*,#1535,.F.);
#1535 = EDGE_CURVE('',#1130,#1027,#1536,.T.);
#1536 = ELLIPSE('',#1537,1.560416611037,1.5);
#1537 = AXIS2_PLACEMENT_3D('',#1538,#1539,#1540);
#1538 = CARTESIAN_POINT('',(-3.5,-8.47,15.));
#1539 = DIRECTION('',(0.,-0.961281743215,-0.275567433055));
#1540 = DIRECTION('',(0.,0.275567433055,-0.961281743215));
#1541 = ORIENTED_EDGE('',*,*,#1390,.F.);
#1542 = CYLINDRICAL_SURFACE('',#1543,1.5);
#1543 = AXIS2_PLACEMENT_3D('',#1544,#1545,#1546);
#1544 = CARTESIAN_POINT('',(-3.5,-11.1,15.));
#1545 = DIRECTION('',(0.,1.,-2.2E-16));
#1546 = DIRECTION('',(0.,2.2E-16,1.));
#1547 = ADVANCED_FACE('',(#1548),#1601,.F.);
#1548 = FACE_BOUND('',#1549,.T.);
#1549 = EDGE_LOOP('',(#1550,#1558,#1559,#1560));
#1550 = ORIENTED_EDGE('',*,*,#1551,.F.);
#1551 = EDGE_CURVE('',#887,#1552,#1554,.T.);
#1552 = VERTEX_POINT('',#1553);
#1553 = CARTESIAN_POINT('',(-0.8,-10.1,46.414213562373));
#1554 = LINE('',#1555,#1556);
#1555 = CARTESIAN_POINT('',(-0.8,-10.1,106.5));
#1556 = VECTOR('',#1557,1.);
#1557 = DIRECTION('',(0.,-2.2E-16,-1.));
#1558 = ORIENTED_EDGE('',*,*,#886,.T.);
#1559 = ORIENTED_EDGE('',*,*,#771,.T.);
#1560 = ORIENTED_EDGE('',*,*,#1561,.T.);
#1561 = EDGE_CURVE('',#772,#1552,#1562,.T.);
#1562 = B_SPLINE_CURVE_WITH_KNOTS('',7,(#1563,#1564,#1565,#1566,#1567,
    #1568,#1569,#1570,#1571,#1572,#1573,#1574,#1575,#1576,#1577,#1578,
    #1579,#1580,#1581,#1582,#1583,#1584,#1585,#1586,#1587,#1588,#1589,
    #1590,#1591,#1592,#1593,#1594,#1595,#1596,#1597,#1598,#1599,#1600),
  .UNSPECIFIED.,.F.,.F.,(8,6,6,6,6,6,8),(0.,6.60778382811E-06,
    8.303765893395E-04,5.65991105298E-02,0.431565779912,0.753691892671,
    1.),.UNSPECIFIED.);
#1563 = CARTESIAN_POINT('',(0.199999835411,-11.1,45.));
#1564 = CARTESIAN_POINT('',(0.199998753793,-11.1,45.000001642636));
#1565 = CARTESIAN_POINT('',(0.199997494482,-11.09999999999,
    45.000003176309));
#1566 = CARTESIAN_POINT('',(0.199996183986,-11.09999999999,
    45.000004670003));
#1567 = CARTESIAN_POINT('',(0.19999489848,-11.09999999998,
    45.000006168493));
#1568 = CARTESIAN_POINT('',(0.199993663809,-11.09999999998,
    45.000007692356));
#1569 = CARTESIAN_POINT('',(0.199992455485,-11.09999999997,
    45.000009237962));
#1570 = CARTESIAN_POINT('',(0.199834518841,-11.09999999858,
    45.000202703716));
#1571 = CARTESIAN_POINT('',(0.19967781639,-11.09999996855,
    45.000394607343));
#1572 = CARTESIAN_POINT('',(0.199521109562,-11.09999990988,
    45.000586506569));
#1573 = CARTESIAN_POINT('',(0.199364408944,-11.09999982257,
    45.000778411976));
#1574 = CARTESIAN_POINT('',(0.199207717484,-11.09999970661,
    45.000970326524));
#1575 = CARTESIAN_POINT('',(0.1990510305,-11.099999562,45.001162245551)
  );
#1576 = CARTESIAN_POINT('',(0.188286174464,-11.09998765968,
    45.014346449934));
#1577 = CARTESIAN_POINT('',(0.177678088966,-11.09984464192,
    45.027338695209));
#1578 = CARTESIAN_POINT('',(0.167071056645,-11.09957033323,
    45.040330291157));
#1579 = CARTESIAN_POINT('',(0.156466060281,-11.09916469581,
    45.053320631673));
#1580 = CARTESIAN_POINT('',(0.145864087972,-11.09862765634,
    45.066309105989));
#1581 = CARTESIAN_POINT('',(0.135266133127,-11.09795910595,
    45.079295098674));
#1582 = CARTESIAN_POINT('',(5.345051025745E-02,-11.09177863711,
    45.179569757569));
#1583 = CARTESIAN_POINT('',(-1.752770827968E-02,-11.08044776574,
    45.266699911045));
#1584 = CARTESIAN_POINT('',(-8.798772240053E-02,-11.06312655158,
    45.353515493172));
#1585 = CARTESIAN_POINT('',(-0.157609040295,-11.03968723586,
    45.439818518171));
#1586 = CARTESIAN_POINT('',(-0.226016941449,-11.00994091216,
    45.525364582989));
#1587 = CARTESIAN_POINT('',(-0.292753538002,-10.97362623422,
    45.609855089437));
#1588 = CARTESIAN_POINT('',(-0.41261551173,-10.89319078889,
    45.764285067298));
#1589 = CARTESIAN_POINT('',(-0.466282492318,-10.85092498145,
    45.834531913002));
#1590 = CARTESIAN_POINT('',(-0.517899819972,-10.80330790954,
    45.903486401291));
#1591 = CARTESIAN_POINT('',(-0.566964992741,-10.75005350176,
    45.970817241777));
#1592 = CARTESIAN_POINT('',(-0.612801287398,-10.69088710228,
    46.036043277534));
#1593 = CARTESIAN_POINT('',(-0.654528768998,-10.62558212529,
    46.098539006708));
#1594 = CARTESIAN_POINT('',(-0.71889860274,-10.49924921335,
    46.202656575445));
#1595 = CARTESIAN_POINT('',(-0.74370931102,-10.44085542344,
    46.245710331507));
#1596 = CARTESIAN_POINT('',(-0.764909411179,-10.37879397393,
    46.28632692906));
#1597 = CARTESIAN_POINT('',(-0.7818430816,-10.31319277658,
    46.324015439653));
#1598 = CARTESIAN_POINT('',(-0.793784545212,-10.24438435385,
    46.358221710385));
#1599 = CARTESIAN_POINT('',(-0.8,-10.17298949094,46.38840788037));
#1600 = CARTESIAN_POINT('',(-0.8,-10.1,46.414213562373));
#1601 = CYLINDRICAL_SURFACE('',#1602,1.);
#1602 = AXIS2_PLACEMENT_3D('',#1603,#1604,#1605);
#1603 = CARTESIAN_POINT('',(0.2,-10.1,106.5));
#1604 = DIRECTION('',(0.,-2.2E-16,-1.));
#1605 = DIRECTION('',(-1.,0.,0.));
#1606 = ADVANCED_FACE('',(#1607),#1706,.F.);
#1607 = FACE_BOUND('',#1608,.F.);
#1608 = EDGE_LOOP('',(#1609,#1626,#1635,#1676,#1677,#1678,#1687,#1700));
#1609 = ORIENTED_EDGE('',*,*,#1610,.F.);
#1610 = EDGE_CURVE('',#1611,#1613,#1615,.T.);
#1611 = VERTEX_POINT('',#1612);
#1612 = CARTESIAN_POINT('',(-1.8,-9.9,46.46969384567));
#1613 = VERTEX_POINT('',#1614);
#1614 = CARTESIAN_POINT('',(-1.846060798583,-9.6,46.5));
#1615 = B_SPLINE_CURVE_WITH_KNOTS('',5,(#1616,#1617,#1618,#1619,#1620,
    #1621,#1622,#1623,#1624,#1625),.UNSPECIFIED.,.F.,.F.,(6,4,6),(0.,
    0.376963606277,1.),.UNSPECIFIED.);
#1616 = CARTESIAN_POINT('',(-1.8,-9.9,46.46969384567));
#1617 = CARTESIAN_POINT('',(-1.8,-9.877265583446,46.474334489016));
#1618 = CARTESIAN_POINT('',(-1.800646026339,-9.854441206423,
    46.478535598779));
#1619 = CARTESIAN_POINT('',(-1.801948463519,-9.831567711849,
    46.482288769268));
#1620 = CARTESIAN_POINT('',(-1.80391229388,-9.808687508864,
    46.485590609162));
#1621 = CARTESIAN_POINT('',(-1.810875310139,-9.748090316831,
    46.493156677344));
#1622 = CARTESIAN_POINT('',(-1.817019247434,-9.710435391788,
    46.496642510951));
#1623 = CARTESIAN_POINT('',(-1.824966260858,-9.673081419015,
    46.498907085308));
#1624 = CARTESIAN_POINT('',(-1.834671804879,-9.636214691863,46.5));
#1625 = CARTESIAN_POINT('',(-1.846060798583,-9.6,46.5));
#1626 = ORIENTED_EDGE('',*,*,#1627,.F.);
#1627 = EDGE_CURVE('',#1628,#1611,#1630,.T.);
#1628 = VERTEX_POINT('',#1629);
#1629 = CARTESIAN_POINT('',(-1.800000007124,-10.10000000226,
    46.414213568779));
#1630 = CIRCLE('',#1631,1.5);
#1631 = AXIS2_PLACEMENT_3D('',#1632,#1633,#1634);
#1632 = CARTESIAN_POINT('',(-1.8,-9.6,45.));
#1633 = DIRECTION('',(-1.,-0.,-4.07E-15));
#1634 = DIRECTION('',(4.07E-15,0.,-1.));
#1635 = ORIENTED_EDGE('',*,*,#1636,.F.);
#1636 = EDGE_CURVE('',#780,#1628,#1637,.T.);
#1637 = B_SPLINE_CURVE_WITH_KNOTS('',7,(#1638,#1639,#1640,#1641,#1642,
    #1643,#1644,#1645,#1646,#1647,#1648,#1649,#1650,#1651,#1652,#1653,
    #1654,#1655,#1656,#1657,#1658,#1659,#1660,#1661,#1662,#1663,#1664,
    #1665,#1666,#1667,#1668,#1669,#1670,#1671,#1672,#1673,#1674,#1675),
  .UNSPECIFIED.,.F.,.F.,(8,6,6,6,6,6,8),(0.,0.354974027179,
    0.633961953485,0.736512326831,0.788312923173,0.893948924597,1.),
  .UNSPECIFIED.);
#1638 = CARTESIAN_POINT('',(-2.799999978927,-11.1,45.));
#1639 = CARTESIAN_POINT('',(-2.717592124302,-11.09999993384,
    45.100928739208));
#1640 = CARTESIAN_POINT('',(-2.635217049994,-11.09207741151,
    45.201816756522));
#1641 = CARTESIAN_POINT('',(-2.553284933565,-11.07624189088,
    45.302443479783));
#1642 = CARTESIAN_POINT('',(-2.472252938834,-11.05235033811,
    45.40252418411));
#1643 = CARTESIAN_POINT('',(-2.392679561322,-11.02013658794,
    45.501698056299));
#1644 = CARTESIAN_POINT('',(-2.31522909069,-10.97923602969,
    45.599525615474));
#1645 = CARTESIAN_POINT('',(-2.182313376132,-10.88958291201,
    45.770854853064));
#1646 = CARTESIAN_POINT('',(-2.125765282728,-10.84443516346,
    45.844985828769));
#1647 = CARTESIAN_POINT('',(-2.071538285788,-10.79328645196,
    45.917655943696));
#1648 = CARTESIAN_POINT('',(-2.02023732824,-10.73579081283,
    45.98846673986));
#1649 = CARTESIAN_POINT('',(-1.972694400786,-10.67162305377,
    46.056821687135));
#1650 = CARTESIAN_POINT('',(-1.930004223397,-10.60053571326,
    46.121937087689));
#1651 = CARTESIAN_POINT('',(-1.880213877014,-10.49369685097,
    46.205251853665));
#1652 = CARTESIAN_POINT('',(-1.867686199554,-10.46404285318,
    46.22706851988));
#1653 = CARTESIAN_POINT('',(-1.856086390461,-10.433454338,
    46.248256487688));
#1654 = CARTESIAN_POINT('',(-1.845495706909,-10.40194439156,
    46.268756402315));
#1655 = CARTESIAN_POINT('',(-1.836001132428,-10.36953878566,
    46.288503918023));
#1656 = CARTESIAN_POINT('',(-1.827692676184,-10.33627876579,
    46.307432151285));
#1657 = CARTESIAN_POINT('',(-1.817108642286,-10.28502189771,
    46.334587562136));
#1658 = CARTESIAN_POINT('',(-1.813882235814,-10.26761749353,
    46.343474794987));
#1659 = CARTESIAN_POINT('',(-1.810993319793,-10.25001854439,
    46.352126897959));
#1660 = CARTESIAN_POINT('',(-1.808453412281,-10.23223439168,
    46.36053518424));
#1661 = CARTESIAN_POINT('',(-1.806273682424,-10.21427580032,
    46.368691214773));
#1662 = CARTESIAN_POINT('',(-1.804464950454,-10.19615495876,
    46.376586798244));
#1663 = CARTESIAN_POINT('',(-1.800127097053,-10.14062886569,
    46.399767984896));
#1664 = CARTESIAN_POINT('',(-1.798802080098,-10.10274820078,
    46.414208786071));
#1665 = CARTESIAN_POINT('',(-1.799150588816,-10.06436811432,
    46.427466030854));
#1666 = CARTESIAN_POINT('',(-1.801246555197,-10.02563203157,
    46.439483816521));
#1667 = CARTESIAN_POINT('',(-1.80514359617,-9.986700500149,
    46.450224331673));
#1668 = CARTESIAN_POINT('',(-1.810868718549,-9.947749517065,
    46.459671486519));
#1669 = CARTESIAN_POINT('',(-1.825992984923,-9.870035814452,
    46.476029674773));
#1670 = CARTESIAN_POINT('',(-1.835408297865,-9.831264590623,
    46.482932548002));
#1671 = CARTESIAN_POINT('',(-1.846657224102,-9.792846854977,
    46.488551306242));
#1672 = CARTESIAN_POINT('',(-1.859706441578,-9.754959797491,
    46.492924757668));
#1673 = CARTESIAN_POINT('',(-1.874498787992,-9.71776479971,
    46.496116322125));
#1674 = CARTESIAN_POINT('',(-1.890958003897,-9.681406106911,
    46.498207978025));
#1675 = CARTESIAN_POINT('',(-1.908993475812,-9.64600950026,
    46.499294209248));
#1676 = ORIENTED_EDGE('',*,*,#779,.F.);
#1677 = ORIENTED_EDGE('',*,*,#1561,.T.);
#1678 = ORIENTED_EDGE('',*,*,#1679,.T.);
#1679 = EDGE_CURVE('',#1552,#1680,#1682,.T.);
#1680 = VERTEX_POINT('',#1681);
#1681 = CARTESIAN_POINT('',(-0.8,-9.89,46.471699697629));
#1682 = CIRCLE('',#1683,1.5);
#1683 = AXIS2_PLACEMENT_3D('',#1684,#1685,#1686);
#1684 = CARTESIAN_POINT('',(-0.8,-9.6,45.));
#1685 = DIRECTION('',(-1.,-0.,-4.07E-15));
#1686 = DIRECTION('',(4.07E-15,0.,-1.));
#1687 = ORIENTED_EDGE('',*,*,#1688,.T.);
#1688 = EDGE_CURVE('',#1680,#1689,#1691,.T.);
#1689 = VERTEX_POINT('',#1690);
#1690 = CARTESIAN_POINT('',(-0.821244047628,-9.6,46.5));
#1691 = B_SPLINE_CURVE_WITH_KNOTS('',4,(#1692,#1693,#1694,#1695,#1696,
    #1697,#1698,#1699),.UNSPECIFIED.,.F.,.F.,(5,3,5),(0.,0.589499802429,
    1.),.UNSPECIFIED.);
#1692 = CARTESIAN_POINT('',(-0.8,-9.89,46.471699697629));
#1693 = CARTESIAN_POINT('',(-0.8,-9.847833473474,46.480008656795));
#1694 = CARTESIAN_POINT('',(-0.801191102157,-9.80521596327,
    46.486733226172));
#1695 = CARTESIAN_POINT('',(-0.803631828356,-9.762338088159,
    46.491811159206));
#1696 = CARTESIAN_POINT('',(-0.809896574664,-9.689524436104,
    46.497626284105));
#1697 = CARTESIAN_POINT('',(-0.813075493943,-9.659611556259,
    46.499213436706));
#1698 = CARTESIAN_POINT('',(-0.816862207766,-9.629747494174,46.5));
#1699 = CARTESIAN_POINT('',(-0.821244047628,-9.6,46.5));
#1700 = ORIENTED_EDGE('',*,*,#1701,.T.);
#1701 = EDGE_CURVE('',#1689,#1613,#1702,.T.);
#1702 = LINE('',#1703,#1704);
#1703 = CARTESIAN_POINT('',(-0.8,-9.6,46.5));
#1704 = VECTOR('',#1705,1.);
#1705 = DIRECTION('',(-1.,0.,0.));
#1706 = CYLINDRICAL_SURFACE('',#1707,1.5);
#1707 = AXIS2_PLACEMENT_3D('',#1708,#1709,#1710);
#1708 = CARTESIAN_POINT('',(0.2,-9.6,45.));
#1709 = DIRECTION('',(-1.,-0.,-4.07E-15));
#1710 = DIRECTION('',(0.,-1.,0.));
#1711 = ADVANCED_FACE('',(#1712),#1731,.F.);
#1712 = FACE_BOUND('',#1713,.F.);
#1713 = EDGE_LOOP('',(#1714,#1715,#1716,#1724));
#1714 = ORIENTED_EDGE('',*,*,#787,.F.);
#1715 = ORIENTED_EDGE('',*,*,#1636,.T.);
#1716 = ORIENTED_EDGE('',*,*,#1717,.T.);
#1717 = EDGE_CURVE('',#1628,#1718,#1720,.T.);
#1718 = VERTEX_POINT('',#1719);
#1719 = CARTESIAN_POINT('',(-1.8,-10.1,106.5));
#1720 = LINE('',#1721,#1722);
#1721 = CARTESIAN_POINT('',(-1.8,-10.1,46.5));
#1722 = VECTOR('',#1723,1.);
#1723 = DIRECTION('',(0.,2.2E-16,1.));
#1724 = ORIENTED_EDGE('',*,*,#1725,.F.);
#1725 = EDGE_CURVE('',#788,#1718,#1726,.T.);
#1726 = CIRCLE('',#1727,1.);
#1727 = AXIS2_PLACEMENT_3D('',#1728,#1729,#1730);
#1728 = CARTESIAN_POINT('',(-2.8,-10.1,106.5));
#1729 = DIRECTION('',(-0.,2.2E-16,1.));
#1730 = DIRECTION('',(0.,-1.,2.2E-16));
#1731 = CYLINDRICAL_SURFACE('',#1732,1.);
#1732 = AXIS2_PLACEMENT_3D('',#1733,#1734,#1735);
#1733 = CARTESIAN_POINT('',(-2.8,-10.1,46.5));
#1734 = DIRECTION('',(0.,2.2E-16,1.));
#1735 = DIRECTION('',(0.,-1.,2.2E-16));
#1736 = ADVANCED_FACE('',(#1737,#1774),#1827,.T.);
#1737 = FACE_BOUND('',#1738,.T.);
#1738 = EDGE_LOOP('',(#1739,#1747,#1756,#1764,#1771,#1772,#1773));
#1739 = ORIENTED_EDGE('',*,*,#1740,.T.);
#1740 = EDGE_CURVE('',#887,#1741,#1743,.T.);
#1741 = VERTEX_POINT('',#1742);
#1742 = CARTESIAN_POINT('',(-0.8,-9.89,106.5));
#1743 = LINE('',#1744,#1745);
#1744 = CARTESIAN_POINT('',(-0.8,-11.1,106.5));
#1745 = VECTOR('',#1746,1.);
#1746 = DIRECTION('',(0.,1.,-2.2E-16));
#1747 = ORIENTED_EDGE('',*,*,#1748,.T.);
#1748 = EDGE_CURVE('',#1741,#1749,#1751,.T.);
#1749 = VERTEX_POINT('',#1750);
#1750 = CARTESIAN_POINT('',(-2.79,-7.9,106.5));
#1751 = CIRCLE('',#1752,1.99);
#1752 = AXIS2_PLACEMENT_3D('',#1753,#1754,#1755);
#1753 = CARTESIAN_POINT('',(-2.79,-9.89,106.5));
#1754 = DIRECTION('',(0.,2.2E-16,1.));
#1755 = DIRECTION('',(0.,1.,-2.2E-16));
#1756 = ORIENTED_EDGE('',*,*,#1757,.F.);
#1757 = EDGE_CURVE('',#1758,#1749,#1760,.T.);
#1758 = VERTEX_POINT('',#1759);
#1759 = CARTESIAN_POINT('',(-3.01,-7.9,106.5));
#1760 = LINE('',#1761,#1762);
#1761 = CARTESIAN_POINT('',(-5.,-7.9,106.5));
#1762 = VECTOR('',#1763,1.);
#1763 = DIRECTION('',(1.,0.,0.));
#1764 = ORIENTED_EDGE('',*,*,#1765,.F.);
#1765 = EDGE_CURVE('',#1426,#1758,#1766,.T.);
#1766 = CIRCLE('',#1767,1.99);
#1767 = AXIS2_PLACEMENT_3D('',#1768,#1769,#1770);
#1768 = CARTESIAN_POINT('',(-3.01,-9.89,106.5));
#1769 = DIRECTION('',(-0.,-2.2E-16,-1.));
#1770 = DIRECTION('',(0.,-1.,2.2E-16));
#1771 = ORIENTED_EDGE('',*,*,#1456,.T.);
#1772 = ORIENTED_EDGE('',*,*,#1471,.T.);
#1773 = ORIENTED_EDGE('',*,*,#895,.F.);
#1774 = FACE_BOUND('',#1775,.T.);
#1775 = EDGE_LOOP('',(#1776,#1784,#1785,#1786,#1795,#1803,#1812,#1820));
#1776 = ORIENTED_EDGE('',*,*,#1777,.F.);
#1777 = EDGE_CURVE('',#1718,#1778,#1780,.T.);
#1778 = VERTEX_POINT('',#1779);
#1779 = CARTESIAN_POINT('',(-1.8,-9.9,106.5));
#1780 = LINE('',#1781,#1782);
#1781 = CARTESIAN_POINT('',(-1.8,-11.1,106.5));
#1782 = VECTOR('',#1783,1.);
#1783 = DIRECTION('',(0.,1.,-2.2E-16));
#1784 = ORIENTED_EDGE('',*,*,#1725,.F.);
#1785 = ORIENTED_EDGE('',*,*,#795,.T.);
#1786 = ORIENTED_EDGE('',*,*,#1787,.T.);
#1787 = EDGE_CURVE('',#796,#1788,#1790,.T.);
#1788 = VERTEX_POINT('',#1789);
#1789 = CARTESIAN_POINT('',(-4.,-10.1,106.5));
#1790 = CIRCLE('',#1791,1.);
#1791 = AXIS2_PLACEMENT_3D('',#1792,#1793,#1794);
#1792 = CARTESIAN_POINT('',(-3.,-10.1,106.5));
#1793 = DIRECTION('',(0.,-2.2E-16,-1.));
#1794 = DIRECTION('',(0.,1.,-2.2E-16));
#1795 = ORIENTED_EDGE('',*,*,#1796,.T.);
#1796 = EDGE_CURVE('',#1788,#1797,#1799,.T.);
#1797 = VERTEX_POINT('',#1798);
#1798 = CARTESIAN_POINT('',(-4.,-9.9,106.5));
#1799 = LINE('',#1800,#1801);
#1800 = CARTESIAN_POINT('',(-4.,-11.1,106.5));
#1801 = VECTOR('',#1802,1.);
#1802 = DIRECTION('',(0.,1.,-2.2E-16));
#1803 = ORIENTED_EDGE('',*,*,#1804,.T.);
#1804 = EDGE_CURVE('',#1797,#1805,#1807,.T.);
#1805 = VERTEX_POINT('',#1806);
#1806 = CARTESIAN_POINT('',(-3.,-8.9,106.5));
#1807 = CIRCLE('',#1808,1.);
#1808 = AXIS2_PLACEMENT_3D('',#1809,#1810,#1811);
#1809 = CARTESIAN_POINT('',(-3.,-9.9,106.5));
#1810 = DIRECTION('',(0.,-2.2E-16,-1.));
#1811 = DIRECTION('',(0.,1.,-2.2E-16));
#1812 = ORIENTED_EDGE('',*,*,#1813,.T.);
#1813 = EDGE_CURVE('',#1805,#1814,#1816,.T.);
#1814 = VERTEX_POINT('',#1815);
#1815 = CARTESIAN_POINT('',(-2.8,-8.9,106.5));
#1816 = LINE('',#1817,#1818);
#1817 = CARTESIAN_POINT('',(-5.,-8.9,106.5));
#1818 = VECTOR('',#1819,1.);
#1819 = DIRECTION('',(1.,0.,0.));
#1820 = ORIENTED_EDGE('',*,*,#1821,.F.);
#1821 = EDGE_CURVE('',#1778,#1814,#1822,.T.);
#1822 = CIRCLE('',#1823,1.);
#1823 = AXIS2_PLACEMENT_3D('',#1824,#1825,#1826);
#1824 = CARTESIAN_POINT('',(-2.8,-9.9,106.5));
#1825 = DIRECTION('',(-0.,2.2E-16,1.));
#1826 = DIRECTION('',(0.,-1.,2.2E-16));
#1827 = PLANE('',#1828);
#1828 = AXIS2_PLACEMENT_3D('',#1829,#1830,#1831);
#1829 = CARTESIAN_POINT('',(-0.631292517007,-10.881292517,106.5));
#1830 = DIRECTION('',(0.,0.,1.));
#1831 = DIRECTION('',(1.,0.,0.));
#1832 = ADVANCED_FACE('',(#1833),#1892,.F.);
#1833 = FACE_BOUND('',#1834,.F.);
#1834 = EDGE_LOOP('',(#1835,#1836,#1837,#1845));
#1835 = ORIENTED_EDGE('',*,*,#803,.F.);
#1836 = ORIENTED_EDGE('',*,*,#1787,.T.);
#1837 = ORIENTED_EDGE('',*,*,#1838,.T.);
#1838 = EDGE_CURVE('',#1788,#1839,#1841,.T.);
#1839 = VERTEX_POINT('',#1840);
#1840 = CARTESIAN_POINT('',(-3.999999992012,-10.10000000262,
    46.414213569809));
#1841 = LINE('',#1842,#1843);
#1842 = CARTESIAN_POINT('',(-4.,-10.1,106.5));
#1843 = VECTOR('',#1844,1.);
#1844 = DIRECTION('',(0.,-2.2E-16,-1.));
#1845 = ORIENTED_EDGE('',*,*,#1846,.F.);
#1846 = EDGE_CURVE('',#804,#1839,#1847,.T.);
#1847 = B_SPLINE_CURVE_WITH_KNOTS('',7,(#1848,#1849,#1850,#1851,#1852,
    #1853,#1854,#1855,#1856,#1857,#1858,#1859,#1860,#1861,#1862,#1863,
    #1864,#1865,#1866,#1867,#1868,#1869,#1870,#1871,#1872,#1873,#1874,
    #1875,#1876,#1877,#1878,#1879,#1880,#1881,#1882,#1883,#1884,#1885,
    #1886,#1887,#1888,#1889,#1890,#1891),.UNSPECIFIED.,.F.,.F.,(8,6,6,6,
    6,6,6,8),(0.,4.637584338986E-02,0.374172999428,0.635132480127,
    0.737581772782,0.789339792491,0.894924436816,1.),.UNSPECIFIED.);
#1848 = CARTESIAN_POINT('',(-3.000000164589,-11.1,45.));
#1849 = CARTESIAN_POINT('',(-3.010766099695,-11.0999999992,
    45.013185976511));
#1850 = CARTESIAN_POINT('',(-3.02153242679,-11.09986477038,
    45.026371585043));
#1851 = CARTESIAN_POINT('',(-3.032297500794,-11.09959431302,
    45.039556794726));
#1852 = CARTESIAN_POINT('',(-3.043060517888,-11.09918858939,
    45.052740735259));
#1853 = CARTESIAN_POINT('',(-3.053820558229,-11.09864752426,
    45.06592265446));
#1854 = CARTESIAN_POINT('',(-3.064576399263,-11.09797100447,
    45.079102103543));
#1855 = CARTESIAN_POINT('',(-3.151315992992,-11.09141854611,
    45.18541166787));
#1856 = CARTESIAN_POINT('',(-3.227019778328,-11.07890540212,
    45.278352286813));
#1857 = CARTESIAN_POINT('',(-3.30211144815,-11.05957099862,
    45.370923193169));
#1858 = CARTESIAN_POINT('',(-3.376207654708,-11.03325604891,
    45.462886473454));
#1859 = CARTESIAN_POINT('',(-3.448834771993,-10.99971176919,
    45.553934333841));
#1860 = CARTESIAN_POINT('',(-3.519418586138,-10.95861100498,
    45.643686585081));
#1861 = CARTESIAN_POINT('',(-3.641131322571,-10.8703197145,
    45.80170108598));
#1862 = CARTESIAN_POINT('',(-3.693238231875,-10.82611887908,
    45.870543556332));
#1863 = CARTESIAN_POINT('',(-3.743160235676,-10.7765876884,
    45.938003548669));
#1864 = CARTESIAN_POINT('',(-3.790369075243,-10.72144078585,
    46.003730042772));
#1865 = CARTESIAN_POINT('',(-3.834150876196,-10.66041624967,
    46.067212189629));
#1866 = CARTESIAN_POINT('',(-3.873582336665,-10.59332229675,
    46.127789779554));
#1867 = CARTESIAN_POINT('',(-3.92079409087,-10.49133368543,
    46.207000237681));
#1868 = CARTESIAN_POINT('',(-3.933246103674,-10.46164634335,
    46.228751945017));
#1869 = CARTESIAN_POINT('',(-3.944767654584,-10.43102705542,
    46.249872973767));
#1870 = CARTESIAN_POINT('',(-3.955277450995,-10.399489379,
    46.270303914597));
#1871 = CARTESIAN_POINT('',(-3.964688554941,-10.36705963306,
    46.289980429713));
#1872 = CARTESIAN_POINT('',(-3.972911115497,-10.3337796856,
    46.308835726169));
#1873 = CARTESIAN_POINT('',(-3.983363245931,-10.28249739326,
    46.335880222378));
#1874 = CARTESIAN_POINT('',(-3.986545120791,-10.2650837644,
    46.344730704298));
#1875 = CARTESIAN_POINT('',(-3.989388892814,-10.24747686609,
    46.353345562275));
#1876 = CARTESIAN_POINT('',(-3.991883089758,-10.22968613155,
    46.361716141246));
#1877 = CARTESIAN_POINT('',(-3.994016600088,-10.21172241559,
    46.369834043749));
#1878 = CARTESIAN_POINT('',(-3.995778672975,-10.19359799464,
    46.377691129917));
#1879 = CARTESIAN_POINT('',(-3.999974572994,-10.13805345965,
    46.400759576551));
#1880 = CARTESIAN_POINT('',(-4.001202086932,-10.10016263441,
    46.415124414551));
#1881 = CARTESIAN_POINT('',(-4.000754116525,-10.0617796115,
    46.428304107342));
#1882 = CARTESIAN_POINT('',(-3.998557592806,-10.02304850011,
    46.440243444851));
#1883 = CARTESIAN_POINT('',(-3.994559928179,-9.98413027194,
    46.450905478135));
#1884 = CARTESIAN_POINT('',(-3.988735223163,-9.945201034991,
    46.460275066447));
#1885 = CARTESIAN_POINT('',(-3.973482582639,-9.86788641822,
    46.476410788585));
#1886 = CARTESIAN_POINT('',(-3.964070360747,-9.829489763665,
    46.483191131034));
#1887 = CARTESIAN_POINT('',(-3.952859454079,-9.791446497926,
    46.488712395945));
#1888 = CARTESIAN_POINT('',(-3.939882953203,-9.753928632492,
    46.493012974546));
#1889 = CARTESIAN_POINT('',(-3.925196824467,-9.717092801717,
    46.496154895512));
#1890 = CARTESIAN_POINT('',(-3.908875341816,-9.681079028392,
    46.498218015484));
#1891 = CARTESIAN_POINT('',(-3.89100651861,-9.646009489312,
    46.499294209584));
#1892 = CYLINDRICAL_SURFACE('',#1893,1.);
#1893 = AXIS2_PLACEMENT_3D('',#1894,#1895,#1896);
#1894 = CARTESIAN_POINT('',(-3.,-10.1,106.5));
#1895 = DIRECTION('',(0.,-2.2E-16,-1.));
#1896 = DIRECTION('',(0.,-1.,2.2E-16));
#1897 = ADVANCED_FACE('',(#1898),#1946,.F.);
#1898 = FACE_BOUND('',#1899,.T.);
#1899 = EDGE_LOOP('',(#1900,#1910,#1925,#1932,#1933,#1934,#1935));
#1900 = ORIENTED_EDGE('',*,*,#1901,.T.);
#1901 = EDGE_CURVE('',#1902,#1904,#1906,.T.);
#1902 = VERTEX_POINT('',#1903);
#1903 = CARTESIAN_POINT('',(-4.978755952372,-9.6,46.5));
#1904 = VERTEX_POINT('',#1905);
#1905 = CARTESIAN_POINT('',(-3.953939201417,-9.6,46.5));
#1906 = LINE('',#1907,#1908);
#1907 = CARTESIAN_POINT('',(-4.,-9.6,46.5));
#1908 = VECTOR('',#1909,1.);
#1909 = DIRECTION('',(1.,0.,4.07E-15));
#1910 = ORIENTED_EDGE('',*,*,#1911,.F.);
#1911 = EDGE_CURVE('',#1912,#1904,#1914,.T.);
#1912 = VERTEX_POINT('',#1913);
#1913 = CARTESIAN_POINT('',(-4.,-9.9,46.46969384567));
#1914 = B_SPLINE_CURVE_WITH_KNOTS('',5,(#1915,#1916,#1917,#1918,#1919,
    #1920,#1921,#1922,#1923,#1924),.UNSPECIFIED.,.F.,.F.,(6,4,6),(0.,
    0.376963606277,1.),.UNSPECIFIED.);
#1915 = CARTESIAN_POINT('',(-4.,-9.9,46.46969384567));
#1916 = CARTESIAN_POINT('',(-4.,-9.877265583446,46.474334489016));
#1917 = CARTESIAN_POINT('',(-3.999353973661,-9.854441206423,
    46.478535598779));
#1918 = CARTESIAN_POINT('',(-3.998051536481,-9.831567711849,
    46.482288769268));
#1919 = CARTESIAN_POINT('',(-3.99608770612,-9.808687508864,
    46.485590609162));
#1920 = CARTESIAN_POINT('',(-3.989124689861,-9.748090316831,
    46.493156677344));
#1921 = CARTESIAN_POINT('',(-3.982980752566,-9.710435391788,
    46.496642510951));
#1922 = CARTESIAN_POINT('',(-3.975033739142,-9.673081419015,
    46.498907085308));
#1923 = CARTESIAN_POINT('',(-3.965328195121,-9.636214691863,46.5));
#1924 = CARTESIAN_POINT('',(-3.953939201417,-9.6,46.5));
#1925 = ORIENTED_EDGE('',*,*,#1926,.F.);
#1926 = EDGE_CURVE('',#1839,#1912,#1927,.T.);
#1927 = CIRCLE('',#1928,1.5);
#1928 = AXIS2_PLACEMENT_3D('',#1929,#1930,#1931);
#1929 = CARTESIAN_POINT('',(-4.,-9.6,45.));
#1930 = DIRECTION('',(-1.,0.,-4.07E-15));
#1931 = DIRECTION('',(-4.07E-15,0.,1.));
#1932 = ORIENTED_EDGE('',*,*,#1846,.F.);
#1933 = ORIENTED_EDGE('',*,*,#811,.F.);
#1934 = ORIENTED_EDGE('',*,*,#1433,.T.);
#1935 = ORIENTED_EDGE('',*,*,#1936,.T.);
#1936 = EDGE_CURVE('',#1424,#1902,#1937,.T.);
#1937 = B_SPLINE_CURVE_WITH_KNOTS('',4,(#1938,#1939,#1940,#1941,#1942,
    #1943,#1944,#1945),.UNSPECIFIED.,.F.,.F.,(5,3,5),(0.,0.589499802429,
    1.),.UNSPECIFIED.);
#1938 = CARTESIAN_POINT('',(-5.,-9.89,46.471699697629));
#1939 = CARTESIAN_POINT('',(-5.,-9.847833473474,46.480008656795));
#1940 = CARTESIAN_POINT('',(-4.998808897843,-9.80521596327,
    46.486733226172));
#1941 = CARTESIAN_POINT('',(-4.996368171644,-9.762338088159,
    46.491811159206));
#1942 = CARTESIAN_POINT('',(-4.990103425336,-9.689524436104,
    46.497626284105));
#1943 = CARTESIAN_POINT('',(-4.986924506057,-9.659611556259,
    46.499213436706));
#1944 = CARTESIAN_POINT('',(-4.983137792234,-9.629747494174,46.5));
#1945 = CARTESIAN_POINT('',(-4.978755952372,-9.6,46.5));
#1946 = CYLINDRICAL_SURFACE('',#1947,1.5);
#1947 = AXIS2_PLACEMENT_3D('',#1948,#1949,#1950);
#1948 = CARTESIAN_POINT('',(-4.,-9.6,45.));
#1949 = DIRECTION('',(1.,0.,4.07E-15));
#1950 = DIRECTION('',(0.,-1.,0.));
#1951 = ADVANCED_FACE('',(#1952),#1958,.T.);
#1952 = FACE_BOUND('',#1953,.T.);
#1953 = EDGE_LOOP('',(#1954,#1955,#1956,#1957));
#1954 = ORIENTED_EDGE('',*,*,#1026,.F.);
#1955 = ORIENTED_EDGE('',*,*,#1535,.F.);
#1956 = ORIENTED_EDGE('',*,*,#1129,.T.);
#1957 = ORIENTED_EDGE('',*,*,#1088,.F.);
#1958 = PLANE('',#1959);
#1959 = AXIS2_PLACEMENT_3D('',#1960,#1961,#1962);
#1960 = CARTESIAN_POINT('',(-5.,-8.9,16.5));
#1961 = DIRECTION('',(0.,0.961281743215,0.275567433055));
#1962 = DIRECTION('',(0.,0.275567433055,-0.961281743215));
#1963 = ADVANCED_FACE('',(#1964),#1984,.T.);
#1964 = FACE_BOUND('',#1965,.F.);
#1965 = EDGE_LOOP('',(#1966,#1975,#1981,#1982,#1983));
#1966 = ORIENTED_EDGE('',*,*,#1967,.T.);
#1967 = EDGE_CURVE('',#1902,#1968,#1970,.T.);
#1968 = VERTEX_POINT('',#1969);
#1969 = CARTESIAN_POINT('',(-3.01,-7.9,46.5));
#1970 = CIRCLE('',#1971,1.99);
#1971 = AXIS2_PLACEMENT_3D('',#1972,#1973,#1974);
#1972 = CARTESIAN_POINT('',(-3.01,-9.89,46.5));
#1973 = DIRECTION('',(-0.,-2.2E-16,-1.));
#1974 = DIRECTION('',(0.,-1.,2.2E-16));
#1975 = ORIENTED_EDGE('',*,*,#1976,.T.);
#1976 = EDGE_CURVE('',#1968,#1758,#1977,.T.);
#1977 = LINE('',#1978,#1979);
#1978 = CARTESIAN_POINT('',(-3.01,-7.9,46.5));
#1979 = VECTOR('',#1980,1.);
#1980 = DIRECTION('',(0.,2.2E-16,1.));
#1981 = ORIENTED_EDGE('',*,*,#1765,.F.);
#1982 = ORIENTED_EDGE('',*,*,#1423,.F.);
#1983 = ORIENTED_EDGE('',*,*,#1936,.T.);
#1984 = CYLINDRICAL_SURFACE('',#1985,1.99);
#1985 = AXIS2_PLACEMENT_3D('',#1986,#1987,#1988);
#1986 = CARTESIAN_POINT('',(-3.01,-9.89,46.5));
#1987 = DIRECTION('',(0.,2.2E-16,1.));
#1988 = DIRECTION('',(-1.,0.,0.));
#1989 = ADVANCED_FACE('',(#1990),#2001,.T.);
#1990 = FACE_BOUND('',#1991,.T.);
#1991 = EDGE_LOOP('',(#1992,#1993,#1994,#2000));
#1992 = ORIENTED_EDGE('',*,*,#1551,.T.);
#1993 = ORIENTED_EDGE('',*,*,#1679,.T.);
#1994 = ORIENTED_EDGE('',*,*,#1995,.F.);
#1995 = EDGE_CURVE('',#1741,#1680,#1996,.T.);
#1996 = LINE('',#1997,#1998);
#1997 = CARTESIAN_POINT('',(-0.8,-9.89,106.5));
#1998 = VECTOR('',#1999,1.);
#1999 = DIRECTION('',(0.,-2.2E-16,-1.));
#2000 = ORIENTED_EDGE('',*,*,#1740,.F.);
#2001 = PLANE('',#2002);
#2002 = AXIS2_PLACEMENT_3D('',#2003,#2004,#2005);
#2003 = CARTESIAN_POINT('',(-0.8,-9.5,76.5));
#2004 = DIRECTION('',(1.,0.,0.));
#2005 = DIRECTION('',(0.,0.,1.));
#2006 = ADVANCED_FACE('',(#2007),#2032,.F.);
#2007 = FACE_BOUND('',#2008,.F.);
#2008 = EDGE_LOOP('',(#2009,#2018,#2024,#2025,#2031));
#2009 = ORIENTED_EDGE('',*,*,#2010,.T.);
#2010 = EDGE_CURVE('',#1613,#2011,#2013,.T.);
#2011 = VERTEX_POINT('',#2012);
#2012 = CARTESIAN_POINT('',(-2.8,-8.9,46.5));
#2013 = CIRCLE('',#2014,1.);
#2014 = AXIS2_PLACEMENT_3D('',#2015,#2016,#2017);
#2015 = CARTESIAN_POINT('',(-2.8,-9.9,46.5));
#2016 = DIRECTION('',(-0.,2.2E-16,1.));
#2017 = DIRECTION('',(0.,-1.,2.2E-16));
#2018 = ORIENTED_EDGE('',*,*,#2019,.T.);
#2019 = EDGE_CURVE('',#2011,#1814,#2020,.T.);
#2020 = LINE('',#2021,#2022);
#2021 = CARTESIAN_POINT('',(-2.8,-8.9,46.5));
#2022 = VECTOR('',#2023,1.);
#2023 = DIRECTION('',(0.,2.2E-16,1.));
#2024 = ORIENTED_EDGE('',*,*,#1821,.F.);
#2025 = ORIENTED_EDGE('',*,*,#2026,.F.);
#2026 = EDGE_CURVE('',#1611,#1778,#2027,.T.);
#2027 = LINE('',#2028,#2029);
#2028 = CARTESIAN_POINT('',(-1.8,-9.9,46.5));
#2029 = VECTOR('',#2030,1.);
#2030 = DIRECTION('',(0.,2.2E-16,1.));
#2031 = ORIENTED_EDGE('',*,*,#1610,.T.);
#2032 = CYLINDRICAL_SURFACE('',#2033,1.);
#2033 = AXIS2_PLACEMENT_3D('',#2034,#2035,#2036);
#2034 = CARTESIAN_POINT('',(-2.8,-9.9,46.5));
#2035 = DIRECTION('',(0.,2.2E-16,1.));
#2036 = DIRECTION('',(1.,0.,0.));
#2037 = ADVANCED_FACE('',(#2038),#2044,.F.);
#2038 = FACE_BOUND('',#2039,.F.);
#2039 = EDGE_LOOP('',(#2040,#2041,#2042,#2043));
#2040 = ORIENTED_EDGE('',*,*,#1717,.F.);
#2041 = ORIENTED_EDGE('',*,*,#1627,.T.);
#2042 = ORIENTED_EDGE('',*,*,#2026,.T.);
#2043 = ORIENTED_EDGE('',*,*,#1777,.F.);
#2044 = PLANE('',#2045);
#2045 = AXIS2_PLACEMENT_3D('',#2046,#2047,#2048);
#2046 = CARTESIAN_POINT('',(-1.8,-11.1,46.5));
#2047 = DIRECTION('',(1.,0.,0.));
#2048 = DIRECTION('',(0.,2.2E-16,1.));
#2049 = ADVANCED_FACE('',(#2050),#2070,.T.);
#2050 = FACE_BOUND('',#2051,.F.);
#2051 = EDGE_LOOP('',(#2052,#2053,#2054,#2062,#2069));
#2052 = ORIENTED_EDGE('',*,*,#1995,.F.);
#2053 = ORIENTED_EDGE('',*,*,#1748,.T.);
#2054 = ORIENTED_EDGE('',*,*,#2055,.T.);
#2055 = EDGE_CURVE('',#1749,#2056,#2058,.T.);
#2056 = VERTEX_POINT('',#2057);
#2057 = CARTESIAN_POINT('',(-2.79,-7.9,46.5));
#2058 = LINE('',#2059,#2060);
#2059 = CARTESIAN_POINT('',(-2.79,-7.9,106.5));
#2060 = VECTOR('',#2061,1.);
#2061 = DIRECTION('',(0.,-2.2E-16,-1.));
#2062 = ORIENTED_EDGE('',*,*,#2063,.F.);
#2063 = EDGE_CURVE('',#1689,#2056,#2064,.T.);
#2064 = CIRCLE('',#2065,1.99);
#2065 = AXIS2_PLACEMENT_3D('',#2066,#2067,#2068);
#2066 = CARTESIAN_POINT('',(-2.79,-9.89,46.5));
#2067 = DIRECTION('',(0.,2.2E-16,1.));
#2068 = DIRECTION('',(0.,1.,-2.2E-16));
#2069 = ORIENTED_EDGE('',*,*,#1688,.F.);
#2070 = CYLINDRICAL_SURFACE('',#2071,1.99);
#2071 = AXIS2_PLACEMENT_3D('',#2072,#2073,#2074);
#2072 = CARTESIAN_POINT('',(-2.79,-9.89,106.5));
#2073 = DIRECTION('',(0.,-2.2E-16,-1.));
#2074 = DIRECTION('',(1.,0.,0.));
#2075 = ADVANCED_FACE('',(#2076),#2104,.T.);
#2076 = FACE_BOUND('',#2077,.T.);
#2077 = EDGE_LOOP('',(#2078,#2079,#2080,#2081,#2089,#2096,#2097,#2098));
#2078 = ORIENTED_EDGE('',*,*,#2063,.F.);
#2079 = ORIENTED_EDGE('',*,*,#1701,.T.);
#2080 = ORIENTED_EDGE('',*,*,#2010,.T.);
#2081 = ORIENTED_EDGE('',*,*,#2082,.T.);
#2082 = EDGE_CURVE('',#2011,#2083,#2085,.T.);
#2083 = VERTEX_POINT('',#2084);
#2084 = CARTESIAN_POINT('',(-3.,-8.9,46.5));
#2085 = LINE('',#2086,#2087);
#2086 = CARTESIAN_POINT('',(-0.8,-8.9,46.5));
#2087 = VECTOR('',#2088,1.);
#2088 = DIRECTION('',(-1.,0.,0.));
#2089 = ORIENTED_EDGE('',*,*,#2090,.F.);
#2090 = EDGE_CURVE('',#1904,#2083,#2091,.T.);
#2091 = CIRCLE('',#2092,1.);
#2092 = AXIS2_PLACEMENT_3D('',#2093,#2094,#2095);
#2093 = CARTESIAN_POINT('',(-3.,-9.9,46.5));
#2094 = DIRECTION('',(0.,-2.2E-16,-1.));
#2095 = DIRECTION('',(0.,1.,-2.2E-16));
#2096 = ORIENTED_EDGE('',*,*,#1901,.F.);
#2097 = ORIENTED_EDGE('',*,*,#1967,.T.);
#2098 = ORIENTED_EDGE('',*,*,#2099,.F.);
#2099 = EDGE_CURVE('',#2056,#1968,#2100,.T.);
#2100 = LINE('',#2101,#2102);
#2101 = CARTESIAN_POINT('',(-0.8,-7.9,46.5));
#2102 = VECTOR('',#2103,1.);
#2103 = DIRECTION('',(-1.,0.,0.));
#2104 = PLANE('',#2105);
#2105 = AXIS2_PLACEMENT_3D('',#2106,#2107,#2108);
#2106 = CARTESIAN_POINT('',(-2.9,-9.3625,46.5));
#2107 = DIRECTION('',(4.07E-15,-4.03E-15,-1.));
#2108 = DIRECTION('',(-1.,0.,-4.07E-15));
#2109 = ADVANCED_FACE('',(#2110),#2116,.T.);
#2110 = FACE_BOUND('',#2111,.T.);
#2111 = EDGE_LOOP('',(#2112,#2113,#2114,#2115));
#2112 = ORIENTED_EDGE('',*,*,#2099,.T.);
#2113 = ORIENTED_EDGE('',*,*,#1976,.T.);
#2114 = ORIENTED_EDGE('',*,*,#1757,.T.);
#2115 = ORIENTED_EDGE('',*,*,#2055,.T.);
#2116 = PLANE('',#2117);
#2117 = AXIS2_PLACEMENT_3D('',#2118,#2119,#2120);
#2118 = CARTESIAN_POINT('',(-2.9,-7.9,76.5));
#2119 = DIRECTION('',(0.,1.,0.));
#2120 = DIRECTION('',(0.,0.,1.));
#2121 = ADVANCED_FACE('',(#2122),#2133,.F.);
#2122 = FACE_BOUND('',#2123,.F.);
#2123 = EDGE_LOOP('',(#2124,#2125,#2126,#2127));
#2124 = ORIENTED_EDGE('',*,*,#1813,.T.);
#2125 = ORIENTED_EDGE('',*,*,#2019,.F.);
#2126 = ORIENTED_EDGE('',*,*,#2082,.T.);
#2127 = ORIENTED_EDGE('',*,*,#2128,.F.);
#2128 = EDGE_CURVE('',#1805,#2083,#2129,.T.);
#2129 = LINE('',#2130,#2131);
#2130 = CARTESIAN_POINT('',(-3.,-8.9,106.5));
#2131 = VECTOR('',#2132,1.);
#2132 = DIRECTION('',(0.,-2.2E-16,-1.));
#2133 = PLANE('',#2134);
#2134 = AXIS2_PLACEMENT_3D('',#2135,#2136,#2137);
#2135 = CARTESIAN_POINT('',(-2.9,-8.9,76.5));
#2136 = DIRECTION('',(0.,1.,0.));
#2137 = DIRECTION('',(0.,0.,1.));
#2138 = ADVANCED_FACE('',(#2139),#2151,.F.);
#2139 = FACE_BOUND('',#2140,.F.);
#2140 = EDGE_LOOP('',(#2141,#2147,#2148,#2149,#2150));
#2141 = ORIENTED_EDGE('',*,*,#2142,.F.);
#2142 = EDGE_CURVE('',#1797,#1912,#2143,.T.);
#2143 = LINE('',#2144,#2145);
#2144 = CARTESIAN_POINT('',(-4.,-9.9,106.5));
#2145 = VECTOR('',#2146,1.);
#2146 = DIRECTION('',(0.,-2.2E-16,-1.));
#2147 = ORIENTED_EDGE('',*,*,#1804,.T.);
#2148 = ORIENTED_EDGE('',*,*,#2128,.T.);
#2149 = ORIENTED_EDGE('',*,*,#2090,.F.);
#2150 = ORIENTED_EDGE('',*,*,#1911,.F.);
#2151 = CYLINDRICAL_SURFACE('',#2152,1.);
#2152 = AXIS2_PLACEMENT_3D('',#2153,#2154,#2155);
#2153 = CARTESIAN_POINT('',(-3.,-9.9,106.5));
#2154 = DIRECTION('',(0.,-2.2E-16,-1.));
#2155 = DIRECTION('',(-1.,0.,0.));
#2156 = ADVANCED_FACE('',(#2157),#2163,.F.);
#2157 = FACE_BOUND('',#2158,.F.);
#2158 = EDGE_LOOP('',(#2159,#2160,#2161,#2162));
#2159 = ORIENTED_EDGE('',*,*,#1838,.F.);
#2160 = ORIENTED_EDGE('',*,*,#1796,.T.);
#2161 = ORIENTED_EDGE('',*,*,#2142,.T.);
#2162 = ORIENTED_EDGE('',*,*,#1926,.F.);
#2163 = PLANE('',#2164);
#2164 = AXIS2_PLACEMENT_3D('',#2165,#2166,#2167);
#2165 = CARTESIAN_POINT('',(-4.,-11.1,106.5));
#2166 = DIRECTION('',(-1.,0.,0.));
#2167 = DIRECTION('',(-0.,-2.2E-16,-1.));
#2168 = ( GEOMETRIC_REPRESENTATION_CONTEXT(3) 
GLOBAL_UNCERTAINTY_ASSIGNED_CONTEXT((#2172)) 
GLOBAL_UNIT_ASSIGNED_CONTEXT((#2169,#2170,#2171)) REPRESENTATION_CONTEXT
('Context #1','3D Context with UNIT and UNCERTAINTY') );
#2169 = ( LENGTH_UNIT() NAMED_UNIT(*) SI_UNIT(.MILLI.,.METRE.) );
#2170 = ( NAMED_UNIT(*) PLANE_ANGLE_UNIT() SI_UNIT($,.RADIAN.) );
#2171 = ( NAMED_UNIT(*) SI_UNIT($,.STERADIAN.) SOLID_ANGLE_UNIT() );
#2172 = UNCERTAINTY_MEASURE_WITH_UNIT(LENGTH_MEASURE(1.E-05),#2169,
  'distance_accuracy_value','confusion accuracy');
#2173 = PRODUCT_RELATED_PRODUCT_CATEGORY('part',$,(#7));
ENDSEC;
END-ISO-10303-21;
