ISO-10303-21;
HEADER;
FILE_DESCRIPTION(('FreeCAD Model'),'2;1');
FILE_NAME('Open CASCADE Shape Model','2026-05-19T03:21:51',(''),(''),
  'Open CASCADE STEP processor 7.8','FreeCAD','Unknown');
FILE_SCHEMA(('AUTOMOTIVE_DESIGN { 1 0 10303 214 1 1 1 1 }'));
ENDSEC;
DATA;
#1 = APPLICATION_PROTOCOL_DEFINITION('international standard',
  'automotive_design',2000,#2);
#2 = APPLICATION_CONTEXT(
  'core data for automotive mechanical design processes');
#3 = SHAPE_DEFINITION_REPRESENTATION(#4,#10);
#4 = PRODUCT_DEFINITION_SHAPE('','',#5);
#5 = PRODUCT_DEFINITION('design','',#6,#9);
#6 = PRODUCT_DEFINITION_FORMATION('','',#7);
#7 = PRODUCT('B_xt30_male_mount','B_xt30_male_mount','',(#8));
#8 = PRODUCT_CONTEXT('',#2,'mechanical');
#9 = PRODUCT_DEFINITION_CONTEXT('part definition',#2,'design');
#10 = ADVANCED_BREP_SHAPE_REPRESENTATION('',(#11,#15),#1912);
#11 = AXIS2_PLACEMENT_3D('',#12,#13,#14);
#12 = CARTESIAN_POINT('',(0.,0.,0.));
#13 = DIRECTION('',(0.,0.,1.));
#14 = DIRECTION('',(1.,0.,-0.));
#15 = MANIFOLD_SOLID_BREP('',#16);
#16 = CLOSED_SHELL('',(#17,#77,#102,#134,#238,#262,#271,#338,#362,#387,
    #411,#435,#460,#485,#511,#535,#553,#578,#611,#643,#684,#717,#773,
    #798,#823,#848,#904,#928,#953,#978,#1114,#1131,#1226,#1248,#1265,
    #1318,#1346,#1363,#1387,#1433,#1457,#1497,#1537,#1549,#1574,#1596,
    #1629,#1646,#1663,#1680,#1698,#1715,#1747,#1771,#1796,#1808,#1820,
    #1832,#1844,#1869,#1880,#1891,#1903));
#17 = ADVANCED_FACE('',(#18),#72,.T.);
#18 = FACE_BOUND('',#19,.T.);
#19 = EDGE_LOOP('',(#20,#30,#37,#38,#47,#56,#65));
#20 = ORIENTED_EDGE('',*,*,#21,.F.);
#21 = EDGE_CURVE('',#22,#24,#26,.T.);
#22 = VERTEX_POINT('',#23);
#23 = CARTESIAN_POINT('',(-30.6,0.,11.8));
#24 = VERTEX_POINT('',#25);
#25 = CARTESIAN_POINT('',(-30.6,0.,9.812732665381));
#26 = LINE('',#27,#28);
#27 = CARTESIAN_POINT('',(-30.6,0.,12.));
#28 = VECTOR('',#29,1.);
#29 = DIRECTION('',(-0.,-0.,-1.));
#30 = ORIENTED_EDGE('',*,*,#31,.F.);
#31 = EDGE_CURVE('',#22,#22,#32,.T.);
#32 = CIRCLE('',#33,1.4);
#33 = AXIS2_PLACEMENT_3D('',#34,#35,#36);
#34 = CARTESIAN_POINT('',(-32.,0.,11.8));
#35 = DIRECTION('',(0.,0.,1.));
#36 = DIRECTION('',(1.,0.,-0.));
#37 = ORIENTED_EDGE('',*,*,#21,.T.);
#38 = ORIENTED_EDGE('',*,*,#39,.T.);
#39 = EDGE_CURVE('',#24,#40,#42,.T.);
#40 = VERTEX_POINT('',#41);
#41 = CARTESIAN_POINT('',(-30.81273270995,0.741887041263,9.6));
#42 = ELLIPSE('',#43,1.979898987322,1.4);
#43 = AXIS2_PLACEMENT_3D('',#44,#45,#46);
#44 = CARTESIAN_POINT('',(-32.,0.,11.));
#45 = DIRECTION('',(0.599660559565,0.374709505221,0.707106781187));
#46 = DIRECTION('',(-0.599660559565,-0.374709505221,0.707106781187));
#47 = ORIENTED_EDGE('',*,*,#48,.T.);
#48 = EDGE_CURVE('',#40,#49,#51,.T.);
#49 = VERTEX_POINT('',#50);
#50 = CARTESIAN_POINT('',(-31.67116462474,1.360833309402,10.));
#51 = ELLIPSE('',#52,1.979898987322,1.4);
#52 = AXIS2_PLACEMENT_3D('',#53,#54,#55);
#53 = CARTESIAN_POINT('',(-32.,0.,11.));
#54 = DIRECTION('',(0.599660559565,0.374709505221,0.707106781187));
#55 = DIRECTION('',(-0.599660559565,-0.374709505221,0.707106781187));
#56 = ORIENTED_EDGE('',*,*,#57,.T.);
#57 = EDGE_CURVE('',#49,#58,#60,.T.);
#58 = VERTEX_POINT('',#59);
#59 = CARTESIAN_POINT('',(-30.63273918294,-0.300994780936,10.));
#60 = CIRCLE('',#61,1.4);
#61 = AXIS2_PLACEMENT_3D('',#62,#63,#64);
#62 = CARTESIAN_POINT('',(-32.,0.,10.));
#63 = DIRECTION('',(0.,0.,1.));
#64 = DIRECTION('',(1.,0.,0.));
#65 = ORIENTED_EDGE('',*,*,#66,.T.);
#66 = EDGE_CURVE('',#58,#24,#67,.T.);
#67 = ELLIPSE('',#68,1.979898987322,1.4);
#68 = AXIS2_PLACEMENT_3D('',#69,#70,#71);
#69 = CARTESIAN_POINT('',(-32.,0.,11.));
#70 = DIRECTION('',(0.599660559565,0.374709505221,0.707106781187));
#71 = DIRECTION('',(-0.599660559565,-0.374709505221,0.707106781187));
#72 = CYLINDRICAL_SURFACE('',#73,1.4);
#73 = AXIS2_PLACEMENT_3D('',#74,#75,#76);
#74 = CARTESIAN_POINT('',(-32.,0.,12.));
#75 = DIRECTION('',(0.,0.,1.));
#76 = DIRECTION('',(1.,0.,0.));
#77 = ADVANCED_FACE('',(#78),#97,.T.);
#78 = FACE_BOUND('',#79,.T.);
#79 = EDGE_LOOP('',(#80,#88,#89,#90));
#80 = ORIENTED_EDGE('',*,*,#81,.F.);
#81 = EDGE_CURVE('',#22,#82,#84,.T.);
#82 = VERTEX_POINT('',#83);
#83 = CARTESIAN_POINT('',(-30.8,0.,12.));
#84 = LINE('',#85,#86);
#85 = CARTESIAN_POINT('',(-30.6,0.,11.8));
#86 = VECTOR('',#87,1.);
#87 = DIRECTION('',(-0.707106781187,0.,0.707106781187));
#88 = ORIENTED_EDGE('',*,*,#31,.T.);
#89 = ORIENTED_EDGE('',*,*,#81,.T.);
#90 = ORIENTED_EDGE('',*,*,#91,.F.);
#91 = EDGE_CURVE('',#82,#82,#92,.T.);
#92 = CIRCLE('',#93,1.2);
#93 = AXIS2_PLACEMENT_3D('',#94,#95,#96);
#94 = CARTESIAN_POINT('',(-32.,0.,12.));
#95 = DIRECTION('',(0.,0.,1.));
#96 = DIRECTION('',(1.,0.,-0.));
#97 = CONICAL_SURFACE('',#98,1.4,0.785398163397);
#98 = AXIS2_PLACEMENT_3D('',#99,#100,#101);
#99 = CARTESIAN_POINT('',(-32.,0.,11.8));
#100 = DIRECTION('',(-0.,-0.,-1.));
#101 = DIRECTION('',(1.,0.,-0.));
#102 = ADVANCED_FACE('',(#103),#129,.T.);
#103 = FACE_BOUND('',#104,.T.);
#104 = EDGE_LOOP('',(#105,#113,#121,#127,#128));
#105 = ORIENTED_EDGE('',*,*,#106,.F.);
#106 = EDGE_CURVE('',#107,#58,#109,.T.);
#107 = VERTEX_POINT('',#108);
#108 = CARTESIAN_POINT('',(-28.43783221455,-3.813580190485,10.));
#109 = LINE('',#110,#111);
#110 = CARTESIAN_POINT('',(-28.37705145301,-3.910849741874,10.));
#111 = VECTOR('',#112,1.);
#112 = DIRECTION('',(-0.529919264233,0.848048096156,0.));
#113 = ORIENTED_EDGE('',*,*,#114,.T.);
#114 = EDGE_CURVE('',#107,#115,#117,.T.);
#115 = VERTEX_POINT('',#116);
#116 = CARTESIAN_POINT('',(-28.03783221455,-3.698882036181,9.6));
#117 = LINE('',#118,#119);
#118 = CARTESIAN_POINT('',(-28.22993460516,-3.753966510282,
    9.792102390612));
#119 = VECTOR('',#120,1.);
#120 = DIRECTION('',(0.693005033554,0.198715995679,-0.693005033554));
#121 = ORIENTED_EDGE('',*,*,#122,.T.);
#122 = EDGE_CURVE('',#115,#40,#123,.T.);
#123 = LINE('',#124,#125);
#124 = CARTESIAN_POINT('',(-28.03783221455,-3.698882036181,9.6));
#125 = VECTOR('',#126,1.);
#126 = DIRECTION('',(-0.529919264233,0.848048096156,0.));
#127 = ORIENTED_EDGE('',*,*,#39,.F.);
#128 = ORIENTED_EDGE('',*,*,#66,.F.);
#129 = PLANE('',#130);
#130 = AXIS2_PLACEMENT_3D('',#131,#132,#133);
#131 = CARTESIAN_POINT('',(-28.20744183378,-3.804865889028,9.8));
#132 = DIRECTION('',(0.599660559565,0.374709505221,0.707106781187));
#133 = DIRECTION('',(-0.529919264233,0.848048096156,-8.326672684689E-17)
  );
#134 = ADVANCED_FACE('',(#135,#222),#233,.T.);
#135 = FACE_BOUND('',#136,.T.);
#136 = EDGE_LOOP('',(#137,#145,#146,#147,#155,#164,#172,#181,#190,#199,
    #207,#215));
#137 = ORIENTED_EDGE('',*,*,#138,.F.);
#138 = EDGE_CURVE('',#107,#139,#141,.T.);
#139 = VERTEX_POINT('',#140);
#140 = CARTESIAN_POINT('',(-28.43783221455,-15.61029970737,10.));
#141 = LINE('',#142,#143);
#142 = CARTESIAN_POINT('',(-28.43783221455,-3.698882036181,10.));
#143 = VECTOR('',#144,1.);
#144 = DIRECTION('',(-0.,-1.,-0.));
#145 = ORIENTED_EDGE('',*,*,#106,.T.);
#146 = ORIENTED_EDGE('',*,*,#57,.F.);
#147 = ORIENTED_EDGE('',*,*,#148,.T.);
#148 = EDGE_CURVE('',#49,#149,#151,.T.);
#149 = VERTEX_POINT('',#150);
#150 = CARTESIAN_POINT('',(-33.37210766624,4.082911190657,10.));
#151 = LINE('',#152,#153);
#152 = CARTESIAN_POINT('',(-28.37705145301,-3.910849741874,10.));
#153 = VECTOR('',#154,1.);
#154 = DIRECTION('',(-0.529919264233,0.848048096156,0.));
#155 = ORIENTED_EDGE('',*,*,#156,.T.);
#156 = EDGE_CURVE('',#149,#157,#159,.T.);
#157 = VERTEX_POINT('',#158);
#158 = CARTESIAN_POINT('',(-34.6,3.730818729744,10.));
#159 = CIRCLE('',#160,0.66442661114);
#160 = AXIS2_PLACEMENT_3D('',#161,#162,#163);
#161 = CARTESIAN_POINT('',(-33.93557338886,3.730818729744,10.));
#162 = DIRECTION('',(0.,-0.,1.));
#163 = DIRECTION('',(0.848048096156,0.529919264233,0.));
#164 = ORIENTED_EDGE('',*,*,#165,.T.);
#165 = EDGE_CURVE('',#157,#166,#168,.T.);
#166 = VERTEX_POINT('',#167);
#167 = CARTESIAN_POINT('',(-34.6,-13.38842783899,10.));
#168 = LINE('',#169,#170);
#169 = CARTESIAN_POINT('',(-34.6,3.730818729744,10.));
#170 = VECTOR('',#171,1.);
#171 = DIRECTION('',(-0.,-1.,-0.));
#172 = ORIENTED_EDGE('',*,*,#173,.T.);
#173 = EDGE_CURVE('',#166,#174,#176,.T.);
#174 = VERTEX_POINT('',#175);
#175 = CARTESIAN_POINT('',(-27.7093316415,-24.66987920483,10.));
#176 = CIRCLE('',#177,37.1);
#177 = AXIS2_PLACEMENT_3D('',#178,#179,#180);
#178 = CARTESIAN_POINT('',(-7.11E-15,-1.78E-15,10.));
#179 = DIRECTION('',(0.,0.,1.));
#180 = DIRECTION('',(-0.933333333333,-0.359010987142,0.));
#181 = ORIENTED_EDGE('',*,*,#182,.T.);
#182 = EDGE_CURVE('',#174,#183,#185,.T.);
#183 = VERTEX_POINT('',#184);
#184 = CARTESIAN_POINT('',(-20.19415638846,-24.78217197418,10.));
#185 = CIRCLE('',#186,5.1);
#186 = AXIS2_PLACEMENT_3D('',#187,#188,#189);
#187 = CARTESIAN_POINT('',(-23.90023214361,-21.27860200955,10.));
#188 = DIRECTION('',(0.,0.,1.));
#189 = DIRECTION('',(-0.746882254488,-0.664956312799,0.));
#190 = ORIENTED_EDGE('',*,*,#191,.T.);
#191 = EDGE_CURVE('',#183,#192,#194,.T.);
#192 = VERTEX_POINT('',#193);
#193 = CARTESIAN_POINT('',(-19.52536836332,-18.07650383043,10.));
#194 = CIRCLE('',#195,5.510479488873);
#195 = AXIS2_PLACEMENT_3D('',#196,#197,#198);
#196 = CARTESIAN_POINT('',(-24.19852000277,-20.99661306675,10.));
#197 = DIRECTION('',(-0.,0.,1.));
#198 = DIRECTION('',(0.726681520618,-0.686974502869,0.));
#199 = ORIENTED_EDGE('',*,*,#200,.T.);
#200 = EDGE_CURVE('',#192,#201,#203,.T.);
#201 = VERTEX_POINT('',#202);
#202 = CARTESIAN_POINT('',(-20.1916066427,-17.01029970737,10.));
#203 = LINE('',#204,#205);
#204 = CARTESIAN_POINT('',(-19.52536836332,-18.07650383043,10.));
#205 = VECTOR('',#206,1.);
#206 = DIRECTION('',(-0.529919264233,0.848048096156,0.));
#207 = ORIENTED_EDGE('',*,*,#208,.F.);
#208 = EDGE_CURVE('',#209,#201,#211,.T.);
#209 = VERTEX_POINT('',#210);
#210 = CARTESIAN_POINT('',(-27.03783221455,-17.01029970737,10.));
#211 = LINE('',#212,#213);
#212 = CARTESIAN_POINT('',(-27.03783221455,-17.01029970737,10.));
#213 = VECTOR('',#214,1.);
#214 = DIRECTION('',(1.,-5.E-16,0.));
#215 = ORIENTED_EDGE('',*,*,#216,.F.);
#216 = EDGE_CURVE('',#139,#209,#217,.T.);
#217 = CIRCLE('',#218,1.4);
#218 = AXIS2_PLACEMENT_3D('',#219,#220,#221);
#219 = CARTESIAN_POINT('',(-27.03783221455,-15.61029970737,10.));
#220 = DIRECTION('',(0.,0.,1.));
#221 = DIRECTION('',(-1.,0.,0.));
#222 = FACE_BOUND('',#223,.T.);
#223 = EDGE_LOOP('',(#224));
#224 = ORIENTED_EDGE('',*,*,#225,.F.);
#225 = EDGE_CURVE('',#226,#226,#228,.T.);
#226 = VERTEX_POINT('',#227);
#227 = CARTESIAN_POINT('',(-20.57741699797,-22.62741699797,10.));
#228 = CIRCLE('',#229,2.05);
#229 = AXIS2_PLACEMENT_3D('',#230,#231,#232);
#230 = CARTESIAN_POINT('',(-22.62741699797,-22.62741699797,10.));
#231 = DIRECTION('',(0.,0.,1.));
#232 = DIRECTION('',(1.,0.,0.));
#233 = PLANE('',#234);
#234 = AXIS2_PLACEMENT_3D('',#235,#236,#237);
#235 = CARTESIAN_POINT('',(-28.80102187966,-12.87373258375,10.));
#236 = DIRECTION('',(0.,0.,1.));
#237 = DIRECTION('',(1.,0.,0.));
#238 = ADVANCED_FACE('',(#239),#257,.T.);
#239 = FACE_BOUND('',#240,.T.);
#240 = EDGE_LOOP('',(#241,#242,#250,#256));
#241 = ORIENTED_EDGE('',*,*,#48,.F.);
#242 = ORIENTED_EDGE('',*,*,#243,.T.);
#243 = EDGE_CURVE('',#40,#244,#246,.T.);
#244 = VERTEX_POINT('',#245);
#245 = CARTESIAN_POINT('',(-33.03288842778,4.29487889635,9.6));
#246 = LINE('',#247,#248);
#247 = CARTESIAN_POINT('',(-28.03783221455,-3.698882036181,9.6));
#248 = VECTOR('',#249,1.);
#249 = DIRECTION('',(-0.529919264233,0.848048096156,0.));
#250 = ORIENTED_EDGE('',*,*,#251,.T.);
#251 = EDGE_CURVE('',#244,#149,#252,.T.);
#252 = LINE('',#253,#254);
#253 = CARTESIAN_POINT('',(-33.20249804701,4.188895043503,9.8));
#254 = VECTOR('',#255,1.);
#255 = DIRECTION('',(-0.599660559565,-0.374709505221,0.707106781187));
#256 = ORIENTED_EDGE('',*,*,#148,.F.);
#257 = PLANE('',#258);
#258 = AXIS2_PLACEMENT_3D('',#259,#260,#261);
#259 = CARTESIAN_POINT('',(-28.20744183378,-3.804865889028,9.8));
#260 = DIRECTION('',(0.599660559565,0.374709505221,0.707106781187));
#261 = DIRECTION('',(-0.529919264233,0.848048096156,-8.326672684689E-17)
  );
#262 = ADVANCED_FACE('',(#263),#266,.T.);
#263 = FACE_BOUND('',#264,.T.);
#264 = EDGE_LOOP('',(#265));
#265 = ORIENTED_EDGE('',*,*,#91,.T.);
#266 = PLANE('',#267);
#267 = AXIS2_PLACEMENT_3D('',#268,#269,#270);
#268 = CARTESIAN_POINT('',(-32.,1.9E-16,12.));
#269 = DIRECTION('',(0.,0.,1.));
#270 = DIRECTION('',(1.,0.,0.));
#271 = ADVANCED_FACE('',(#272,#322),#333,.T.);
#272 = FACE_BOUND('',#273,.T.);
#273 = EDGE_LOOP('',(#274,#284,#292,#298,#299,#300,#308,#316));
#274 = ORIENTED_EDGE('',*,*,#275,.T.);
#275 = EDGE_CURVE('',#276,#278,#280,.T.);
#276 = VERTEX_POINT('',#277);
#277 = CARTESIAN_POINT('',(-33.03288842778,4.29487889635,0.4));
#278 = VERTEX_POINT('',#279);
#279 = CARTESIAN_POINT('',(-33.03288842778,4.29487889635,1.7));
#280 = LINE('',#281,#282);
#281 = CARTESIAN_POINT('',(-33.03288842778,4.29487889635,0.));
#282 = VECTOR('',#283,1.);
#283 = DIRECTION('',(0.,0.,1.));
#284 = ORIENTED_EDGE('',*,*,#285,.T.);
#285 = EDGE_CURVE('',#278,#286,#288,.T.);
#286 = VERTEX_POINT('',#287);
#287 = CARTESIAN_POINT('',(-33.03288842778,4.29487889635,8.3));
#288 = LINE('',#289,#290);
#289 = CARTESIAN_POINT('',(-33.03288842778,4.29487889635,0.));
#290 = VECTOR('',#291,1.);
#291 = DIRECTION('',(0.,0.,1.));
#292 = ORIENTED_EDGE('',*,*,#293,.T.);
#293 = EDGE_CURVE('',#286,#244,#294,.T.);
#294 = LINE('',#295,#296);
#295 = CARTESIAN_POINT('',(-33.03288842778,4.29487889635,0.));
#296 = VECTOR('',#297,1.);
#297 = DIRECTION('',(0.,0.,1.));
#298 = ORIENTED_EDGE('',*,*,#243,.F.);
#299 = ORIENTED_EDGE('',*,*,#122,.F.);
#300 = ORIENTED_EDGE('',*,*,#301,.F.);
#301 = EDGE_CURVE('',#302,#115,#304,.T.);
#302 = VERTEX_POINT('',#303);
#303 = CARTESIAN_POINT('',(-28.03783221455,-3.698882036181,0.4));
#304 = LINE('',#305,#306);
#305 = CARTESIAN_POINT('',(-28.03783221455,-3.698882036181,0.));
#306 = VECTOR('',#307,1.);
#307 = DIRECTION('',(0.,0.,1.));
#308 = ORIENTED_EDGE('',*,*,#309,.F.);
#309 = EDGE_CURVE('',#310,#302,#312,.T.);
#310 = VERTEX_POINT('',#311);
#311 = CARTESIAN_POINT('',(-30.81273269342,0.741887014808,0.4));
#312 = LINE('',#313,#314);
#313 = CARTESIAN_POINT('',(-33.03288842778,4.29487889635,0.4));
#314 = VECTOR('',#315,1.);
#315 = DIRECTION('',(0.529919264233,-0.848048096156,0.));
#316 = ORIENTED_EDGE('',*,*,#317,.F.);
#317 = EDGE_CURVE('',#276,#310,#318,.T.);
#318 = LINE('',#319,#320);
#319 = CARTESIAN_POINT('',(-33.03288842778,4.29487889635,0.4));
#320 = VECTOR('',#321,1.);
#321 = DIRECTION('',(0.529919264233,-0.848048096156,0.));
#322 = FACE_BOUND('',#323,.T.);
#323 = EDGE_LOOP('',(#324));
#324 = ORIENTED_EDGE('',*,*,#325,.F.);
#325 = EDGE_CURVE('',#326,#326,#328,.T.);
#326 = VERTEX_POINT('',#327);
#327 = CARTESIAN_POINT('',(-29.06816806387,-2.05,5.));
#328 = ELLIPSE('',#329,2.417315726892,2.05);
#329 = AXIS2_PLACEMENT_3D('',#330,#331,#332);
#330 = CARTESIAN_POINT('',(-30.34915023529,0.,5.));
#331 = DIRECTION('',(0.848048096156,0.529919264233,-0.));
#332 = DIRECTION('',(-0.529919264233,0.848048096156,0.));
#333 = PLANE('',#334);
#334 = AXIS2_PLACEMENT_3D('',#335,#336,#337);
#335 = CARTESIAN_POINT('',(-33.03288842778,4.29487889635,0.));
#336 = DIRECTION('',(0.848048096156,0.529919264233,0.));
#337 = DIRECTION('',(0.529919264233,-0.848048096156,0.));
#338 = ADVANCED_FACE('',(#339),#357,.F.);
#339 = FACE_BOUND('',#340,.T.);
#340 = EDGE_LOOP('',(#341,#342,#343,#351));
#341 = ORIENTED_EDGE('',*,*,#114,.F.);
#342 = ORIENTED_EDGE('',*,*,#138,.T.);
#343 = ORIENTED_EDGE('',*,*,#344,.T.);
#344 = EDGE_CURVE('',#139,#345,#347,.T.);
#345 = VERTEX_POINT('',#346);
#346 = CARTESIAN_POINT('',(-28.03783221455,-15.61029970737,9.6));
#347 = LINE('',#348,#349);
#348 = CARTESIAN_POINT('',(-28.23783221455,-15.61029970737,9.8));
#349 = VECTOR('',#350,1.);
#350 = DIRECTION('',(0.707106781187,0.,-0.707106781187));
#351 = ORIENTED_EDGE('',*,*,#352,.F.);
#352 = EDGE_CURVE('',#115,#345,#353,.T.);
#353 = LINE('',#354,#355);
#354 = CARTESIAN_POINT('',(-28.03783221455,-3.698882036181,9.6));
#355 = VECTOR('',#356,1.);
#356 = DIRECTION('',(-0.,-1.,-0.));
#357 = PLANE('',#358);
#358 = AXIS2_PLACEMENT_3D('',#359,#360,#361);
#359 = CARTESIAN_POINT('',(-28.23783221455,-3.698882036181,9.8));
#360 = DIRECTION('',(-0.707106781187,0.,-0.707106781187));
#361 = DIRECTION('',(0.,1.,0.));
#362 = ADVANCED_FACE('',(#363),#382,.F.);
#363 = FACE_BOUND('',#364,.T.);
#364 = EDGE_LOOP('',(#365,#366,#367,#375));
#365 = ORIENTED_EDGE('',*,*,#344,.F.);
#366 = ORIENTED_EDGE('',*,*,#216,.T.);
#367 = ORIENTED_EDGE('',*,*,#368,.T.);
#368 = EDGE_CURVE('',#209,#369,#371,.T.);
#369 = VERTEX_POINT('',#370);
#370 = CARTESIAN_POINT('',(-27.03783221455,-16.61029970737,9.6));
#371 = LINE('',#372,#373);
#372 = CARTESIAN_POINT('',(-27.03783221455,-16.61029970737,9.6));
#373 = VECTOR('',#374,1.);
#374 = DIRECTION('',(-1.21E-15,0.707106781187,-0.707106781187));
#375 = ORIENTED_EDGE('',*,*,#376,.F.);
#376 = EDGE_CURVE('',#345,#369,#377,.T.);
#377 = CIRCLE('',#378,1.);
#378 = AXIS2_PLACEMENT_3D('',#379,#380,#381);
#379 = CARTESIAN_POINT('',(-27.03783221455,-15.61029970737,9.6));
#380 = DIRECTION('',(0.,0.,1.));
#381 = DIRECTION('',(-1.,0.,0.));
#382 = CONICAL_SURFACE('',#383,1.,0.785398163397);
#383 = AXIS2_PLACEMENT_3D('',#384,#385,#386);
#384 = CARTESIAN_POINT('',(-27.03783221455,-15.61029970737,9.6));
#385 = DIRECTION('',(0.,0.,1.));
#386 = DIRECTION('',(-1.,0.,0.));
#387 = ADVANCED_FACE('',(#388),#406,.T.);
#388 = FACE_BOUND('',#389,.T.);
#389 = EDGE_LOOP('',(#390,#391,#392,#400));
#390 = ORIENTED_EDGE('',*,*,#368,.F.);
#391 = ORIENTED_EDGE('',*,*,#208,.T.);
#392 = ORIENTED_EDGE('',*,*,#393,.T.);
#393 = EDGE_CURVE('',#201,#394,#396,.T.);
#394 = VERTEX_POINT('',#395);
#395 = CARTESIAN_POINT('',(-19.96988302212,-16.61029970737,9.6));
#396 = LINE('',#397,#398);
#397 = CARTESIAN_POINT('',(-20.63507951543,-17.81034594794,
    10.800046240571));
#398 = VECTOR('',#399,1.);
#399 = DIRECTION('',(0.364925188259,0.65834246672,-0.65834246672));
#400 = ORIENTED_EDGE('',*,*,#401,.F.);
#401 = EDGE_CURVE('',#369,#394,#402,.T.);
#402 = LINE('',#403,#404);
#403 = CARTESIAN_POINT('',(-27.03783221455,-16.61029970737,9.6));
#404 = VECTOR('',#405,1.);
#405 = DIRECTION('',(1.,-5.E-16,0.));
#406 = PLANE('',#407);
#407 = AXIS2_PLACEMENT_3D('',#408,#409,#410);
#408 = CARTESIAN_POINT('',(-27.03783221455,-16.81029970737,9.8));
#409 = DIRECTION('',(2.5E-16,0.707106781187,0.707106781187));
#410 = DIRECTION('',(1.,-4.267766952966E-16,7.322330470336E-17));
#411 = ADVANCED_FACE('',(#412),#430,.T.);
#412 = FACE_BOUND('',#413,.T.);
#413 = EDGE_LOOP('',(#414,#422,#428,#429));
#414 = ORIENTED_EDGE('',*,*,#415,.F.);
#415 = EDGE_CURVE('',#416,#192,#418,.T.);
#416 = VERTEX_POINT('',#417);
#417 = CARTESIAN_POINT('',(-19.18614912486,-17.86453612474,9.6));
#418 = LINE('',#419,#420);
#419 = CARTESIAN_POINT('',(-19.18614912486,-17.86453612474,9.6));
#420 = VECTOR('',#421,1.);
#421 = DIRECTION('',(-0.599660559565,-0.374709505221,0.707106781187));
#422 = ORIENTED_EDGE('',*,*,#423,.T.);
#423 = EDGE_CURVE('',#416,#394,#424,.T.);
#424 = LINE('',#425,#426);
#425 = CARTESIAN_POINT('',(-19.18614912486,-17.86453612474,9.6));
#426 = VECTOR('',#427,1.);
#427 = DIRECTION('',(-0.529919264233,0.848048096156,0.));
#428 = ORIENTED_EDGE('',*,*,#393,.F.);
#429 = ORIENTED_EDGE('',*,*,#200,.F.);
#430 = PLANE('',#431);
#431 = AXIS2_PLACEMENT_3D('',#432,#433,#434);
#432 = CARTESIAN_POINT('',(-19.35575874409,-17.97051997758,9.8));
#433 = DIRECTION('',(0.599660559565,0.374709505221,0.707106781187));
#434 = DIRECTION('',(-0.529919264233,0.848048096156,-8.326672684689E-17)
  );
#435 = ADVANCED_FACE('',(#436),#455,.T.);
#436 = FACE_BOUND('',#437,.T.);
#437 = EDGE_LOOP('',(#438,#446,#453,#454));
#438 = ORIENTED_EDGE('',*,*,#439,.F.);
#439 = EDGE_CURVE('',#440,#183,#442,.T.);
#440 = VERTEX_POINT('',#441);
#441 = CARTESIAN_POINT('',(-19.90348378021,-25.05696177533,9.6));
#442 = LINE('',#443,#444);
#443 = CARTESIAN_POINT('',(-19.90348378021,-25.05696177533,9.6));
#444 = VECTOR('',#445,1.);
#445 = DIRECTION('',(-0.513841430992,0.485764329481,0.707106781187));
#446 = ORIENTED_EDGE('',*,*,#447,.T.);
#447 = EDGE_CURVE('',#440,#416,#448,.T.);
#448 = CIRCLE('',#449,5.910479488873);
#449 = AXIS2_PLACEMENT_3D('',#450,#451,#452);
#450 = CARTESIAN_POINT('',(-24.19852000277,-20.99661306675,9.6));
#451 = DIRECTION('',(-0.,0.,1.));
#452 = DIRECTION('',(0.726681520618,-0.686974502869,0.));
#453 = ORIENTED_EDGE('',*,*,#415,.T.);
#454 = ORIENTED_EDGE('',*,*,#191,.F.);
#455 = CONICAL_SURFACE('',#456,5.910479488873,0.785398163397);
#456 = AXIS2_PLACEMENT_3D('',#457,#458,#459);
#457 = CARTESIAN_POINT('',(-24.19852000277,-20.99661306675,9.6));
#458 = DIRECTION('',(-0.,-0.,-1.));
#459 = DIRECTION('',(0.726681520618,-0.686974502869,0.));
#460 = ADVANCED_FACE('',(#461),#480,.T.);
#461 = FACE_BOUND('',#462,.T.);
#462 = EDGE_LOOP('',(#463,#471,#478,#479));
#463 = ORIENTED_EDGE('',*,*,#464,.F.);
#464 = EDGE_CURVE('',#465,#174,#467,.T.);
#465 = VERTEX_POINT('',#466);
#466 = CARTESIAN_POINT('',(-28.0080845433,-24.93586172995,9.6));
#467 = LINE('',#468,#469);
#468 = CARTESIAN_POINT('',(-28.0080845433,-24.93586172995,9.6));
#469 = VECTOR('',#470,1.);
#470 = DIRECTION('',(0.528125506896,0.470195117973,0.707106781187));
#471 = ORIENTED_EDGE('',*,*,#472,.T.);
#472 = EDGE_CURVE('',#465,#440,#473,.T.);
#473 = CIRCLE('',#474,5.5);
#474 = AXIS2_PLACEMENT_3D('',#475,#476,#477);
#475 = CARTESIAN_POINT('',(-23.90023214361,-21.27860200955,9.6));
#476 = DIRECTION('',(0.,0.,1.));
#477 = DIRECTION('',(-0.746882254488,-0.664956312799,0.));
#478 = ORIENTED_EDGE('',*,*,#439,.T.);
#479 = ORIENTED_EDGE('',*,*,#182,.F.);
#480 = CONICAL_SURFACE('',#481,5.5,0.785398163397);
#481 = AXIS2_PLACEMENT_3D('',#482,#483,#484);
#482 = CARTESIAN_POINT('',(-23.90023214361,-21.27860200955,9.6));
#483 = DIRECTION('',(-0.,-0.,-1.));
#484 = DIRECTION('',(-0.746882254488,-0.664956312799,0.));
#485 = ADVANCED_FACE('',(#486),#506,.T.);
#486 = FACE_BOUND('',#487,.T.);
#487 = EDGE_LOOP('',(#488,#497,#504,#505));
#488 = ORIENTED_EDGE('',*,*,#489,.F.);
#489 = EDGE_CURVE('',#490,#166,#492,.T.);
#490 = VERTEX_POINT('',#491);
#491 = CARTESIAN_POINT('',(-35.,-13.46291201783,9.6));
#492 = PARABOLA('',#493,0.883883476483);
#493 = AXIS2_PLACEMENT_3D('',#494,#495,#496);
#494 = CARTESIAN_POINT('',(1.25,-1.78E-15,45.85));
#495 = DIRECTION('',(0.707106781187,0.,-0.707106781187));
#496 = DIRECTION('',(-0.707106781187,0.,-0.707106781187));
#497 = ORIENTED_EDGE('',*,*,#498,.T.);
#498 = EDGE_CURVE('',#490,#465,#499,.T.);
#499 = CIRCLE('',#500,37.5);
#500 = AXIS2_PLACEMENT_3D('',#501,#502,#503);
#501 = CARTESIAN_POINT('',(-7.11E-15,-1.78E-15,9.6));
#502 = DIRECTION('',(0.,0.,1.));
#503 = DIRECTION('',(-0.933333333333,-0.359010987142,0.));
#504 = ORIENTED_EDGE('',*,*,#464,.T.);
#505 = ORIENTED_EDGE('',*,*,#173,.F.);
#506 = CONICAL_SURFACE('',#507,37.5,0.785398163397);
#507 = AXIS2_PLACEMENT_3D('',#508,#509,#510);
#508 = CARTESIAN_POINT('',(-7.11E-15,-1.78E-15,9.6));
#509 = DIRECTION('',(-0.,-0.,-1.));
#510 = DIRECTION('',(-0.933333333333,-0.359010987142,0.));
#511 = ADVANCED_FACE('',(#512),#530,.T.);
#512 = FACE_BOUND('',#513,.T.);
#513 = EDGE_LOOP('',(#514,#522,#528,#529));
#514 = ORIENTED_EDGE('',*,*,#515,.F.);
#515 = EDGE_CURVE('',#516,#157,#518,.T.);
#516 = VERTEX_POINT('',#517);
#517 = CARTESIAN_POINT('',(-35.,3.730818729744,9.6));
#518 = LINE('',#519,#520);
#519 = CARTESIAN_POINT('',(-35.,3.730818729744,9.6));
#520 = VECTOR('',#521,1.);
#521 = DIRECTION('',(0.707106781187,-8.9E-16,0.707106781187));
#522 = ORIENTED_EDGE('',*,*,#523,.T.);
#523 = EDGE_CURVE('',#516,#490,#524,.T.);
#524 = LINE('',#525,#526);
#525 = CARTESIAN_POINT('',(-35.,3.730818729744,9.6));
#526 = VECTOR('',#527,1.);
#527 = DIRECTION('',(-0.,-1.,-0.));
#528 = ORIENTED_EDGE('',*,*,#489,.T.);
#529 = ORIENTED_EDGE('',*,*,#165,.F.);
#530 = PLANE('',#531);
#531 = AXIS2_PLACEMENT_3D('',#532,#533,#534);
#532 = CARTESIAN_POINT('',(-34.8,3.730818729744,9.8));
#533 = DIRECTION('',(-0.707106781187,0.,0.707106781187));
#534 = DIRECTION('',(0.,-1.,0.));
#535 = ADVANCED_FACE('',(#536),#548,.T.);
#536 = FACE_BOUND('',#537,.T.);
#537 = EDGE_LOOP('',(#538,#539,#546,#547));
#538 = ORIENTED_EDGE('',*,*,#251,.F.);
#539 = ORIENTED_EDGE('',*,*,#540,.T.);
#540 = EDGE_CURVE('',#244,#516,#541,.T.);
#541 = CIRCLE('',#542,1.06442661114);
#542 = AXIS2_PLACEMENT_3D('',#543,#544,#545);
#543 = CARTESIAN_POINT('',(-33.93557338886,3.730818729744,9.6));
#544 = DIRECTION('',(0.,-0.,1.));
#545 = DIRECTION('',(0.848048096156,0.529919264233,0.));
#546 = ORIENTED_EDGE('',*,*,#515,.T.);
#547 = ORIENTED_EDGE('',*,*,#156,.F.);
#548 = CONICAL_SURFACE('',#549,1.06442661114,0.785398163397);
#549 = AXIS2_PLACEMENT_3D('',#550,#551,#552);
#550 = CARTESIAN_POINT('',(-33.93557338886,3.730818729744,9.6));
#551 = DIRECTION('',(-0.,-0.,-1.));
#552 = DIRECTION('',(0.848048096156,0.529919264233,0.));
#553 = ADVANCED_FACE('',(#554),#573,.F.);
#554 = FACE_BOUND('',#555,.T.);
#555 = EDGE_LOOP('',(#556,#564,#565,#566));
#556 = ORIENTED_EDGE('',*,*,#557,.T.);
#557 = EDGE_CURVE('',#558,#226,#560,.T.);
#558 = VERTEX_POINT('',#559);
#559 = CARTESIAN_POINT('',(-20.57741699797,-22.62741699797,0.));
#560 = LINE('',#561,#562);
#561 = CARTESIAN_POINT('',(-20.57741699797,-22.62741699797,0.));
#562 = VECTOR('',#563,1.);
#563 = DIRECTION('',(0.,0.,1.));
#564 = ORIENTED_EDGE('',*,*,#225,.T.);
#565 = ORIENTED_EDGE('',*,*,#557,.F.);
#566 = ORIENTED_EDGE('',*,*,#567,.F.);
#567 = EDGE_CURVE('',#558,#558,#568,.T.);
#568 = CIRCLE('',#569,2.05);
#569 = AXIS2_PLACEMENT_3D('',#570,#571,#572);
#570 = CARTESIAN_POINT('',(-22.62741699797,-22.62741699797,0.));
#571 = DIRECTION('',(0.,0.,1.));
#572 = DIRECTION('',(1.,0.,0.));
#573 = CYLINDRICAL_SURFACE('',#574,2.05);
#574 = AXIS2_PLACEMENT_3D('',#575,#576,#577);
#575 = CARTESIAN_POINT('',(-22.62741699797,-22.62741699797,0.));
#576 = DIRECTION('',(-0.,-0.,-1.));
#577 = DIRECTION('',(1.,0.,0.));
#578 = ADVANCED_FACE('',(#579),#606,.T.);
#579 = FACE_BOUND('',#580,.T.);
#580 = EDGE_LOOP('',(#581,#591,#598,#599));
#581 = ORIENTED_EDGE('',*,*,#582,.T.);
#582 = EDGE_CURVE('',#583,#585,#587,.T.);
#583 = VERTEX_POINT('',#584);
#584 = CARTESIAN_POINT('',(-35.,3.730818729744,0.4));
#585 = VERTEX_POINT('',#586);
#586 = CARTESIAN_POINT('',(-35.,3.730818729744,1.7));
#587 = LINE('',#588,#589);
#588 = CARTESIAN_POINT('',(-35.,3.730818729744,0.));
#589 = VECTOR('',#590,1.);
#590 = DIRECTION('',(0.,0.,1.));
#591 = ORIENTED_EDGE('',*,*,#592,.T.);
#592 = EDGE_CURVE('',#585,#278,#593,.T.);
#593 = CIRCLE('',#594,1.06442661114);
#594 = AXIS2_PLACEMENT_3D('',#595,#596,#597);
#595 = CARTESIAN_POINT('',(-33.93557338886,3.730818729744,1.7));
#596 = DIRECTION('',(0.,0.,-1.));
#597 = DIRECTION('',(1.,0.,0.));
#598 = ORIENTED_EDGE('',*,*,#275,.F.);
#599 = ORIENTED_EDGE('',*,*,#600,.F.);
#600 = EDGE_CURVE('',#583,#276,#601,.T.);
#601 = CIRCLE('',#602,1.06442661114);
#602 = AXIS2_PLACEMENT_3D('',#603,#604,#605);
#603 = CARTESIAN_POINT('',(-33.93557338886,3.730818729744,0.4));
#604 = DIRECTION('',(-0.,0.,-1.));
#605 = DIRECTION('',(-1.,-1.25E-15,0.));
#606 = CYLINDRICAL_SURFACE('',#607,1.06442661114);
#607 = AXIS2_PLACEMENT_3D('',#608,#609,#610);
#608 = CARTESIAN_POINT('',(-33.93557338886,3.730818729744,0.));
#609 = DIRECTION('',(0.,0.,-1.));
#610 = DIRECTION('',(1.,0.,0.));
#611 = ADVANCED_FACE('',(#612),#638,.F.);
#612 = FACE_BOUND('',#613,.T.);
#613 = EDGE_LOOP('',(#614,#622,#623,#632));
#614 = ORIENTED_EDGE('',*,*,#615,.F.);
#615 = EDGE_CURVE('',#276,#616,#618,.T.);
#616 = VERTEX_POINT('',#617);
#617 = CARTESIAN_POINT('',(-33.37210766624,4.082911190657,-1.E-15));
#618 = LINE('',#619,#620);
#619 = CARTESIAN_POINT('',(-33.03288842778,4.29487889635,0.4));
#620 = VECTOR('',#621,1.);
#621 = DIRECTION('',(-0.599660559565,-0.374709505221,-0.707106781187));
#622 = ORIENTED_EDGE('',*,*,#317,.T.);
#623 = ORIENTED_EDGE('',*,*,#624,.T.);
#624 = EDGE_CURVE('',#310,#625,#627,.T.);
#625 = VERTEX_POINT('',#626);
#626 = CARTESIAN_POINT('',(-31.67116462474,1.360833309402,0.));
#627 = ELLIPSE('',#628,1.979898987322,1.4);
#628 = AXIS2_PLACEMENT_3D('',#629,#630,#631);
#629 = CARTESIAN_POINT('',(-32.,0.,-1.));
#630 = DIRECTION('',(-0.599660559565,-0.374709505221,0.707106781187));
#631 = DIRECTION('',(-0.599660559565,-0.374709505221,-0.707106781187));
#632 = ORIENTED_EDGE('',*,*,#633,.F.);
#633 = EDGE_CURVE('',#616,#625,#634,.T.);
#634 = LINE('',#635,#636);
#635 = CARTESIAN_POINT('',(-33.37210766624,4.082911190657,0.));
#636 = VECTOR('',#637,1.);
#637 = DIRECTION('',(0.529919264233,-0.848048096156,0.));
#638 = PLANE('',#639);
#639 = AXIS2_PLACEMENT_3D('',#640,#641,#642);
#640 = CARTESIAN_POINT('',(-33.20249804701,4.188895043503,0.2));
#641 = DIRECTION('',(-0.599660559565,-0.374709505221,0.707106781187));
#642 = DIRECTION('',(-0.529919264233,0.848048096156,2.775557561563E-17)
  );
#643 = ADVANCED_FACE('',(#644),#679,.F.);
#644 = FACE_BOUND('',#645,.T.);
#645 = EDGE_LOOP('',(#646,#655,#656,#664,#672));
#646 = ORIENTED_EDGE('',*,*,#647,.T.);
#647 = EDGE_CURVE('',#648,#310,#650,.T.);
#648 = VERTEX_POINT('',#649);
#649 = CARTESIAN_POINT('',(-30.6,0.,0.187267334619));
#650 = ELLIPSE('',#651,1.979898987322,1.4);
#651 = AXIS2_PLACEMENT_3D('',#652,#653,#654);
#652 = CARTESIAN_POINT('',(-32.,0.,-1.));
#653 = DIRECTION('',(-0.599660559565,-0.374709505221,0.707106781187));
#654 = DIRECTION('',(-0.599660559565,-0.374709505221,-0.707106781187));
#655 = ORIENTED_EDGE('',*,*,#309,.T.);
#656 = ORIENTED_EDGE('',*,*,#657,.T.);
#657 = EDGE_CURVE('',#302,#658,#660,.T.);
#658 = VERTEX_POINT('',#659);
#659 = CARTESIAN_POINT('',(-28.43783221455,-3.813580190485,-0.));
#660 = LINE('',#661,#662);
#661 = CARTESIAN_POINT('',(-28.87897225859,-3.940075062587,
    -0.441140044042));
#662 = VECTOR('',#663,1.);
#663 = DIRECTION('',(-0.693005033554,-0.198715995679,-0.693005033554));
#664 = ORIENTED_EDGE('',*,*,#665,.F.);
#665 = EDGE_CURVE('',#666,#658,#668,.T.);
#666 = VERTEX_POINT('',#667);
#667 = CARTESIAN_POINT('',(-30.63273918294,-0.300994780935,0.));
#668 = LINE('',#669,#670);
#669 = CARTESIAN_POINT('',(-33.37210766624,4.082911190657,0.));
#670 = VECTOR('',#671,1.);
#671 = DIRECTION('',(0.529919264233,-0.848048096156,0.));
#672 = ORIENTED_EDGE('',*,*,#673,.T.);
#673 = EDGE_CURVE('',#666,#648,#674,.T.);
#674 = ELLIPSE('',#675,1.979898987322,1.4);
#675 = AXIS2_PLACEMENT_3D('',#676,#677,#678);
#676 = CARTESIAN_POINT('',(-32.,0.,-1.));
#677 = DIRECTION('',(-0.599660559565,-0.374709505221,0.707106781187));
#678 = DIRECTION('',(-0.599660559565,-0.374709505221,-0.707106781187));
#679 = PLANE('',#680);
#680 = AXIS2_PLACEMENT_3D('',#681,#682,#683);
#681 = CARTESIAN_POINT('',(-33.20249804701,4.188895043503,0.2));
#682 = DIRECTION('',(-0.599660559565,-0.374709505221,0.707106781187));
#683 = DIRECTION('',(-0.529919264233,0.848048096156,2.775557561563E-17)
  );
#684 = ADVANCED_FACE('',(#685),#712,.T.);
#685 = FACE_BOUND('',#686,.F.);
#686 = EDGE_LOOP('',(#687,#697,#704,#705));
#687 = ORIENTED_EDGE('',*,*,#688,.F.);
#688 = EDGE_CURVE('',#689,#691,#693,.T.);
#689 = VERTEX_POINT('',#690);
#690 = CARTESIAN_POINT('',(-34.30496057201,5.,1.7));
#691 = VERTEX_POINT('',#692);
#692 = CARTESIAN_POINT('',(-34.30496057201,5.,8.3));
#693 = LINE('',#694,#695);
#694 = CARTESIAN_POINT('',(-34.30496057201,5.,0.));
#695 = VECTOR('',#696,1.);
#696 = DIRECTION('',(0.,0.,1.));
#697 = ORIENTED_EDGE('',*,*,#698,.T.);
#698 = EDGE_CURVE('',#689,#278,#699,.T.);
#699 = CIRCLE('',#700,1.5);
#700 = AXIS2_PLACEMENT_3D('',#701,#702,#703);
#701 = CARTESIAN_POINT('',(-34.30496057201,3.5,1.7));
#702 = DIRECTION('',(0.,0.,-1.));
#703 = DIRECTION('',(1.,0.,0.));
#704 = ORIENTED_EDGE('',*,*,#285,.T.);
#705 = ORIENTED_EDGE('',*,*,#706,.F.);
#706 = EDGE_CURVE('',#691,#286,#707,.T.);
#707 = CIRCLE('',#708,1.5);
#708 = AXIS2_PLACEMENT_3D('',#709,#710,#711);
#709 = CARTESIAN_POINT('',(-34.30496057201,3.5,8.3));
#710 = DIRECTION('',(0.,0.,-1.));
#711 = DIRECTION('',(1.,0.,0.));
#712 = CYLINDRICAL_SURFACE('',#713,1.5);
#713 = AXIS2_PLACEMENT_3D('',#714,#715,#716);
#714 = CARTESIAN_POINT('',(-34.30496057201,3.5,0.));
#715 = DIRECTION('',(-0.,-0.,-1.));
#716 = DIRECTION('',(1.,0.,0.));
#717 = ADVANCED_FACE('',(#718),#768,.F.);
#718 = FACE_BOUND('',#719,.F.);
#719 = EDGE_LOOP('',(#720,#721,#729,#737,#745,#753,#761,#767));
#720 = ORIENTED_EDGE('',*,*,#301,.F.);
#721 = ORIENTED_EDGE('',*,*,#722,.T.);
#722 = EDGE_CURVE('',#302,#723,#725,.T.);
#723 = VERTEX_POINT('',#724);
#724 = CARTESIAN_POINT('',(-28.03783221455,-15.61029970737,0.4));
#725 = LINE('',#726,#727);
#726 = CARTESIAN_POINT('',(-28.03783221455,-3.698882036181,0.4));
#727 = VECTOR('',#728,1.);
#728 = DIRECTION('',(-0.,-1.,-0.));
#729 = ORIENTED_EDGE('',*,*,#730,.T.);
#730 = EDGE_CURVE('',#723,#731,#733,.T.);
#731 = VERTEX_POINT('',#732);
#732 = CARTESIAN_POINT('',(-28.03783221455,-15.61029970737,2.2));
#733 = LINE('',#734,#735);
#734 = CARTESIAN_POINT('',(-28.03783221455,-15.61029970737,0.));
#735 = VECTOR('',#736,1.);
#736 = DIRECTION('',(0.,0.,1.));
#737 = ORIENTED_EDGE('',*,*,#738,.F.);
#738 = EDGE_CURVE('',#739,#731,#741,.T.);
#739 = VERTEX_POINT('',#740);
#740 = CARTESIAN_POINT('',(-28.03783221455,-10.12547215007,2.2));
#741 = LINE('',#742,#743);
#742 = CARTESIAN_POINT('',(-28.03783221455,-14.9090745047,2.2));
#743 = VECTOR('',#744,1.);
#744 = DIRECTION('',(-0.,-1.,-0.));
#745 = ORIENTED_EDGE('',*,*,#746,.F.);
#746 = EDGE_CURVE('',#747,#739,#749,.T.);
#747 = VERTEX_POINT('',#748);
#748 = CARTESIAN_POINT('',(-28.03783221455,-10.12547215007,7.8));
#749 = LINE('',#750,#751);
#750 = CARTESIAN_POINT('',(-28.03783221455,-10.12547215007,3.9));
#751 = VECTOR('',#752,1.);
#752 = DIRECTION('',(-0.,-0.,-1.));
#753 = ORIENTED_EDGE('',*,*,#754,.F.);
#754 = EDGE_CURVE('',#755,#747,#757,.T.);
#755 = VERTEX_POINT('',#756);
#756 = CARTESIAN_POINT('',(-28.03783221455,-15.61029970737,7.8));
#757 = LINE('',#758,#759);
#758 = CARTESIAN_POINT('',(-28.03783221455,-18.84949009192,7.8));
#759 = VECTOR('',#760,1.);
#760 = DIRECTION('',(0.,1.,0.));
#761 = ORIENTED_EDGE('',*,*,#762,.T.);
#762 = EDGE_CURVE('',#755,#345,#763,.T.);
#763 = LINE('',#764,#765);
#764 = CARTESIAN_POINT('',(-28.03783221455,-15.61029970737,0.));
#765 = VECTOR('',#766,1.);
#766 = DIRECTION('',(0.,0.,1.));
#767 = ORIENTED_EDGE('',*,*,#352,.F.);
#768 = PLANE('',#769);
#769 = AXIS2_PLACEMENT_3D('',#770,#771,#772);
#770 = CARTESIAN_POINT('',(-28.03783221455,-15.61029970737,0.));
#771 = DIRECTION('',(-1.,0.,0.));
#772 = DIRECTION('',(0.,1.,0.));
#773 = ADVANCED_FACE('',(#774),#793,.T.);
#774 = FACE_BOUND('',#775,.F.);
#775 = EDGE_LOOP('',(#776,#784,#791,#792));
#776 = ORIENTED_EDGE('',*,*,#777,.T.);
#777 = EDGE_CURVE('',#516,#778,#780,.T.);
#778 = VERTEX_POINT('',#779);
#779 = CARTESIAN_POINT('',(-35.,3.730818729744,8.3));
#780 = LINE('',#781,#782);
#781 = CARTESIAN_POINT('',(-35.,3.730818729744,10.));
#782 = VECTOR('',#783,1.);
#783 = DIRECTION('',(-0.,-0.,-1.));
#784 = ORIENTED_EDGE('',*,*,#785,.T.);
#785 = EDGE_CURVE('',#778,#286,#786,.T.);
#786 = CIRCLE('',#787,1.06442661114);
#787 = AXIS2_PLACEMENT_3D('',#788,#789,#790);
#788 = CARTESIAN_POINT('',(-33.93557338886,3.730818729744,8.3));
#789 = DIRECTION('',(0.,0.,-1.));
#790 = DIRECTION('',(1.,0.,0.));
#791 = ORIENTED_EDGE('',*,*,#293,.T.);
#792 = ORIENTED_EDGE('',*,*,#540,.T.);
#793 = CYLINDRICAL_SURFACE('',#794,1.06442661114);
#794 = AXIS2_PLACEMENT_3D('',#795,#796,#797);
#795 = CARTESIAN_POINT('',(-33.93557338886,3.730818729744,10.));
#796 = DIRECTION('',(0.,0.,1.));
#797 = DIRECTION('',(1.,0.,0.));
#798 = ADVANCED_FACE('',(#799),#818,.F.);
#799 = FACE_BOUND('',#800,.F.);
#800 = EDGE_LOOP('',(#801,#810,#816,#817));
#801 = ORIENTED_EDGE('',*,*,#802,.F.);
#802 = EDGE_CURVE('',#803,#803,#805,.T.);
#803 = VERTEX_POINT('',#804);
#804 = CARTESIAN_POINT('',(-38.,-2.05,5.));
#805 = CIRCLE('',#806,2.05);
#806 = AXIS2_PLACEMENT_3D('',#807,#808,#809);
#807 = CARTESIAN_POINT('',(-38.,0.,5.));
#808 = DIRECTION('',(-1.,0.,0.));
#809 = DIRECTION('',(0.,-1.,0.));
#810 = ORIENTED_EDGE('',*,*,#811,.T.);
#811 = EDGE_CURVE('',#803,#326,#812,.T.);
#812 = LINE('',#813,#814);
#813 = CARTESIAN_POINT('',(-38.,-2.05,5.));
#814 = VECTOR('',#815,1.);
#815 = DIRECTION('',(1.,0.,0.));
#816 = ORIENTED_EDGE('',*,*,#325,.F.);
#817 = ORIENTED_EDGE('',*,*,#811,.F.);
#818 = CYLINDRICAL_SURFACE('',#819,2.05);
#819 = AXIS2_PLACEMENT_3D('',#820,#821,#822);
#820 = CARTESIAN_POINT('',(-38.,0.,5.));
#821 = DIRECTION('',(-1.,0.,0.));
#822 = DIRECTION('',(0.,-1.,0.));
#823 = ADVANCED_FACE('',(#824),#843,.F.);
#824 = FACE_BOUND('',#825,.T.);
#825 = EDGE_LOOP('',(#826,#834,#841,#842));
#826 = ORIENTED_EDGE('',*,*,#827,.F.);
#827 = EDGE_CURVE('',#828,#369,#830,.T.);
#828 = VERTEX_POINT('',#829);
#829 = CARTESIAN_POINT('',(-27.03783221455,-16.61029970737,7.8));
#830 = LINE('',#831,#832);
#831 = CARTESIAN_POINT('',(-27.03783221455,-16.61029970737,0.));
#832 = VECTOR('',#833,1.);
#833 = DIRECTION('',(0.,0.,1.));
#834 = ORIENTED_EDGE('',*,*,#835,.T.);
#835 = EDGE_CURVE('',#828,#755,#836,.T.);
#836 = CIRCLE('',#837,1.);
#837 = AXIS2_PLACEMENT_3D('',#838,#839,#840);
#838 = CARTESIAN_POINT('',(-27.03783221455,-15.61029970737,7.8));
#839 = DIRECTION('',(0.,0.,-1.));
#840 = DIRECTION('',(1.,0.,0.));
#841 = ORIENTED_EDGE('',*,*,#762,.T.);
#842 = ORIENTED_EDGE('',*,*,#376,.T.);
#843 = CYLINDRICAL_SURFACE('',#844,1.);
#844 = AXIS2_PLACEMENT_3D('',#845,#846,#847);
#845 = CARTESIAN_POINT('',(-27.03783221455,-15.61029970737,0.));
#846 = DIRECTION('',(-0.,-0.,-1.));
#847 = DIRECTION('',(1.,0.,0.));
#848 = ADVANCED_FACE('',(#849),#899,.T.);
#849 = FACE_BOUND('',#850,.T.);
#850 = EDGE_LOOP('',(#851,#859,#867,#875,#883,#891,#897,#898));
#851 = ORIENTED_EDGE('',*,*,#852,.F.);
#852 = EDGE_CURVE('',#853,#394,#855,.T.);
#853 = VERTEX_POINT('',#854);
#854 = CARTESIAN_POINT('',(-19.96988302212,-16.61029970737,0.4));
#855 = LINE('',#856,#857);
#856 = CARTESIAN_POINT('',(-19.96988302212,-16.61029970737,0.));
#857 = VECTOR('',#858,1.);
#858 = DIRECTION('',(0.,0.,1.));
#859 = ORIENTED_EDGE('',*,*,#860,.F.);
#860 = EDGE_CURVE('',#861,#853,#863,.T.);
#861 = VERTEX_POINT('',#862);
#862 = CARTESIAN_POINT('',(-27.03783221455,-16.61029970737,0.4));
#863 = LINE('',#864,#865);
#864 = CARTESIAN_POINT('',(-27.03783221455,-16.61029970737,0.4));
#865 = VECTOR('',#866,1.);
#866 = DIRECTION('',(1.,-5.E-16,0.));
#867 = ORIENTED_EDGE('',*,*,#868,.T.);
#868 = EDGE_CURVE('',#861,#869,#871,.T.);
#869 = VERTEX_POINT('',#870);
#870 = CARTESIAN_POINT('',(-27.03783221455,-16.61029970737,2.2));
#871 = LINE('',#872,#873);
#872 = CARTESIAN_POINT('',(-27.03783221455,-16.61029970737,0.));
#873 = VECTOR('',#874,1.);
#874 = DIRECTION('',(0.,0.,1.));
#875 = ORIENTED_EDGE('',*,*,#876,.F.);
#876 = EDGE_CURVE('',#877,#869,#879,.T.);
#877 = VERTEX_POINT('',#878);
#878 = CARTESIAN_POINT('',(-20.05050828746,-16.61029970737,2.2));
#879 = LINE('',#880,#881);
#880 = CARTESIAN_POINT('',(-31.07327453598,-16.61029970737,2.2));
#881 = VECTOR('',#882,1.);
#882 = DIRECTION('',(-1.,5.E-16,0.));
#883 = ORIENTED_EDGE('',*,*,#884,.F.);
#884 = EDGE_CURVE('',#885,#877,#887,.T.);
#885 = VERTEX_POINT('',#886);
#886 = CARTESIAN_POINT('',(-20.05050828746,-16.61029970737,7.8));
#887 = LINE('',#888,#889);
#888 = CARTESIAN_POINT('',(-20.05050828746,-16.61029970737,3.9));
#889 = VECTOR('',#890,1.);
#890 = DIRECTION('',(3.1E-16,0.,-1.));
#891 = ORIENTED_EDGE('',*,*,#892,.F.);
#892 = EDGE_CURVE('',#828,#885,#893,.T.);
#893 = LINE('',#894,#895);
#894 = CARTESIAN_POINT('',(-26.09378698146,-16.61029970737,7.8));
#895 = VECTOR('',#896,1.);
#896 = DIRECTION('',(1.,-5.E-16,-1.E-17));
#897 = ORIENTED_EDGE('',*,*,#827,.T.);
#898 = ORIENTED_EDGE('',*,*,#401,.T.);
#899 = PLANE('',#900);
#900 = AXIS2_PLACEMENT_3D('',#901,#902,#903);
#901 = CARTESIAN_POINT('',(-27.03783221455,-16.61029970737,0.));
#902 = DIRECTION('',(5.E-16,1.,0.));
#903 = DIRECTION('',(1.,-5.E-16,0.));
#904 = ADVANCED_FACE('',(#905),#923,.T.);
#905 = FACE_BOUND('',#906,.T.);
#906 = EDGE_LOOP('',(#907,#908,#909,#917));
#907 = ORIENTED_EDGE('',*,*,#852,.T.);
#908 = ORIENTED_EDGE('',*,*,#423,.F.);
#909 = ORIENTED_EDGE('',*,*,#910,.F.);
#910 = EDGE_CURVE('',#911,#416,#913,.T.);
#911 = VERTEX_POINT('',#912);
#912 = CARTESIAN_POINT('',(-19.18614912486,-17.86453612474,0.4));
#913 = LINE('',#914,#915);
#914 = CARTESIAN_POINT('',(-19.18614912486,-17.86453612474,0.));
#915 = VECTOR('',#916,1.);
#916 = DIRECTION('',(0.,0.,1.));
#917 = ORIENTED_EDGE('',*,*,#918,.T.);
#918 = EDGE_CURVE('',#911,#853,#919,.T.);
#919 = LINE('',#920,#921);
#920 = CARTESIAN_POINT('',(-19.18614912486,-17.86453612474,0.4));
#921 = VECTOR('',#922,1.);
#922 = DIRECTION('',(-0.529919264233,0.848048096156,0.));
#923 = PLANE('',#924);
#924 = AXIS2_PLACEMENT_3D('',#925,#926,#927);
#925 = CARTESIAN_POINT('',(-19.96988302212,-16.61029970737,0.));
#926 = DIRECTION('',(0.848048096156,0.529919264233,0.));
#927 = DIRECTION('',(0.529919264233,-0.848048096156,0.));
#928 = ADVANCED_FACE('',(#929),#948,.T.);
#929 = FACE_BOUND('',#930,.F.);
#930 = EDGE_LOOP('',(#931,#939,#940,#941));
#931 = ORIENTED_EDGE('',*,*,#932,.T.);
#932 = EDGE_CURVE('',#933,#440,#935,.T.);
#933 = VERTEX_POINT('',#934);
#934 = CARTESIAN_POINT('',(-19.90348378021,-25.05696177533,0.4));
#935 = LINE('',#936,#937);
#936 = CARTESIAN_POINT('',(-19.90348378021,-25.05696177533,0.));
#937 = VECTOR('',#938,1.);
#938 = DIRECTION('',(0.,0.,1.));
#939 = ORIENTED_EDGE('',*,*,#447,.T.);
#940 = ORIENTED_EDGE('',*,*,#910,.F.);
#941 = ORIENTED_EDGE('',*,*,#942,.F.);
#942 = EDGE_CURVE('',#933,#911,#943,.T.);
#943 = CIRCLE('',#944,5.910479488873);
#944 = AXIS2_PLACEMENT_3D('',#945,#946,#947);
#945 = CARTESIAN_POINT('',(-24.19852000277,-20.99661306675,0.4));
#946 = DIRECTION('',(-0.,0.,1.));
#947 = DIRECTION('',(0.726681520618,-0.686974502869,0.));
#948 = CYLINDRICAL_SURFACE('',#949,5.910479488873);
#949 = AXIS2_PLACEMENT_3D('',#950,#951,#952);
#950 = CARTESIAN_POINT('',(-24.19852000277,-20.99661306675,0.));
#951 = DIRECTION('',(-0.,-0.,-1.));
#952 = DIRECTION('',(1.,0.,0.));
#953 = ADVANCED_FACE('',(#954),#973,.T.);
#954 = FACE_BOUND('',#955,.F.);
#955 = EDGE_LOOP('',(#956,#964,#965,#966));
#956 = ORIENTED_EDGE('',*,*,#957,.T.);
#957 = EDGE_CURVE('',#958,#465,#960,.T.);
#958 = VERTEX_POINT('',#959);
#959 = CARTESIAN_POINT('',(-28.0080845433,-24.93586172995,0.4));
#960 = LINE('',#961,#962);
#961 = CARTESIAN_POINT('',(-28.0080845433,-24.93586172995,0.));
#962 = VECTOR('',#963,1.);
#963 = DIRECTION('',(0.,0.,1.));
#964 = ORIENTED_EDGE('',*,*,#472,.T.);
#965 = ORIENTED_EDGE('',*,*,#932,.F.);
#966 = ORIENTED_EDGE('',*,*,#967,.F.);
#967 = EDGE_CURVE('',#958,#933,#968,.T.);
#968 = CIRCLE('',#969,5.5);
#969 = AXIS2_PLACEMENT_3D('',#970,#971,#972);
#970 = CARTESIAN_POINT('',(-23.90023214361,-21.27860200955,0.4));
#971 = DIRECTION('',(0.,0.,1.));
#972 = DIRECTION('',(-0.746882254488,-0.664956312799,0.));
#973 = CYLINDRICAL_SURFACE('',#974,5.5);
#974 = AXIS2_PLACEMENT_3D('',#975,#976,#977);
#975 = CARTESIAN_POINT('',(-23.90023214361,-21.27860200955,0.));
#976 = DIRECTION('',(-0.,-0.,-1.));
#977 = DIRECTION('',(1.,0.,0.));
#978 = ADVANCED_FACE('',(#979,#1032),#1109,.T.);
#979 = FACE_BOUND('',#980,.F.);
#980 = EDGE_LOOP('',(#981,#991,#1000,#1008,#1017,#1023,#1024,#1025));
#981 = ORIENTED_EDGE('',*,*,#982,.T.);
#982 = EDGE_CURVE('',#983,#985,#987,.T.);
#983 = VERTEX_POINT('',#984);
#984 = CARTESIAN_POINT('',(-35.,-13.46291201783,0.4));
#985 = VERTEX_POINT('',#986);
#986 = CARTESIAN_POINT('',(-35.,-13.46291201783,1.7));
#987 = LINE('',#988,#989);
#988 = CARTESIAN_POINT('',(-35.,-13.46291201783,0.));
#989 = VECTOR('',#990,1.);
#990 = DIRECTION('',(0.,0.,1.));
#991 = ORIENTED_EDGE('',*,*,#992,.T.);
#992 = EDGE_CURVE('',#985,#993,#995,.T.);
#993 = VERTEX_POINT('',#994);
#994 = CARTESIAN_POINT('',(-37.06187267703,-5.715557161915,1.7));
#995 = CIRCLE('',#996,37.5);
#996 = AXIS2_PLACEMENT_3D('',#997,#998,#999);
#997 = CARTESIAN_POINT('',(-5.9E-15,-1.14E-15,1.7));
#998 = DIRECTION('',(0.,0.,-1.));
#999 = DIRECTION('',(1.,0.,0.));
#1000 = ORIENTED_EDGE('',*,*,#1001,.T.);
#1001 = EDGE_CURVE('',#993,#1002,#1004,.T.);
#1002 = VERTEX_POINT('',#1003);
#1003 = CARTESIAN_POINT('',(-37.06187267703,-5.715557161915,8.3));
#1004 = LINE('',#1005,#1006);
#1005 = CARTESIAN_POINT('',(-37.06187267703,-5.715557161915,0.));
#1006 = VECTOR('',#1007,1.);
#1007 = DIRECTION('',(0.,0.,1.));
#1008 = ORIENTED_EDGE('',*,*,#1009,.F.);
#1009 = EDGE_CURVE('',#1010,#1002,#1012,.T.);
#1010 = VERTEX_POINT('',#1011);
#1011 = CARTESIAN_POINT('',(-35.,-13.46291201783,8.3));
#1012 = CIRCLE('',#1013,37.5);
#1013 = AXIS2_PLACEMENT_3D('',#1014,#1015,#1016);
#1014 = CARTESIAN_POINT('',(-5.9E-15,-1.14E-15,8.3));
#1015 = DIRECTION('',(0.,0.,-1.));
#1016 = DIRECTION('',(1.,0.,0.));
#1017 = ORIENTED_EDGE('',*,*,#1018,.F.);
#1018 = EDGE_CURVE('',#490,#1010,#1019,.T.);
#1019 = LINE('',#1020,#1021);
#1020 = CARTESIAN_POINT('',(-35.,-13.46291201783,10.));
#1021 = VECTOR('',#1022,1.);
#1022 = DIRECTION('',(-0.,-0.,-1.));
#1023 = ORIENTED_EDGE('',*,*,#498,.T.);
#1024 = ORIENTED_EDGE('',*,*,#957,.F.);
#1025 = ORIENTED_EDGE('',*,*,#1026,.F.);
#1026 = EDGE_CURVE('',#983,#958,#1027,.T.);
#1027 = CIRCLE('',#1028,37.5);
#1028 = AXIS2_PLACEMENT_3D('',#1029,#1030,#1031);
#1029 = CARTESIAN_POINT('',(-7.11E-15,-1.78E-15,0.4));
#1030 = DIRECTION('',(0.,0.,1.));
#1031 = DIRECTION('',(-0.933333333333,-0.359010987142,0.));
#1032 = FACE_BOUND('',#1033,.F.);
#1033 = EDGE_LOOP('',(#1034,#1045,#1053,#1062,#1081,#1089));
#1034 = ORIENTED_EDGE('',*,*,#1035,.T.);
#1035 = EDGE_CURVE('',#1036,#1038,#1040,.T.);
#1036 = VERTEX_POINT('',#1037);
#1037 = CARTESIAN_POINT('',(-30.37934374817,-21.98511936357,7.8));
#1038 = VERTEX_POINT('',#1039);
#1039 = CARTESIAN_POINT('',(-34.7811133379,-14.01870732186,7.8));
#1040 = CIRCLE('',#1041,37.5);
#1041 = AXIS2_PLACEMENT_3D('',#1042,#1043,#1044);
#1042 = CARTESIAN_POINT('',(-5.9E-15,-1.14E-15,7.8));
#1043 = DIRECTION('',(0.,0.,-1.));
#1044 = DIRECTION('',(1.,0.,0.));
#1045 = ORIENTED_EDGE('',*,*,#1046,.T.);
#1046 = EDGE_CURVE('',#1038,#1047,#1049,.T.);
#1047 = VERTEX_POINT('',#1048);
#1048 = CARTESIAN_POINT('',(-34.7811133379,-14.01870732186,2.2));
#1049 = LINE('',#1050,#1051);
#1050 = CARTESIAN_POINT('',(-34.7811133379,-14.01870732186,0.));
#1051 = VECTOR('',#1052,1.);
#1052 = DIRECTION('',(-0.,-0.,-1.));
#1053 = ORIENTED_EDGE('',*,*,#1054,.F.);
#1054 = EDGE_CURVE('',#1055,#1047,#1057,.T.);
#1055 = VERTEX_POINT('',#1056);
#1056 = CARTESIAN_POINT('',(-30.37934374817,-21.98511936357,2.2));
#1057 = CIRCLE('',#1058,37.5);
#1058 = AXIS2_PLACEMENT_3D('',#1059,#1060,#1061);
#1059 = CARTESIAN_POINT('',(-5.9E-15,-1.14E-15,2.2));
#1060 = DIRECTION('',(0.,0.,-1.));
#1061 = DIRECTION('',(1.,0.,0.));
#1062 = ORIENTED_EDGE('',*,*,#1063,.T.);
#1063 = EDGE_CURVE('',#1055,#1064,#1066,.T.);
#1064 = VERTEX_POINT('',#1065);
#1065 = CARTESIAN_POINT('',(-29.5311133379,-23.11197406159,3.6));
#1066 = B_SPLINE_CURVE_WITH_KNOTS('',7,(#1067,#1068,#1069,#1070,#1071,
    #1072,#1073,#1074,#1075,#1076,#1077,#1078,#1079,#1080),
  .UNSPECIFIED.,.F.,.F.,(8,6,8),(0.,0.458924096626,1.),.UNSPECIFIED.);
#1067 = CARTESIAN_POINT('',(-30.37934374817,-21.98511936357,2.2));
#1068 = CARTESIAN_POINT('',(-30.28065971084,-22.12148233903,2.2));
#1069 = CARTESIAN_POINT('',(-30.18279394868,-22.25521186179,
    2.223362568113));
#1070 = CARTESIAN_POINT('',(-30.08824197459,-22.38293926777,
    2.268735150337));
#1071 = CARTESIAN_POINT('',(-29.99936895861,-22.50171290287,
    2.333771831665));
#1072 = CARTESIAN_POINT('',(-29.91822379766,-22.60916433993,
    2.415204643076));
#1073 = CARTESIAN_POINT('',(-29.8463155286,-22.70369682888,
    2.508921462013));
#1074 = CARTESIAN_POINT('',(-29.71129659121,-22.8801947542,
    2.729282617745));
#1075 = CARTESIAN_POINT('',(-29.65072137273,-22.95863891582,
    2.86101239285));
#1076 = CARTESIAN_POINT('',(-29.60261719047,-23.02050904017,
    3.001359404034));
#1077 = CARTESIAN_POINT('',(-29.56678522828,-23.06639471787,
    3.147494798103));
#1078 = CARTESIAN_POINT('',(-29.54300231974,-23.09678300296,
    3.297195633368));
#1079 = CARTESIAN_POINT('',(-29.5311133379,-23.11197406159,
    3.448603880552));
#1080 = CARTESIAN_POINT('',(-29.5311133379,-23.11197406159,3.6));
#1081 = ORIENTED_EDGE('',*,*,#1082,.F.);
#1082 = EDGE_CURVE('',#1083,#1064,#1085,.T.);
#1083 = VERTEX_POINT('',#1084);
#1084 = CARTESIAN_POINT('',(-29.5311133379,-23.11197406159,6.4));
#1085 = LINE('',#1086,#1087);
#1086 = CARTESIAN_POINT('',(-29.5311133379,-23.11197406159,0.));
#1087 = VECTOR('',#1088,1.);
#1088 = DIRECTION('',(-0.,-0.,-1.));
#1089 = ORIENTED_EDGE('',*,*,#1090,.T.);
#1090 = EDGE_CURVE('',#1083,#1036,#1091,.T.);
#1091 = B_SPLINE_CURVE_WITH_KNOTS('',6,(#1092,#1093,#1094,#1095,#1096,
    #1097,#1098,#1099,#1100,#1101,#1102,#1103,#1104,#1105,#1106,#1107,
    #1108),.UNSPECIFIED.,.F.,.F.,(7,5,5,7),(0.,0.468435220656,
    0.63847562904,1.),.UNSPECIFIED.);
#1092 = CARTESIAN_POINT('',(-29.5311133379,-23.11197406159,6.4));
#1093 = CARTESIAN_POINT('',(-29.5311133379,-23.11197406159,
    6.553295956063));
#1094 = CARTESIAN_POINT('',(-29.54365084816,-23.09595450022,
    6.706590062643));
#1095 = CARTESIAN_POINT('',(-29.5687271378,-23.06391289831,
    6.857905092109));
#1096 = CARTESIAN_POINT('',(-29.60653517808,-23.01547127219,
    7.005101405132));
#1097 = CARTESIAN_POINT('',(-29.65735210197,-22.94999944105,
    7.145521616695));
#1098 = CARTESIAN_POINT('',(-29.74455377886,-22.83665848999,
    7.322463253003));
#1099 = CARTESIAN_POINT('',(-29.76951101067,-22.80414403771,
    7.368188355973));
#1100 = CARTESIAN_POINT('',(-29.79619446467,-22.76928807065,
    7.41230255302));
#1101 = CARTESIAN_POINT('',(-29.82458691622,-22.73208830731,
    7.454578248116));
#1102 = CARTESIAN_POINT('',(-29.85466052815,-22.69255388483,
    7.494771998986));
#1103 = CARTESIAN_POINT('',(-29.95380722273,-22.56173521117,
    7.613100814229));
#1104 = CARTESIAN_POINT('',(-30.02939221438,-22.46134433203,
    7.683864405422));
#1105 = CARTESIAN_POINT('',(-30.11187257056,-22.35088596107,
    7.740563208084));
#1106 = CARTESIAN_POINT('',(-30.19925634919,-22.23267667857,
    7.77995193005));
#1107 = CARTESIAN_POINT('',(-30.28920628564,-22.10967256309,7.8));
#1108 = CARTESIAN_POINT('',(-30.37934374817,-21.98511936357,7.8));
#1109 = CYLINDRICAL_SURFACE('',#1110,37.5);
#1110 = AXIS2_PLACEMENT_3D('',#1111,#1112,#1113);
#1111 = CARTESIAN_POINT('',(-5.9E-15,-1.14E-15,0.));
#1112 = DIRECTION('',(-0.,-0.,-1.));
#1113 = DIRECTION('',(1.,0.,0.));
#1114 = ADVANCED_FACE('',(#1115),#1126,.F.);
#1115 = FACE_BOUND('',#1116,.T.);
#1116 = EDGE_LOOP('',(#1117,#1118,#1124,#1125));
#1117 = ORIENTED_EDGE('',*,*,#777,.T.);
#1118 = ORIENTED_EDGE('',*,*,#1119,.F.);
#1119 = EDGE_CURVE('',#1010,#778,#1120,.T.);
#1120 = LINE('',#1121,#1122);
#1121 = CARTESIAN_POINT('',(-35.,-13.46291201783,8.3));
#1122 = VECTOR('',#1123,1.);
#1123 = DIRECTION('',(0.,1.,0.));
#1124 = ORIENTED_EDGE('',*,*,#1018,.F.);
#1125 = ORIENTED_EDGE('',*,*,#523,.F.);
#1126 = PLANE('',#1127);
#1127 = AXIS2_PLACEMENT_3D('',#1128,#1129,#1130);
#1128 = CARTESIAN_POINT('',(-35.,-4.866046644046,9.15));
#1129 = DIRECTION('',(1.,0.,0.));
#1130 = DIRECTION('',(0.,0.,1.));
#1131 = ADVANCED_FACE('',(#1132,#1218),#1221,.F.);
#1132 = FACE_BOUND('',#1133,.F.);
#1133 = EDGE_LOOP('',(#1134,#1144,#1153,#1162,#1171,#1179,#1187,#1196,
    #1202,#1203,#1210,#1211));
#1134 = ORIENTED_EDGE('',*,*,#1135,.F.);
#1135 = EDGE_CURVE('',#1136,#1138,#1140,.T.);
#1136 = VERTEX_POINT('',#1137);
#1137 = CARTESIAN_POINT('',(-34.6,-13.38842783899,3.E-15));
#1138 = VERTEX_POINT('',#1139);
#1139 = CARTESIAN_POINT('',(-34.6,3.730818729744,2.E-15));
#1140 = LINE('',#1141,#1142);
#1141 = CARTESIAN_POINT('',(-34.6,-13.46291201783,0.));
#1142 = VECTOR('',#1143,1.);
#1143 = DIRECTION('',(0.,1.,0.));
#1144 = ORIENTED_EDGE('',*,*,#1145,.T.);
#1145 = EDGE_CURVE('',#1136,#1146,#1148,.T.);
#1146 = VERTEX_POINT('',#1147);
#1147 = CARTESIAN_POINT('',(-27.7093316415,-24.66987920483,0.));
#1148 = CIRCLE('',#1149,37.1);
#1149 = AXIS2_PLACEMENT_3D('',#1150,#1151,#1152);
#1150 = CARTESIAN_POINT('',(-7.11E-15,-1.78E-15,0.));
#1151 = DIRECTION('',(0.,0.,1.));
#1152 = DIRECTION('',(-0.933333333333,-0.359010987142,0.));
#1153 = ORIENTED_EDGE('',*,*,#1154,.T.);
#1154 = EDGE_CURVE('',#1146,#1155,#1157,.T.);
#1155 = VERTEX_POINT('',#1156);
#1156 = CARTESIAN_POINT('',(-20.19415638846,-24.78217197418,-1.E-15));
#1157 = CIRCLE('',#1158,5.1);
#1158 = AXIS2_PLACEMENT_3D('',#1159,#1160,#1161);
#1159 = CARTESIAN_POINT('',(-23.90023214361,-21.27860200955,0.));
#1160 = DIRECTION('',(0.,0.,1.));
#1161 = DIRECTION('',(-0.746882254488,-0.664956312799,0.));
#1162 = ORIENTED_EDGE('',*,*,#1163,.T.);
#1163 = EDGE_CURVE('',#1155,#1164,#1166,.T.);
#1164 = VERTEX_POINT('',#1165);
#1165 = CARTESIAN_POINT('',(-19.52536836332,-18.07650383043,-1.E-15));
#1166 = CIRCLE('',#1167,5.510479488873);
#1167 = AXIS2_PLACEMENT_3D('',#1168,#1169,#1170);
#1168 = CARTESIAN_POINT('',(-24.19852000277,-20.99661306675,0.));
#1169 = DIRECTION('',(-0.,0.,1.));
#1170 = DIRECTION('',(0.726681520618,-0.686974502869,0.));
#1171 = ORIENTED_EDGE('',*,*,#1172,.T.);
#1172 = EDGE_CURVE('',#1164,#1173,#1175,.T.);
#1173 = VERTEX_POINT('',#1174);
#1174 = CARTESIAN_POINT('',(-20.1916066427,-17.01029970737,1.E-15));
#1175 = LINE('',#1176,#1177);
#1176 = CARTESIAN_POINT('',(-19.52536836332,-18.07650383043,0.));
#1177 = VECTOR('',#1178,1.);
#1178 = DIRECTION('',(-0.529919264233,0.848048096156,0.));
#1179 = ORIENTED_EDGE('',*,*,#1180,.F.);
#1180 = EDGE_CURVE('',#1181,#1173,#1183,.T.);
#1181 = VERTEX_POINT('',#1182);
#1182 = CARTESIAN_POINT('',(-27.03783221455,-17.01029970737,-1.E-15));
#1183 = LINE('',#1184,#1185);
#1184 = CARTESIAN_POINT('',(-27.03783221455,-17.01029970737,0.));
#1185 = VECTOR('',#1186,1.);
#1186 = DIRECTION('',(1.,-5.E-16,0.));
#1187 = ORIENTED_EDGE('',*,*,#1188,.F.);
#1188 = EDGE_CURVE('',#1189,#1181,#1191,.T.);
#1189 = VERTEX_POINT('',#1190);
#1190 = CARTESIAN_POINT('',(-28.43783221455,-15.61029970737,0.));
#1191 = CIRCLE('',#1192,1.4);
#1192 = AXIS2_PLACEMENT_3D('',#1193,#1194,#1195);
#1193 = CARTESIAN_POINT('',(-27.03783221455,-15.61029970737,0.));
#1194 = DIRECTION('',(0.,0.,1.));
#1195 = DIRECTION('',(-1.,0.,0.));
#1196 = ORIENTED_EDGE('',*,*,#1197,.F.);
#1197 = EDGE_CURVE('',#658,#1189,#1198,.T.);
#1198 = LINE('',#1199,#1200);
#1199 = CARTESIAN_POINT('',(-28.43783221455,-3.698882036181,0.));
#1200 = VECTOR('',#1201,1.);
#1201 = DIRECTION('',(-0.,-1.,-0.));
#1202 = ORIENTED_EDGE('',*,*,#665,.F.);
#1203 = ORIENTED_EDGE('',*,*,#1204,.T.);
#1204 = EDGE_CURVE('',#666,#625,#1205,.T.);
#1205 = CIRCLE('',#1206,1.4);
#1206 = AXIS2_PLACEMENT_3D('',#1207,#1208,#1209);
#1207 = CARTESIAN_POINT('',(-32.,0.,0.));
#1208 = DIRECTION('',(0.,0.,-1.));
#1209 = DIRECTION('',(1.,0.,0.));
#1210 = ORIENTED_EDGE('',*,*,#633,.F.);
#1211 = ORIENTED_EDGE('',*,*,#1212,.F.);
#1212 = EDGE_CURVE('',#1138,#616,#1213,.T.);
#1213 = CIRCLE('',#1214,0.66442661114);
#1214 = AXIS2_PLACEMENT_3D('',#1215,#1216,#1217);
#1215 = CARTESIAN_POINT('',(-33.93557338886,3.730818729744,0.));
#1216 = DIRECTION('',(-0.,0.,-1.));
#1217 = DIRECTION('',(-1.,-1.25E-15,0.));
#1218 = FACE_BOUND('',#1219,.F.);
#1219 = EDGE_LOOP('',(#1220));
#1220 = ORIENTED_EDGE('',*,*,#567,.F.);
#1221 = PLANE('',#1222);
#1222 = AXIS2_PLACEMENT_3D('',#1223,#1224,#1225);
#1223 = CARTESIAN_POINT('',(-28.80102187966,-12.87373258375,0.));
#1224 = DIRECTION('',(0.,0.,1.));
#1225 = DIRECTION('',(1.,0.,0.));
#1226 = ADVANCED_FACE('',(#1227),#1243,.F.);
#1227 = FACE_BOUND('',#1228,.F.);
#1228 = EDGE_LOOP('',(#1229,#1230,#1236,#1237));
#1229 = ORIENTED_EDGE('',*,*,#582,.T.);
#1230 = ORIENTED_EDGE('',*,*,#1231,.F.);
#1231 = EDGE_CURVE('',#985,#585,#1232,.T.);
#1232 = LINE('',#1233,#1234);
#1233 = CARTESIAN_POINT('',(-35.,-13.46291201783,1.7));
#1234 = VECTOR('',#1235,1.);
#1235 = DIRECTION('',(0.,1.,0.));
#1236 = ORIENTED_EDGE('',*,*,#982,.F.);
#1237 = ORIENTED_EDGE('',*,*,#1238,.T.);
#1238 = EDGE_CURVE('',#983,#583,#1239,.T.);
#1239 = LINE('',#1240,#1241);
#1240 = CARTESIAN_POINT('',(-35.,-13.46291201783,0.4));
#1241 = VECTOR('',#1242,1.);
#1242 = DIRECTION('',(0.,1.,0.));
#1243 = PLANE('',#1244);
#1244 = AXIS2_PLACEMENT_3D('',#1245,#1246,#1247);
#1245 = CARTESIAN_POINT('',(-35.,-4.866046644046,0.85));
#1246 = DIRECTION('',(1.,0.,0.));
#1247 = DIRECTION('',(0.,0.,1.));
#1248 = ADVANCED_FACE('',(#1249),#1260,.T.);
#1249 = FACE_BOUND('',#1250,.T.);
#1250 = EDGE_LOOP('',(#1251,#1257,#1258,#1259));
#1251 = ORIENTED_EDGE('',*,*,#1252,.F.);
#1252 = EDGE_CURVE('',#583,#1138,#1253,.T.);
#1253 = LINE('',#1254,#1255);
#1254 = CARTESIAN_POINT('',(-34.8,3.730818729744,0.2));
#1255 = VECTOR('',#1256,1.);
#1256 = DIRECTION('',(0.707106781187,0.,-0.707106781187));
#1257 = ORIENTED_EDGE('',*,*,#600,.T.);
#1258 = ORIENTED_EDGE('',*,*,#615,.T.);
#1259 = ORIENTED_EDGE('',*,*,#1212,.F.);
#1260 = CONICAL_SURFACE('',#1261,1.06442661114,0.785398163397);
#1261 = AXIS2_PLACEMENT_3D('',#1262,#1263,#1264);
#1262 = CARTESIAN_POINT('',(-33.93557338886,3.730818729744,0.4));
#1263 = DIRECTION('',(0.,0.,1.));
#1264 = DIRECTION('',(-1.,-1.25E-15,0.));
#1265 = ADVANCED_FACE('',(#1266),#1313,.F.);
#1266 = FACE_BOUND('',#1267,.F.);
#1267 = EDGE_LOOP('',(#1268,#1278,#1287,#1294,#1295,#1296,#1297,#1298,
    #1306));
#1268 = ORIENTED_EDGE('',*,*,#1269,.F.);
#1269 = EDGE_CURVE('',#1270,#1272,#1274,.T.);
#1270 = VERTEX_POINT('',#1271);
#1271 = CARTESIAN_POINT('',(-38.,-4.5,1.7));
#1272 = VERTEX_POINT('',#1273);
#1273 = CARTESIAN_POINT('',(-38.,4.5,1.7));
#1274 = LINE('',#1275,#1276);
#1275 = CARTESIAN_POINT('',(-38.,-5.2,1.7));
#1276 = VECTOR('',#1277,1.);
#1277 = DIRECTION('',(0.,1.,0.));
#1278 = ORIENTED_EDGE('',*,*,#1279,.F.);
#1279 = EDGE_CURVE('',#1280,#1270,#1282,.T.);
#1280 = VERTEX_POINT('',#1281);
#1281 = CARTESIAN_POINT('',(-37.67250689863,-4.969298806651,1.7));
#1282 = CIRCLE('',#1283,0.5);
#1283 = AXIS2_PLACEMENT_3D('',#1284,#1285,#1286);
#1284 = CARTESIAN_POINT('',(-37.5,-4.5,1.7));
#1285 = DIRECTION('',(0.,0.,-1.));
#1286 = DIRECTION('',(1.,0.,0.));
#1287 = ORIENTED_EDGE('',*,*,#1288,.T.);
#1288 = EDGE_CURVE('',#1280,#993,#1289,.T.);
#1289 = CIRCLE('',#1290,0.949217405113);
#1290 = AXIS2_PLACEMENT_3D('',#1291,#1292,#1293);
#1291 = CARTESIAN_POINT('',(-38.,-5.860231997595,1.7));
#1292 = DIRECTION('',(0.,0.,-1.));
#1293 = DIRECTION('',(1.,0.,0.));
#1294 = ORIENTED_EDGE('',*,*,#992,.F.);
#1295 = ORIENTED_EDGE('',*,*,#1231,.T.);
#1296 = ORIENTED_EDGE('',*,*,#592,.T.);
#1297 = ORIENTED_EDGE('',*,*,#698,.F.);
#1298 = ORIENTED_EDGE('',*,*,#1299,.F.);
#1299 = EDGE_CURVE('',#1300,#689,#1302,.T.);
#1300 = VERTEX_POINT('',#1301);
#1301 = CARTESIAN_POINT('',(-37.5,5.,1.7));
#1302 = LINE('',#1303,#1304);
#1303 = CARTESIAN_POINT('',(-38.,5.,1.7));
#1304 = VECTOR('',#1305,1.);
#1305 = DIRECTION('',(1.,0.,0.));
#1306 = ORIENTED_EDGE('',*,*,#1307,.F.);
#1307 = EDGE_CURVE('',#1272,#1300,#1308,.T.);
#1308 = CIRCLE('',#1309,0.5);
#1309 = AXIS2_PLACEMENT_3D('',#1310,#1311,#1312);
#1310 = CARTESIAN_POINT('',(-37.5,4.5,1.7));
#1311 = DIRECTION('',(0.,0.,-1.));
#1312 = DIRECTION('',(1.,0.,0.));
#1313 = PLANE('',#1314);
#1314 = AXIS2_PLACEMENT_3D('',#1315,#1316,#1317);
#1315 = CARTESIAN_POINT('',(-36.25069514143,-3.451911217905,1.7));
#1316 = DIRECTION('',(0.,0.,1.));
#1317 = DIRECTION('',(1.,0.,0.));
#1318 = ADVANCED_FACE('',(#1319),#1341,.T.);
#1319 = FACE_BOUND('',#1320,.T.);
#1320 = EDGE_LOOP('',(#1321,#1329,#1336,#1337,#1338,#1339,#1340));
#1321 = ORIENTED_EDGE('',*,*,#1322,.F.);
#1322 = EDGE_CURVE('',#1323,#648,#1325,.T.);
#1323 = VERTEX_POINT('',#1324);
#1324 = CARTESIAN_POINT('',(-30.6,0.,-1.8));
#1325 = LINE('',#1326,#1327);
#1326 = CARTESIAN_POINT('',(-30.6,0.,-2.));
#1327 = VECTOR('',#1328,1.);
#1328 = DIRECTION('',(0.,0.,1.));
#1329 = ORIENTED_EDGE('',*,*,#1330,.F.);
#1330 = EDGE_CURVE('',#1323,#1323,#1331,.T.);
#1331 = CIRCLE('',#1332,1.4);
#1332 = AXIS2_PLACEMENT_3D('',#1333,#1334,#1335);
#1333 = CARTESIAN_POINT('',(-32.,0.,-1.8));
#1334 = DIRECTION('',(0.,0.,-1.));
#1335 = DIRECTION('',(1.,0.,0.));
#1336 = ORIENTED_EDGE('',*,*,#1322,.T.);
#1337 = ORIENTED_EDGE('',*,*,#673,.F.);
#1338 = ORIENTED_EDGE('',*,*,#1204,.T.);
#1339 = ORIENTED_EDGE('',*,*,#624,.F.);
#1340 = ORIENTED_EDGE('',*,*,#647,.F.);
#1341 = CYLINDRICAL_SURFACE('',#1342,1.4);
#1342 = AXIS2_PLACEMENT_3D('',#1343,#1344,#1345);
#1343 = CARTESIAN_POINT('',(-32.,0.,-2.));
#1344 = DIRECTION('',(0.,0.,-1.));
#1345 = DIRECTION('',(1.,0.,0.));
#1346 = ADVANCED_FACE('',(#1347),#1358,.T.);
#1347 = FACE_BOUND('',#1348,.F.);
#1348 = EDGE_LOOP('',(#1349,#1350,#1351,#1357));
#1349 = ORIENTED_EDGE('',*,*,#657,.T.);
#1350 = ORIENTED_EDGE('',*,*,#1197,.T.);
#1351 = ORIENTED_EDGE('',*,*,#1352,.T.);
#1352 = EDGE_CURVE('',#1189,#723,#1353,.T.);
#1353 = LINE('',#1354,#1355);
#1354 = CARTESIAN_POINT('',(-28.23783221455,-15.61029970737,0.2));
#1355 = VECTOR('',#1356,1.);
#1356 = DIRECTION('',(0.707106781187,0.,0.707106781187));
#1357 = ORIENTED_EDGE('',*,*,#722,.F.);
#1358 = PLANE('',#1359);
#1359 = AXIS2_PLACEMENT_3D('',#1360,#1361,#1362);
#1360 = CARTESIAN_POINT('',(-28.23783221455,-3.698882036181,0.2));
#1361 = DIRECTION('',(0.707106781187,1.E-17,-0.707106781187));
#1362 = DIRECTION('',(-7.071067811865E-18,1.,7.071067811865E-18));
#1363 = ADVANCED_FACE('',(#1364),#1382,.T.);
#1364 = FACE_BOUND('',#1365,.T.);
#1365 = EDGE_LOOP('',(#1366,#1367,#1375,#1381));
#1366 = ORIENTED_EDGE('',*,*,#1299,.F.);
#1367 = ORIENTED_EDGE('',*,*,#1368,.T.);
#1368 = EDGE_CURVE('',#1300,#1369,#1371,.T.);
#1369 = VERTEX_POINT('',#1370);
#1370 = CARTESIAN_POINT('',(-37.5,5.,8.3));
#1371 = LINE('',#1372,#1373);
#1372 = CARTESIAN_POINT('',(-37.5,5.,0.));
#1373 = VECTOR('',#1374,1.);
#1374 = DIRECTION('',(0.,0.,1.));
#1375 = ORIENTED_EDGE('',*,*,#1376,.T.);
#1376 = EDGE_CURVE('',#1369,#691,#1377,.T.);
#1377 = LINE('',#1378,#1379);
#1378 = CARTESIAN_POINT('',(-38.,5.,8.3));
#1379 = VECTOR('',#1380,1.);
#1380 = DIRECTION('',(1.,0.,0.));
#1381 = ORIENTED_EDGE('',*,*,#688,.F.);
#1382 = PLANE('',#1383);
#1383 = AXIS2_PLACEMENT_3D('',#1384,#1385,#1386);
#1384 = CARTESIAN_POINT('',(-37.5,5.,0.));
#1385 = DIRECTION('',(0.,1.,0.));
#1386 = DIRECTION('',(1.,0.,0.));
#1387 = ADVANCED_FACE('',(#1388),#1428,.F.);
#1388 = FACE_BOUND('',#1389,.T.);
#1389 = EDGE_LOOP('',(#1390,#1400,#1409,#1416,#1417,#1418,#1419,#1420,
    #1421));
#1390 = ORIENTED_EDGE('',*,*,#1391,.F.);
#1391 = EDGE_CURVE('',#1392,#1394,#1396,.T.);
#1392 = VERTEX_POINT('',#1393);
#1393 = CARTESIAN_POINT('',(-38.,-4.5,8.3));
#1394 = VERTEX_POINT('',#1395);
#1395 = CARTESIAN_POINT('',(-38.,4.5,8.3));
#1396 = LINE('',#1397,#1398);
#1397 = CARTESIAN_POINT('',(-38.,-5.2,8.3));
#1398 = VECTOR('',#1399,1.);
#1399 = DIRECTION('',(0.,1.,0.));
#1400 = ORIENTED_EDGE('',*,*,#1401,.F.);
#1401 = EDGE_CURVE('',#1402,#1392,#1404,.T.);
#1402 = VERTEX_POINT('',#1403);
#1403 = CARTESIAN_POINT('',(-37.67250689863,-4.969298806651,8.3));
#1404 = CIRCLE('',#1405,0.5);
#1405 = AXIS2_PLACEMENT_3D('',#1406,#1407,#1408);
#1406 = CARTESIAN_POINT('',(-37.5,-4.5,8.3));
#1407 = DIRECTION('',(0.,0.,-1.));
#1408 = DIRECTION('',(1.,0.,0.));
#1409 = ORIENTED_EDGE('',*,*,#1410,.T.);
#1410 = EDGE_CURVE('',#1402,#1002,#1411,.T.);
#1411 = CIRCLE('',#1412,0.949217405113);
#1412 = AXIS2_PLACEMENT_3D('',#1413,#1414,#1415);
#1413 = CARTESIAN_POINT('',(-38.,-5.860231997595,8.3));
#1414 = DIRECTION('',(0.,0.,-1.));
#1415 = DIRECTION('',(1.,0.,0.));
#1416 = ORIENTED_EDGE('',*,*,#1009,.F.);
#1417 = ORIENTED_EDGE('',*,*,#1119,.T.);
#1418 = ORIENTED_EDGE('',*,*,#785,.T.);
#1419 = ORIENTED_EDGE('',*,*,#706,.F.);
#1420 = ORIENTED_EDGE('',*,*,#1376,.F.);
#1421 = ORIENTED_EDGE('',*,*,#1422,.F.);
#1422 = EDGE_CURVE('',#1394,#1369,#1423,.T.);
#1423 = CIRCLE('',#1424,0.5);
#1424 = AXIS2_PLACEMENT_3D('',#1425,#1426,#1427);
#1425 = CARTESIAN_POINT('',(-37.5,4.5,8.3));
#1426 = DIRECTION('',(0.,0.,-1.));
#1427 = DIRECTION('',(1.,0.,0.));
#1428 = PLANE('',#1429);
#1429 = AXIS2_PLACEMENT_3D('',#1430,#1431,#1432);
#1430 = CARTESIAN_POINT('',(-36.25069514143,-3.451911217905,8.3));
#1431 = DIRECTION('',(-0.,-0.,-1.));
#1432 = DIRECTION('',(-1.,-0.,-0.));
#1433 = ADVANCED_FACE('',(#1434),#1452,.F.);
#1434 = FACE_BOUND('',#1435,.T.);
#1435 = EDGE_LOOP('',(#1436,#1437,#1444,#1445));
#1436 = ORIENTED_EDGE('',*,*,#868,.F.);
#1437 = ORIENTED_EDGE('',*,*,#1438,.F.);
#1438 = EDGE_CURVE('',#723,#861,#1439,.T.);
#1439 = CIRCLE('',#1440,1.);
#1440 = AXIS2_PLACEMENT_3D('',#1441,#1442,#1443);
#1441 = CARTESIAN_POINT('',(-27.03783221455,-15.61029970737,0.4));
#1442 = DIRECTION('',(0.,0.,1.));
#1443 = DIRECTION('',(-1.,0.,0.));
#1444 = ORIENTED_EDGE('',*,*,#730,.T.);
#1445 = ORIENTED_EDGE('',*,*,#1446,.F.);
#1446 = EDGE_CURVE('',#869,#731,#1447,.T.);
#1447 = CIRCLE('',#1448,1.);
#1448 = AXIS2_PLACEMENT_3D('',#1449,#1450,#1451);
#1449 = CARTESIAN_POINT('',(-27.03783221455,-15.61029970737,2.2));
#1450 = DIRECTION('',(0.,0.,-1.));
#1451 = DIRECTION('',(1.,0.,0.));
#1452 = CYLINDRICAL_SURFACE('',#1453,1.);
#1453 = AXIS2_PLACEMENT_3D('',#1454,#1455,#1456);
#1454 = CARTESIAN_POINT('',(-27.03783221455,-15.61029970737,0.));
#1455 = DIRECTION('',(-0.,-0.,-1.));
#1456 = DIRECTION('',(1.,0.,0.));
#1457 = ADVANCED_FACE('',(#1458),#1492,.T.);
#1458 = FACE_BOUND('',#1459,.T.);
#1459 = EDGE_LOOP('',(#1460,#1461,#1469,#1477,#1483,#1484,#1485,#1486));
#1460 = ORIENTED_EDGE('',*,*,#1054,.F.);
#1461 = ORIENTED_EDGE('',*,*,#1462,.T.);
#1462 = EDGE_CURVE('',#1055,#1463,#1465,.T.);
#1463 = VERTEX_POINT('',#1464);
#1464 = CARTESIAN_POINT('',(-21.29224503691,-16.73868047647,2.2));
#1465 = LINE('',#1466,#1467);
#1466 = CARTESIAN_POINT('',(-30.5587168574,-22.08868047647,2.2));
#1467 = VECTOR('',#1468,1.);
#1468 = DIRECTION('',(0.866025403784,0.5,0.));
#1469 = ORIENTED_EDGE('',*,*,#1470,.T.);
#1470 = EDGE_CURVE('',#1463,#1471,#1473,.T.);
#1471 = VERTEX_POINT('',#1472);
#1472 = CARTESIAN_POINT('',(-21.01750409324,-17.21454574983,2.2));
#1473 = LINE('',#1474,#1475);
#1474 = CARTESIAN_POINT('',(-22.18376438662,-15.19452366683,2.2));
#1475 = VECTOR('',#1476,1.);
#1476 = DIRECTION('',(0.5,-0.866025403784,1.7E-16));
#1477 = ORIENTED_EDGE('',*,*,#1478,.F.);
#1478 = EDGE_CURVE('',#877,#1471,#1479,.T.);
#1479 = LINE('',#1480,#1481);
#1480 = CARTESIAN_POINT('',(-19.99252375978,-16.57406695314,2.2));
#1481 = VECTOR('',#1482,1.);
#1482 = DIRECTION('',(-0.848048096156,-0.529919264233,1.1E-16));
#1483 = ORIENTED_EDGE('',*,*,#876,.T.);
#1484 = ORIENTED_EDGE('',*,*,#1446,.T.);
#1485 = ORIENTED_EDGE('',*,*,#738,.F.);
#1486 = ORIENTED_EDGE('',*,*,#1487,.F.);
#1487 = EDGE_CURVE('',#1047,#739,#1488,.T.);
#1488 = LINE('',#1489,#1490);
#1489 = CARTESIAN_POINT('',(-35.1087168574,-14.20784930203,2.2));
#1490 = VECTOR('',#1491,1.);
#1491 = DIRECTION('',(0.866025403784,0.5,0.));
#1492 = PLANE('',#1493);
#1493 = AXIS2_PLACEMENT_3D('',#1494,#1495,#1496);
#1494 = CARTESIAN_POINT('',(-28.07420965267,-16.29454604042,2.2));
#1495 = DIRECTION('',(0.,0.,1.));
#1496 = DIRECTION('',(1.,0.,0.));
#1497 = ADVANCED_FACE('',(#1498),#1532,.T.);
#1498 = FACE_BOUND('',#1499,.T.);
#1499 = EDGE_LOOP('',(#1500,#1501,#1507,#1508,#1509,#1510,#1518,#1526));
#1500 = ORIENTED_EDGE('',*,*,#1035,.T.);
#1501 = ORIENTED_EDGE('',*,*,#1502,.T.);
#1502 = EDGE_CURVE('',#1038,#747,#1503,.T.);
#1503 = LINE('',#1504,#1505);
#1504 = CARTESIAN_POINT('',(-35.1087168574,-14.20784930203,7.8));
#1505 = VECTOR('',#1506,1.);
#1506 = DIRECTION('',(0.866025403784,0.5,0.));
#1507 = ORIENTED_EDGE('',*,*,#754,.F.);
#1508 = ORIENTED_EDGE('',*,*,#835,.F.);
#1509 = ORIENTED_EDGE('',*,*,#892,.T.);
#1510 = ORIENTED_EDGE('',*,*,#1511,.T.);
#1511 = EDGE_CURVE('',#885,#1512,#1514,.T.);
#1512 = VERTEX_POINT('',#1513);
#1513 = CARTESIAN_POINT('',(-21.01750409324,-17.21454574983,7.8));
#1514 = LINE('',#1515,#1516);
#1515 = CARTESIAN_POINT('',(-19.99252375978,-16.57406695314,7.8));
#1516 = VECTOR('',#1517,1.);
#1517 = DIRECTION('',(-0.848048096156,-0.529919264233,1.1E-16));
#1518 = ORIENTED_EDGE('',*,*,#1519,.T.);
#1519 = EDGE_CURVE('',#1512,#1520,#1522,.T.);
#1520 = VERTEX_POINT('',#1521);
#1521 = CARTESIAN_POINT('',(-21.29224503691,-16.73868047647,7.8));
#1522 = LINE('',#1523,#1524);
#1523 = CARTESIAN_POINT('',(-24.61530287683,-10.98297546124,7.8));
#1524 = VECTOR('',#1525,1.);
#1525 = DIRECTION('',(-0.5,0.866025403784,-1.7E-16));
#1526 = ORIENTED_EDGE('',*,*,#1527,.F.);
#1527 = EDGE_CURVE('',#1036,#1520,#1528,.T.);
#1528 = LINE('',#1529,#1530);
#1529 = CARTESIAN_POINT('',(-30.5587168574,-22.08868047647,7.8));
#1530 = VECTOR('',#1531,1.);
#1531 = DIRECTION('',(0.866025403784,0.5,0.));
#1532 = PLANE('',#1533);
#1533 = AXIS2_PLACEMENT_3D('',#1534,#1535,#1536);
#1534 = CARTESIAN_POINT('',(-28.07420965267,-16.29454604042,7.8));
#1535 = DIRECTION('',(-0.,-0.,-1.));
#1536 = DIRECTION('',(-1.,0.,0.));
#1537 = ADVANCED_FACE('',(#1538),#1544,.F.);
#1538 = FACE_BOUND('',#1539,.F.);
#1539 = EDGE_LOOP('',(#1540,#1541,#1542,#1543));
#1540 = ORIENTED_EDGE('',*,*,#1046,.F.);
#1541 = ORIENTED_EDGE('',*,*,#1502,.T.);
#1542 = ORIENTED_EDGE('',*,*,#746,.T.);
#1543 = ORIENTED_EDGE('',*,*,#1487,.F.);
#1544 = PLANE('',#1545);
#1545 = AXIS2_PLACEMENT_3D('',#1546,#1547,#1548);
#1546 = CARTESIAN_POINT('',(-35.1087168574,-14.20784930203,7.8));
#1547 = DIRECTION('',(-0.5,0.866025403784,0.));
#1548 = DIRECTION('',(0.,0.,-1.));
#1549 = ADVANCED_FACE('',(#1550,#1566),#1569,.F.);
#1550 = FACE_BOUND('',#1551,.F.);
#1551 = EDGE_LOOP('',(#1552,#1558,#1559,#1565));
#1552 = ORIENTED_EDGE('',*,*,#1553,.F.);
#1553 = EDGE_CURVE('',#1270,#1392,#1554,.T.);
#1554 = LINE('',#1555,#1556);
#1555 = CARTESIAN_POINT('',(-38.,-4.5,0.));
#1556 = VECTOR('',#1557,1.);
#1557 = DIRECTION('',(0.,0.,1.));
#1558 = ORIENTED_EDGE('',*,*,#1269,.T.);
#1559 = ORIENTED_EDGE('',*,*,#1560,.T.);
#1560 = EDGE_CURVE('',#1272,#1394,#1561,.T.);
#1561 = LINE('',#1562,#1563);
#1562 = CARTESIAN_POINT('',(-38.,4.5,0.));
#1563 = VECTOR('',#1564,1.);
#1564 = DIRECTION('',(0.,0.,1.));
#1565 = ORIENTED_EDGE('',*,*,#1391,.F.);
#1566 = FACE_BOUND('',#1567,.F.);
#1567 = EDGE_LOOP('',(#1568));
#1568 = ORIENTED_EDGE('',*,*,#802,.T.);
#1569 = PLANE('',#1570);
#1570 = AXIS2_PLACEMENT_3D('',#1571,#1572,#1573);
#1571 = CARTESIAN_POINT('',(-38.,4.5,0.));
#1572 = DIRECTION('',(1.,0.,0.));
#1573 = DIRECTION('',(0.,-1.,0.));
#1574 = ADVANCED_FACE('',(#1575),#1591,.F.);
#1575 = FACE_BOUND('',#1576,.F.);
#1576 = EDGE_LOOP('',(#1577,#1583,#1584,#1590));
#1577 = ORIENTED_EDGE('',*,*,#1578,.F.);
#1578 = EDGE_CURVE('',#1181,#861,#1579,.T.);
#1579 = LINE('',#1580,#1581);
#1580 = CARTESIAN_POINT('',(-27.03783221455,-16.61029970737,0.4));
#1581 = VECTOR('',#1582,1.);
#1582 = DIRECTION('',(-1.21E-15,0.707106781187,0.707106781187));
#1583 = ORIENTED_EDGE('',*,*,#1180,.T.);
#1584 = ORIENTED_EDGE('',*,*,#1585,.T.);
#1585 = EDGE_CURVE('',#1173,#853,#1586,.T.);
#1586 = LINE('',#1587,#1588);
#1587 = CARTESIAN_POINT('',(-20.63507951543,-17.81034594794,
    -0.800046240571));
#1588 = VECTOR('',#1589,1.);
#1589 = DIRECTION('',(0.364925188259,0.65834246672,0.65834246672));
#1590 = ORIENTED_EDGE('',*,*,#860,.F.);
#1591 = PLANE('',#1592);
#1592 = AXIS2_PLACEMENT_3D('',#1593,#1594,#1595);
#1593 = CARTESIAN_POINT('',(-27.03783221455,-16.81029970737,0.2));
#1594 = DIRECTION('',(-2.5E-16,-0.707106781187,0.707106781187));
#1595 = DIRECTION('',(1.,-4.267766952966E-16,-7.322330470336E-17));
#1596 = ADVANCED_FACE('',(#1597),#1624,.F.);
#1597 = FACE_BOUND('',#1598,.F.);
#1598 = EDGE_LOOP('',(#1599,#1600,#1601,#1609,#1617,#1623));
#1599 = ORIENTED_EDGE('',*,*,#884,.F.);
#1600 = ORIENTED_EDGE('',*,*,#1511,.T.);
#1601 = ORIENTED_EDGE('',*,*,#1602,.F.);
#1602 = EDGE_CURVE('',#1603,#1512,#1605,.T.);
#1603 = VERTEX_POINT('',#1604);
#1604 = CARTESIAN_POINT('',(-21.01750409324,-17.21454574983,
    7.687660535809));
#1605 = LINE('',#1606,#1607);
#1606 = CARTESIAN_POINT('',(-21.01750409324,-17.21454574983,6.4));
#1607 = VECTOR('',#1608,1.);
#1608 = DIRECTION('',(-8.E-17,1.4E-16,1.));
#1609 = ORIENTED_EDGE('',*,*,#1610,.F.);
#1610 = EDGE_CURVE('',#1611,#1603,#1613,.T.);
#1611 = VERTEX_POINT('',#1612);
#1612 = CARTESIAN_POINT('',(-21.01750409324,-17.21454574983,
    2.312339464191));
#1613 = LINE('',#1614,#1615);
#1614 = CARTESIAN_POINT('',(-21.01750409324,-17.21454574983,6.4));
#1615 = VECTOR('',#1616,1.);
#1616 = DIRECTION('',(-8.E-17,1.4E-16,1.));
#1617 = ORIENTED_EDGE('',*,*,#1618,.F.);
#1618 = EDGE_CURVE('',#1471,#1611,#1619,.T.);
#1619 = LINE('',#1620,#1621);
#1620 = CARTESIAN_POINT('',(-21.01750409324,-17.21454574983,6.4));
#1621 = VECTOR('',#1622,1.);
#1622 = DIRECTION('',(-8.E-17,1.4E-16,1.));
#1623 = ORIENTED_EDGE('',*,*,#1478,.F.);
#1624 = PLANE('',#1625);
#1625 = AXIS2_PLACEMENT_3D('',#1626,#1627,#1628);
#1626 = CARTESIAN_POINT('',(-19.99252375978,-16.57406695314,7.8));
#1627 = DIRECTION('',(0.529919264233,-0.848048096156,1.7E-16));
#1628 = DIRECTION('',(-6.984985444217E-18,-2.048250318992E-16,-1.));
#1629 = ADVANCED_FACE('',(#1630),#1641,.F.);
#1630 = FACE_BOUND('',#1631,.T.);
#1631 = EDGE_LOOP('',(#1632,#1638,#1639,#1640));
#1632 = ORIENTED_EDGE('',*,*,#1633,.F.);
#1633 = EDGE_CURVE('',#1164,#911,#1634,.T.);
#1634 = LINE('',#1635,#1636);
#1635 = CARTESIAN_POINT('',(-19.18614912486,-17.86453612474,0.4));
#1636 = VECTOR('',#1637,1.);
#1637 = DIRECTION('',(0.599660559565,0.374709505221,0.707106781187));
#1638 = ORIENTED_EDGE('',*,*,#1172,.T.);
#1639 = ORIENTED_EDGE('',*,*,#1585,.T.);
#1640 = ORIENTED_EDGE('',*,*,#918,.F.);
#1641 = PLANE('',#1642);
#1642 = AXIS2_PLACEMENT_3D('',#1643,#1644,#1645);
#1643 = CARTESIAN_POINT('',(-19.35575874409,-17.97051997758,0.2));
#1644 = DIRECTION('',(-0.599660559565,-0.374709505221,0.707106781187));
#1645 = DIRECTION('',(0.529919264233,-0.848048096156,2.775557561563E-17)
  );
#1646 = ADVANCED_FACE('',(#1647),#1658,.T.);
#1647 = FACE_BOUND('',#1648,.T.);
#1648 = EDGE_LOOP('',(#1649,#1655,#1656,#1657));
#1649 = ORIENTED_EDGE('',*,*,#1650,.F.);
#1650 = EDGE_CURVE('',#1155,#933,#1651,.T.);
#1651 = LINE('',#1652,#1653);
#1652 = CARTESIAN_POINT('',(-19.90348378021,-25.05696177533,0.4));
#1653 = VECTOR('',#1654,1.);
#1654 = DIRECTION('',(0.513841430992,-0.485764329481,0.707106781187));
#1655 = ORIENTED_EDGE('',*,*,#1163,.T.);
#1656 = ORIENTED_EDGE('',*,*,#1633,.T.);
#1657 = ORIENTED_EDGE('',*,*,#942,.F.);
#1658 = CONICAL_SURFACE('',#1659,5.910479488873,0.785398163397);
#1659 = AXIS2_PLACEMENT_3D('',#1660,#1661,#1662);
#1660 = CARTESIAN_POINT('',(-24.19852000277,-20.99661306675,0.4));
#1661 = DIRECTION('',(0.,0.,1.));
#1662 = DIRECTION('',(0.726681520618,-0.686974502869,0.));
#1663 = ADVANCED_FACE('',(#1664),#1675,.T.);
#1664 = FACE_BOUND('',#1665,.T.);
#1665 = EDGE_LOOP('',(#1666,#1672,#1673,#1674));
#1666 = ORIENTED_EDGE('',*,*,#1667,.F.);
#1667 = EDGE_CURVE('',#1146,#958,#1668,.T.);
#1668 = LINE('',#1669,#1670);
#1669 = CARTESIAN_POINT('',(-28.0080845433,-24.93586172995,0.4));
#1670 = VECTOR('',#1671,1.);
#1671 = DIRECTION('',(-0.528125506896,-0.470195117973,0.707106781187));
#1672 = ORIENTED_EDGE('',*,*,#1154,.T.);
#1673 = ORIENTED_EDGE('',*,*,#1650,.T.);
#1674 = ORIENTED_EDGE('',*,*,#967,.F.);
#1675 = CONICAL_SURFACE('',#1676,5.5,0.785398163397);
#1676 = AXIS2_PLACEMENT_3D('',#1677,#1678,#1679);
#1677 = CARTESIAN_POINT('',(-23.90023214361,-21.27860200955,0.4));
#1678 = DIRECTION('',(0.,0.,1.));
#1679 = DIRECTION('',(-0.746882254488,-0.664956312799,0.));
#1680 = ADVANCED_FACE('',(#1681),#1693,.T.);
#1681 = FACE_BOUND('',#1682,.T.);
#1682 = EDGE_LOOP('',(#1683,#1690,#1691,#1692));
#1683 = ORIENTED_EDGE('',*,*,#1684,.T.);
#1684 = EDGE_CURVE('',#983,#1136,#1685,.T.);
#1685 = PARABOLA('',#1686,0.883883476483);
#1686 = AXIS2_PLACEMENT_3D('',#1687,#1688,#1689);
#1687 = CARTESIAN_POINT('',(1.25,-1.76E-15,-35.85));
#1688 = DIRECTION('',(-0.707106781187,-1.E-17,-0.707106781187));
#1689 = DIRECTION('',(-0.707106781187,-1.E-17,0.707106781187));
#1690 = ORIENTED_EDGE('',*,*,#1145,.T.);
#1691 = ORIENTED_EDGE('',*,*,#1667,.T.);
#1692 = ORIENTED_EDGE('',*,*,#1026,.F.);
#1693 = CONICAL_SURFACE('',#1694,37.5,0.785398163397);
#1694 = AXIS2_PLACEMENT_3D('',#1695,#1696,#1697);
#1695 = CARTESIAN_POINT('',(-7.11E-15,-1.78E-15,0.4));
#1696 = DIRECTION('',(0.,0.,1.));
#1697 = DIRECTION('',(-0.933333333333,-0.359010987142,0.));
#1698 = ADVANCED_FACE('',(#1699),#1710,.F.);
#1699 = FACE_BOUND('',#1700,.T.);
#1700 = EDGE_LOOP('',(#1701,#1707,#1708,#1709));
#1701 = ORIENTED_EDGE('',*,*,#1702,.F.);
#1702 = EDGE_CURVE('',#1280,#1402,#1703,.T.);
#1703 = LINE('',#1704,#1705);
#1704 = CARTESIAN_POINT('',(-37.67250689863,-4.969298806651,0.));
#1705 = VECTOR('',#1706,1.);
#1706 = DIRECTION('',(0.,0.,1.));
#1707 = ORIENTED_EDGE('',*,*,#1288,.T.);
#1708 = ORIENTED_EDGE('',*,*,#1001,.T.);
#1709 = ORIENTED_EDGE('',*,*,#1410,.F.);
#1710 = CYLINDRICAL_SURFACE('',#1711,0.949217405113);
#1711 = AXIS2_PLACEMENT_3D('',#1712,#1713,#1714);
#1712 = CARTESIAN_POINT('',(-38.,-5.860231997595,0.));
#1713 = DIRECTION('',(-0.,-0.,-1.));
#1714 = DIRECTION('',(1.,0.,0.));
#1715 = ADVANCED_FACE('',(#1716),#1742,.F.);
#1716 = FACE_BOUND('',#1717,.F.);
#1717 = EDGE_LOOP('',(#1718,#1719,#1727,#1734,#1741));
#1718 = ORIENTED_EDGE('',*,*,#1090,.F.);
#1719 = ORIENTED_EDGE('',*,*,#1720,.T.);
#1720 = EDGE_CURVE('',#1083,#1721,#1723,.T.);
#1721 = VERTEX_POINT('',#1722);
#1722 = CARTESIAN_POINT('',(-20.59224503691,-17.95111604177,6.4));
#1723 = LINE('',#1724,#1725);
#1724 = CARTESIAN_POINT('',(-29.8587168574,-23.30111604177,6.4));
#1725 = VECTOR('',#1726,1.);
#1726 = DIRECTION('',(0.866025403784,0.5,0.));
#1727 = ORIENTED_EDGE('',*,*,#1728,.T.);
#1728 = EDGE_CURVE('',#1721,#1603,#1729,.T.);
#1729 = CIRCLE('',#1730,1.4);
#1730 = AXIS2_PLACEMENT_3D('',#1731,#1732,#1733);
#1731 = CARTESIAN_POINT('',(-21.29224503691,-16.73868047647,6.4));
#1732 = DIRECTION('',(-0.866025403784,-0.5,0.));
#1733 = DIRECTION('',(0.5,-0.866025403784,0.));
#1734 = ORIENTED_EDGE('',*,*,#1735,.T.);
#1735 = EDGE_CURVE('',#1603,#1520,#1736,.T.);
#1736 = CIRCLE('',#1737,1.4);
#1737 = AXIS2_PLACEMENT_3D('',#1738,#1739,#1740);
#1738 = CARTESIAN_POINT('',(-21.29224503691,-16.73868047647,6.4));
#1739 = DIRECTION('',(-0.866025403784,-0.5,0.));
#1740 = DIRECTION('',(0.5,-0.866025403784,0.));
#1741 = ORIENTED_EDGE('',*,*,#1527,.F.);
#1742 = CYLINDRICAL_SURFACE('',#1743,1.4);
#1743 = AXIS2_PLACEMENT_3D('',#1744,#1745,#1746);
#1744 = CARTESIAN_POINT('',(-30.5587168574,-22.08868047647,6.4));
#1745 = DIRECTION('',(-0.866025403784,-0.5,0.));
#1746 = DIRECTION('',(0.5,-0.866025403784,0.));
#1747 = ADVANCED_FACE('',(#1748),#1766,.F.);
#1748 = FACE_BOUND('',#1749,.F.);
#1749 = EDGE_LOOP('',(#1750,#1751,#1759,#1765));
#1750 = ORIENTED_EDGE('',*,*,#1082,.T.);
#1751 = ORIENTED_EDGE('',*,*,#1752,.T.);
#1752 = EDGE_CURVE('',#1064,#1753,#1755,.T.);
#1753 = VERTEX_POINT('',#1754);
#1754 = CARTESIAN_POINT('',(-20.59224503691,-17.95111604177,3.6));
#1755 = LINE('',#1756,#1757);
#1756 = CARTESIAN_POINT('',(-29.8587168574,-23.30111604177,3.6));
#1757 = VECTOR('',#1758,1.);
#1758 = DIRECTION('',(0.866025403784,0.5,0.));
#1759 = ORIENTED_EDGE('',*,*,#1760,.T.);
#1760 = EDGE_CURVE('',#1753,#1721,#1761,.T.);
#1761 = LINE('',#1762,#1763);
#1762 = CARTESIAN_POINT('',(-20.59224503691,-17.95111604177,3.6));
#1763 = VECTOR('',#1764,1.);
#1764 = DIRECTION('',(0.,0.,1.));
#1765 = ORIENTED_EDGE('',*,*,#1720,.F.);
#1766 = PLANE('',#1767);
#1767 = AXIS2_PLACEMENT_3D('',#1768,#1769,#1770);
#1768 = CARTESIAN_POINT('',(-29.8587168574,-23.30111604177,3.6));
#1769 = DIRECTION('',(0.5,-0.866025403784,0.));
#1770 = DIRECTION('',(0.,0.,1.));
#1771 = ADVANCED_FACE('',(#1772),#1791,.F.);
#1772 = FACE_BOUND('',#1773,.F.);
#1773 = EDGE_LOOP('',(#1774,#1775,#1776,#1783,#1790));
#1774 = ORIENTED_EDGE('',*,*,#1063,.F.);
#1775 = ORIENTED_EDGE('',*,*,#1462,.T.);
#1776 = ORIENTED_EDGE('',*,*,#1777,.T.);
#1777 = EDGE_CURVE('',#1463,#1611,#1778,.T.);
#1778 = CIRCLE('',#1779,1.4);
#1779 = AXIS2_PLACEMENT_3D('',#1780,#1781,#1782);
#1780 = CARTESIAN_POINT('',(-21.29224503691,-16.73868047647,3.6));
#1781 = DIRECTION('',(-0.866025403784,-0.5,0.));
#1782 = DIRECTION('',(0.5,-0.866025403784,0.));
#1783 = ORIENTED_EDGE('',*,*,#1784,.T.);
#1784 = EDGE_CURVE('',#1611,#1753,#1785,.T.);
#1785 = CIRCLE('',#1786,1.4);
#1786 = AXIS2_PLACEMENT_3D('',#1787,#1788,#1789);
#1787 = CARTESIAN_POINT('',(-21.29224503691,-16.73868047647,3.6));
#1788 = DIRECTION('',(-0.866025403784,-0.5,0.));
#1789 = DIRECTION('',(0.5,-0.866025403784,0.));
#1790 = ORIENTED_EDGE('',*,*,#1752,.F.);
#1791 = CYLINDRICAL_SURFACE('',#1792,1.4);
#1792 = AXIS2_PLACEMENT_3D('',#1793,#1794,#1795);
#1793 = CARTESIAN_POINT('',(-30.5587168574,-22.08868047647,3.6));
#1794 = DIRECTION('',(-0.866025403784,-0.5,0.));
#1795 = DIRECTION('',(0.5,-0.866025403784,0.));
#1796 = ADVANCED_FACE('',(#1797),#1803,.T.);
#1797 = FACE_BOUND('',#1798,.T.);
#1798 = EDGE_LOOP('',(#1799,#1800,#1801,#1802));
#1799 = ORIENTED_EDGE('',*,*,#1684,.F.);
#1800 = ORIENTED_EDGE('',*,*,#1238,.T.);
#1801 = ORIENTED_EDGE('',*,*,#1252,.T.);
#1802 = ORIENTED_EDGE('',*,*,#1135,.F.);
#1803 = PLANE('',#1804);
#1804 = AXIS2_PLACEMENT_3D('',#1805,#1806,#1807);
#1805 = CARTESIAN_POINT('',(-34.8,-13.46291201783,0.2));
#1806 = DIRECTION('',(-0.707106781187,-1.E-17,-0.707106781187));
#1807 = DIRECTION('',(-7.071067811865E-18,1.,-7.071067811865E-18));
#1808 = ADVANCED_FACE('',(#1809),#1815,.F.);
#1809 = FACE_BOUND('',#1810,.F.);
#1810 = EDGE_LOOP('',(#1811,#1812,#1813,#1814));
#1811 = ORIENTED_EDGE('',*,*,#1352,.F.);
#1812 = ORIENTED_EDGE('',*,*,#1188,.T.);
#1813 = ORIENTED_EDGE('',*,*,#1578,.T.);
#1814 = ORIENTED_EDGE('',*,*,#1438,.F.);
#1815 = CONICAL_SURFACE('',#1816,1.,0.785398163397);
#1816 = AXIS2_PLACEMENT_3D('',#1817,#1818,#1819);
#1817 = CARTESIAN_POINT('',(-27.03783221455,-15.61029970737,0.4));
#1818 = DIRECTION('',(-0.,-0.,-1.));
#1819 = DIRECTION('',(-1.,0.,0.));
#1820 = ADVANCED_FACE('',(#1821),#1827,.T.);
#1821 = FACE_BOUND('',#1822,.F.);
#1822 = EDGE_LOOP('',(#1823,#1824,#1825,#1826));
#1823 = ORIENTED_EDGE('',*,*,#1560,.F.);
#1824 = ORIENTED_EDGE('',*,*,#1307,.T.);
#1825 = ORIENTED_EDGE('',*,*,#1368,.T.);
#1826 = ORIENTED_EDGE('',*,*,#1422,.F.);
#1827 = CYLINDRICAL_SURFACE('',#1828,0.5);
#1828 = AXIS2_PLACEMENT_3D('',#1829,#1830,#1831);
#1829 = CARTESIAN_POINT('',(-37.5,4.5,0.));
#1830 = DIRECTION('',(-0.,-0.,-1.));
#1831 = DIRECTION('',(1.,0.,0.));
#1832 = ADVANCED_FACE('',(#1833),#1839,.T.);
#1833 = FACE_BOUND('',#1834,.F.);
#1834 = EDGE_LOOP('',(#1835,#1836,#1837,#1838));
#1835 = ORIENTED_EDGE('',*,*,#1702,.F.);
#1836 = ORIENTED_EDGE('',*,*,#1279,.T.);
#1837 = ORIENTED_EDGE('',*,*,#1553,.T.);
#1838 = ORIENTED_EDGE('',*,*,#1401,.F.);
#1839 = CYLINDRICAL_SURFACE('',#1840,0.5);
#1840 = AXIS2_PLACEMENT_3D('',#1841,#1842,#1843);
#1841 = CARTESIAN_POINT('',(-37.5,-4.5,0.));
#1842 = DIRECTION('',(-0.,-0.,-1.));
#1843 = DIRECTION('',(1.,0.,0.));
#1844 = ADVANCED_FACE('',(#1845),#1864,.T.);
#1845 = FACE_BOUND('',#1846,.T.);
#1846 = EDGE_LOOP('',(#1847,#1855,#1856,#1857));
#1847 = ORIENTED_EDGE('',*,*,#1848,.F.);
#1848 = EDGE_CURVE('',#1323,#1849,#1851,.T.);
#1849 = VERTEX_POINT('',#1850);
#1850 = CARTESIAN_POINT('',(-30.8,0.,-2.));
#1851 = LINE('',#1852,#1853);
#1852 = CARTESIAN_POINT('',(-30.6,0.,-1.8));
#1853 = VECTOR('',#1854,1.);
#1854 = DIRECTION('',(-0.707106781187,0.,-0.707106781187));
#1855 = ORIENTED_EDGE('',*,*,#1330,.T.);
#1856 = ORIENTED_EDGE('',*,*,#1848,.T.);
#1857 = ORIENTED_EDGE('',*,*,#1858,.F.);
#1858 = EDGE_CURVE('',#1849,#1849,#1859,.T.);
#1859 = CIRCLE('',#1860,1.2);
#1860 = AXIS2_PLACEMENT_3D('',#1861,#1862,#1863);
#1861 = CARTESIAN_POINT('',(-32.,0.,-2.));
#1862 = DIRECTION('',(0.,0.,-1.));
#1863 = DIRECTION('',(1.,0.,0.));
#1864 = CONICAL_SURFACE('',#1865,1.4,0.785398163397);
#1865 = AXIS2_PLACEMENT_3D('',#1866,#1867,#1868);
#1866 = CARTESIAN_POINT('',(-32.,0.,-1.8));
#1867 = DIRECTION('',(0.,0.,1.));
#1868 = DIRECTION('',(1.,0.,0.));
#1869 = ADVANCED_FACE('',(#1870),#1875,.T.);
#1870 = FACE_BOUND('',#1871,.T.);
#1871 = EDGE_LOOP('',(#1872,#1873,#1874));
#1872 = ORIENTED_EDGE('',*,*,#1777,.T.);
#1873 = ORIENTED_EDGE('',*,*,#1618,.F.);
#1874 = ORIENTED_EDGE('',*,*,#1470,.F.);
#1875 = PLANE('',#1876);
#1876 = AXIS2_PLACEMENT_3D('',#1877,#1878,#1879);
#1877 = CARTESIAN_POINT('',(-23.32893430912,-13.21103117778,5.));
#1878 = DIRECTION('',(0.866025403784,0.5,0.));
#1879 = DIRECTION('',(-0.5,0.866025403784,0.));
#1880 = ADVANCED_FACE('',(#1881),#1886,.T.);
#1881 = FACE_BOUND('',#1882,.T.);
#1882 = EDGE_LOOP('',(#1883,#1884,#1885));
#1883 = ORIENTED_EDGE('',*,*,#1519,.F.);
#1884 = ORIENTED_EDGE('',*,*,#1602,.F.);
#1885 = ORIENTED_EDGE('',*,*,#1735,.T.);
#1886 = PLANE('',#1887);
#1887 = AXIS2_PLACEMENT_3D('',#1888,#1889,#1890);
#1888 = CARTESIAN_POINT('',(-23.32893430912,-13.21103117778,5.));
#1889 = DIRECTION('',(0.866025403784,0.5,0.));
#1890 = DIRECTION('',(-0.5,0.866025403784,0.));
#1891 = ADVANCED_FACE('',(#1892),#1898,.F.);
#1892 = FACE_BOUND('',#1893,.F.);
#1893 = EDGE_LOOP('',(#1894,#1895,#1896,#1897));
#1894 = ORIENTED_EDGE('',*,*,#1610,.T.);
#1895 = ORIENTED_EDGE('',*,*,#1728,.F.);
#1896 = ORIENTED_EDGE('',*,*,#1760,.F.);
#1897 = ORIENTED_EDGE('',*,*,#1784,.F.);
#1898 = PLANE('',#1899);
#1899 = AXIS2_PLACEMENT_3D('',#1900,#1901,#1902);
#1900 = CARTESIAN_POINT('',(-23.32893430912,-13.21103117778,5.));
#1901 = DIRECTION('',(0.866025403784,0.5,0.));
#1902 = DIRECTION('',(-0.5,0.866025403784,0.));
#1903 = ADVANCED_FACE('',(#1904),#1907,.F.);
#1904 = FACE_BOUND('',#1905,.F.);
#1905 = EDGE_LOOP('',(#1906));
#1906 = ORIENTED_EDGE('',*,*,#1858,.F.);
#1907 = PLANE('',#1908);
#1908 = AXIS2_PLACEMENT_3D('',#1909,#1910,#1911);
#1909 = CARTESIAN_POINT('',(-32.,-1.3E-16,-2.));
#1910 = DIRECTION('',(0.,0.,1.));
#1911 = DIRECTION('',(1.,0.,0.));
#1912 = ( GEOMETRIC_REPRESENTATION_CONTEXT(3) 
GLOBAL_UNCERTAINTY_ASSIGNED_CONTEXT((#1916)) 
GLOBAL_UNIT_ASSIGNED_CONTEXT((#1913,#1914,#1915)) REPRESENTATION_CONTEXT
('Context #1','3D Context with UNIT and UNCERTAINTY') );
#1913 = ( LENGTH_UNIT() NAMED_UNIT(*) SI_UNIT(.MILLI.,.METRE.) );
#1914 = ( NAMED_UNIT(*) PLANE_ANGLE_UNIT() SI_UNIT($,.RADIAN.) );
#1915 = ( NAMED_UNIT(*) SI_UNIT($,.STERADIAN.) SOLID_ANGLE_UNIT() );
#1916 = UNCERTAINTY_MEASURE_WITH_UNIT(LENGTH_MEASURE(2.E-06),#1913,
  'distance_accuracy_value','confusion accuracy');
#1917 = PRODUCT_RELATED_PRODUCT_CATEGORY('part',$,(#7));
ENDSEC;
END-ISO-10303-21;
