ISO-10303-21;
HEADER;
FILE_DESCRIPTION(('FreeCAD Model'),'2;1');
FILE_NAME('Open CASCADE Shape Model','2026-10-05T17:30:31',('Author'),(
    ''),'Open CASCADE STEP processor 7.6','FreeCAD','Unknown');
FILE_SCHEMA(('AUTOMOTIVE_DESIGN { 1 0 10303 214 1 1 1 1 }'));
ENDSEC;
DATA;
#1 = APPLICATION_PROTOCOL_DEFINITION('international standard',
  'automotive_design',2000,#2);
#2 = APPLICATION_CONTEXT(
  'core data for automotive mechanical design processes');
#3 = SHAPE_DEFINITION_REPRESENTATION(#4,#10);
#4 = PRODUCT_DEFINITION_SHAPE('','',#5);
#5 = PRODUCT_DEFINITION('design','',#6,#9);
#6 = PRODUCT_DEFINITION_FORMATION('','',#7);
#7 = PRODUCT('B_remote_label','B_remote_label','',(#8));
#8 = PRODUCT_CONTEXT('',#2,'mechanical');
#9 = PRODUCT_DEFINITION_CONTEXT('part definition',#2,'design');
#10 = ADVANCED_BREP_SHAPE_REPRESENTATION('',(#11,#15),#1257);
#11 = AXIS2_PLACEMENT_3D('',#12,#13,#14);
#12 = CARTESIAN_POINT('',(0.,0.,0.));
#13 = DIRECTION('',(0.,0.,1.));
#14 = DIRECTION('',(1.,0.,-0.));
#15 = MANIFOLD_SOLID_BREP('',#16);
#16 = CLOSED_SHELL('',(#17,#57,#90,#123,#412,#701,#718,#735,#752,#769,
    #786,#803,#820,#837,#854,#871,#888,#905,#922,#939,#956,#973,#990,
    #1007,#1024,#1041,#1058,#1075,#1092,#1109,#1126,#1143,#1160,#1177,
    #1194,#1211,#1228,#1245));
#17 = ADVANCED_FACE('',(#18),#52,.F.);
#18 = FACE_BOUND('',#19,.F.);
#19 = EDGE_LOOP('',(#20,#30,#38,#46));
#20 = ORIENTED_EDGE('',*,*,#21,.T.);
#21 = EDGE_CURVE('',#22,#24,#26,.T.);
#22 = VERTEX_POINT('',#23);
#23 = CARTESIAN_POINT('',(-9.007582264639,-2.487994410842,0.));
#24 = VERTEX_POINT('',#25);
#25 = CARTESIAN_POINT('',(-9.007582264639,-2.487994410842,84.));
#26 = LINE('',#27,#28);
#27 = CARTESIAN_POINT('',(-9.007582264639,-2.487994410842,0.));
#28 = VECTOR('',#29,1.);
#29 = DIRECTION('',(0.,0.,1.));
#30 = ORIENTED_EDGE('',*,*,#31,.T.);
#31 = EDGE_CURVE('',#24,#32,#34,.T.);
#32 = VERTEX_POINT('',#33);
#33 = CARTESIAN_POINT('',(-9.995715926691,-3.992518211225,84.));
#34 = LINE('',#35,#36);
#35 = CARTESIAN_POINT('',(-9.007582264639,-2.487994410842,84.));
#36 = VECTOR('',#37,1.);
#37 = DIRECTION('',(-0.548963145585,-0.835846555768,0.));
#38 = ORIENTED_EDGE('',*,*,#39,.F.);
#39 = EDGE_CURVE('',#40,#32,#42,.T.);
#40 = VERTEX_POINT('',#41);
#41 = CARTESIAN_POINT('',(-9.995715926691,-3.992518211225,0.));
#42 = LINE('',#43,#44);
#43 = CARTESIAN_POINT('',(-9.995715926691,-3.992518211225,0.));
#44 = VECTOR('',#45,1.);
#45 = DIRECTION('',(0.,0.,1.));
#46 = ORIENTED_EDGE('',*,*,#47,.F.);
#47 = EDGE_CURVE('',#22,#40,#48,.T.);
#48 = LINE('',#49,#50);
#49 = CARTESIAN_POINT('',(-9.007582264639,-2.487994410842,0.));
#50 = VECTOR('',#51,1.);
#51 = DIRECTION('',(-0.548963145585,-0.835846555768,0.));
#52 = PLANE('',#53);
#53 = AXIS2_PLACEMENT_3D('',#54,#55,#56);
#54 = CARTESIAN_POINT('',(-9.007582264639,-2.487994410842,0.));
#55 = DIRECTION('',(0.835846555768,-0.548963145585,0.));
#56 = DIRECTION('',(-0.548963145585,-0.835846555768,0.));
#57 = ADVANCED_FACE('',(#58),#85,.T.);
#58 = FACE_BOUND('',#59,.T.);
#59 = EDGE_LOOP('',(#60,#61,#70,#78));
#60 = ORIENTED_EDGE('',*,*,#21,.T.);
#61 = ORIENTED_EDGE('',*,*,#62,.T.);
#62 = EDGE_CURVE('',#24,#63,#65,.T.);
#63 = VERTEX_POINT('',#64);
#64 = CARTESIAN_POINT('',(-8.327847600824,-1.916475077197,84.));
#65 = CIRCLE('',#66,1.55);
#66 = AXIS2_PLACEMENT_3D('',#67,#68,#69);
#67 = CARTESIAN_POINT('',(-7.712020103198,-3.338887286498,84.));
#68 = DIRECTION('',(-0.,0.,-1.));
#69 = DIRECTION('',(-0.544998865383,-0.838436781595,0.));
#70 = ORIENTED_EDGE('',*,*,#71,.F.);
#71 = EDGE_CURVE('',#72,#63,#74,.T.);
#72 = VERTEX_POINT('',#73);
#73 = CARTESIAN_POINT('',(-8.327847600824,-1.916475077197,0.));
#74 = LINE('',#75,#76);
#75 = CARTESIAN_POINT('',(-8.327847600824,-1.916475077197,0.));
#76 = VECTOR('',#77,1.);
#77 = DIRECTION('',(0.,0.,1.));
#78 = ORIENTED_EDGE('',*,*,#79,.F.);
#79 = EDGE_CURVE('',#22,#72,#80,.T.);
#80 = CIRCLE('',#81,1.55);
#81 = AXIS2_PLACEMENT_3D('',#82,#83,#84);
#82 = CARTESIAN_POINT('',(-7.712020103198,-3.338887286498,0.));
#83 = DIRECTION('',(-0.,0.,-1.));
#84 = DIRECTION('',(-0.544998865383,-0.838436781595,0.));
#85 = CYLINDRICAL_SURFACE('',#86,1.55);
#86 = AXIS2_PLACEMENT_3D('',#87,#88,#89);
#87 = CARTESIAN_POINT('',(-7.712020103198,-3.338887286498,0.));
#88 = DIRECTION('',(0.,0.,-1.));
#89 = DIRECTION('',(-0.544998865383,-0.838436781595,-0.));
#90 = ADVANCED_FACE('',(#91),#118,.T.);
#91 = FACE_BOUND('',#92,.T.);
#92 = EDGE_LOOP('',(#93,#103,#110,#111));
#93 = ORIENTED_EDGE('',*,*,#94,.T.);
#94 = EDGE_CURVE('',#95,#97,#99,.T.);
#95 = VERTEX_POINT('',#96);
#96 = CARTESIAN_POINT('',(-10.25015376446,-4.843361879961,0.));
#97 = VERTEX_POINT('',#98);
#98 = CARTESIAN_POINT('',(-10.25015376446,-4.843361879961,84.));
#99 = LINE('',#100,#101);
#100 = CARTESIAN_POINT('',(-10.25015376446,-4.843361879961,0.));
#101 = VECTOR('',#102,1.);
#102 = DIRECTION('',(0.,0.,1.));
#103 = ORIENTED_EDGE('',*,*,#104,.T.);
#104 = EDGE_CURVE('',#97,#32,#105,.T.);
#105 = CIRCLE('',#106,1.55);
#106 = AXIS2_PLACEMENT_3D('',#107,#108,#109);
#107 = CARTESIAN_POINT('',(-8.70015376525,-4.843411086881,84.));
#108 = DIRECTION('',(0.,-0.,-1.));
#109 = DIRECTION('',(9.439085767615E-03,-0.999955450838,0.));
#110 = ORIENTED_EDGE('',*,*,#39,.F.);
#111 = ORIENTED_EDGE('',*,*,#112,.F.);
#112 = EDGE_CURVE('',#95,#40,#113,.T.);
#113 = CIRCLE('',#114,1.55);
#114 = AXIS2_PLACEMENT_3D('',#115,#116,#117);
#115 = CARTESIAN_POINT('',(-8.70015376525,-4.843411086881,0.));
#116 = DIRECTION('',(0.,-0.,-1.));
#117 = DIRECTION('',(9.439085767615E-03,-0.999955450838,0.));
#118 = CYLINDRICAL_SURFACE('',#119,1.55);
#119 = AXIS2_PLACEMENT_3D('',#120,#121,#122);
#120 = CARTESIAN_POINT('',(-8.70015376525,-4.843411086881,0.));
#121 = DIRECTION('',(0.,0.,-1.));
#122 = DIRECTION('',(9.439085767615E-03,-0.999955450838,0.));
#123 = ADVANCED_FACE('',(#124),#407,.F.);
#124 = FACE_BOUND('',#125,.F.);
#125 = EDGE_LOOP('',(#126,#127,#128,#129,#137,#146,#154,#163,#171,#180,
    #188,#197,#205,#214,#222,#231,#239,#248,#256,#265,#273,#282,#290,
    #299,#307,#316,#324,#333,#341,#350,#358,#367,#375,#384,#392,#401));
#126 = ORIENTED_EDGE('',*,*,#79,.F.);
#127 = ORIENTED_EDGE('',*,*,#47,.T.);
#128 = ORIENTED_EDGE('',*,*,#112,.F.);
#129 = ORIENTED_EDGE('',*,*,#130,.T.);
#130 = EDGE_CURVE('',#95,#131,#133,.T.);
#131 = VERTEX_POINT('',#132);
#132 = CARTESIAN_POINT('',(-10.25045029079,-14.18383273205,0.));
#133 = LINE('',#134,#135);
#134 = CARTESIAN_POINT('',(-10.25015376446,-4.843361879961,0.));
#135 = VECTOR('',#136,1.);
#136 = DIRECTION('',(-3.174640007753E-05,-0.999999999496,0.));
#137 = ORIENTED_EDGE('',*,*,#138,.F.);
#138 = EDGE_CURVE('',#139,#131,#141,.T.);
#139 = VERTEX_POINT('',#140);
#140 = CARTESIAN_POINT('',(-9.551343167231,-15.47944410041,0.));
#141 = CIRCLE('',#142,1.55);
#142 = AXIS2_PLACEMENT_3D('',#143,#144,#145);
#143 = CARTESIAN_POINT('',(-8.700450291575,-14.18388193897,0.));
#144 = DIRECTION('',(0.,-0.,-1.));
#145 = DIRECTION('',(0.838436781595,-0.544998865383,0.));
#146 = ORIENTED_EDGE('',*,*,#147,.T.);
#147 = EDGE_CURVE('',#139,#148,#150,.T.);
#148 = VERTEX_POINT('',#149);
#149 = CARTESIAN_POINT('',(-7.21097281108,-17.01654090805,0.));
#150 = LINE('',#151,#152);
#151 = CARTESIAN_POINT('',(-9.551343167231,-15.47944410041,0.));
#152 = VECTOR('',#153,1.);
#153 = DIRECTION('',(0.835846555768,-0.548963145585,0.));
#154 = ORIENTED_EDGE('',*,*,#155,.F.);
#155 = EDGE_CURVE('',#156,#148,#158,.T.);
#156 = VERTEX_POINT('',#157);
#157 = CARTESIAN_POINT('',(-5.744252437798,-17.1433909559,0.));
#158 = CIRCLE('',#159,1.55);
#159 = AXIS2_PLACEMENT_3D('',#160,#161,#162);
#160 = CARTESIAN_POINT('',(-6.360079935424,-15.7209787466,0.));
#161 = DIRECTION('',(0.,0.,-1.));
#162 = DIRECTION('',(0.917685296323,0.397308062984,0.));
#163 = ORIENTED_EDGE('',*,*,#164,.T.);
#164 = EDGE_CURVE('',#156,#165,#167,.T.);
#165 = VERTEX_POINT('',#166);
#166 = CARTESIAN_POINT('',(6.647166801966E-02,-14.62766192737,0.));
#167 = LINE('',#168,#169);
#168 = CARTESIAN_POINT('',(-5.744252437798,-17.1433909559,0.));
#169 = VECTOR('',#170,1.);
#170 = DIRECTION('',(0.917685296323,0.397308062984,0.));
#171 = ORIENTED_EDGE('',*,*,#172,.F.);
#172 = EDGE_CURVE('',#173,#165,#175,.T.);
#173 = VERTEX_POINT('',#174);
#174 = CARTESIAN_POINT('',(0.746206331835,-14.05614259373,0.));
#175 = CIRCLE('',#176,1.55);
#176 = AXIS2_PLACEMENT_3D('',#177,#178,#179);
#177 = CARTESIAN_POINT('',(-0.549355829606,-13.20524971807,0.));
#178 = DIRECTION('',(0.,0.,-1.));
#179 = DIRECTION('',(0.544998865383,0.838436781595,0.));
#180 = ORIENTED_EDGE('',*,*,#181,.T.);
#181 = EDGE_CURVE('',#173,#182,#184,.T.);
#182 = VERTEX_POINT('',#183);
#183 = CARTESIAN_POINT('',(1.295169477419,-13.22029603796,0.));
#184 = LINE('',#185,#186);
#185 = CARTESIAN_POINT('',(0.746206331835,-14.05614259373,0.));
#186 = VECTOR('',#187,1.);
#187 = DIRECTION('',(0.548963145585,0.835846555768,0.));
#188 = ORIENTED_EDGE('',*,*,#189,.F.);
#189 = EDGE_CURVE('',#190,#182,#192,.T.);
#190 = VERTEX_POINT('',#191);
#191 = CARTESIAN_POINT('',(1.549607315197,-12.36945236922,0.));
#192 = CIRCLE('',#193,1.55);
#193 = AXIS2_PLACEMENT_3D('',#194,#195,#196);
#194 = CARTESIAN_POINT('',(-3.926840217066E-04,-12.3694031623,0.));
#195 = DIRECTION('',(0.,0.,-1.));
#196 = DIRECTION('',(-9.439085767615E-03,0.999955450838,0.));
#197 = ORIENTED_EDGE('',*,*,#198,.T.);
#198 = EDGE_CURVE('',#190,#199,#201,.T.);
#199 = VERTEX_POINT('',#200);
#200 = CARTESIAN_POINT('',(1.549639061597,-11.36945236972,0.));
#201 = LINE('',#202,#203);
#202 = CARTESIAN_POINT('',(1.549607315197,-12.36945236922,0.));
#203 = VECTOR('',#204,1.);
#204 = DIRECTION('',(3.174640007741E-05,0.999999999496,0.));
#205 = ORIENTED_EDGE('',*,*,#206,.T.);
#206 = EDGE_CURVE('',#199,#207,#209,.T.);
#207 = VERTEX_POINT('',#208);
#208 = CARTESIAN_POINT('',(0.249639062252,-11.3694110994,0.));
#209 = CIRCLE('',#210,0.65);
#210 = AXIS2_PLACEMENT_3D('',#211,#212,#213);
#211 = CARTESIAN_POINT('',(0.899639061925,-11.36943173456,0.));
#212 = DIRECTION('',(0.,0.,1.));
#213 = DIRECTION('',(1.,0.,-0.));
#214 = ORIENTED_EDGE('',*,*,#215,.F.);
#215 = EDGE_CURVE('',#216,#207,#218,.T.);
#216 = VERTEX_POINT('',#217);
#217 = CARTESIAN_POINT('',(0.249607315852,-12.3694110989,0.));
#218 = LINE('',#219,#220);
#219 = CARTESIAN_POINT('',(0.249607315852,-12.3694110989,0.));
#220 = VECTOR('',#221,1.);
#221 = DIRECTION('',(3.174640007736E-05,0.999999999496,0.));
#222 = ORIENTED_EDGE('',*,*,#223,.T.);
#223 = EDGE_CURVE('',#216,#224,#226,.T.);
#224 = VERTEX_POINT('',#225);
#225 = CARTESIAN_POINT('',(0.20856895492,-12.5066439487,0.));
#226 = CIRCLE('',#227,0.25);
#227 = AXIS2_PLACEMENT_3D('',#228,#229,#230);
#228 = CARTESIAN_POINT('',(-3.926840217066E-04,-12.3694031623,0.));
#229 = DIRECTION('',(0.,0.,-1.));
#230 = DIRECTION('',(-9.439085767615E-03,0.999955450838,0.));
#231 = ORIENTED_EDGE('',*,*,#232,.F.);
#232 = EDGE_CURVE('',#233,#224,#235,.T.);
#233 = VERTEX_POINT('',#234);
#234 = CARTESIAN_POINT('',(-0.340394190664,-13.34249050447,0.));
#235 = LINE('',#236,#237);
#236 = CARTESIAN_POINT('',(-0.340394190664,-13.34249050447,0.));
#237 = VECTOR('',#238,1.);
#238 = DIRECTION('',(0.548963145585,0.835846555768,0.));
#239 = ORIENTED_EDGE('',*,*,#240,.T.);
#240 = EDGE_CURVE('',#233,#241,#243,.T.);
#241 = VERTEX_POINT('',#242);
#242 = CARTESIAN_POINT('',(-0.45002881386,-13.43467104215,0.));
#243 = CIRCLE('',#244,0.25);
#244 = AXIS2_PLACEMENT_3D('',#245,#246,#247);
#245 = CARTESIAN_POINT('',(-0.549355829606,-13.20524971807,0.));
#246 = DIRECTION('',(0.,0.,-1.));
#247 = DIRECTION('',(0.544998865383,0.838436781595,0.));
#248 = ORIENTED_EDGE('',*,*,#249,.F.);
#249 = EDGE_CURVE('',#250,#241,#252,.T.);
#250 = VERTEX_POINT('',#251);
#251 = CARTESIAN_POINT('',(-6.260752919677,-15.95040007068,0.));
#252 = LINE('',#253,#254);
#253 = CARTESIAN_POINT('',(-6.260752919677,-15.95040007068,0.));
#254 = VECTOR('',#255,1.);
#255 = DIRECTION('',(0.917685296323,0.397308062984,0.));
#256 = ORIENTED_EDGE('',*,*,#257,.T.);
#257 = EDGE_CURVE('',#250,#258,#260,.T.);
#258 = VERTEX_POINT('',#259);
#259 = CARTESIAN_POINT('',(-6.49732072182,-15.92994038555,0.));
#260 = CIRCLE('',#261,0.25);
#261 = AXIS2_PLACEMENT_3D('',#262,#263,#264);
#262 = CARTESIAN_POINT('',(-6.360079935424,-15.7209787466,0.));
#263 = DIRECTION('',(0.,0.,-1.));
#264 = DIRECTION('',(0.917685296323,0.397308062984,0.));
#265 = ORIENTED_EDGE('',*,*,#266,.F.);
#266 = EDGE_CURVE('',#267,#258,#269,.T.);
#267 = VERTEX_POINT('',#268);
#268 = CARTESIAN_POINT('',(-8.837691077971,-14.39284357791,0.));
#269 = LINE('',#270,#271);
#270 = CARTESIAN_POINT('',(-8.837691077971,-14.39284357791,0.));
#271 = VECTOR('',#272,1.);
#272 = DIRECTION('',(0.835846555768,-0.548963145585,0.));
#273 = ORIENTED_EDGE('',*,*,#274,.T.);
#274 = EDGE_CURVE('',#267,#275,#277,.T.);
#275 = VERTEX_POINT('',#276);
#276 = CARTESIAN_POINT('',(-8.950450291449,-14.18387400237,0.));
#277 = CIRCLE('',#278,0.25);
#278 = AXIS2_PLACEMENT_3D('',#279,#280,#281);
#279 = CARTESIAN_POINT('',(-8.700450291575,-14.18388193897,0.));
#280 = DIRECTION('',(0.,-0.,-1.));
#281 = DIRECTION('',(0.838436781595,-0.544998865383,0.));
#282 = ORIENTED_EDGE('',*,*,#283,.F.);
#283 = EDGE_CURVE('',#284,#275,#286,.T.);
#284 = VERTEX_POINT('',#285);
#285 = CARTESIAN_POINT('',(-8.950153765124,-4.843403150281,0.));
#286 = LINE('',#287,#288);
#287 = CARTESIAN_POINT('',(-8.950153765124,-4.843403150281,0.));
#288 = VECTOR('',#289,1.);
#289 = DIRECTION('',(-3.174640007741E-05,-0.999999999496,0.));
#290 = ORIENTED_EDGE('',*,*,#291,.T.);
#291 = EDGE_CURVE('',#284,#292,#294,.T.);
#292 = VERTEX_POINT('',#293);
#293 = CARTESIAN_POINT('',(-8.909115404192,-4.706170300485,0.));
#294 = CIRCLE('',#295,0.25);
#295 = AXIS2_PLACEMENT_3D('',#296,#297,#298);
#296 = CARTESIAN_POINT('',(-8.70015376525,-4.843411086881,0.));
#297 = DIRECTION('',(0.,-0.,-1.));
#298 = DIRECTION('',(9.439085767615E-03,-0.999955450838,0.));
#299 = ORIENTED_EDGE('',*,*,#300,.F.);
#300 = EDGE_CURVE('',#301,#292,#303,.T.);
#301 = VERTEX_POINT('',#302);
#302 = CARTESIAN_POINT('',(-7.92098174214,-3.201646500102,0.));
#303 = LINE('',#304,#305);
#304 = CARTESIAN_POINT('',(-7.92098174214,-3.201646500102,0.));
#305 = VECTOR('',#306,1.);
#306 = DIRECTION('',(-0.548963145585,-0.835846555768,0.));
#307 = ORIENTED_EDGE('',*,*,#308,.T.);
#308 = EDGE_CURVE('',#301,#309,#311,.T.);
#309 = VERTEX_POINT('',#310);
#310 = CARTESIAN_POINT('',(-7.811347118944,-3.109465962417,0.));
#311 = CIRCLE('',#312,0.25);
#312 = AXIS2_PLACEMENT_3D('',#313,#314,#315);
#313 = CARTESIAN_POINT('',(-7.712020103198,-3.338887286498,0.));
#314 = DIRECTION('',(-0.,0.,-1.));
#315 = DIRECTION('',(-0.544998865383,-0.838436781595,0.));
#316 = ORIENTED_EDGE('',*,*,#317,.F.);
#317 = EDGE_CURVE('',#318,#309,#320,.T.);
#318 = VERTEX_POINT('',#319);
#319 = CARTESIAN_POINT('',(-2.439778337458,-0.783867419745,0.));
#320 = LINE('',#321,#322);
#321 = CARTESIAN_POINT('',(-2.439778337458,-0.783867419745,0.));
#322 = VECTOR('',#323,1.);
#323 = DIRECTION('',(-0.917685296323,-0.397308062984,0.));
#324 = ORIENTED_EDGE('',*,*,#325,.T.);
#325 = EDGE_CURVE('',#318,#326,#328,.T.);
#326 = VERTEX_POINT('',#327);
#327 = CARTESIAN_POINT('',(-2.203210535315,-0.804327104884,0.));
#328 = CIRCLE('',#329,0.25);
#329 = AXIS2_PLACEMENT_3D('',#330,#331,#332);
#330 = CARTESIAN_POINT('',(-2.340451321712,-1.013288743826,0.));
#331 = DIRECTION('',(-0.,0.,-1.));
#332 = DIRECTION('',(-0.917685296323,-0.397308062984,0.));
#333 = ORIENTED_EDGE('',*,*,#334,.F.);
#334 = EDGE_CURVE('',#335,#326,#337,.T.);
#335 = VERTEX_POINT('',#336);
#336 = CARTESIAN_POINT('',(0.137159820836,-2.341423912521,0.));
#337 = LINE('',#338,#339);
#338 = CARTESIAN_POINT('',(0.137159820836,-2.341423912521,0.));
#339 = VECTOR('',#340,1.);
#340 = DIRECTION('',(-0.835846555768,0.548963145585,0.));
#341 = ORIENTED_EDGE('',*,*,#342,.T.);
#342 = EDGE_CURVE('',#335,#343,#345,.T.);
#343 = VERTEX_POINT('',#344);
#344 = CARTESIAN_POINT('',(0.249919034314,-2.550393488063,0.));
#345 = CIRCLE('',#346,0.25);
#346 = AXIS2_PLACEMENT_3D('',#347,#348,#349);
#347 = CARTESIAN_POINT('',(-8.096556010917E-05,-2.550385551463,0.));
#348 = DIRECTION('',(0.,0.,-1.));
#349 = DIRECTION('',(-0.838436781595,0.544998865383,0.));
#350 = ORIENTED_EDGE('',*,*,#351,.F.);
#351 = EDGE_CURVE('',#352,#343,#354,.T.);
#352 = VERTEX_POINT('',#353);
#353 = CARTESIAN_POINT('',(0.249887287914,-3.550393487559,0.));
#354 = LINE('',#355,#356);
#355 = CARTESIAN_POINT('',(0.249607315852,-12.3694110989,0.));
#356 = VECTOR('',#357,1.);
#357 = DIRECTION('',(3.174640007736E-05,0.999999999496,0.));
#358 = ORIENTED_EDGE('',*,*,#359,.T.);
#359 = EDGE_CURVE('',#352,#360,#362,.T.);
#360 = VERTEX_POINT('',#361);
#361 = CARTESIAN_POINT('',(1.549887287259,-3.550434757879,0.));
#362 = CIRCLE('',#363,0.65);
#363 = AXIS2_PLACEMENT_3D('',#364,#365,#366);
#364 = CARTESIAN_POINT('',(0.899887287586,-3.550414122719,0.));
#365 = DIRECTION('',(0.,0.,1.));
#366 = DIRECTION('',(1.,0.,-0.));
#367 = ORIENTED_EDGE('',*,*,#368,.T.);
#368 = EDGE_CURVE('',#360,#369,#371,.T.);
#369 = VERTEX_POINT('',#370);
#370 = CARTESIAN_POINT('',(1.549919033659,-2.550434758383,0.));
#371 = LINE('',#372,#373);
#372 = CARTESIAN_POINT('',(1.549607315197,-12.36945236922,0.));
#373 = VECTOR('',#374,1.);
#374 = DIRECTION('',(3.174640007741E-05,0.999999999496,0.));
#375 = ORIENTED_EDGE('',*,*,#376,.F.);
#376 = EDGE_CURVE('',#377,#369,#379,.T.);
#377 = VERTEX_POINT('',#378);
#378 = CARTESIAN_POINT('',(0.850811910096,-1.254823390022,0.));
#379 = CIRCLE('',#380,1.55);
#380 = AXIS2_PLACEMENT_3D('',#381,#382,#383);
#381 = CARTESIAN_POINT('',(-8.096556010917E-05,-2.550385551463,0.));
#382 = DIRECTION('',(0.,0.,-1.));
#383 = DIRECTION('',(-0.838436781595,0.544998865383,0.));
#384 = ORIENTED_EDGE('',*,*,#385,.T.);
#385 = EDGE_CURVE('',#377,#386,#388,.T.);
#386 = VERTEX_POINT('',#387);
#387 = CARTESIAN_POINT('',(-1.489558446055,0.282273417615,0.));
#388 = LINE('',#389,#390);
#389 = CARTESIAN_POINT('',(0.850811910096,-1.254823390022,0.));
#390 = VECTOR('',#391,1.);
#391 = DIRECTION('',(-0.835846555768,0.548963145585,0.));
#392 = ORIENTED_EDGE('',*,*,#393,.F.);
#393 = EDGE_CURVE('',#394,#386,#396,.T.);
#394 = VERTEX_POINT('',#395);
#395 = CARTESIAN_POINT('',(-2.956278819338,0.409123465475,0.));
#396 = CIRCLE('',#397,1.55);
#397 = AXIS2_PLACEMENT_3D('',#398,#399,#400);
#398 = CARTESIAN_POINT('',(-2.340451321712,-1.013288743826,0.));
#399 = DIRECTION('',(-0.,0.,-1.));
#400 = DIRECTION('',(-0.917685296323,-0.397308062984,0.));
#401 = ORIENTED_EDGE('',*,*,#402,.T.);
#402 = EDGE_CURVE('',#394,#72,#403,.T.);
#403 = LINE('',#404,#405);
#404 = CARTESIAN_POINT('',(-2.956278819338,0.409123465475,0.));
#405 = VECTOR('',#406,1.);
#406 = DIRECTION('',(-0.917685296323,-0.397308062984,0.));
#407 = PLANE('',#408);
#408 = AXIS2_PLACEMENT_3D('',#409,#410,#411);
#409 = CARTESIAN_POINT('',(-4.324711071859,-8.389953105601,0.));
#410 = DIRECTION('',(0.,0.,1.));
#411 = DIRECTION('',(1.,0.,0.));
#412 = ADVANCED_FACE('',(#413),#696,.T.);
#413 = FACE_BOUND('',#414,.T.);
#414 = EDGE_LOOP('',(#415,#416,#417,#418,#426,#435,#443,#452,#460,#469,
    #477,#486,#494,#503,#511,#520,#528,#537,#545,#554,#562,#571,#579,
    #588,#596,#605,#613,#622,#630,#639,#647,#656,#664,#673,#681,#690));
#415 = ORIENTED_EDGE('',*,*,#62,.F.);
#416 = ORIENTED_EDGE('',*,*,#31,.T.);
#417 = ORIENTED_EDGE('',*,*,#104,.F.);
#418 = ORIENTED_EDGE('',*,*,#419,.T.);
#419 = EDGE_CURVE('',#97,#420,#422,.T.);
#420 = VERTEX_POINT('',#421);
#421 = CARTESIAN_POINT('',(-10.25045029079,-14.18383273205,84.));
#422 = LINE('',#423,#424);
#423 = CARTESIAN_POINT('',(-10.25015376446,-4.843361879961,84.));
#424 = VECTOR('',#425,1.);
#425 = DIRECTION('',(-3.174640007753E-05,-0.999999999496,0.));
#426 = ORIENTED_EDGE('',*,*,#427,.F.);
#427 = EDGE_CURVE('',#428,#420,#430,.T.);
#428 = VERTEX_POINT('',#429);
#429 = CARTESIAN_POINT('',(-9.551343167231,-15.47944410041,84.));
#430 = CIRCLE('',#431,1.55);
#431 = AXIS2_PLACEMENT_3D('',#432,#433,#434);
#432 = CARTESIAN_POINT('',(-8.700450291575,-14.18388193897,84.));
#433 = DIRECTION('',(0.,-0.,-1.));
#434 = DIRECTION('',(0.838436781595,-0.544998865383,0.));
#435 = ORIENTED_EDGE('',*,*,#436,.T.);
#436 = EDGE_CURVE('',#428,#437,#439,.T.);
#437 = VERTEX_POINT('',#438);
#438 = CARTESIAN_POINT('',(-7.21097281108,-17.01654090805,84.));
#439 = LINE('',#440,#441);
#440 = CARTESIAN_POINT('',(-9.551343167231,-15.47944410041,84.));
#441 = VECTOR('',#442,1.);
#442 = DIRECTION('',(0.835846555768,-0.548963145585,0.));
#443 = ORIENTED_EDGE('',*,*,#444,.F.);
#444 = EDGE_CURVE('',#445,#437,#447,.T.);
#445 = VERTEX_POINT('',#446);
#446 = CARTESIAN_POINT('',(-5.744252437798,-17.1433909559,84.));
#447 = CIRCLE('',#448,1.55);
#448 = AXIS2_PLACEMENT_3D('',#449,#450,#451);
#449 = CARTESIAN_POINT('',(-6.360079935424,-15.7209787466,84.));
#450 = DIRECTION('',(0.,0.,-1.));
#451 = DIRECTION('',(0.917685296323,0.397308062984,0.));
#452 = ORIENTED_EDGE('',*,*,#453,.T.);
#453 = EDGE_CURVE('',#445,#454,#456,.T.);
#454 = VERTEX_POINT('',#455);
#455 = CARTESIAN_POINT('',(6.647166801966E-02,-14.62766192737,84.));
#456 = LINE('',#457,#458);
#457 = CARTESIAN_POINT('',(-5.744252437798,-17.1433909559,84.));
#458 = VECTOR('',#459,1.);
#459 = DIRECTION('',(0.917685296323,0.397308062984,0.));
#460 = ORIENTED_EDGE('',*,*,#461,.F.);
#461 = EDGE_CURVE('',#462,#454,#464,.T.);
#462 = VERTEX_POINT('',#463);
#463 = CARTESIAN_POINT('',(0.746206331835,-14.05614259373,84.));
#464 = CIRCLE('',#465,1.55);
#465 = AXIS2_PLACEMENT_3D('',#466,#467,#468);
#466 = CARTESIAN_POINT('',(-0.549355829606,-13.20524971807,84.));
#467 = DIRECTION('',(0.,0.,-1.));
#468 = DIRECTION('',(0.544998865383,0.838436781595,0.));
#469 = ORIENTED_EDGE('',*,*,#470,.T.);
#470 = EDGE_CURVE('',#462,#471,#473,.T.);
#471 = VERTEX_POINT('',#472);
#472 = CARTESIAN_POINT('',(1.295169477419,-13.22029603796,84.));
#473 = LINE('',#474,#475);
#474 = CARTESIAN_POINT('',(0.746206331835,-14.05614259373,84.));
#475 = VECTOR('',#476,1.);
#476 = DIRECTION('',(0.548963145585,0.835846555768,0.));
#477 = ORIENTED_EDGE('',*,*,#478,.F.);
#478 = EDGE_CURVE('',#479,#471,#481,.T.);
#479 = VERTEX_POINT('',#480);
#480 = CARTESIAN_POINT('',(1.549607315197,-12.36945236922,84.));
#481 = CIRCLE('',#482,1.55);
#482 = AXIS2_PLACEMENT_3D('',#483,#484,#485);
#483 = CARTESIAN_POINT('',(-3.926840217066E-04,-12.3694031623,84.));
#484 = DIRECTION('',(0.,0.,-1.));
#485 = DIRECTION('',(-9.439085767615E-03,0.999955450838,0.));
#486 = ORIENTED_EDGE('',*,*,#487,.T.);
#487 = EDGE_CURVE('',#479,#488,#490,.T.);
#488 = VERTEX_POINT('',#489);
#489 = CARTESIAN_POINT('',(1.549639061597,-11.36945236972,84.));
#490 = LINE('',#491,#492);
#491 = CARTESIAN_POINT('',(1.549607315197,-12.36945236922,84.));
#492 = VECTOR('',#493,1.);
#493 = DIRECTION('',(3.174640007741E-05,0.999999999496,0.));
#494 = ORIENTED_EDGE('',*,*,#495,.T.);
#495 = EDGE_CURVE('',#488,#496,#498,.T.);
#496 = VERTEX_POINT('',#497);
#497 = CARTESIAN_POINT('',(0.249639062252,-11.3694110994,84.));
#498 = CIRCLE('',#499,0.65);
#499 = AXIS2_PLACEMENT_3D('',#500,#501,#502);
#500 = CARTESIAN_POINT('',(0.899639061925,-11.36943173456,84.));
#501 = DIRECTION('',(0.,0.,1.));
#502 = DIRECTION('',(1.,0.,0.));
#503 = ORIENTED_EDGE('',*,*,#504,.F.);
#504 = EDGE_CURVE('',#505,#496,#507,.T.);
#505 = VERTEX_POINT('',#506);
#506 = CARTESIAN_POINT('',(0.249607315852,-12.3694110989,84.));
#507 = LINE('',#508,#509);
#508 = CARTESIAN_POINT('',(0.249607315852,-12.3694110989,84.));
#509 = VECTOR('',#510,1.);
#510 = DIRECTION('',(3.174640007736E-05,0.999999999496,0.));
#511 = ORIENTED_EDGE('',*,*,#512,.T.);
#512 = EDGE_CURVE('',#505,#513,#515,.T.);
#513 = VERTEX_POINT('',#514);
#514 = CARTESIAN_POINT('',(0.20856895492,-12.5066439487,84.));
#515 = CIRCLE('',#516,0.25);
#516 = AXIS2_PLACEMENT_3D('',#517,#518,#519);
#517 = CARTESIAN_POINT('',(-3.926840217066E-04,-12.3694031623,84.));
#518 = DIRECTION('',(0.,0.,-1.));
#519 = DIRECTION('',(-9.439085767615E-03,0.999955450838,0.));
#520 = ORIENTED_EDGE('',*,*,#521,.F.);
#521 = EDGE_CURVE('',#522,#513,#524,.T.);
#522 = VERTEX_POINT('',#523);
#523 = CARTESIAN_POINT('',(-0.340394190664,-13.34249050447,84.));
#524 = LINE('',#525,#526);
#525 = CARTESIAN_POINT('',(-0.340394190664,-13.34249050447,84.));
#526 = VECTOR('',#527,1.);
#527 = DIRECTION('',(0.548963145585,0.835846555768,0.));
#528 = ORIENTED_EDGE('',*,*,#529,.T.);
#529 = EDGE_CURVE('',#522,#530,#532,.T.);
#530 = VERTEX_POINT('',#531);
#531 = CARTESIAN_POINT('',(-0.45002881386,-13.43467104215,84.));
#532 = CIRCLE('',#533,0.25);
#533 = AXIS2_PLACEMENT_3D('',#534,#535,#536);
#534 = CARTESIAN_POINT('',(-0.549355829606,-13.20524971807,84.));
#535 = DIRECTION('',(0.,0.,-1.));
#536 = DIRECTION('',(0.544998865383,0.838436781595,0.));
#537 = ORIENTED_EDGE('',*,*,#538,.F.);
#538 = EDGE_CURVE('',#539,#530,#541,.T.);
#539 = VERTEX_POINT('',#540);
#540 = CARTESIAN_POINT('',(-6.260752919677,-15.95040007068,84.));
#541 = LINE('',#542,#543);
#542 = CARTESIAN_POINT('',(-6.260752919677,-15.95040007068,84.));
#543 = VECTOR('',#544,1.);
#544 = DIRECTION('',(0.917685296323,0.397308062984,0.));
#545 = ORIENTED_EDGE('',*,*,#546,.T.);
#546 = EDGE_CURVE('',#539,#547,#549,.T.);
#547 = VERTEX_POINT('',#548);
#548 = CARTESIAN_POINT('',(-6.49732072182,-15.92994038555,84.));
#549 = CIRCLE('',#550,0.25);
#550 = AXIS2_PLACEMENT_3D('',#551,#552,#553);
#551 = CARTESIAN_POINT('',(-6.360079935424,-15.7209787466,84.));
#552 = DIRECTION('',(0.,0.,-1.));
#553 = DIRECTION('',(0.917685296323,0.397308062984,0.));
#554 = ORIENTED_EDGE('',*,*,#555,.F.);
#555 = EDGE_CURVE('',#556,#547,#558,.T.);
#556 = VERTEX_POINT('',#557);
#557 = CARTESIAN_POINT('',(-8.837691077971,-14.39284357791,84.));
#558 = LINE('',#559,#560);
#559 = CARTESIAN_POINT('',(-8.837691077971,-14.39284357791,84.));
#560 = VECTOR('',#561,1.);
#561 = DIRECTION('',(0.835846555768,-0.548963145585,0.));
#562 = ORIENTED_EDGE('',*,*,#563,.T.);
#563 = EDGE_CURVE('',#556,#564,#566,.T.);
#564 = VERTEX_POINT('',#565);
#565 = CARTESIAN_POINT('',(-8.950450291449,-14.18387400237,84.));
#566 = CIRCLE('',#567,0.25);
#567 = AXIS2_PLACEMENT_3D('',#568,#569,#570);
#568 = CARTESIAN_POINT('',(-8.700450291575,-14.18388193897,84.));
#569 = DIRECTION('',(0.,-0.,-1.));
#570 = DIRECTION('',(0.838436781595,-0.544998865383,0.));
#571 = ORIENTED_EDGE('',*,*,#572,.F.);
#572 = EDGE_CURVE('',#573,#564,#575,.T.);
#573 = VERTEX_POINT('',#574);
#574 = CARTESIAN_POINT('',(-8.950153765124,-4.843403150281,84.));
#575 = LINE('',#576,#577);
#576 = CARTESIAN_POINT('',(-8.950153765124,-4.843403150281,84.));
#577 = VECTOR('',#578,1.);
#578 = DIRECTION('',(-3.174640007741E-05,-0.999999999496,0.));
#579 = ORIENTED_EDGE('',*,*,#580,.T.);
#580 = EDGE_CURVE('',#573,#581,#583,.T.);
#581 = VERTEX_POINT('',#582);
#582 = CARTESIAN_POINT('',(-8.909115404192,-4.706170300485,84.));
#583 = CIRCLE('',#584,0.25);
#584 = AXIS2_PLACEMENT_3D('',#585,#586,#587);
#585 = CARTESIAN_POINT('',(-8.70015376525,-4.843411086881,84.));
#586 = DIRECTION('',(0.,-0.,-1.));
#587 = DIRECTION('',(9.439085767615E-03,-0.999955450838,0.));
#588 = ORIENTED_EDGE('',*,*,#589,.F.);
#589 = EDGE_CURVE('',#590,#581,#592,.T.);
#590 = VERTEX_POINT('',#591);
#591 = CARTESIAN_POINT('',(-7.92098174214,-3.201646500102,84.));
#592 = LINE('',#593,#594);
#593 = CARTESIAN_POINT('',(-7.92098174214,-3.201646500102,84.));
#594 = VECTOR('',#595,1.);
#595 = DIRECTION('',(-0.548963145585,-0.835846555768,0.));
#596 = ORIENTED_EDGE('',*,*,#597,.T.);
#597 = EDGE_CURVE('',#590,#598,#600,.T.);
#598 = VERTEX_POINT('',#599);
#599 = CARTESIAN_POINT('',(-7.811347118944,-3.109465962417,84.));
#600 = CIRCLE('',#601,0.25);
#601 = AXIS2_PLACEMENT_3D('',#602,#603,#604);
#602 = CARTESIAN_POINT('',(-7.712020103198,-3.338887286498,84.));
#603 = DIRECTION('',(-0.,0.,-1.));
#604 = DIRECTION('',(-0.544998865383,-0.838436781595,0.));
#605 = ORIENTED_EDGE('',*,*,#606,.F.);
#606 = EDGE_CURVE('',#607,#598,#609,.T.);
#607 = VERTEX_POINT('',#608);
#608 = CARTESIAN_POINT('',(-2.439778337458,-0.783867419745,84.));
#609 = LINE('',#610,#611);
#610 = CARTESIAN_POINT('',(-2.439778337458,-0.783867419745,84.));
#611 = VECTOR('',#612,1.);
#612 = DIRECTION('',(-0.917685296323,-0.397308062984,0.));
#613 = ORIENTED_EDGE('',*,*,#614,.T.);
#614 = EDGE_CURVE('',#607,#615,#617,.T.);
#615 = VERTEX_POINT('',#616);
#616 = CARTESIAN_POINT('',(-2.203210535315,-0.804327104884,84.));
#617 = CIRCLE('',#618,0.25);
#618 = AXIS2_PLACEMENT_3D('',#619,#620,#621);
#619 = CARTESIAN_POINT('',(-2.340451321712,-1.013288743826,84.));
#620 = DIRECTION('',(-0.,0.,-1.));
#621 = DIRECTION('',(-0.917685296323,-0.397308062984,0.));
#622 = ORIENTED_EDGE('',*,*,#623,.F.);
#623 = EDGE_CURVE('',#624,#615,#626,.T.);
#624 = VERTEX_POINT('',#625);
#625 = CARTESIAN_POINT('',(0.137159820836,-2.341423912521,84.));
#626 = LINE('',#627,#628);
#627 = CARTESIAN_POINT('',(0.137159820836,-2.341423912521,84.));
#628 = VECTOR('',#629,1.);
#629 = DIRECTION('',(-0.835846555768,0.548963145585,0.));
#630 = ORIENTED_EDGE('',*,*,#631,.T.);
#631 = EDGE_CURVE('',#624,#632,#634,.T.);
#632 = VERTEX_POINT('',#633);
#633 = CARTESIAN_POINT('',(0.249919034314,-2.550393488063,84.));
#634 = CIRCLE('',#635,0.25);
#635 = AXIS2_PLACEMENT_3D('',#636,#637,#638);
#636 = CARTESIAN_POINT('',(-8.096556010917E-05,-2.550385551463,84.));
#637 = DIRECTION('',(0.,0.,-1.));
#638 = DIRECTION('',(-0.838436781595,0.544998865383,0.));
#639 = ORIENTED_EDGE('',*,*,#640,.F.);
#640 = EDGE_CURVE('',#641,#632,#643,.T.);
#641 = VERTEX_POINT('',#642);
#642 = CARTESIAN_POINT('',(0.249887287914,-3.550393487559,84.));
#643 = LINE('',#644,#645);
#644 = CARTESIAN_POINT('',(0.249607315852,-12.3694110989,84.));
#645 = VECTOR('',#646,1.);
#646 = DIRECTION('',(3.174640007736E-05,0.999999999496,0.));
#647 = ORIENTED_EDGE('',*,*,#648,.T.);
#648 = EDGE_CURVE('',#641,#649,#651,.T.);
#649 = VERTEX_POINT('',#650);
#650 = CARTESIAN_POINT('',(1.549887287259,-3.550434757879,84.));
#651 = CIRCLE('',#652,0.65);
#652 = AXIS2_PLACEMENT_3D('',#653,#654,#655);
#653 = CARTESIAN_POINT('',(0.899887287586,-3.550414122719,84.));
#654 = DIRECTION('',(0.,0.,1.));
#655 = DIRECTION('',(1.,0.,0.));
#656 = ORIENTED_EDGE('',*,*,#657,.T.);
#657 = EDGE_CURVE('',#649,#658,#660,.T.);
#658 = VERTEX_POINT('',#659);
#659 = CARTESIAN_POINT('',(1.549919033659,-2.550434758383,84.));
#660 = LINE('',#661,#662);
#661 = CARTESIAN_POINT('',(1.549607315197,-12.36945236922,84.));
#662 = VECTOR('',#663,1.);
#663 = DIRECTION('',(3.174640007741E-05,0.999999999496,0.));
#664 = ORIENTED_EDGE('',*,*,#665,.F.);
#665 = EDGE_CURVE('',#666,#658,#668,.T.);
#666 = VERTEX_POINT('',#667);
#667 = CARTESIAN_POINT('',(0.850811910096,-1.254823390022,84.));
#668 = CIRCLE('',#669,1.55);
#669 = AXIS2_PLACEMENT_3D('',#670,#671,#672);
#670 = CARTESIAN_POINT('',(-8.096556010917E-05,-2.550385551463,84.));
#671 = DIRECTION('',(0.,0.,-1.));
#672 = DIRECTION('',(-0.838436781595,0.544998865383,0.));
#673 = ORIENTED_EDGE('',*,*,#674,.T.);
#674 = EDGE_CURVE('',#666,#675,#677,.T.);
#675 = VERTEX_POINT('',#676);
#676 = CARTESIAN_POINT('',(-1.489558446055,0.282273417615,84.));
#677 = LINE('',#678,#679);
#678 = CARTESIAN_POINT('',(0.850811910096,-1.254823390022,84.));
#679 = VECTOR('',#680,1.);
#680 = DIRECTION('',(-0.835846555768,0.548963145585,0.));
#681 = ORIENTED_EDGE('',*,*,#682,.F.);
#682 = EDGE_CURVE('',#683,#675,#685,.T.);
#683 = VERTEX_POINT('',#684);
#684 = CARTESIAN_POINT('',(-2.956278819338,0.409123465475,84.));
#685 = CIRCLE('',#686,1.55);
#686 = AXIS2_PLACEMENT_3D('',#687,#688,#689);
#687 = CARTESIAN_POINT('',(-2.340451321712,-1.013288743826,84.));
#688 = DIRECTION('',(-0.,0.,-1.));
#689 = DIRECTION('',(-0.917685296323,-0.397308062984,0.));
#690 = ORIENTED_EDGE('',*,*,#691,.T.);
#691 = EDGE_CURVE('',#683,#63,#692,.T.);
#692 = LINE('',#693,#694);
#693 = CARTESIAN_POINT('',(-2.956278819338,0.409123465475,84.));
#694 = VECTOR('',#695,1.);
#695 = DIRECTION('',(-0.917685296323,-0.397308062984,0.));
#696 = PLANE('',#697);
#697 = AXIS2_PLACEMENT_3D('',#698,#699,#700);
#698 = CARTESIAN_POINT('',(-4.324711071859,-8.389953105601,84.));
#699 = DIRECTION('',(0.,0.,1.));
#700 = DIRECTION('',(1.,0.,0.));
#701 = ADVANCED_FACE('',(#702),#713,.F.);
#702 = FACE_BOUND('',#703,.F.);
#703 = EDGE_LOOP('',(#704,#710,#711,#712));
#704 = ORIENTED_EDGE('',*,*,#705,.T.);
#705 = EDGE_CURVE('',#394,#683,#706,.T.);
#706 = LINE('',#707,#708);
#707 = CARTESIAN_POINT('',(-2.956278819338,0.409123465475,0.));
#708 = VECTOR('',#709,1.);
#709 = DIRECTION('',(0.,0.,1.));
#710 = ORIENTED_EDGE('',*,*,#691,.T.);
#711 = ORIENTED_EDGE('',*,*,#71,.F.);
#712 = ORIENTED_EDGE('',*,*,#402,.F.);
#713 = PLANE('',#714);
#714 = AXIS2_PLACEMENT_3D('',#715,#716,#717);
#715 = CARTESIAN_POINT('',(-2.956278819338,0.409123465475,0.));
#716 = DIRECTION('',(0.397308062984,-0.917685296323,0.));
#717 = DIRECTION('',(-0.917685296323,-0.397308062984,0.));
#718 = ADVANCED_FACE('',(#719),#730,.F.);
#719 = FACE_BOUND('',#720,.F.);
#720 = EDGE_LOOP('',(#721,#722,#723,#729));
#721 = ORIENTED_EDGE('',*,*,#94,.T.);
#722 = ORIENTED_EDGE('',*,*,#419,.T.);
#723 = ORIENTED_EDGE('',*,*,#724,.F.);
#724 = EDGE_CURVE('',#131,#420,#725,.T.);
#725 = LINE('',#726,#727);
#726 = CARTESIAN_POINT('',(-10.25045029079,-14.18383273205,0.));
#727 = VECTOR('',#728,1.);
#728 = DIRECTION('',(0.,0.,1.));
#729 = ORIENTED_EDGE('',*,*,#130,.F.);
#730 = PLANE('',#731);
#731 = AXIS2_PLACEMENT_3D('',#732,#733,#734);
#732 = CARTESIAN_POINT('',(-10.25015376446,-4.843361879961,0.));
#733 = DIRECTION('',(0.999999999496,-3.174640007736E-05,0.));
#734 = DIRECTION('',(-3.174640007736E-05,-0.999999999496,0.));
#735 = ADVANCED_FACE('',(#736),#747,.T.);
#736 = FACE_BOUND('',#737,.T.);
#737 = EDGE_LOOP('',(#738,#739,#740,#746));
#738 = ORIENTED_EDGE('',*,*,#705,.T.);
#739 = ORIENTED_EDGE('',*,*,#682,.T.);
#740 = ORIENTED_EDGE('',*,*,#741,.F.);
#741 = EDGE_CURVE('',#386,#675,#742,.T.);
#742 = LINE('',#743,#744);
#743 = CARTESIAN_POINT('',(-1.489558446055,0.282273417615,0.));
#744 = VECTOR('',#745,1.);
#745 = DIRECTION('',(0.,0.,1.));
#746 = ORIENTED_EDGE('',*,*,#393,.F.);
#747 = CYLINDRICAL_SURFACE('',#748,1.55);
#748 = AXIS2_PLACEMENT_3D('',#749,#750,#751);
#749 = CARTESIAN_POINT('',(-2.340451321712,-1.013288743826,0.));
#750 = DIRECTION('',(0.,0.,-1.));
#751 = DIRECTION('',(-0.917685296323,-0.397308062984,-0.));
#752 = ADVANCED_FACE('',(#753),#764,.F.);
#753 = FACE_BOUND('',#754,.F.);
#754 = EDGE_LOOP('',(#755,#761,#762,#763));
#755 = ORIENTED_EDGE('',*,*,#756,.T.);
#756 = EDGE_CURVE('',#377,#666,#757,.T.);
#757 = LINE('',#758,#759);
#758 = CARTESIAN_POINT('',(0.850811910096,-1.254823390022,0.));
#759 = VECTOR('',#760,1.);
#760 = DIRECTION('',(0.,0.,1.));
#761 = ORIENTED_EDGE('',*,*,#674,.T.);
#762 = ORIENTED_EDGE('',*,*,#741,.F.);
#763 = ORIENTED_EDGE('',*,*,#385,.F.);
#764 = PLANE('',#765);
#765 = AXIS2_PLACEMENT_3D('',#766,#767,#768);
#766 = CARTESIAN_POINT('',(0.850811910096,-1.254823390022,0.));
#767 = DIRECTION('',(-0.548963145585,-0.835846555768,0.));
#768 = DIRECTION('',(-0.835846555768,0.548963145585,0.));
#769 = ADVANCED_FACE('',(#770),#781,.T.);
#770 = FACE_BOUND('',#771,.T.);
#771 = EDGE_LOOP('',(#772,#773,#774,#780));
#772 = ORIENTED_EDGE('',*,*,#756,.T.);
#773 = ORIENTED_EDGE('',*,*,#665,.T.);
#774 = ORIENTED_EDGE('',*,*,#775,.F.);
#775 = EDGE_CURVE('',#369,#658,#776,.T.);
#776 = LINE('',#777,#778);
#777 = CARTESIAN_POINT('',(1.549919033659,-2.550434758383,0.));
#778 = VECTOR('',#779,1.);
#779 = DIRECTION('',(0.,0.,1.));
#780 = ORIENTED_EDGE('',*,*,#376,.F.);
#781 = CYLINDRICAL_SURFACE('',#782,1.55);
#782 = AXIS2_PLACEMENT_3D('',#783,#784,#785);
#783 = CARTESIAN_POINT('',(-8.096556010861E-05,-2.550385551463,0.));
#784 = DIRECTION('',(0.,0.,-1.));
#785 = DIRECTION('',(-0.838436781595,0.544998865383,0.));
#786 = ADVANCED_FACE('',(#787),#798,.F.);
#787 = FACE_BOUND('',#788,.F.);
#788 = EDGE_LOOP('',(#789,#790,#796,#797));
#789 = ORIENTED_EDGE('',*,*,#368,.F.);
#790 = ORIENTED_EDGE('',*,*,#791,.F.);
#791 = EDGE_CURVE('',#649,#360,#792,.T.);
#792 = LINE('',#793,#794);
#793 = CARTESIAN_POINT('',(1.549887287259,-3.550434757879,84.));
#794 = VECTOR('',#795,1.);
#795 = DIRECTION('',(-0.,-0.,-1.));
#796 = ORIENTED_EDGE('',*,*,#657,.T.);
#797 = ORIENTED_EDGE('',*,*,#775,.F.);
#798 = PLANE('',#799);
#799 = AXIS2_PLACEMENT_3D('',#800,#801,#802);
#800 = CARTESIAN_POINT('',(1.549607315197,-12.36945236922,0.));
#801 = DIRECTION('',(-0.999999999496,3.17464000773E-05,0.));
#802 = DIRECTION('',(3.17464000773E-05,0.999999999496,0.));
#803 = ADVANCED_FACE('',(#804),#815,.T.);
#804 = FACE_BOUND('',#805,.T.);
#805 = EDGE_LOOP('',(#806,#807,#813,#814));
#806 = ORIENTED_EDGE('',*,*,#648,.F.);
#807 = ORIENTED_EDGE('',*,*,#808,.T.);
#808 = EDGE_CURVE('',#641,#352,#809,.T.);
#809 = LINE('',#810,#811);
#810 = CARTESIAN_POINT('',(0.249887287914,-3.550393487559,84.));
#811 = VECTOR('',#812,1.);
#812 = DIRECTION('',(-0.,-0.,-1.));
#813 = ORIENTED_EDGE('',*,*,#359,.T.);
#814 = ORIENTED_EDGE('',*,*,#791,.F.);
#815 = CYLINDRICAL_SURFACE('',#816,0.65);
#816 = AXIS2_PLACEMENT_3D('',#817,#818,#819);
#817 = CARTESIAN_POINT('',(0.899887287586,-3.550414122719,84.));
#818 = DIRECTION('',(0.,0.,1.));
#819 = DIRECTION('',(1.,0.,-0.));
#820 = ADVANCED_FACE('',(#821),#832,.T.);
#821 = FACE_BOUND('',#822,.T.);
#822 = EDGE_LOOP('',(#823,#824,#825,#826));
#823 = ORIENTED_EDGE('',*,*,#351,.F.);
#824 = ORIENTED_EDGE('',*,*,#808,.F.);
#825 = ORIENTED_EDGE('',*,*,#640,.T.);
#826 = ORIENTED_EDGE('',*,*,#827,.F.);
#827 = EDGE_CURVE('',#343,#632,#828,.T.);
#828 = LINE('',#829,#830);
#829 = CARTESIAN_POINT('',(0.249919034314,-2.550393488063,0.));
#830 = VECTOR('',#831,1.);
#831 = DIRECTION('',(0.,0.,1.));
#832 = PLANE('',#833);
#833 = AXIS2_PLACEMENT_3D('',#834,#835,#836);
#834 = CARTESIAN_POINT('',(0.249607315852,-12.3694110989,0.));
#835 = DIRECTION('',(-0.999999999496,3.174640007725E-05,0.));
#836 = DIRECTION('',(3.174640007725E-05,0.999999999496,0.));
#837 = ADVANCED_FACE('',(#838),#849,.F.);
#838 = FACE_BOUND('',#839,.F.);
#839 = EDGE_LOOP('',(#840,#846,#847,#848));
#840 = ORIENTED_EDGE('',*,*,#841,.T.);
#841 = EDGE_CURVE('',#335,#624,#842,.T.);
#842 = LINE('',#843,#844);
#843 = CARTESIAN_POINT('',(0.137159820836,-2.341423912521,0.));
#844 = VECTOR('',#845,1.);
#845 = DIRECTION('',(0.,0.,1.));
#846 = ORIENTED_EDGE('',*,*,#631,.T.);
#847 = ORIENTED_EDGE('',*,*,#827,.F.);
#848 = ORIENTED_EDGE('',*,*,#342,.F.);
#849 = CYLINDRICAL_SURFACE('',#850,0.25);
#850 = AXIS2_PLACEMENT_3D('',#851,#852,#853);
#851 = CARTESIAN_POINT('',(-8.096556010861E-05,-2.550385551463,0.));
#852 = DIRECTION('',(0.,0.,-1.));
#853 = DIRECTION('',(-0.838436781595,0.544998865383,0.));
#854 = ADVANCED_FACE('',(#855),#866,.T.);
#855 = FACE_BOUND('',#856,.T.);
#856 = EDGE_LOOP('',(#857,#858,#859,#865));
#857 = ORIENTED_EDGE('',*,*,#841,.T.);
#858 = ORIENTED_EDGE('',*,*,#623,.T.);
#859 = ORIENTED_EDGE('',*,*,#860,.F.);
#860 = EDGE_CURVE('',#326,#615,#861,.T.);
#861 = LINE('',#862,#863);
#862 = CARTESIAN_POINT('',(-2.203210535315,-0.804327104884,0.));
#863 = VECTOR('',#864,1.);
#864 = DIRECTION('',(0.,0.,1.));
#865 = ORIENTED_EDGE('',*,*,#334,.F.);
#866 = PLANE('',#867);
#867 = AXIS2_PLACEMENT_3D('',#868,#869,#870);
#868 = CARTESIAN_POINT('',(0.137159820836,-2.341423912521,0.));
#869 = DIRECTION('',(-0.548963145585,-0.835846555768,0.));
#870 = DIRECTION('',(-0.835846555768,0.548963145585,0.));
#871 = ADVANCED_FACE('',(#872),#883,.F.);
#872 = FACE_BOUND('',#873,.F.);
#873 = EDGE_LOOP('',(#874,#880,#881,#882));
#874 = ORIENTED_EDGE('',*,*,#875,.T.);
#875 = EDGE_CURVE('',#318,#607,#876,.T.);
#876 = LINE('',#877,#878);
#877 = CARTESIAN_POINT('',(-2.439778337458,-0.783867419745,0.));
#878 = VECTOR('',#879,1.);
#879 = DIRECTION('',(0.,0.,1.));
#880 = ORIENTED_EDGE('',*,*,#614,.T.);
#881 = ORIENTED_EDGE('',*,*,#860,.F.);
#882 = ORIENTED_EDGE('',*,*,#325,.F.);
#883 = CYLINDRICAL_SURFACE('',#884,0.25);
#884 = AXIS2_PLACEMENT_3D('',#885,#886,#887);
#885 = CARTESIAN_POINT('',(-2.340451321712,-1.013288743826,0.));
#886 = DIRECTION('',(0.,0.,-1.));
#887 = DIRECTION('',(-0.917685296323,-0.397308062984,-0.));
#888 = ADVANCED_FACE('',(#889),#900,.T.);
#889 = FACE_BOUND('',#890,.T.);
#890 = EDGE_LOOP('',(#891,#892,#893,#899));
#891 = ORIENTED_EDGE('',*,*,#875,.T.);
#892 = ORIENTED_EDGE('',*,*,#606,.T.);
#893 = ORIENTED_EDGE('',*,*,#894,.F.);
#894 = EDGE_CURVE('',#309,#598,#895,.T.);
#895 = LINE('',#896,#897);
#896 = CARTESIAN_POINT('',(-7.811347118944,-3.109465962417,0.));
#897 = VECTOR('',#898,1.);
#898 = DIRECTION('',(0.,0.,1.));
#899 = ORIENTED_EDGE('',*,*,#317,.F.);
#900 = PLANE('',#901);
#901 = AXIS2_PLACEMENT_3D('',#902,#903,#904);
#902 = CARTESIAN_POINT('',(-2.439778337458,-0.783867419745,0.));
#903 = DIRECTION('',(0.397308062984,-0.917685296323,0.));
#904 = DIRECTION('',(-0.917685296323,-0.397308062984,0.));
#905 = ADVANCED_FACE('',(#906),#917,.F.);
#906 = FACE_BOUND('',#907,.F.);
#907 = EDGE_LOOP('',(#908,#914,#915,#916));
#908 = ORIENTED_EDGE('',*,*,#909,.T.);
#909 = EDGE_CURVE('',#301,#590,#910,.T.);
#910 = LINE('',#911,#912);
#911 = CARTESIAN_POINT('',(-7.92098174214,-3.201646500102,0.));
#912 = VECTOR('',#913,1.);
#913 = DIRECTION('',(0.,0.,1.));
#914 = ORIENTED_EDGE('',*,*,#597,.T.);
#915 = ORIENTED_EDGE('',*,*,#894,.F.);
#916 = ORIENTED_EDGE('',*,*,#308,.F.);
#917 = CYLINDRICAL_SURFACE('',#918,0.25);
#918 = AXIS2_PLACEMENT_3D('',#919,#920,#921);
#919 = CARTESIAN_POINT('',(-7.712020103198,-3.338887286498,0.));
#920 = DIRECTION('',(0.,0.,-1.));
#921 = DIRECTION('',(-0.544998865383,-0.838436781595,-0.));
#922 = ADVANCED_FACE('',(#923),#934,.T.);
#923 = FACE_BOUND('',#924,.T.);
#924 = EDGE_LOOP('',(#925,#926,#927,#933));
#925 = ORIENTED_EDGE('',*,*,#909,.T.);
#926 = ORIENTED_EDGE('',*,*,#589,.T.);
#927 = ORIENTED_EDGE('',*,*,#928,.F.);
#928 = EDGE_CURVE('',#292,#581,#929,.T.);
#929 = LINE('',#930,#931);
#930 = CARTESIAN_POINT('',(-8.909115404192,-4.706170300485,0.));
#931 = VECTOR('',#932,1.);
#932 = DIRECTION('',(0.,0.,1.));
#933 = ORIENTED_EDGE('',*,*,#300,.F.);
#934 = PLANE('',#935);
#935 = AXIS2_PLACEMENT_3D('',#936,#937,#938);
#936 = CARTESIAN_POINT('',(-7.92098174214,-3.201646500102,0.));
#937 = DIRECTION('',(0.835846555768,-0.548963145585,0.));
#938 = DIRECTION('',(-0.548963145585,-0.835846555768,0.));
#939 = ADVANCED_FACE('',(#940),#951,.F.);
#940 = FACE_BOUND('',#941,.F.);
#941 = EDGE_LOOP('',(#942,#948,#949,#950));
#942 = ORIENTED_EDGE('',*,*,#943,.T.);
#943 = EDGE_CURVE('',#284,#573,#944,.T.);
#944 = LINE('',#945,#946);
#945 = CARTESIAN_POINT('',(-8.950153765124,-4.843403150281,0.));
#946 = VECTOR('',#947,1.);
#947 = DIRECTION('',(0.,0.,1.));
#948 = ORIENTED_EDGE('',*,*,#580,.T.);
#949 = ORIENTED_EDGE('',*,*,#928,.F.);
#950 = ORIENTED_EDGE('',*,*,#291,.F.);
#951 = CYLINDRICAL_SURFACE('',#952,0.25);
#952 = AXIS2_PLACEMENT_3D('',#953,#954,#955);
#953 = CARTESIAN_POINT('',(-8.70015376525,-4.843411086881,0.));
#954 = DIRECTION('',(0.,0.,-1.));
#955 = DIRECTION('',(9.439085767615E-03,-0.999955450838,0.));
#956 = ADVANCED_FACE('',(#957),#968,.T.);
#957 = FACE_BOUND('',#958,.T.);
#958 = EDGE_LOOP('',(#959,#960,#961,#967));
#959 = ORIENTED_EDGE('',*,*,#943,.T.);
#960 = ORIENTED_EDGE('',*,*,#572,.T.);
#961 = ORIENTED_EDGE('',*,*,#962,.F.);
#962 = EDGE_CURVE('',#275,#564,#963,.T.);
#963 = LINE('',#964,#965);
#964 = CARTESIAN_POINT('',(-8.950450291449,-14.18387400237,0.));
#965 = VECTOR('',#966,1.);
#966 = DIRECTION('',(0.,0.,1.));
#967 = ORIENTED_EDGE('',*,*,#283,.F.);
#968 = PLANE('',#969);
#969 = AXIS2_PLACEMENT_3D('',#970,#971,#972);
#970 = CARTESIAN_POINT('',(-8.950153765124,-4.843403150281,0.));
#971 = DIRECTION('',(0.999999999496,-3.174640007725E-05,0.));
#972 = DIRECTION('',(-3.174640007725E-05,-0.999999999496,0.));
#973 = ADVANCED_FACE('',(#974),#985,.F.);
#974 = FACE_BOUND('',#975,.F.);
#975 = EDGE_LOOP('',(#976,#982,#983,#984));
#976 = ORIENTED_EDGE('',*,*,#977,.T.);
#977 = EDGE_CURVE('',#267,#556,#978,.T.);
#978 = LINE('',#979,#980);
#979 = CARTESIAN_POINT('',(-8.837691077971,-14.39284357791,0.));
#980 = VECTOR('',#981,1.);
#981 = DIRECTION('',(0.,0.,1.));
#982 = ORIENTED_EDGE('',*,*,#563,.T.);
#983 = ORIENTED_EDGE('',*,*,#962,.F.);
#984 = ORIENTED_EDGE('',*,*,#274,.F.);
#985 = CYLINDRICAL_SURFACE('',#986,0.25);
#986 = AXIS2_PLACEMENT_3D('',#987,#988,#989);
#987 = CARTESIAN_POINT('',(-8.700450291575,-14.18388193897,0.));
#988 = DIRECTION('',(0.,0.,-1.));
#989 = DIRECTION('',(0.838436781595,-0.544998865383,0.));
#990 = ADVANCED_FACE('',(#991),#1002,.T.);
#991 = FACE_BOUND('',#992,.T.);
#992 = EDGE_LOOP('',(#993,#994,#995,#1001));
#993 = ORIENTED_EDGE('',*,*,#977,.T.);
#994 = ORIENTED_EDGE('',*,*,#555,.T.);
#995 = ORIENTED_EDGE('',*,*,#996,.F.);
#996 = EDGE_CURVE('',#258,#547,#997,.T.);
#997 = LINE('',#998,#999);
#998 = CARTESIAN_POINT('',(-6.49732072182,-15.92994038555,0.));
#999 = VECTOR('',#1000,1.);
#1000 = DIRECTION('',(0.,0.,1.));
#1001 = ORIENTED_EDGE('',*,*,#266,.F.);
#1002 = PLANE('',#1003);
#1003 = AXIS2_PLACEMENT_3D('',#1004,#1005,#1006);
#1004 = CARTESIAN_POINT('',(-8.837691077971,-14.39284357791,0.));
#1005 = DIRECTION('',(0.548963145585,0.835846555768,0.));
#1006 = DIRECTION('',(0.835846555768,-0.548963145585,0.));
#1007 = ADVANCED_FACE('',(#1008),#1019,.F.);
#1008 = FACE_BOUND('',#1009,.F.);
#1009 = EDGE_LOOP('',(#1010,#1016,#1017,#1018));
#1010 = ORIENTED_EDGE('',*,*,#1011,.T.);
#1011 = EDGE_CURVE('',#250,#539,#1012,.T.);
#1012 = LINE('',#1013,#1014);
#1013 = CARTESIAN_POINT('',(-6.260752919677,-15.95040007068,0.));
#1014 = VECTOR('',#1015,1.);
#1015 = DIRECTION('',(0.,0.,1.));
#1016 = ORIENTED_EDGE('',*,*,#546,.T.);
#1017 = ORIENTED_EDGE('',*,*,#996,.F.);
#1018 = ORIENTED_EDGE('',*,*,#257,.F.);
#1019 = CYLINDRICAL_SURFACE('',#1020,0.25);
#1020 = AXIS2_PLACEMENT_3D('',#1021,#1022,#1023);
#1021 = CARTESIAN_POINT('',(-6.360079935424,-15.7209787466,0.));
#1022 = DIRECTION('',(0.,0.,-1.));
#1023 = DIRECTION('',(0.917685296323,0.397308062984,0.));
#1024 = ADVANCED_FACE('',(#1025),#1036,.T.);
#1025 = FACE_BOUND('',#1026,.T.);
#1026 = EDGE_LOOP('',(#1027,#1028,#1029,#1035));
#1027 = ORIENTED_EDGE('',*,*,#1011,.T.);
#1028 = ORIENTED_EDGE('',*,*,#538,.T.);
#1029 = ORIENTED_EDGE('',*,*,#1030,.F.);
#1030 = EDGE_CURVE('',#241,#530,#1031,.T.);
#1031 = LINE('',#1032,#1033);
#1032 = CARTESIAN_POINT('',(-0.45002881386,-13.43467104215,0.));
#1033 = VECTOR('',#1034,1.);
#1034 = DIRECTION('',(0.,0.,1.));
#1035 = ORIENTED_EDGE('',*,*,#249,.F.);
#1036 = PLANE('',#1037);
#1037 = AXIS2_PLACEMENT_3D('',#1038,#1039,#1040);
#1038 = CARTESIAN_POINT('',(-6.260752919677,-15.95040007068,0.));
#1039 = DIRECTION('',(-0.397308062984,0.917685296323,0.));
#1040 = DIRECTION('',(0.917685296323,0.397308062984,0.));
#1041 = ADVANCED_FACE('',(#1042),#1053,.F.);
#1042 = FACE_BOUND('',#1043,.F.);
#1043 = EDGE_LOOP('',(#1044,#1050,#1051,#1052));
#1044 = ORIENTED_EDGE('',*,*,#1045,.T.);
#1045 = EDGE_CURVE('',#233,#522,#1046,.T.);
#1046 = LINE('',#1047,#1048);
#1047 = CARTESIAN_POINT('',(-0.340394190664,-13.34249050447,0.));
#1048 = VECTOR('',#1049,1.);
#1049 = DIRECTION('',(0.,0.,1.));
#1050 = ORIENTED_EDGE('',*,*,#529,.T.);
#1051 = ORIENTED_EDGE('',*,*,#1030,.F.);
#1052 = ORIENTED_EDGE('',*,*,#240,.F.);
#1053 = CYLINDRICAL_SURFACE('',#1054,0.25);
#1054 = AXIS2_PLACEMENT_3D('',#1055,#1056,#1057);
#1055 = CARTESIAN_POINT('',(-0.549355829606,-13.20524971807,0.));
#1056 = DIRECTION('',(0.,0.,-1.));
#1057 = DIRECTION('',(0.544998865383,0.838436781595,0.));
#1058 = ADVANCED_FACE('',(#1059),#1070,.T.);
#1059 = FACE_BOUND('',#1060,.T.);
#1060 = EDGE_LOOP('',(#1061,#1062,#1063,#1069));
#1061 = ORIENTED_EDGE('',*,*,#1045,.T.);
#1062 = ORIENTED_EDGE('',*,*,#521,.T.);
#1063 = ORIENTED_EDGE('',*,*,#1064,.F.);
#1064 = EDGE_CURVE('',#224,#513,#1065,.T.);
#1065 = LINE('',#1066,#1067);
#1066 = CARTESIAN_POINT('',(0.20856895492,-12.5066439487,0.));
#1067 = VECTOR('',#1068,1.);
#1068 = DIRECTION('',(0.,0.,1.));
#1069 = ORIENTED_EDGE('',*,*,#232,.F.);
#1070 = PLANE('',#1071);
#1071 = AXIS2_PLACEMENT_3D('',#1072,#1073,#1074);
#1072 = CARTESIAN_POINT('',(-0.340394190664,-13.34249050447,0.));
#1073 = DIRECTION('',(-0.835846555768,0.548963145585,0.));
#1074 = DIRECTION('',(0.548963145585,0.835846555768,0.));
#1075 = ADVANCED_FACE('',(#1076),#1087,.F.);
#1076 = FACE_BOUND('',#1077,.F.);
#1077 = EDGE_LOOP('',(#1078,#1084,#1085,#1086));
#1078 = ORIENTED_EDGE('',*,*,#1079,.T.);
#1079 = EDGE_CURVE('',#216,#505,#1080,.T.);
#1080 = LINE('',#1081,#1082);
#1081 = CARTESIAN_POINT('',(0.249607315852,-12.3694110989,0.));
#1082 = VECTOR('',#1083,1.);
#1083 = DIRECTION('',(0.,0.,1.));
#1084 = ORIENTED_EDGE('',*,*,#512,.T.);
#1085 = ORIENTED_EDGE('',*,*,#1064,.F.);
#1086 = ORIENTED_EDGE('',*,*,#223,.F.);
#1087 = CYLINDRICAL_SURFACE('',#1088,0.25);
#1088 = AXIS2_PLACEMENT_3D('',#1089,#1090,#1091);
#1089 = CARTESIAN_POINT('',(-3.926840217039E-04,-12.3694031623,0.));
#1090 = DIRECTION('',(0.,0.,-1.));
#1091 = DIRECTION('',(-9.439085767615E-03,0.999955450838,0.));
#1092 = ADVANCED_FACE('',(#1093),#1104,.T.);
#1093 = FACE_BOUND('',#1094,.T.);
#1094 = EDGE_LOOP('',(#1095,#1096,#1097,#1098));
#1095 = ORIENTED_EDGE('',*,*,#215,.F.);
#1096 = ORIENTED_EDGE('',*,*,#1079,.T.);
#1097 = ORIENTED_EDGE('',*,*,#504,.T.);
#1098 = ORIENTED_EDGE('',*,*,#1099,.T.);
#1099 = EDGE_CURVE('',#496,#207,#1100,.T.);
#1100 = LINE('',#1101,#1102);
#1101 = CARTESIAN_POINT('',(0.249639062252,-11.3694110994,84.));
#1102 = VECTOR('',#1103,1.);
#1103 = DIRECTION('',(-0.,-0.,-1.));
#1104 = PLANE('',#1105);
#1105 = AXIS2_PLACEMENT_3D('',#1106,#1107,#1108);
#1106 = CARTESIAN_POINT('',(0.249607315852,-12.3694110989,0.));
#1107 = DIRECTION('',(-0.999999999496,3.174640007725E-05,0.));
#1108 = DIRECTION('',(3.174640007725E-05,0.999999999496,0.));
#1109 = ADVANCED_FACE('',(#1110),#1121,.T.);
#1110 = FACE_BOUND('',#1111,.T.);
#1111 = EDGE_LOOP('',(#1112,#1113,#1119,#1120));
#1112 = ORIENTED_EDGE('',*,*,#495,.F.);
#1113 = ORIENTED_EDGE('',*,*,#1114,.T.);
#1114 = EDGE_CURVE('',#488,#199,#1115,.T.);
#1115 = LINE('',#1116,#1117);
#1116 = CARTESIAN_POINT('',(1.549639061597,-11.36945236972,84.));
#1117 = VECTOR('',#1118,1.);
#1118 = DIRECTION('',(-0.,-0.,-1.));
#1119 = ORIENTED_EDGE('',*,*,#206,.T.);
#1120 = ORIENTED_EDGE('',*,*,#1099,.F.);
#1121 = CYLINDRICAL_SURFACE('',#1122,0.65);
#1122 = AXIS2_PLACEMENT_3D('',#1123,#1124,#1125);
#1123 = CARTESIAN_POINT('',(0.899639061925,-11.36943173456,84.));
#1124 = DIRECTION('',(0.,0.,1.));
#1125 = DIRECTION('',(1.,0.,-0.));
#1126 = ADVANCED_FACE('',(#1127),#1138,.F.);
#1127 = FACE_BOUND('',#1128,.F.);
#1128 = EDGE_LOOP('',(#1129,#1130,#1136,#1137));
#1129 = ORIENTED_EDGE('',*,*,#198,.F.);
#1130 = ORIENTED_EDGE('',*,*,#1131,.T.);
#1131 = EDGE_CURVE('',#190,#479,#1132,.T.);
#1132 = LINE('',#1133,#1134);
#1133 = CARTESIAN_POINT('',(1.549607315197,-12.36945236922,0.));
#1134 = VECTOR('',#1135,1.);
#1135 = DIRECTION('',(0.,0.,1.));
#1136 = ORIENTED_EDGE('',*,*,#487,.T.);
#1137 = ORIENTED_EDGE('',*,*,#1114,.T.);
#1138 = PLANE('',#1139);
#1139 = AXIS2_PLACEMENT_3D('',#1140,#1141,#1142);
#1140 = CARTESIAN_POINT('',(1.549607315197,-12.36945236922,0.));
#1141 = DIRECTION('',(-0.999999999496,3.17464000773E-05,0.));
#1142 = DIRECTION('',(3.17464000773E-05,0.999999999496,0.));
#1143 = ADVANCED_FACE('',(#1144),#1155,.T.);
#1144 = FACE_BOUND('',#1145,.T.);
#1145 = EDGE_LOOP('',(#1146,#1147,#1148,#1154));
#1146 = ORIENTED_EDGE('',*,*,#1131,.T.);
#1147 = ORIENTED_EDGE('',*,*,#478,.T.);
#1148 = ORIENTED_EDGE('',*,*,#1149,.F.);
#1149 = EDGE_CURVE('',#182,#471,#1150,.T.);
#1150 = LINE('',#1151,#1152);
#1151 = CARTESIAN_POINT('',(1.295169477419,-13.22029603796,0.));
#1152 = VECTOR('',#1153,1.);
#1153 = DIRECTION('',(0.,0.,1.));
#1154 = ORIENTED_EDGE('',*,*,#189,.F.);
#1155 = CYLINDRICAL_SURFACE('',#1156,1.55);
#1156 = AXIS2_PLACEMENT_3D('',#1157,#1158,#1159);
#1157 = CARTESIAN_POINT('',(-3.926840217039E-04,-12.3694031623,0.));
#1158 = DIRECTION('',(0.,0.,-1.));
#1159 = DIRECTION('',(-9.439085767615E-03,0.999955450838,0.));
#1160 = ADVANCED_FACE('',(#1161),#1172,.F.);
#1161 = FACE_BOUND('',#1162,.F.);
#1162 = EDGE_LOOP('',(#1163,#1169,#1170,#1171));
#1163 = ORIENTED_EDGE('',*,*,#1164,.T.);
#1164 = EDGE_CURVE('',#173,#462,#1165,.T.);
#1165 = LINE('',#1166,#1167);
#1166 = CARTESIAN_POINT('',(0.746206331835,-14.05614259373,0.));
#1167 = VECTOR('',#1168,1.);
#1168 = DIRECTION('',(0.,0.,1.));
#1169 = ORIENTED_EDGE('',*,*,#470,.T.);
#1170 = ORIENTED_EDGE('',*,*,#1149,.F.);
#1171 = ORIENTED_EDGE('',*,*,#181,.F.);
#1172 = PLANE('',#1173);
#1173 = AXIS2_PLACEMENT_3D('',#1174,#1175,#1176);
#1174 = CARTESIAN_POINT('',(0.746206331835,-14.05614259373,0.));
#1175 = DIRECTION('',(-0.835846555768,0.548963145585,0.));
#1176 = DIRECTION('',(0.548963145585,0.835846555768,0.));
#1177 = ADVANCED_FACE('',(#1178),#1189,.T.);
#1178 = FACE_BOUND('',#1179,.T.);
#1179 = EDGE_LOOP('',(#1180,#1181,#1182,#1188));
#1180 = ORIENTED_EDGE('',*,*,#1164,.T.);
#1181 = ORIENTED_EDGE('',*,*,#461,.T.);
#1182 = ORIENTED_EDGE('',*,*,#1183,.F.);
#1183 = EDGE_CURVE('',#165,#454,#1184,.T.);
#1184 = LINE('',#1185,#1186);
#1185 = CARTESIAN_POINT('',(6.647166801966E-02,-14.62766192737,0.));
#1186 = VECTOR('',#1187,1.);
#1187 = DIRECTION('',(0.,0.,1.));
#1188 = ORIENTED_EDGE('',*,*,#172,.F.);
#1189 = CYLINDRICAL_SURFACE('',#1190,1.55);
#1190 = AXIS2_PLACEMENT_3D('',#1191,#1192,#1193);
#1191 = CARTESIAN_POINT('',(-0.549355829606,-13.20524971807,0.));
#1192 = DIRECTION('',(0.,0.,-1.));
#1193 = DIRECTION('',(0.544998865383,0.838436781595,0.));
#1194 = ADVANCED_FACE('',(#1195),#1206,.F.);
#1195 = FACE_BOUND('',#1196,.F.);
#1196 = EDGE_LOOP('',(#1197,#1203,#1204,#1205));
#1197 = ORIENTED_EDGE('',*,*,#1198,.T.);
#1198 = EDGE_CURVE('',#156,#445,#1199,.T.);
#1199 = LINE('',#1200,#1201);
#1200 = CARTESIAN_POINT('',(-5.744252437798,-17.1433909559,0.));
#1201 = VECTOR('',#1202,1.);
#1202 = DIRECTION('',(0.,0.,1.));
#1203 = ORIENTED_EDGE('',*,*,#453,.T.);
#1204 = ORIENTED_EDGE('',*,*,#1183,.F.);
#1205 = ORIENTED_EDGE('',*,*,#164,.F.);
#1206 = PLANE('',#1207);
#1207 = AXIS2_PLACEMENT_3D('',#1208,#1209,#1210);
#1208 = CARTESIAN_POINT('',(-5.744252437798,-17.1433909559,0.));
#1209 = DIRECTION('',(-0.397308062984,0.917685296323,0.));
#1210 = DIRECTION('',(0.917685296323,0.397308062984,0.));
#1211 = ADVANCED_FACE('',(#1212),#1223,.T.);
#1212 = FACE_BOUND('',#1213,.T.);
#1213 = EDGE_LOOP('',(#1214,#1215,#1216,#1222));
#1214 = ORIENTED_EDGE('',*,*,#1198,.T.);
#1215 = ORIENTED_EDGE('',*,*,#444,.T.);
#1216 = ORIENTED_EDGE('',*,*,#1217,.F.);
#1217 = EDGE_CURVE('',#148,#437,#1218,.T.);
#1218 = LINE('',#1219,#1220);
#1219 = CARTESIAN_POINT('',(-7.21097281108,-17.01654090805,0.));
#1220 = VECTOR('',#1221,1.);
#1221 = DIRECTION('',(0.,0.,1.));
#1222 = ORIENTED_EDGE('',*,*,#155,.F.);
#1223 = CYLINDRICAL_SURFACE('',#1224,1.55);
#1224 = AXIS2_PLACEMENT_3D('',#1225,#1226,#1227);
#1225 = CARTESIAN_POINT('',(-6.360079935424,-15.7209787466,0.));
#1226 = DIRECTION('',(0.,0.,-1.));
#1227 = DIRECTION('',(0.917685296323,0.397308062984,0.));
#1228 = ADVANCED_FACE('',(#1229),#1240,.F.);
#1229 = FACE_BOUND('',#1230,.F.);
#1230 = EDGE_LOOP('',(#1231,#1237,#1238,#1239));
#1231 = ORIENTED_EDGE('',*,*,#1232,.T.);
#1232 = EDGE_CURVE('',#139,#428,#1233,.T.);
#1233 = LINE('',#1234,#1235);
#1234 = CARTESIAN_POINT('',(-9.551343167231,-15.47944410041,0.));
#1235 = VECTOR('',#1236,1.);
#1236 = DIRECTION('',(0.,0.,1.));
#1237 = ORIENTED_EDGE('',*,*,#436,.T.);
#1238 = ORIENTED_EDGE('',*,*,#1217,.F.);
#1239 = ORIENTED_EDGE('',*,*,#147,.F.);
#1240 = PLANE('',#1241);
#1241 = AXIS2_PLACEMENT_3D('',#1242,#1243,#1244);
#1242 = CARTESIAN_POINT('',(-9.551343167231,-15.47944410041,0.));
#1243 = DIRECTION('',(0.548963145585,0.835846555768,0.));
#1244 = DIRECTION('',(0.835846555768,-0.548963145585,0.));
#1245 = ADVANCED_FACE('',(#1246),#1252,.T.);
#1246 = FACE_BOUND('',#1247,.T.);
#1247 = EDGE_LOOP('',(#1248,#1249,#1250,#1251));
#1248 = ORIENTED_EDGE('',*,*,#1232,.T.);
#1249 = ORIENTED_EDGE('',*,*,#427,.T.);
#1250 = ORIENTED_EDGE('',*,*,#724,.F.);
#1251 = ORIENTED_EDGE('',*,*,#138,.F.);
#1252 = CYLINDRICAL_SURFACE('',#1253,1.55);
#1253 = AXIS2_PLACEMENT_3D('',#1254,#1255,#1256);
#1254 = CARTESIAN_POINT('',(-8.700450291575,-14.18388193897,0.));
#1255 = DIRECTION('',(0.,0.,-1.));
#1256 = DIRECTION('',(0.838436781595,-0.544998865383,0.));
#1257 = ( GEOMETRIC_REPRESENTATION_CONTEXT(3) 
GLOBAL_UNCERTAINTY_ASSIGNED_CONTEXT((#1261)) 
GLOBAL_UNIT_ASSIGNED_CONTEXT((#1258,#1259,#1260)) REPRESENTATION_CONTEXT
('Context #1','3D Context with UNIT and UNCERTAINTY') );
#1258 = ( LENGTH_UNIT() NAMED_UNIT(*) SI_UNIT(.MILLI.,.METRE.) );
#1259 = ( NAMED_UNIT(*) PLANE_ANGLE_UNIT() SI_UNIT($,.RADIAN.) );
#1260 = ( NAMED_UNIT(*) SI_UNIT($,.STERADIAN.) SOLID_ANGLE_UNIT() );
#1261 = UNCERTAINTY_MEASURE_WITH_UNIT(LENGTH_MEASURE(1.E-07),#1258,
  'distance_accuracy_value','confusion accuracy');
#1262 = PRODUCT_RELATED_PRODUCT_CATEGORY('part',$,(#7));
ENDSEC;
END-ISO-10303-21;
