ISO-10303-21;
HEADER;
FILE_DESCRIPTION(('FreeCAD Model'),'2;1');
FILE_NAME('Open CASCADE Shape Model','2026-10-05T17:30:31',('Author'),(
    ''),'Open CASCADE STEP processor 7.6','FreeCAD','Unknown');
FILE_SCHEMA(('AUTOMOTIVE_DESIGN { 1 0 10303 214 1 1 1 1 }'));
ENDSEC;
DATA;
#1 = APPLICATION_PROTOCOL_DEFINITION('international standard',
  'automotive_design',2000,#2);
#2 = APPLICATION_CONTEXT(
  'core data for automotive mechanical design processes');
#3 = SHAPE_DEFINITION_REPRESENTATION(#4,#10);
#4 = PRODUCT_DEFINITION_SHAPE('','',#5);
#5 = PRODUCT_DEFINITION('design','',#6,#9);
#6 = PRODUCT_DEFINITION_FORMATION('','',#7);
#7 = PRODUCT('B_xt30_male_mount','B_xt30_male_mount','',(#8));
#8 = PRODUCT_CONTEXT('',#2,'mechanical');
#9 = PRODUCT_DEFINITION_CONTEXT('part definition',#2,'design');
#10 = ADVANCED_BREP_SHAPE_REPRESENTATION('',(#11,#15),#2174);
#11 = AXIS2_PLACEMENT_3D('',#12,#13,#14);
#12 = CARTESIAN_POINT('',(0.,0.,0.));
#13 = DIRECTION('',(0.,0.,1.));
#14 = DIRECTION('',(1.,0.,-0.));
#15 = MANIFOLD_SOLID_BREP('',#16);
#16 = CLOSED_SHELL('',(#17,#112,#143,#168,#193,#249,#354,#379,#404,#439,
    #457,#605,#774,#799,#816,#847,#864,#881,#1019,#1043,#1067,#1191,
    #1264,#1288,#1318,#1335,#1352,#1369,#1400,#1417,#1434,#1471,#1495,
    #1590,#1602,#1619,#1636,#1653,#1690,#1707,#1719,#1731,#1772,#1797,
    #1821,#1831,#1849,#1866,#1878,#1909,#1927,#1937,#1962,#1996,#2014,
    #2032,#2049,#2062,#2079,#2092,#2119,#2128,#2164));
#17 = ADVANCED_FACE('',(#18),#107,.T.);
#18 = FACE_BOUND('',#19,.F.);
#19 = EDGE_LOOP('',(#20,#30,#39,#48,#57,#66,#75,#83,#92,#100));
#20 = ORIENTED_EDGE('',*,*,#21,.T.);
#21 = EDGE_CURVE('',#22,#24,#26,.T.);
#22 = VERTEX_POINT('',#23);
#23 = CARTESIAN_POINT('',(-35.3,4.,8.3));
#24 = VERTEX_POINT('',#25);
#25 = CARTESIAN_POINT('',(-35.3,-12.48038460945,8.3));
#26 = LINE('',#27,#28);
#27 = CARTESIAN_POINT('',(-35.3,7.,8.3));
#28 = VECTOR('',#29,1.);
#29 = DIRECTION('',(-0.,-1.,-2.2E-16));
#30 = ORIENTED_EDGE('',*,*,#31,.F.);
#31 = EDGE_CURVE('',#32,#24,#34,.T.);
#32 = VERTEX_POINT('',#33);
#33 = CARTESIAN_POINT('',(-35.23972602739,-12.82231295492,8.3));
#34 = CIRCLE('',#35,1.);
#35 = AXIS2_PLACEMENT_3D('',#36,#37,#38);
#36 = CARTESIAN_POINT('',(-34.3,-12.48038460945,8.3));
#37 = DIRECTION('',(0.,0.,-1.));
#38 = DIRECTION('',(0.,1.,0.));
#39 = ORIENTED_EDGE('',*,*,#40,.F.);
#40 = EDGE_CURVE('',#41,#32,#43,.T.);
#41 = VERTEX_POINT('',#42);
#42 = CARTESIAN_POINT('',(-35.3,-12.65543361564,8.3));
#43 = CIRCLE('',#44,37.5);
#44 = AXIS2_PLACEMENT_3D('',#45,#46,#47);
#45 = CARTESIAN_POINT('',(-3.1E-15,-5.E-16,8.3));
#46 = DIRECTION('',(0.,-0.,1.));
#47 = DIRECTION('',(0.,1.,0.));
#48 = ORIENTED_EDGE('',*,*,#49,.T.);
#49 = EDGE_CURVE('',#41,#50,#52,.T.);
#50 = VERTEX_POINT('',#51);
#51 = CARTESIAN_POINT('',(-37.06187267703,-5.715557161915,8.3));
#52 = CIRCLE('',#53,37.5);
#53 = AXIS2_PLACEMENT_3D('',#54,#55,#56);
#54 = CARTESIAN_POINT('',(-3.1E-15,-5.E-16,8.3));
#55 = DIRECTION('',(0.,0.,-1.));
#56 = DIRECTION('',(1.,0.,0.));
#57 = ORIENTED_EDGE('',*,*,#58,.F.);
#58 = EDGE_CURVE('',#59,#50,#61,.T.);
#59 = VERTEX_POINT('',#60);
#60 = CARTESIAN_POINT('',(-37.67250689863,-4.969298806651,8.3));
#61 = CIRCLE('',#62,0.949217405113);
#62 = AXIS2_PLACEMENT_3D('',#63,#64,#65);
#63 = CARTESIAN_POINT('',(-38.,-5.860231997595,8.3));
#64 = DIRECTION('',(0.,0.,-1.));
#65 = DIRECTION('',(1.,0.,0.));
#66 = ORIENTED_EDGE('',*,*,#67,.T.);
#67 = EDGE_CURVE('',#59,#68,#70,.T.);
#68 = VERTEX_POINT('',#69);
#69 = CARTESIAN_POINT('',(-38.,-4.5,8.3));
#70 = CIRCLE('',#71,0.5);
#71 = AXIS2_PLACEMENT_3D('',#72,#73,#74);
#72 = CARTESIAN_POINT('',(-37.5,-4.5,8.3));
#73 = DIRECTION('',(0.,0.,-1.));
#74 = DIRECTION('',(1.,0.,0.));
#75 = ORIENTED_EDGE('',*,*,#76,.F.);
#76 = EDGE_CURVE('',#77,#68,#79,.T.);
#77 = VERTEX_POINT('',#78);
#78 = CARTESIAN_POINT('',(-38.,4.5,8.3));
#79 = LINE('',#80,#81);
#80 = CARTESIAN_POINT('',(-38.,7.,8.3));
#81 = VECTOR('',#82,1.);
#82 = DIRECTION('',(-0.,-1.,-2.2E-16));
#83 = ORIENTED_EDGE('',*,*,#84,.T.);
#84 = EDGE_CURVE('',#77,#85,#87,.T.);
#85 = VERTEX_POINT('',#86);
#86 = CARTESIAN_POINT('',(-37.5,5.,8.3));
#87 = CIRCLE('',#88,0.5);
#88 = AXIS2_PLACEMENT_3D('',#89,#90,#91);
#89 = CARTESIAN_POINT('',(-37.5,4.5,8.3));
#90 = DIRECTION('',(0.,0.,-1.));
#91 = DIRECTION('',(1.,0.,0.));
#92 = ORIENTED_EDGE('',*,*,#93,.T.);
#93 = EDGE_CURVE('',#85,#94,#96,.T.);
#94 = VERTEX_POINT('',#95);
#95 = CARTESIAN_POINT('',(-34.3,5.,8.3));
#96 = LINE('',#97,#98);
#97 = CARTESIAN_POINT('',(-36.4,5.,8.3));
#98 = VECTOR('',#99,1.);
#99 = DIRECTION('',(1.,0.,0.));
#100 = ORIENTED_EDGE('',*,*,#101,.T.);
#101 = EDGE_CURVE('',#94,#22,#102,.T.);
#102 = CIRCLE('',#103,1.);
#103 = AXIS2_PLACEMENT_3D('',#104,#105,#106);
#104 = CARTESIAN_POINT('',(-34.3,4.,8.3));
#105 = DIRECTION('',(0.,-0.,1.));
#106 = DIRECTION('',(0.,1.,0.));
#107 = PLANE('',#108);
#108 = AXIS2_PLACEMENT_3D('',#109,#110,#111);
#109 = CARTESIAN_POINT('',(-35.3,7.,8.3));
#110 = DIRECTION('',(0.,-2.2E-16,1.));
#111 = DIRECTION('',(1.,0.,0.));
#112 = ADVANCED_FACE('',(#113),#138,.T.);
#113 = FACE_BOUND('',#114,.F.);
#114 = EDGE_LOOP('',(#115,#116,#124,#132));
#115 = ORIENTED_EDGE('',*,*,#21,.F.);
#116 = ORIENTED_EDGE('',*,*,#117,.F.);
#117 = EDGE_CURVE('',#118,#22,#120,.T.);
#118 = VERTEX_POINT('',#119);
#119 = CARTESIAN_POINT('',(-35.3,4.,10.));
#120 = LINE('',#121,#122);
#121 = CARTESIAN_POINT('',(-35.3,4.,10.));
#122 = VECTOR('',#123,1.);
#123 = DIRECTION('',(0.,0.,-1.));
#124 = ORIENTED_EDGE('',*,*,#125,.T.);
#125 = EDGE_CURVE('',#118,#126,#128,.T.);
#126 = VERTEX_POINT('',#127);
#127 = CARTESIAN_POINT('',(-35.3,-12.48038460945,10.));
#128 = LINE('',#129,#130);
#129 = CARTESIAN_POINT('',(-35.3,7.,10.));
#130 = VECTOR('',#131,1.);
#131 = DIRECTION('',(-0.,-1.,-2.2E-16));
#132 = ORIENTED_EDGE('',*,*,#133,.T.);
#133 = EDGE_CURVE('',#126,#24,#134,.T.);
#134 = LINE('',#135,#136);
#135 = CARTESIAN_POINT('',(-35.3,-12.48038460945,10.));
#136 = VECTOR('',#137,1.);
#137 = DIRECTION('',(-0.,-0.,-1.));
#138 = PLANE('',#139);
#139 = AXIS2_PLACEMENT_3D('',#140,#141,#142);
#140 = CARTESIAN_POINT('',(-35.3,7.,10.));
#141 = DIRECTION('',(-1.,-0.,-0.));
#142 = DIRECTION('',(0.,-2.2E-16,1.));
#143 = ADVANCED_FACE('',(#144),#163,.T.);
#144 = FACE_BOUND('',#145,.F.);
#145 = EDGE_LOOP('',(#146,#155,#156,#157));
#146 = ORIENTED_EDGE('',*,*,#147,.T.);
#147 = EDGE_CURVE('',#148,#118,#150,.T.);
#148 = VERTEX_POINT('',#149);
#149 = CARTESIAN_POINT('',(-34.3,5.,10.));
#150 = CIRCLE('',#151,1.);
#151 = AXIS2_PLACEMENT_3D('',#152,#153,#154);
#152 = CARTESIAN_POINT('',(-34.3,4.,10.));
#153 = DIRECTION('',(0.,-0.,1.));
#154 = DIRECTION('',(0.,1.,0.));
#155 = ORIENTED_EDGE('',*,*,#117,.T.);
#156 = ORIENTED_EDGE('',*,*,#101,.F.);
#157 = ORIENTED_EDGE('',*,*,#158,.F.);
#158 = EDGE_CURVE('',#148,#94,#159,.T.);
#159 = LINE('',#160,#161);
#160 = CARTESIAN_POINT('',(-34.3,5.,10.));
#161 = VECTOR('',#162,1.);
#162 = DIRECTION('',(0.,0.,-1.));
#163 = CYLINDRICAL_SURFACE('',#164,1.);
#164 = AXIS2_PLACEMENT_3D('',#165,#166,#167);
#165 = CARTESIAN_POINT('',(-34.3,4.,10.));
#166 = DIRECTION('',(0.,0.,-1.));
#167 = DIRECTION('',(0.,1.,0.));
#168 = ADVANCED_FACE('',(#169),#188,.T.);
#169 = FACE_BOUND('',#170,.T.);
#170 = EDGE_LOOP('',(#171,#180,#181,#182));
#171 = ORIENTED_EDGE('',*,*,#172,.T.);
#172 = EDGE_CURVE('',#173,#126,#175,.T.);
#173 = VERTEX_POINT('',#174);
#174 = CARTESIAN_POINT('',(-35.23972602739,-12.82231295492,10.));
#175 = CIRCLE('',#176,1.);
#176 = AXIS2_PLACEMENT_3D('',#177,#178,#179);
#177 = CARTESIAN_POINT('',(-34.3,-12.48038460945,10.));
#178 = DIRECTION('',(0.,0.,-1.));
#179 = DIRECTION('',(0.,1.,0.));
#180 = ORIENTED_EDGE('',*,*,#133,.T.);
#181 = ORIENTED_EDGE('',*,*,#31,.F.);
#182 = ORIENTED_EDGE('',*,*,#183,.F.);
#183 = EDGE_CURVE('',#173,#32,#184,.T.);
#184 = LINE('',#185,#186);
#185 = CARTESIAN_POINT('',(-35.23972602739,-12.82231295492,10.));
#186 = VECTOR('',#187,1.);
#187 = DIRECTION('',(-0.,-0.,-1.));
#188 = CYLINDRICAL_SURFACE('',#189,1.);
#189 = AXIS2_PLACEMENT_3D('',#190,#191,#192);
#190 = CARTESIAN_POINT('',(-34.3,-12.48038460945,10.));
#191 = DIRECTION('',(-0.,-0.,-1.));
#192 = DIRECTION('',(-0.939726027397,-0.341928345465,0.));
#193 = ADVANCED_FACE('',(#194),#244,.T.);
#194 = FACE_BOUND('',#195,.T.);
#195 = EDGE_LOOP('',(#196,#206,#214,#222,#228,#229,#230,#238));
#196 = ORIENTED_EDGE('',*,*,#197,.F.);
#197 = EDGE_CURVE('',#198,#200,#202,.T.);
#198 = VERTEX_POINT('',#199);
#199 = CARTESIAN_POINT('',(-34.3,5.,0.));
#200 = VERTEX_POINT('',#201);
#201 = CARTESIAN_POINT('',(-34.136195996,5.,0.));
#202 = LINE('',#203,#204);
#203 = CARTESIAN_POINT('',(-37.5,5.,0.));
#204 = VECTOR('',#205,1.);
#205 = DIRECTION('',(1.,0.,0.));
#206 = ORIENTED_EDGE('',*,*,#207,.T.);
#207 = EDGE_CURVE('',#198,#208,#210,.T.);
#208 = VERTEX_POINT('',#209);
#209 = CARTESIAN_POINT('',(-34.3,5.,1.7));
#210 = LINE('',#211,#212);
#211 = CARTESIAN_POINT('',(-34.3,5.,0.));
#212 = VECTOR('',#213,1.);
#213 = DIRECTION('',(0.,0.,1.));
#214 = ORIENTED_EDGE('',*,*,#215,.F.);
#215 = EDGE_CURVE('',#216,#208,#218,.T.);
#216 = VERTEX_POINT('',#217);
#217 = CARTESIAN_POINT('',(-37.5,5.,1.7));
#218 = LINE('',#219,#220);
#219 = CARTESIAN_POINT('',(-36.4,5.,1.7));
#220 = VECTOR('',#221,1.);
#221 = DIRECTION('',(1.,0.,0.));
#222 = ORIENTED_EDGE('',*,*,#223,.T.);
#223 = EDGE_CURVE('',#216,#85,#224,.T.);
#224 = LINE('',#225,#226);
#225 = CARTESIAN_POINT('',(-37.5,5.,0.));
#226 = VECTOR('',#227,1.);
#227 = DIRECTION('',(0.,0.,1.));
#228 = ORIENTED_EDGE('',*,*,#93,.T.);
#229 = ORIENTED_EDGE('',*,*,#158,.F.);
#230 = ORIENTED_EDGE('',*,*,#231,.T.);
#231 = EDGE_CURVE('',#148,#232,#234,.T.);
#232 = VERTEX_POINT('',#233);
#233 = CARTESIAN_POINT('',(-34.136195996,5.,10.));
#234 = LINE('',#235,#236);
#235 = CARTESIAN_POINT('',(-37.5,5.,10.));
#236 = VECTOR('',#237,1.);
#237 = DIRECTION('',(1.,0.,0.));
#238 = ORIENTED_EDGE('',*,*,#239,.F.);
#239 = EDGE_CURVE('',#200,#232,#240,.T.);
#240 = LINE('',#241,#242);
#241 = CARTESIAN_POINT('',(-34.136195996,5.,0.));
#242 = VECTOR('',#243,1.);
#243 = DIRECTION('',(0.,0.,1.));
#244 = PLANE('',#245);
#245 = AXIS2_PLACEMENT_3D('',#246,#247,#248);
#246 = CARTESIAN_POINT('',(-37.5,5.,0.));
#247 = DIRECTION('',(0.,1.,0.));
#248 = DIRECTION('',(1.,0.,0.));
#249 = ADVANCED_FACE('',(#250,#313),#349,.T.);
#250 = FACE_BOUND('',#251,.F.);
#251 = EDGE_LOOP('',(#252,#263,#271,#280,#289,#295,#296,#297,#298,#307)
  );
#252 = ORIENTED_EDGE('',*,*,#253,.F.);
#253 = EDGE_CURVE('',#254,#256,#258,.T.);
#254 = VERTEX_POINT('',#255);
#255 = CARTESIAN_POINT('',(-35.23972602739,-12.82231295492,0.));
#256 = VERTEX_POINT('',#257);
#257 = CARTESIAN_POINT('',(-28.0080845433,-24.93586172995,0.));
#258 = CIRCLE('',#259,37.5);
#259 = AXIS2_PLACEMENT_3D('',#260,#261,#262);
#260 = CARTESIAN_POINT('',(-3.1E-15,-5.E-16,0.));
#261 = DIRECTION('',(0.,0.,1.));
#262 = DIRECTION('',(1.,0.,0.));
#263 = ORIENTED_EDGE('',*,*,#264,.F.);
#264 = EDGE_CURVE('',#265,#254,#267,.T.);
#265 = VERTEX_POINT('',#266);
#266 = CARTESIAN_POINT('',(-35.23972602739,-12.82231295492,1.7));
#267 = LINE('',#268,#269);
#268 = CARTESIAN_POINT('',(-35.23972602739,-12.82231295492,1.7));
#269 = VECTOR('',#270,1.);
#270 = DIRECTION('',(-0.,-0.,-1.));
#271 = ORIENTED_EDGE('',*,*,#272,.F.);
#272 = EDGE_CURVE('',#273,#265,#275,.T.);
#273 = VERTEX_POINT('',#274);
#274 = CARTESIAN_POINT('',(-35.3,-12.65543361564,1.7));
#275 = CIRCLE('',#276,37.5);
#276 = AXIS2_PLACEMENT_3D('',#277,#278,#279);
#277 = CARTESIAN_POINT('',(-3.1E-15,-5.E-16,1.7));
#278 = DIRECTION('',(0.,-0.,1.));
#279 = DIRECTION('',(0.,1.,0.));
#280 = ORIENTED_EDGE('',*,*,#281,.T.);
#281 = EDGE_CURVE('',#273,#282,#284,.T.);
#282 = VERTEX_POINT('',#283);
#283 = CARTESIAN_POINT('',(-37.06187267703,-5.715557161915,1.7));
#284 = CIRCLE('',#285,37.5);
#285 = AXIS2_PLACEMENT_3D('',#286,#287,#288);
#286 = CARTESIAN_POINT('',(-3.1E-15,-5.E-16,1.7));
#287 = DIRECTION('',(0.,0.,-1.));
#288 = DIRECTION('',(1.,0.,0.));
#289 = ORIENTED_EDGE('',*,*,#290,.T.);
#290 = EDGE_CURVE('',#282,#50,#291,.T.);
#291 = LINE('',#292,#293);
#292 = CARTESIAN_POINT('',(-37.06187267703,-5.715557161915,0.));
#293 = VECTOR('',#294,1.);
#294 = DIRECTION('',(0.,0.,1.));
#295 = ORIENTED_EDGE('',*,*,#49,.F.);
#296 = ORIENTED_EDGE('',*,*,#40,.T.);
#297 = ORIENTED_EDGE('',*,*,#183,.F.);
#298 = ORIENTED_EDGE('',*,*,#299,.T.);
#299 = EDGE_CURVE('',#173,#300,#302,.T.);
#300 = VERTEX_POINT('',#301);
#301 = CARTESIAN_POINT('',(-28.0080845433,-24.93586172995,10.));
#302 = CIRCLE('',#303,37.5);
#303 = AXIS2_PLACEMENT_3D('',#304,#305,#306);
#304 = CARTESIAN_POINT('',(-3.1E-15,-5.E-16,10.));
#305 = DIRECTION('',(0.,0.,1.));
#306 = DIRECTION('',(1.,0.,0.));
#307 = ORIENTED_EDGE('',*,*,#308,.F.);
#308 = EDGE_CURVE('',#256,#300,#309,.T.);
#309 = LINE('',#310,#311);
#310 = CARTESIAN_POINT('',(-28.0080845433,-24.93586172995,0.));
#311 = VECTOR('',#312,1.);
#312 = DIRECTION('',(0.,0.,1.));
#313 = FACE_BOUND('',#314,.F.);
#314 = EDGE_LOOP('',(#315,#326,#334,#343));
#315 = ORIENTED_EDGE('',*,*,#316,.F.);
#316 = EDGE_CURVE('',#317,#319,#321,.T.);
#317 = VERTEX_POINT('',#318);
#318 = CARTESIAN_POINT('',(-29.56220608105,-23.0721904383,2.15));
#319 = VERTEX_POINT('',#320);
#320 = CARTESIAN_POINT('',(-34.76220608105,-14.06552623894,2.15));
#321 = CIRCLE('',#322,37.5);
#322 = AXIS2_PLACEMENT_3D('',#323,#324,#325);
#323 = CARTESIAN_POINT('',(-3.1E-15,-5.E-16,2.15));
#324 = DIRECTION('',(0.,0.,-1.));
#325 = DIRECTION('',(1.,0.,0.));
#326 = ORIENTED_EDGE('',*,*,#327,.F.);
#327 = EDGE_CURVE('',#328,#317,#330,.T.);
#328 = VERTEX_POINT('',#329);
#329 = CARTESIAN_POINT('',(-29.56220608105,-23.0721904383,7.85));
#330 = LINE('',#331,#332);
#331 = CARTESIAN_POINT('',(-29.56220608105,-23.0721904383,0.));
#332 = VECTOR('',#333,1.);
#333 = DIRECTION('',(-0.,-0.,-1.));
#334 = ORIENTED_EDGE('',*,*,#335,.T.);
#335 = EDGE_CURVE('',#328,#336,#338,.T.);
#336 = VERTEX_POINT('',#337);
#337 = CARTESIAN_POINT('',(-34.76220608105,-14.06552623894,7.85));
#338 = CIRCLE('',#339,37.5);
#339 = AXIS2_PLACEMENT_3D('',#340,#341,#342);
#340 = CARTESIAN_POINT('',(-3.1E-15,-5.E-16,7.85));
#341 = DIRECTION('',(0.,0.,-1.));
#342 = DIRECTION('',(1.,0.,0.));
#343 = ORIENTED_EDGE('',*,*,#344,.T.);
#344 = EDGE_CURVE('',#336,#319,#345,.T.);
#345 = LINE('',#346,#347);
#346 = CARTESIAN_POINT('',(-34.76220608105,-14.06552623894,0.));
#347 = VECTOR('',#348,1.);
#348 = DIRECTION('',(-0.,-0.,-1.));
#349 = CYLINDRICAL_SURFACE('',#350,37.5);
#350 = AXIS2_PLACEMENT_3D('',#351,#352,#353);
#351 = CARTESIAN_POINT('',(-3.1E-15,-5.E-16,0.));
#352 = DIRECTION('',(-0.,-0.,-1.));
#353 = DIRECTION('',(1.,0.,0.));
#354 = ADVANCED_FACE('',(#355),#374,.T.);
#355 = FACE_BOUND('',#356,.F.);
#356 = EDGE_LOOP('',(#357,#365,#372,#373));
#357 = ORIENTED_EDGE('',*,*,#358,.F.);
#358 = EDGE_CURVE('',#359,#77,#361,.T.);
#359 = VERTEX_POINT('',#360);
#360 = CARTESIAN_POINT('',(-38.,4.5,1.7));
#361 = LINE('',#362,#363);
#362 = CARTESIAN_POINT('',(-38.,4.5,0.));
#363 = VECTOR('',#364,1.);
#364 = DIRECTION('',(0.,0.,1.));
#365 = ORIENTED_EDGE('',*,*,#366,.T.);
#366 = EDGE_CURVE('',#359,#216,#367,.T.);
#367 = CIRCLE('',#368,0.5);
#368 = AXIS2_PLACEMENT_3D('',#369,#370,#371);
#369 = CARTESIAN_POINT('',(-37.5,4.5,1.7));
#370 = DIRECTION('',(0.,0.,-1.));
#371 = DIRECTION('',(1.,0.,0.));
#372 = ORIENTED_EDGE('',*,*,#223,.T.);
#373 = ORIENTED_EDGE('',*,*,#84,.F.);
#374 = CYLINDRICAL_SURFACE('',#375,0.5);
#375 = AXIS2_PLACEMENT_3D('',#376,#377,#378);
#376 = CARTESIAN_POINT('',(-37.5,4.5,0.));
#377 = DIRECTION('',(-0.,-0.,-1.));
#378 = DIRECTION('',(1.,0.,0.));
#379 = ADVANCED_FACE('',(#380),#399,.F.);
#380 = FACE_BOUND('',#381,.T.);
#381 = EDGE_LOOP('',(#382,#390,#397,#398));
#382 = ORIENTED_EDGE('',*,*,#383,.F.);
#383 = EDGE_CURVE('',#384,#59,#386,.T.);
#384 = VERTEX_POINT('',#385);
#385 = CARTESIAN_POINT('',(-37.67250689863,-4.969298806651,1.7));
#386 = LINE('',#387,#388);
#387 = CARTESIAN_POINT('',(-37.67250689863,-4.969298806651,0.));
#388 = VECTOR('',#389,1.);
#389 = DIRECTION('',(0.,0.,1.));
#390 = ORIENTED_EDGE('',*,*,#391,.T.);
#391 = EDGE_CURVE('',#384,#282,#392,.T.);
#392 = CIRCLE('',#393,0.949217405113);
#393 = AXIS2_PLACEMENT_3D('',#394,#395,#396);
#394 = CARTESIAN_POINT('',(-38.,-5.860231997595,1.7));
#395 = DIRECTION('',(0.,0.,-1.));
#396 = DIRECTION('',(1.,0.,0.));
#397 = ORIENTED_EDGE('',*,*,#290,.T.);
#398 = ORIENTED_EDGE('',*,*,#58,.F.);
#399 = CYLINDRICAL_SURFACE('',#400,0.949217405113);
#400 = AXIS2_PLACEMENT_3D('',#401,#402,#403);
#401 = CARTESIAN_POINT('',(-38.,-5.860231997595,0.));
#402 = DIRECTION('',(-0.,-0.,-1.));
#403 = DIRECTION('',(1.,0.,0.));
#404 = ADVANCED_FACE('',(#405,#423),#434,.F.);
#405 = FACE_BOUND('',#406,.F.);
#406 = EDGE_LOOP('',(#407,#415,#416,#417));
#407 = ORIENTED_EDGE('',*,*,#408,.F.);
#408 = EDGE_CURVE('',#359,#409,#411,.T.);
#409 = VERTEX_POINT('',#410);
#410 = CARTESIAN_POINT('',(-38.,-4.5,1.7));
#411 = LINE('',#412,#413);
#412 = CARTESIAN_POINT('',(-38.,7.,1.7));
#413 = VECTOR('',#414,1.);
#414 = DIRECTION('',(0.,-1.,2.2E-16));
#415 = ORIENTED_EDGE('',*,*,#358,.T.);
#416 = ORIENTED_EDGE('',*,*,#76,.T.);
#417 = ORIENTED_EDGE('',*,*,#418,.F.);
#418 = EDGE_CURVE('',#409,#68,#419,.T.);
#419 = LINE('',#420,#421);
#420 = CARTESIAN_POINT('',(-38.,-4.5,0.));
#421 = VECTOR('',#422,1.);
#422 = DIRECTION('',(0.,0.,1.));
#423 = FACE_BOUND('',#424,.F.);
#424 = EDGE_LOOP('',(#425));
#425 = ORIENTED_EDGE('',*,*,#426,.T.);
#426 = EDGE_CURVE('',#427,#427,#429,.T.);
#427 = VERTEX_POINT('',#428);
#428 = CARTESIAN_POINT('',(-38.,-2.05,5.));
#429 = CIRCLE('',#430,2.05);
#430 = AXIS2_PLACEMENT_3D('',#431,#432,#433);
#431 = CARTESIAN_POINT('',(-38.,0.,5.));
#432 = DIRECTION('',(-1.,0.,0.));
#433 = DIRECTION('',(0.,-1.,0.));
#434 = PLANE('',#435);
#435 = AXIS2_PLACEMENT_3D('',#436,#437,#438);
#436 = CARTESIAN_POINT('',(-38.,4.5,0.));
#437 = DIRECTION('',(1.,0.,0.));
#438 = DIRECTION('',(0.,-1.,0.));
#439 = ADVANCED_FACE('',(#440),#452,.T.);
#440 = FACE_BOUND('',#441,.F.);
#441 = EDGE_LOOP('',(#442,#443,#450,#451));
#442 = ORIENTED_EDGE('',*,*,#383,.F.);
#443 = ORIENTED_EDGE('',*,*,#444,.T.);
#444 = EDGE_CURVE('',#384,#409,#445,.T.);
#445 = CIRCLE('',#446,0.5);
#446 = AXIS2_PLACEMENT_3D('',#447,#448,#449);
#447 = CARTESIAN_POINT('',(-37.5,-4.5,1.7));
#448 = DIRECTION('',(0.,0.,-1.));
#449 = DIRECTION('',(1.,0.,0.));
#450 = ORIENTED_EDGE('',*,*,#418,.T.);
#451 = ORIENTED_EDGE('',*,*,#67,.F.);
#452 = CYLINDRICAL_SURFACE('',#453,0.5);
#453 = AXIS2_PLACEMENT_3D('',#454,#455,#456);
#454 = CARTESIAN_POINT('',(-37.5,-4.5,0.));
#455 = DIRECTION('',(-0.,-0.,-1.));
#456 = DIRECTION('',(1.,0.,0.));
#457 = ADVANCED_FACE('',(#458,#589),#600,.T.);
#458 = FACE_BOUND('',#459,.T.);
#459 = EDGE_LOOP('',(#460,#461,#462,#463,#464,#465,#474,#483,#491,#499,
    #508,#516,#525,#533,#541,#549,#557,#565,#574,#582));
#460 = ORIENTED_EDGE('',*,*,#231,.F.);
#461 = ORIENTED_EDGE('',*,*,#147,.T.);
#462 = ORIENTED_EDGE('',*,*,#125,.T.);
#463 = ORIENTED_EDGE('',*,*,#172,.F.);
#464 = ORIENTED_EDGE('',*,*,#299,.T.);
#465 = ORIENTED_EDGE('',*,*,#466,.T.);
#466 = EDGE_CURVE('',#300,#467,#469,.T.);
#467 = VERTEX_POINT('',#468);
#468 = CARTESIAN_POINT('',(-19.90348378021,-25.05696177533,10.));
#469 = CIRCLE('',#470,5.5);
#470 = AXIS2_PLACEMENT_3D('',#471,#472,#473);
#471 = CARTESIAN_POINT('',(-23.90023214361,-21.27860200955,10.));
#472 = DIRECTION('',(0.,0.,1.));
#473 = DIRECTION('',(1.,0.,0.));
#474 = ORIENTED_EDGE('',*,*,#475,.T.);
#475 = EDGE_CURVE('',#467,#476,#478,.T.);
#476 = VERTEX_POINT('',#477);
#477 = CARTESIAN_POINT('',(-19.22983134119,-19.31858093828,10.));
#478 = CIRCLE('',#479,4.834460069011);
#479 = AXIS2_PLACEMENT_3D('',#480,#481,#482);
#480 = CARTESIAN_POINT('',(-23.41659657453,-21.73581097278,10.));
#481 = DIRECTION('',(0.,0.,1.));
#482 = DIRECTION('',(1.,0.,0.));
#483 = ORIENTED_EDGE('',*,*,#484,.F.);
#484 = EDGE_CURVE('',#485,#476,#487,.T.);
#485 = VERTEX_POINT('',#486);
#486 = CARTESIAN_POINT('',(-22.8329702801,-13.07776122936,10.));
#487 = LINE('',#488,#489);
#488 = CARTESIAN_POINT('',(-32.83715789032,4.25,10.));
#489 = VECTOR('',#490,1.);
#490 = DIRECTION('',(0.5,-0.866025403784,0.));
#491 = ORIENTED_EDGE('',*,*,#492,.T.);
#492 = EDGE_CURVE('',#485,#493,#495,.T.);
#493 = VERTEX_POINT('',#494);
#494 = CARTESIAN_POINT('',(-29.36700465947,-16.85018773718,10.));
#495 = LINE('',#496,#497);
#496 = CARTESIAN_POINT('',(-22.8329702801,-13.07776122936,10.));
#497 = VECTOR('',#498,1.);
#498 = DIRECTION('',(-0.866025403784,-0.5,6.E-17));
#499 = ORIENTED_EDGE('',*,*,#500,.T.);
#500 = EDGE_CURVE('',#493,#501,#503,.T.);
#501 = VERTEX_POINT('',#502);
#502 = CARTESIAN_POINT('',(-30.09996757568,-16.28776551451,10.));
#503 = CIRCLE('',#504,0.5);
#504 = AXIS2_PLACEMENT_3D('',#505,#506,#507);
#505 = CARTESIAN_POINT('',(-29.61700466253,-16.41717503706,10.));
#506 = DIRECTION('',(0.,0.,-1.));
#507 = DIRECTION('',(1.,0.,0.));
#508 = ORIENTED_EDGE('',*,*,#509,.T.);
#509 = EDGE_CURVE('',#501,#510,#512,.T.);
#510 = VERTEX_POINT('',#511);
#511 = CARTESIAN_POINT('',(-29.06469139527,-12.42406220935,10.));
#512 = LINE('',#513,#514);
#513 = CARTESIAN_POINT('',(-29.06090661276,-12.40993720874,10.));
#514 = VECTOR('',#515,1.);
#515 = DIRECTION('',(0.258819045103,0.965925826289,0.));
#516 = ORIENTED_EDGE('',*,*,#517,.T.);
#517 = EDGE_CURVE('',#510,#518,#520,.T.);
#518 = VERTEX_POINT('',#519);
#519 = CARTESIAN_POINT('',(-28.22602490794,-11.33109076372,10.));
#520 = CIRCLE('',#521,1.8);
#521 = AXIS2_PLACEMENT_3D('',#522,#523,#524);
#522 = CARTESIAN_POINT('',(-27.32602490794,-12.88993649053,10.));
#523 = DIRECTION('',(0.,0.,-1.));
#524 = DIRECTION('',(1.,0.,0.));
#525 = ORIENTED_EDGE('',*,*,#526,.T.);
#526 = EDGE_CURVE('',#518,#527,#529,.T.);
#527 = VERTEX_POINT('',#528);
#528 = CARTESIAN_POINT('',(-24.9375644347,-9.432497224278,10.));
#529 = LINE('',#530,#531);
#530 = CARTESIAN_POINT('',(-27.00072686661,-10.62366460972,10.));
#531 = VECTOR('',#532,1.);
#532 = DIRECTION('',(0.866025403784,0.5,0.));
#533 = ORIENTED_EDGE('',*,*,#534,.F.);
#534 = EDGE_CURVE('',#535,#527,#537,.T.);
#535 = VERTEX_POINT('',#536);
#536 = CARTESIAN_POINT('',(-25.8375644347,-7.873651497466,10.));
#537 = LINE('',#538,#539);
#538 = CARTESIAN_POINT('',(-32.83715789032,4.25,10.));
#539 = VECTOR('',#540,1.);
#540 = DIRECTION('',(0.5,-0.866025403784,0.));
#541 = ORIENTED_EDGE('',*,*,#542,.T.);
#542 = EDGE_CURVE('',#535,#543,#545,.T.);
#543 = VERTEX_POINT('',#544);
#544 = CARTESIAN_POINT('',(-28.21287422283,-9.245037243051,10.));
#545 = LINE('',#546,#547);
#546 = CARTESIAN_POINT('',(-25.8375644347,-7.873651497466,10.));
#547 = VECTOR('',#548,1.);
#548 = DIRECTION('',(-0.866025403784,-0.5,0.));
#549 = ORIENTED_EDGE('',*,*,#550,.F.);
#550 = EDGE_CURVE('',#551,#543,#553,.T.);
#551 = VERTEX_POINT('',#552);
#552 = CARTESIAN_POINT('',(-30.6,-5.110414112936,10.));
#553 = LINE('',#554,#555);
#554 = CARTESIAN_POINT('',(-30.6,-5.110414112936,10.));
#555 = VECTOR('',#556,1.);
#556 = DIRECTION('',(0.5,-0.866025403784,0.));
#557 = ORIENTED_EDGE('',*,*,#558,.F.);
#558 = EDGE_CURVE('',#559,#551,#561,.T.);
#559 = VERTEX_POINT('',#560);
#560 = CARTESIAN_POINT('',(-30.6,0.,10.));
#561 = LINE('',#562,#563);
#562 = CARTESIAN_POINT('',(-30.6,2.E-16,10.));
#563 = VECTOR('',#564,1.);
#564 = DIRECTION('',(0.,-1.,0.));
#565 = ORIENTED_EDGE('',*,*,#566,.F.);
#566 = EDGE_CURVE('',#567,#559,#569,.T.);
#567 = VERTEX_POINT('',#568);
#568 = CARTESIAN_POINT('',(-30.78756443113,0.699999993814,10.));
#569 = CIRCLE('',#570,1.4);
#570 = AXIS2_PLACEMENT_3D('',#571,#572,#573);
#571 = CARTESIAN_POINT('',(-32.,0.,10.));
#572 = DIRECTION('',(0.,0.,1.));
#573 = DIRECTION('',(1.,0.,-0.));
#574 = ORIENTED_EDGE('',*,*,#575,.F.);
#575 = EDGE_CURVE('',#576,#567,#578,.T.);
#576 = VERTEX_POINT('',#577);
#577 = CARTESIAN_POINT('',(-32.83715789032,4.25,10.));
#578 = LINE('',#579,#580);
#579 = CARTESIAN_POINT('',(-32.83715789032,4.25,10.));
#580 = VECTOR('',#581,1.);
#581 = DIRECTION('',(0.5,-0.866025403784,0.));
#582 = ORIENTED_EDGE('',*,*,#583,.T.);
#583 = EDGE_CURVE('',#576,#232,#584,.T.);
#584 = CIRCLE('',#585,1.5);
#585 = AXIS2_PLACEMENT_3D('',#586,#587,#588);
#586 = CARTESIAN_POINT('',(-34.136195996,3.5,10.));
#587 = DIRECTION('',(0.,0.,1.));
#588 = DIRECTION('',(1.,0.,0.));
#589 = FACE_BOUND('',#590,.T.);
#590 = EDGE_LOOP('',(#591));
#591 = ORIENTED_EDGE('',*,*,#592,.F.);
#592 = EDGE_CURVE('',#593,#593,#595,.T.);
#593 = VERTEX_POINT('',#594);
#594 = CARTESIAN_POINT('',(-20.57741699797,-22.62741699797,10.));
#595 = CIRCLE('',#596,2.05);
#596 = AXIS2_PLACEMENT_3D('',#597,#598,#599);
#597 = CARTESIAN_POINT('',(-22.62741699797,-22.62741699797,10.));
#598 = DIRECTION('',(0.,0.,1.));
#599 = DIRECTION('',(1.,0.,0.));
#600 = PLANE('',#601);
#601 = AXIS2_PLACEMENT_3D('',#602,#603,#604);
#602 = CARTESIAN_POINT('',(-28.66831096617,-12.49999376517,10.));
#603 = DIRECTION('',(0.,0.,1.));
#604 = DIRECTION('',(1.,0.,0.));
#605 = ADVANCED_FACE('',(#606,#758),#769,.F.);
#606 = FACE_BOUND('',#607,.F.);
#607 = EDGE_LOOP('',(#608,#609,#618,#626,#633,#634,#643,#652,#660,#668,
    #677,#685,#694,#702,#710,#718,#726,#734,#743,#751));
#608 = ORIENTED_EDGE('',*,*,#197,.F.);
#609 = ORIENTED_EDGE('',*,*,#610,.T.);
#610 = EDGE_CURVE('',#198,#611,#613,.T.);
#611 = VERTEX_POINT('',#612);
#612 = CARTESIAN_POINT('',(-35.3,4.,0.));
#613 = CIRCLE('',#614,1.);
#614 = AXIS2_PLACEMENT_3D('',#615,#616,#617);
#615 = CARTESIAN_POINT('',(-34.3,4.,0.));
#616 = DIRECTION('',(-0.,0.,1.));
#617 = DIRECTION('',(0.,-1.,0.));
#618 = ORIENTED_EDGE('',*,*,#619,.T.);
#619 = EDGE_CURVE('',#611,#620,#622,.T.);
#620 = VERTEX_POINT('',#621);
#621 = CARTESIAN_POINT('',(-35.3,-12.48038460945,3.E-15));
#622 = LINE('',#623,#624);
#623 = CARTESIAN_POINT('',(-35.3,7.,-8.9E-16));
#624 = VECTOR('',#625,1.);
#625 = DIRECTION('',(0.,-1.,2.2E-16));
#626 = ORIENTED_EDGE('',*,*,#627,.F.);
#627 = EDGE_CURVE('',#254,#620,#628,.T.);
#628 = CIRCLE('',#629,1.);
#629 = AXIS2_PLACEMENT_3D('',#630,#631,#632);
#630 = CARTESIAN_POINT('',(-34.3,-12.48038460945,0.));
#631 = DIRECTION('',(0.,0.,-1.));
#632 = DIRECTION('',(0.,1.,0.));
#633 = ORIENTED_EDGE('',*,*,#253,.T.);
#634 = ORIENTED_EDGE('',*,*,#635,.T.);
#635 = EDGE_CURVE('',#256,#636,#638,.T.);
#636 = VERTEX_POINT('',#637);
#637 = CARTESIAN_POINT('',(-19.90348378021,-25.05696177533,0.));
#638 = CIRCLE('',#639,5.5);
#639 = AXIS2_PLACEMENT_3D('',#640,#641,#642);
#640 = CARTESIAN_POINT('',(-23.90023214361,-21.27860200955,0.));
#641 = DIRECTION('',(0.,0.,1.));
#642 = DIRECTION('',(1.,0.,0.));
#643 = ORIENTED_EDGE('',*,*,#644,.T.);
#644 = EDGE_CURVE('',#636,#645,#647,.T.);
#645 = VERTEX_POINT('',#646);
#646 = CARTESIAN_POINT('',(-19.22983134119,-19.31858093828,0.));
#647 = CIRCLE('',#648,4.834460069011);
#648 = AXIS2_PLACEMENT_3D('',#649,#650,#651);
#649 = CARTESIAN_POINT('',(-23.41659657453,-21.73581097278,0.));
#650 = DIRECTION('',(0.,0.,1.));
#651 = DIRECTION('',(1.,0.,0.));
#652 = ORIENTED_EDGE('',*,*,#653,.F.);
#653 = EDGE_CURVE('',#654,#645,#656,.T.);
#654 = VERTEX_POINT('',#655);
#655 = CARTESIAN_POINT('',(-22.8329702801,-13.07776122936,-2.E-15));
#656 = LINE('',#657,#658);
#657 = CARTESIAN_POINT('',(-32.83715789032,4.25,0.));
#658 = VECTOR('',#659,1.);
#659 = DIRECTION('',(0.5,-0.866025403784,0.));
#660 = ORIENTED_EDGE('',*,*,#661,.T.);
#661 = EDGE_CURVE('',#654,#662,#664,.T.);
#662 = VERTEX_POINT('',#663);
#663 = CARTESIAN_POINT('',(-29.36700465947,-16.85018773718,0.));
#664 = LINE('',#665,#666);
#665 = CARTESIAN_POINT('',(-22.8329702801,-13.07776122936,-1.78E-15));
#666 = VECTOR('',#667,1.);
#667 = DIRECTION('',(-0.866025403784,-0.5,-6.E-17));
#668 = ORIENTED_EDGE('',*,*,#669,.T.);
#669 = EDGE_CURVE('',#662,#670,#672,.T.);
#670 = VERTEX_POINT('',#671);
#671 = CARTESIAN_POINT('',(-30.09996757568,-16.28776551451,0.));
#672 = CIRCLE('',#673,0.5);
#673 = AXIS2_PLACEMENT_3D('',#674,#675,#676);
#674 = CARTESIAN_POINT('',(-29.61700466253,-16.41717503706,0.));
#675 = DIRECTION('',(0.,0.,-1.));
#676 = DIRECTION('',(1.,0.,0.));
#677 = ORIENTED_EDGE('',*,*,#678,.F.);
#678 = EDGE_CURVE('',#679,#670,#681,.T.);
#679 = VERTEX_POINT('',#680);
#680 = CARTESIAN_POINT('',(-29.06469139527,-12.42406220935,0.));
#681 = LINE('',#682,#683);
#682 = CARTESIAN_POINT('',(-29.06469139527,-12.42406220935,0.));
#683 = VECTOR('',#684,1.);
#684 = DIRECTION('',(-0.258819045103,-0.965925826289,0.));
#685 = ORIENTED_EDGE('',*,*,#686,.T.);
#686 = EDGE_CURVE('',#679,#687,#689,.T.);
#687 = VERTEX_POINT('',#688);
#688 = CARTESIAN_POINT('',(-28.22602490794,-11.33109076372,0.));
#689 = CIRCLE('',#690,1.8);
#690 = AXIS2_PLACEMENT_3D('',#691,#692,#693);
#691 = CARTESIAN_POINT('',(-27.32602490794,-12.88993649053,0.));
#692 = DIRECTION('',(0.,0.,-1.));
#693 = DIRECTION('',(1.,0.,0.));
#694 = ORIENTED_EDGE('',*,*,#695,.F.);
#695 = EDGE_CURVE('',#696,#687,#698,.T.);
#696 = VERTEX_POINT('',#697);
#697 = CARTESIAN_POINT('',(-24.9375644347,-9.432497224278,0.));
#698 = LINE('',#699,#700);
#699 = CARTESIAN_POINT('',(-24.9375644347,-9.432497224278,0.));
#700 = VECTOR('',#701,1.);
#701 = DIRECTION('',(-0.866025403784,-0.5,0.));
#702 = ORIENTED_EDGE('',*,*,#703,.F.);
#703 = EDGE_CURVE('',#704,#696,#706,.T.);
#704 = VERTEX_POINT('',#705);
#705 = CARTESIAN_POINT('',(-25.8375644347,-7.873651497466,0.));
#706 = LINE('',#707,#708);
#707 = CARTESIAN_POINT('',(-32.83715789032,4.25,0.));
#708 = VECTOR('',#709,1.);
#709 = DIRECTION('',(0.5,-0.866025403784,0.));
#710 = ORIENTED_EDGE('',*,*,#711,.T.);
#711 = EDGE_CURVE('',#704,#712,#714,.T.);
#712 = VERTEX_POINT('',#713);
#713 = CARTESIAN_POINT('',(-28.21287422283,-9.245037243051,0.));
#714 = LINE('',#715,#716);
#715 = CARTESIAN_POINT('',(-27.90072686661,-9.064818882912,0.));
#716 = VECTOR('',#717,1.);
#717 = DIRECTION('',(-0.866025403784,-0.5,0.));
#718 = ORIENTED_EDGE('',*,*,#719,.F.);
#719 = EDGE_CURVE('',#720,#712,#722,.T.);
#720 = VERTEX_POINT('',#721);
#721 = CARTESIAN_POINT('',(-30.6,-5.110414112936,0.));
#722 = LINE('',#723,#724);
#723 = CARTESIAN_POINT('',(-28.75864794524,-8.2997294264,0.));
#724 = VECTOR('',#725,1.);
#725 = DIRECTION('',(0.5,-0.866025403784,0.));
#726 = ORIENTED_EDGE('',*,*,#727,.F.);
#727 = EDGE_CURVE('',#728,#720,#730,.T.);
#728 = VERTEX_POINT('',#729);
#729 = CARTESIAN_POINT('',(-30.6,0.,0.));
#730 = LINE('',#731,#732);
#731 = CARTESIAN_POINT('',(-30.6,-6.249996882586,0.));
#732 = VECTOR('',#733,1.);
#733 = DIRECTION('',(0.,-1.,0.));
#734 = ORIENTED_EDGE('',*,*,#735,.F.);
#735 = EDGE_CURVE('',#736,#728,#738,.T.);
#736 = VERTEX_POINT('',#737);
#737 = CARTESIAN_POINT('',(-30.78756442798,0.699999988358,0.));
#738 = CIRCLE('',#739,1.4);
#739 = AXIS2_PLACEMENT_3D('',#740,#741,#742);
#740 = CARTESIAN_POINT('',(-32.,0.,0.));
#741 = DIRECTION('',(0.,0.,1.));
#742 = DIRECTION('',(1.,0.,-0.));
#743 = ORIENTED_EDGE('',*,*,#744,.F.);
#744 = EDGE_CURVE('',#745,#736,#747,.T.);
#745 = VERTEX_POINT('',#746);
#746 = CARTESIAN_POINT('',(-32.83715789032,4.25,0.));
#747 = LINE('',#748,#749);
#748 = CARTESIAN_POINT('',(-32.83715789032,4.25,0.));
#749 = VECTOR('',#750,1.);
#750 = DIRECTION('',(0.5,-0.866025403784,0.));
#751 = ORIENTED_EDGE('',*,*,#752,.T.);
#752 = EDGE_CURVE('',#745,#200,#753,.T.);
#753 = CIRCLE('',#754,1.5);
#754 = AXIS2_PLACEMENT_3D('',#755,#756,#757);
#755 = CARTESIAN_POINT('',(-34.136195996,3.5,0.));
#756 = DIRECTION('',(0.,0.,1.));
#757 = DIRECTION('',(1.,0.,0.));
#758 = FACE_BOUND('',#759,.F.);
#759 = EDGE_LOOP('',(#760));
#760 = ORIENTED_EDGE('',*,*,#761,.F.);
#761 = EDGE_CURVE('',#762,#762,#764,.T.);
#762 = VERTEX_POINT('',#763);
#763 = CARTESIAN_POINT('',(-20.57741699797,-22.62741699797,0.));
#764 = CIRCLE('',#765,2.05);
#765 = AXIS2_PLACEMENT_3D('',#766,#767,#768);
#766 = CARTESIAN_POINT('',(-22.62741699797,-22.62741699797,0.));
#767 = DIRECTION('',(0.,0.,1.));
#768 = DIRECTION('',(1.,0.,0.));
#769 = PLANE('',#770);
#770 = AXIS2_PLACEMENT_3D('',#771,#772,#773);
#771 = CARTESIAN_POINT('',(-28.66831096617,-12.49999376517,0.));
#772 = DIRECTION('',(0.,0.,1.));
#773 = DIRECTION('',(1.,0.,0.));
#774 = ADVANCED_FACE('',(#775),#794,.T.);
#775 = FACE_BOUND('',#776,.T.);
#776 = EDGE_LOOP('',(#777,#778,#786,#793));
#777 = ORIENTED_EDGE('',*,*,#610,.T.);
#778 = ORIENTED_EDGE('',*,*,#779,.T.);
#779 = EDGE_CURVE('',#611,#780,#782,.T.);
#780 = VERTEX_POINT('',#781);
#781 = CARTESIAN_POINT('',(-35.3,4.,1.7));
#782 = LINE('',#783,#784);
#783 = CARTESIAN_POINT('',(-35.3,4.,0.));
#784 = VECTOR('',#785,1.);
#785 = DIRECTION('',(0.,0.,1.));
#786 = ORIENTED_EDGE('',*,*,#787,.F.);
#787 = EDGE_CURVE('',#208,#780,#788,.T.);
#788 = CIRCLE('',#789,1.);
#789 = AXIS2_PLACEMENT_3D('',#790,#791,#792);
#790 = CARTESIAN_POINT('',(-34.3,4.,1.7));
#791 = DIRECTION('',(-0.,0.,1.));
#792 = DIRECTION('',(0.,-1.,0.));
#793 = ORIENTED_EDGE('',*,*,#207,.F.);
#794 = CYLINDRICAL_SURFACE('',#795,1.);
#795 = AXIS2_PLACEMENT_3D('',#796,#797,#798);
#796 = CARTESIAN_POINT('',(-34.3,4.,0.));
#797 = DIRECTION('',(0.,0.,1.));
#798 = DIRECTION('',(0.,1.,0.));
#799 = ADVANCED_FACE('',(#800),#811,.T.);
#800 = FACE_BOUND('',#801,.F.);
#801 = EDGE_LOOP('',(#802,#808,#809,#810));
#802 = ORIENTED_EDGE('',*,*,#803,.T.);
#803 = EDGE_CURVE('',#745,#576,#804,.T.);
#804 = LINE('',#805,#806);
#805 = CARTESIAN_POINT('',(-32.83715789032,4.25,0.));
#806 = VECTOR('',#807,1.);
#807 = DIRECTION('',(0.,0.,1.));
#808 = ORIENTED_EDGE('',*,*,#583,.T.);
#809 = ORIENTED_EDGE('',*,*,#239,.F.);
#810 = ORIENTED_EDGE('',*,*,#752,.F.);
#811 = CYLINDRICAL_SURFACE('',#812,1.5);
#812 = AXIS2_PLACEMENT_3D('',#813,#814,#815);
#813 = CARTESIAN_POINT('',(-34.136195996,3.5,0.));
#814 = DIRECTION('',(-0.,-0.,-1.));
#815 = DIRECTION('',(1.,0.,0.));
#816 = ADVANCED_FACE('',(#817),#842,.T.);
#817 = FACE_BOUND('',#818,.T.);
#818 = EDGE_LOOP('',(#819,#827,#834,#835,#836,#837,#838,#839,#840,#841)
  );
#819 = ORIENTED_EDGE('',*,*,#820,.T.);
#820 = EDGE_CURVE('',#780,#821,#823,.T.);
#821 = VERTEX_POINT('',#822);
#822 = CARTESIAN_POINT('',(-35.3,-12.48038460945,1.7));
#823 = LINE('',#824,#825);
#824 = CARTESIAN_POINT('',(-35.3,7.,1.7));
#825 = VECTOR('',#826,1.);
#826 = DIRECTION('',(0.,-1.,2.2E-16));
#827 = ORIENTED_EDGE('',*,*,#828,.F.);
#828 = EDGE_CURVE('',#265,#821,#829,.T.);
#829 = CIRCLE('',#830,1.);
#830 = AXIS2_PLACEMENT_3D('',#831,#832,#833);
#831 = CARTESIAN_POINT('',(-34.3,-12.48038460945,1.7));
#832 = DIRECTION('',(0.,0.,-1.));
#833 = DIRECTION('',(0.,1.,0.));
#834 = ORIENTED_EDGE('',*,*,#272,.F.);
#835 = ORIENTED_EDGE('',*,*,#281,.T.);
#836 = ORIENTED_EDGE('',*,*,#391,.F.);
#837 = ORIENTED_EDGE('',*,*,#444,.T.);
#838 = ORIENTED_EDGE('',*,*,#408,.F.);
#839 = ORIENTED_EDGE('',*,*,#366,.T.);
#840 = ORIENTED_EDGE('',*,*,#215,.T.);
#841 = ORIENTED_EDGE('',*,*,#787,.T.);
#842 = PLANE('',#843);
#843 = AXIS2_PLACEMENT_3D('',#844,#845,#846);
#844 = CARTESIAN_POINT('',(-35.3,7.,1.7));
#845 = DIRECTION('',(-0.,-2.2E-16,-1.));
#846 = DIRECTION('',(-1.,0.,0.));
#847 = ADVANCED_FACE('',(#848),#859,.T.);
#848 = FACE_BOUND('',#849,.T.);
#849 = EDGE_LOOP('',(#850,#851,#857,#858));
#850 = ORIENTED_EDGE('',*,*,#828,.T.);
#851 = ORIENTED_EDGE('',*,*,#852,.T.);
#852 = EDGE_CURVE('',#821,#620,#853,.T.);
#853 = LINE('',#854,#855);
#854 = CARTESIAN_POINT('',(-35.3,-12.48038460945,1.7));
#855 = VECTOR('',#856,1.);
#856 = DIRECTION('',(-0.,-0.,-1.));
#857 = ORIENTED_EDGE('',*,*,#627,.F.);
#858 = ORIENTED_EDGE('',*,*,#264,.F.);
#859 = CYLINDRICAL_SURFACE('',#860,1.);
#860 = AXIS2_PLACEMENT_3D('',#861,#862,#863);
#861 = CARTESIAN_POINT('',(-34.3,-12.48038460945,1.7));
#862 = DIRECTION('',(-0.,-0.,-1.));
#863 = DIRECTION('',(-0.939726027397,-0.341928345465,0.));
#864 = ADVANCED_FACE('',(#865),#876,.T.);
#865 = FACE_BOUND('',#866,.F.);
#866 = EDGE_LOOP('',(#867,#868,#869,#875));
#867 = ORIENTED_EDGE('',*,*,#308,.T.);
#868 = ORIENTED_EDGE('',*,*,#466,.T.);
#869 = ORIENTED_EDGE('',*,*,#870,.F.);
#870 = EDGE_CURVE('',#636,#467,#871,.T.);
#871 = LINE('',#872,#873);
#872 = CARTESIAN_POINT('',(-19.90348378021,-25.05696177533,0.));
#873 = VECTOR('',#874,1.);
#874 = DIRECTION('',(0.,0.,1.));
#875 = ORIENTED_EDGE('',*,*,#635,.F.);
#876 = CYLINDRICAL_SURFACE('',#877,5.5);
#877 = AXIS2_PLACEMENT_3D('',#878,#879,#880);
#878 = CARTESIAN_POINT('',(-23.90023214361,-21.27860200955,0.));
#879 = DIRECTION('',(-0.,-0.,-1.));
#880 = DIRECTION('',(1.,0.,0.));
#881 = ADVANCED_FACE('',(#882),#1014,.T.);
#882 = FACE_BOUND('',#883,.T.);
#883 = EDGE_LOOP('',(#884,#892,#900,#908,#916,#924,#932,#940,#948,#957,
    #965,#974,#982,#991,#999,#1007,#1013));
#884 = ORIENTED_EDGE('',*,*,#885,.F.);
#885 = EDGE_CURVE('',#886,#317,#888,.T.);
#886 = VERTEX_POINT('',#887);
#887 = CARTESIAN_POINT('',(-20.87794869659,-18.05833209967,2.15));
#888 = LINE('',#889,#890);
#889 = CARTESIAN_POINT('',(-20.87794869659,-18.05833209967,2.15));
#890 = VECTOR('',#891,1.);
#891 = DIRECTION('',(-0.866025403784,-0.5,-0.));
#892 = ORIENTED_EDGE('',*,*,#893,.T.);
#893 = EDGE_CURVE('',#886,#894,#896,.T.);
#894 = VERTEX_POINT('',#895);
#895 = CARTESIAN_POINT('',(-21.32794869659,-17.27890923627,2.15));
#896 = LINE('',#897,#898);
#897 = CARTESIAN_POINT('',(-20.87794869659,-18.05833209967,2.15));
#898 = VECTOR('',#899,1.);
#899 = DIRECTION('',(-0.5,0.866025403784,0.));
#900 = ORIENTED_EDGE('',*,*,#901,.T.);
#901 = EDGE_CURVE('',#894,#902,#904,.T.);
#902 = VERTEX_POINT('',#903);
#903 = CARTESIAN_POINT('',(-20.6375644347,-16.88031569682,2.15));
#904 = LINE('',#905,#906);
#905 = CARTESIAN_POINT('',(-21.32794869659,-17.27890923627,2.15));
#906 = VECTOR('',#907,1.);
#907 = DIRECTION('',(0.866025403784,0.5,0.));
#908 = ORIENTED_EDGE('',*,*,#909,.F.);
#909 = EDGE_CURVE('',#910,#902,#912,.T.);
#910 = VERTEX_POINT('',#911);
#911 = CARTESIAN_POINT('',(-24.4375644347,-10.29852262806,2.15));
#912 = LINE('',#913,#914);
#913 = CARTESIAN_POINT('',(-26.73736116251,-6.315157848412,2.15));
#914 = VECTOR('',#915,1.);
#915 = DIRECTION('',(0.5,-0.866025403784,0.));
#916 = ORIENTED_EDGE('',*,*,#917,.F.);
#917 = EDGE_CURVE('',#918,#910,#920,.T.);
#918 = VERTEX_POINT('',#919);
#919 = CARTESIAN_POINT('',(-25.30115377735,-10.79711616751,
    2.149999999998));
#920 = LINE('',#921,#922);
#921 = CARTESIAN_POINT('',(-26.82032088705,-11.67420770724,2.15));
#922 = VECTOR('',#923,1.);
#923 = DIRECTION('',(0.866025403784,0.5,0.));
#924 = ORIENTED_EDGE('',*,*,#925,.T.);
#925 = EDGE_CURVE('',#918,#926,#928,.T.);
#926 = VERTEX_POINT('',#927);
#927 = CARTESIAN_POINT('',(-24.12333631804,-12.83715584907,
    2.149999999998));
#928 = LINE('',#929,#930);
#929 = CARTESIAN_POINT('',(-25.30115377735,-10.79711616751,
    2.149999999998));
#930 = VECTOR('',#931,1.);
#931 = DIRECTION('',(0.5,-0.866025403784,0.));
#932 = ORIENTED_EDGE('',*,*,#933,.T.);
#933 = EDGE_CURVE('',#926,#934,#936,.T.);
#934 = VERTEX_POINT('',#935);
#935 = CARTESIAN_POINT('',(-26.54820744864,-14.23715584907,
    2.149999999998));
#936 = LINE('',#937,#938);
#937 = CARTESIAN_POINT('',(-23.69154164672,-12.58785907934,
    2.149999999998));
#938 = VECTOR('',#939,1.);
#939 = DIRECTION('',(-0.866025403784,-0.5,1.9E-15));
#940 = ORIENTED_EDGE('',*,*,#941,.F.);
#941 = EDGE_CURVE('',#942,#934,#944,.T.);
#942 = VERTEX_POINT('',#943);
#943 = CARTESIAN_POINT('',(-27.72602490794,-12.19711616751,2.15));
#944 = LINE('',#945,#946);
#945 = CARTESIAN_POINT('',(-27.72602490794,-12.19711616751,
    2.149999999998));
#946 = VECTOR('',#947,1.);
#947 = DIRECTION('',(0.5,-0.866025403784,0.));
#948 = ORIENTED_EDGE('',*,*,#949,.F.);
#949 = EDGE_CURVE('',#950,#942,#952,.T.);
#950 = VERTEX_POINT('',#951);
#951 = CARTESIAN_POINT('',(-28.09876556898,-12.68288125445,2.15));
#952 = CIRCLE('',#953,0.8);
#953 = AXIS2_PLACEMENT_3D('',#954,#955,#956);
#954 = CARTESIAN_POINT('',(-27.32602490794,-12.88993649053,2.15));
#955 = DIRECTION('',(0.,0.,-1.));
#956 = DIRECTION('',(1.,0.,0.));
#957 = ORIENTED_EDGE('',*,*,#958,.F.);
#958 = EDGE_CURVE('',#959,#950,#961,.T.);
#959 = VERTEX_POINT('',#960);
#960 = CARTESIAN_POINT('',(-29.13404174939,-16.54658455961,2.15));
#961 = LINE('',#962,#963);
#962 = CARTESIAN_POINT('',(-28.48360039948,-14.11910439441,2.15));
#963 = VECTOR('',#964,1.);
#964 = DIRECTION('',(0.258819045103,0.965925826289,0.));
#965 = ORIENTED_EDGE('',*,*,#966,.T.);
#966 = EDGE_CURVE('',#959,#967,#969,.T.);
#967 = VERTEX_POINT('',#968);
#968 = CARTESIAN_POINT('',(-30.09996757568,-16.28776551451,2.15));
#969 = CIRCLE('',#970,0.5);
#970 = AXIS2_PLACEMENT_3D('',#971,#972,#973);
#971 = CARTESIAN_POINT('',(-29.61700466253,-16.41717503706,2.15));
#972 = DIRECTION('',(0.,0.,-1.));
#973 = DIRECTION('',(1.,0.,0.));
#974 = ORIENTED_EDGE('',*,*,#975,.T.);
#975 = EDGE_CURVE('',#967,#976,#978,.T.);
#976 = VERTEX_POINT('',#977);
#977 = CARTESIAN_POINT('',(-29.06469139527,-12.42406220935,2.15));
#978 = LINE('',#979,#980);
#979 = CARTESIAN_POINT('',(-29.44952622577,-13.86028534931,2.15));
#980 = VECTOR('',#981,1.);
#981 = DIRECTION('',(0.258819045103,0.965925826289,0.));
#982 = ORIENTED_EDGE('',*,*,#983,.T.);
#983 = EDGE_CURVE('',#976,#984,#986,.T.);
#984 = VERTEX_POINT('',#985);
#985 = CARTESIAN_POINT('',(-28.22602490794,-11.33109076372,2.15));
#986 = CIRCLE('',#987,1.8);
#987 = AXIS2_PLACEMENT_3D('',#988,#989,#990);
#988 = CARTESIAN_POINT('',(-27.32602490794,-12.88993649053,2.15));
#989 = DIRECTION('',(0.,0.,-1.));
#990 = DIRECTION('',(1.,0.,0.));
#991 = ORIENTED_EDGE('',*,*,#992,.T.);
#992 = EDGE_CURVE('',#984,#993,#995,.T.);
#993 = VERTEX_POINT('',#994);
#994 = CARTESIAN_POINT('',(-25.62794869659,-9.831090763727,2.15));
#995 = LINE('',#996,#997);
#996 = CARTESIAN_POINT('',(-27.32032088705,-10.80818230345,2.15));
#997 = VECTOR('',#998,1.);
#998 = DIRECTION('',(0.866025403784,0.5,0.));
#999 = ORIENTED_EDGE('',*,*,#1000,.T.);
#1000 = EDGE_CURVE('',#993,#1001,#1003,.T.);
#1001 = VERTEX_POINT('',#1002);
#1002 = CARTESIAN_POINT('',(-26.07794869659,-9.051667900321,2.15));
#1003 = LINE('',#1004,#1005);
#1004 = CARTESIAN_POINT('',(-20.87794869659,-18.05833209967,2.15));
#1005 = VECTOR('',#1006,1.);
#1006 = DIRECTION('',(-0.5,0.866025403784,0.));
#1007 = ORIENTED_EDGE('',*,*,#1008,.T.);
#1008 = EDGE_CURVE('',#1001,#319,#1009,.T.);
#1009 = LINE('',#1010,#1011);
#1010 = CARTESIAN_POINT('',(-26.07794869659,-9.051667900321,2.15));
#1011 = VECTOR('',#1012,1.);
#1012 = DIRECTION('',(-0.866025403784,-0.5,-0.));
#1013 = ORIENTED_EDGE('',*,*,#316,.F.);
#1014 = PLANE('',#1015);
#1015 = AXIS2_PLACEMENT_3D('',#1016,#1017,#1018);
#1016 = CARTESIAN_POINT('',(-27.55307733941,-15.90777661891,2.15));
#1017 = DIRECTION('',(0.,0.,1.));
#1018 = DIRECTION('',(1.,0.,0.));
#1019 = ADVANCED_FACE('',(#1020),#1038,.F.);
#1020 = FACE_BOUND('',#1021,.F.);
#1021 = EDGE_LOOP('',(#1022,#1030,#1036,#1037));
#1022 = ORIENTED_EDGE('',*,*,#1023,.F.);
#1023 = EDGE_CURVE('',#1024,#886,#1026,.T.);
#1024 = VERTEX_POINT('',#1025);
#1025 = CARTESIAN_POINT('',(-20.87794869659,-18.05833209967,7.85));
#1026 = LINE('',#1027,#1028);
#1027 = CARTESIAN_POINT('',(-20.87794869659,-18.05833209967,7.85));
#1028 = VECTOR('',#1029,1.);
#1029 = DIRECTION('',(0.,0.,-1.));
#1030 = ORIENTED_EDGE('',*,*,#1031,.T.);
#1031 = EDGE_CURVE('',#1024,#328,#1032,.T.);
#1032 = LINE('',#1033,#1034);
#1033 = CARTESIAN_POINT('',(-20.87794869659,-18.05833209967,7.85));
#1034 = VECTOR('',#1035,1.);
#1035 = DIRECTION('',(-0.866025403784,-0.5,-0.));
#1036 = ORIENTED_EDGE('',*,*,#327,.T.);
#1037 = ORIENTED_EDGE('',*,*,#885,.F.);
#1038 = PLANE('',#1039);
#1039 = AXIS2_PLACEMENT_3D('',#1040,#1041,#1042);
#1040 = CARTESIAN_POINT('',(-20.87794869659,-18.05833209967,7.85));
#1041 = DIRECTION('',(0.5,-0.866025403784,0.));
#1042 = DIRECTION('',(0.,0.,-1.));
#1043 = ADVANCED_FACE('',(#1044),#1062,.F.);
#1044 = FACE_BOUND('',#1045,.F.);
#1045 = EDGE_LOOP('',(#1046,#1054,#1055,#1056));
#1046 = ORIENTED_EDGE('',*,*,#1047,.F.);
#1047 = EDGE_CURVE('',#1001,#1048,#1050,.T.);
#1048 = VERTEX_POINT('',#1049);
#1049 = CARTESIAN_POINT('',(-26.07794869659,-9.051667900321,7.85));
#1050 = LINE('',#1051,#1052);
#1051 = CARTESIAN_POINT('',(-26.07794869659,-9.051667900321,2.15));
#1052 = VECTOR('',#1053,1.);
#1053 = DIRECTION('',(0.,0.,1.));
#1054 = ORIENTED_EDGE('',*,*,#1008,.T.);
#1055 = ORIENTED_EDGE('',*,*,#344,.F.);
#1056 = ORIENTED_EDGE('',*,*,#1057,.F.);
#1057 = EDGE_CURVE('',#1048,#336,#1058,.T.);
#1058 = LINE('',#1059,#1060);
#1059 = CARTESIAN_POINT('',(-26.07794869659,-9.051667900321,7.85));
#1060 = VECTOR('',#1061,1.);
#1061 = DIRECTION('',(-0.866025403784,-0.5,-0.));
#1062 = PLANE('',#1063);
#1063 = AXIS2_PLACEMENT_3D('',#1064,#1065,#1066);
#1064 = CARTESIAN_POINT('',(-26.07794869659,-9.051667900321,2.15));
#1065 = DIRECTION('',(-0.5,0.866025403784,0.));
#1066 = DIRECTION('',(0.,0.,1.));
#1067 = ADVANCED_FACE('',(#1068),#1186,.T.);
#1068 = FACE_BOUND('',#1069,.T.);
#1069 = EDGE_LOOP('',(#1070,#1071,#1079,#1087,#1096,#1104,#1113,#1121,
    #1130,#1138,#1146,#1154,#1162,#1170,#1178,#1184,#1185));
#1070 = ORIENTED_EDGE('',*,*,#1057,.F.);
#1071 = ORIENTED_EDGE('',*,*,#1072,.T.);
#1072 = EDGE_CURVE('',#1048,#1073,#1075,.T.);
#1073 = VERTEX_POINT('',#1074);
#1074 = CARTESIAN_POINT('',(-25.62794869659,-9.831090763727,7.85));
#1075 = LINE('',#1076,#1077);
#1076 = CARTESIAN_POINT('',(-26.07794869659,-9.051667900321,7.85));
#1077 = VECTOR('',#1078,1.);
#1078 = DIRECTION('',(0.5,-0.866025403784,0.));
#1079 = ORIENTED_EDGE('',*,*,#1080,.T.);
#1080 = EDGE_CURVE('',#1073,#1081,#1083,.T.);
#1081 = VERTEX_POINT('',#1082);
#1082 = CARTESIAN_POINT('',(-28.22602490794,-11.33109076372,7.85));
#1083 = LINE('',#1084,#1085);
#1084 = CARTESIAN_POINT('',(-27.32032088705,-10.80818230345,7.85));
#1085 = VECTOR('',#1086,1.);
#1086 = DIRECTION('',(-0.866025403784,-0.5,0.));
#1087 = ORIENTED_EDGE('',*,*,#1088,.F.);
#1088 = EDGE_CURVE('',#1089,#1081,#1091,.T.);
#1089 = VERTEX_POINT('',#1090);
#1090 = CARTESIAN_POINT('',(-29.06469139527,-12.42406220935,7.85));
#1091 = CIRCLE('',#1092,1.8);
#1092 = AXIS2_PLACEMENT_3D('',#1093,#1094,#1095);
#1093 = CARTESIAN_POINT('',(-27.32602490794,-12.88993649053,7.85));
#1094 = DIRECTION('',(0.,0.,-1.));
#1095 = DIRECTION('',(1.,0.,0.));
#1096 = ORIENTED_EDGE('',*,*,#1097,.T.);
#1097 = EDGE_CURVE('',#1089,#1098,#1100,.T.);
#1098 = VERTEX_POINT('',#1099);
#1099 = CARTESIAN_POINT('',(-30.09996757568,-16.28776551451,7.85));
#1100 = LINE('',#1101,#1102);
#1101 = CARTESIAN_POINT('',(-29.44952622577,-13.86028534931,7.85));
#1102 = VECTOR('',#1103,1.);
#1103 = DIRECTION('',(-0.258819045103,-0.965925826289,0.));
#1104 = ORIENTED_EDGE('',*,*,#1105,.F.);
#1105 = EDGE_CURVE('',#1106,#1098,#1108,.T.);
#1106 = VERTEX_POINT('',#1107);
#1107 = CARTESIAN_POINT('',(-29.13404174939,-16.54658455961,7.85));
#1108 = CIRCLE('',#1109,0.5);
#1109 = AXIS2_PLACEMENT_3D('',#1110,#1111,#1112);
#1110 = CARTESIAN_POINT('',(-29.61700466253,-16.41717503706,7.85));
#1111 = DIRECTION('',(0.,0.,-1.));
#1112 = DIRECTION('',(1.,0.,0.));
#1113 = ORIENTED_EDGE('',*,*,#1114,.F.);
#1114 = EDGE_CURVE('',#1115,#1106,#1117,.T.);
#1115 = VERTEX_POINT('',#1116);
#1116 = CARTESIAN_POINT('',(-28.09876556898,-12.68288125445,7.85));
#1117 = LINE('',#1118,#1119);
#1118 = CARTESIAN_POINT('',(-28.48360039948,-14.11910439441,7.85));
#1119 = VECTOR('',#1120,1.);
#1120 = DIRECTION('',(-0.258819045103,-0.965925826289,0.));
#1121 = ORIENTED_EDGE('',*,*,#1122,.T.);
#1122 = EDGE_CURVE('',#1115,#1123,#1125,.T.);
#1123 = VERTEX_POINT('',#1124);
#1124 = CARTESIAN_POINT('',(-27.72602490794,-12.19711616751,7.85));
#1125 = CIRCLE('',#1126,0.8);
#1126 = AXIS2_PLACEMENT_3D('',#1127,#1128,#1129);
#1127 = CARTESIAN_POINT('',(-27.32602490794,-12.88993649053,7.85));
#1128 = DIRECTION('',(0.,0.,-1.));
#1129 = DIRECTION('',(1.,0.,0.));
#1130 = ORIENTED_EDGE('',*,*,#1131,.T.);
#1131 = EDGE_CURVE('',#1123,#1132,#1134,.T.);
#1132 = VERTEX_POINT('',#1133);
#1133 = CARTESIAN_POINT('',(-26.54820744864,-14.23715584907,
    7.850000000002));
#1134 = LINE('',#1135,#1136);
#1135 = CARTESIAN_POINT('',(-27.72602490794,-12.19711616751,
    7.850000000002));
#1136 = VECTOR('',#1137,1.);
#1137 = DIRECTION('',(0.5,-0.866025403784,0.));
#1138 = ORIENTED_EDGE('',*,*,#1139,.F.);
#1139 = EDGE_CURVE('',#1140,#1132,#1142,.T.);
#1140 = VERTEX_POINT('',#1141);
#1141 = CARTESIAN_POINT('',(-24.12333631804,-12.83715584907,
    7.850000000002));
#1142 = LINE('',#1143,#1144);
#1143 = CARTESIAN_POINT('',(-23.69154164672,-12.58785907934,
    7.850000000002));
#1144 = VECTOR('',#1145,1.);
#1145 = DIRECTION('',(-0.866025403784,-0.5,-1.9E-15));
#1146 = ORIENTED_EDGE('',*,*,#1147,.F.);
#1147 = EDGE_CURVE('',#1148,#1140,#1150,.T.);
#1148 = VERTEX_POINT('',#1149);
#1149 = CARTESIAN_POINT('',(-25.30115377735,-10.79711616751,
    7.850000000002));
#1150 = LINE('',#1151,#1152);
#1151 = CARTESIAN_POINT('',(-25.30115377735,-10.79711616751,
    7.850000000002));
#1152 = VECTOR('',#1153,1.);
#1153 = DIRECTION('',(0.5,-0.866025403784,0.));
#1154 = ORIENTED_EDGE('',*,*,#1155,.F.);
#1155 = EDGE_CURVE('',#1156,#1148,#1158,.T.);
#1156 = VERTEX_POINT('',#1157);
#1157 = CARTESIAN_POINT('',(-24.4375644347,-10.29852262806,7.85));
#1158 = LINE('',#1159,#1160);
#1159 = CARTESIAN_POINT('',(-26.82032088705,-11.67420770724,7.85));
#1160 = VECTOR('',#1161,1.);
#1161 = DIRECTION('',(-0.866025403784,-0.5,0.));
#1162 = ORIENTED_EDGE('',*,*,#1163,.F.);
#1163 = EDGE_CURVE('',#1164,#1156,#1166,.T.);
#1164 = VERTEX_POINT('',#1165);
#1165 = CARTESIAN_POINT('',(-20.6375644347,-16.88031569682,7.85));
#1166 = LINE('',#1167,#1168);
#1167 = CARTESIAN_POINT('',(-28.88736116251,-2.591248612139,7.85));
#1168 = VECTOR('',#1169,1.);
#1169 = DIRECTION('',(-0.5,0.866025403784,0.));
#1170 = ORIENTED_EDGE('',*,*,#1171,.F.);
#1171 = EDGE_CURVE('',#1172,#1164,#1174,.T.);
#1172 = VERTEX_POINT('',#1173);
#1173 = CARTESIAN_POINT('',(-21.32794869659,-17.27890923627,7.85));
#1174 = LINE('',#1175,#1176);
#1175 = CARTESIAN_POINT('',(-21.32794869659,-17.27890923627,7.85));
#1176 = VECTOR('',#1177,1.);
#1177 = DIRECTION('',(0.866025403784,0.5,0.));
#1178 = ORIENTED_EDGE('',*,*,#1179,.T.);
#1179 = EDGE_CURVE('',#1172,#1024,#1180,.T.);
#1180 = LINE('',#1181,#1182);
#1181 = CARTESIAN_POINT('',(-26.07794869659,-9.051667900321,7.85));
#1182 = VECTOR('',#1183,1.);
#1183 = DIRECTION('',(0.5,-0.866025403784,0.));
#1184 = ORIENTED_EDGE('',*,*,#1031,.T.);
#1185 = ORIENTED_EDGE('',*,*,#335,.T.);
#1186 = PLANE('',#1187);
#1187 = AXIS2_PLACEMENT_3D('',#1188,#1189,#1190);
#1188 = CARTESIAN_POINT('',(-27.55307733941,-15.90777661891,7.85));
#1189 = DIRECTION('',(-0.,-0.,-1.));
#1190 = DIRECTION('',(0.,-1.,0.));
#1191 = ADVANCED_FACE('',(#1192),#1259,.F.);
#1192 = FACE_BOUND('',#1193,.F.);
#1193 = EDGE_LOOP('',(#1194,#1202,#1203,#1204,#1213,#1228,#1237,#1252));
#1194 = ORIENTED_EDGE('',*,*,#1195,.F.);
#1195 = EDGE_CURVE('',#427,#1196,#1198,.T.);
#1196 = VERTEX_POINT('',#1197);
#1197 = CARTESIAN_POINT('',(-30.6,-2.05,5.));
#1198 = LINE('',#1199,#1200);
#1199 = CARTESIAN_POINT('',(-38.,-2.05,5.));
#1200 = VECTOR('',#1201,1.);
#1201 = DIRECTION('',(1.,0.,0.));
#1202 = ORIENTED_EDGE('',*,*,#426,.F.);
#1203 = ORIENTED_EDGE('',*,*,#1195,.T.);
#1204 = ORIENTED_EDGE('',*,*,#1205,.T.);
#1205 = EDGE_CURVE('',#1196,#1206,#1208,.T.);
#1206 = VERTEX_POINT('',#1207);
#1207 = CARTESIAN_POINT('',(-30.6,0.,7.05));
#1208 = CIRCLE('',#1209,2.05);
#1209 = AXIS2_PLACEMENT_3D('',#1210,#1211,#1212);
#1210 = CARTESIAN_POINT('',(-30.6,0.,5.));
#1211 = DIRECTION('',(-1.,0.,0.));
#1212 = DIRECTION('',(0.,-1.,0.));
#1213 = ORIENTED_EDGE('',*,*,#1214,.T.);
#1214 = EDGE_CURVE('',#1206,#1215,#1217,.T.);
#1215 = VERTEX_POINT('',#1216);
#1216 = CARTESIAN_POINT('',(-30.78756443113,0.699999993814,
    6.926784889047));
#1217 = B_SPLINE_CURVE_WITH_KNOTS('',5,(#1218,#1219,#1220,#1221,#1222,
    #1223,#1224,#1225,#1226,#1227),.UNSPECIFIED.,.F.,.F.,(6,4,6),(0.,
    0.606384495902,1.),.UNSPECIFIED.);
#1218 = CARTESIAN_POINT('',(-30.6,2.1E-16,7.05));
#1219 = CARTESIAN_POINT('',(-30.6,9.269192485909E-02,7.05));
#1220 = CARTESIAN_POINT('',(-30.60767173466,0.185140534291,
    7.044761620199));
#1221 = CARTESIAN_POINT('',(-30.62293149811,0.275935098235,
    7.034336654159));
#1222 = CARTESIAN_POINT('',(-30.64519646453,0.363688364178,
    7.019294171029));
#1223 = CARTESIAN_POINT('',(-30.69160347099,0.501367146877,
    6.988520689929));
#1224 = CARTESIAN_POINT('',(-30.71237634726,0.553853331704,
    6.974862560715));
#1225 = CARTESIAN_POINT('',(-30.73543983826,0.604515149697,
    6.959869880075));
#1226 = CARTESIAN_POINT('',(-30.76057674109,0.653255942942,
    6.943766979527));
#1227 = CARTESIAN_POINT('',(-30.78756443113,0.699999993814,
    6.926784889047));
#1228 = ORIENTED_EDGE('',*,*,#1229,.F.);
#1229 = EDGE_CURVE('',#1230,#1215,#1232,.T.);
#1230 = VERTEX_POINT('',#1231);
#1231 = CARTESIAN_POINT('',(-30.78756443113,0.699999993814,
    3.073215110953));
#1232 = ELLIPSE('',#1233,2.367136103677,2.05);
#1233 = AXIS2_PLACEMENT_3D('',#1234,#1235,#1236);
#1234 = CARTESIAN_POINT('',(-30.38341924626,0.,5.));
#1235 = DIRECTION('',(0.866025403784,0.5,-0.));
#1236 = DIRECTION('',(-0.5,0.866025403784,0.));
#1237 = ORIENTED_EDGE('',*,*,#1238,.T.);
#1238 = EDGE_CURVE('',#1230,#1239,#1241,.T.);
#1239 = VERTEX_POINT('',#1240);
#1240 = CARTESIAN_POINT('',(-30.6,0.,2.95));
#1241 = B_SPLINE_CURVE_WITH_KNOTS('',5,(#1242,#1243,#1244,#1245,#1246,
    #1247,#1248,#1249,#1250,#1251),.UNSPECIFIED.,.F.,.F.,(6,4,6),(0.,
    0.396314975682,1.),.UNSPECIFIED.);
#1242 = CARTESIAN_POINT('',(-30.78756443113,0.699999993814,
    3.073215110953));
#1243 = CARTESIAN_POINT('',(-30.7603953417,0.652941749979,3.056118874325
    ));
#1244 = CARTESIAN_POINT('',(-30.73510062232,0.60385743787,3.039912815294
    ));
#1245 = CARTESIAN_POINT('',(-30.71190888621,0.552825790341,
    3.024833529593));
#1246 = CARTESIAN_POINT('',(-30.69104240061,0.499947179494,
    3.011110357101));
#1247 = CARTESIAN_POINT('',(-30.64481372202,0.362169748581,
    2.980447160896));
#1248 = CARTESIAN_POINT('',(-30.62273191993,0.274753397109,
    2.965526987844));
#1249 = CARTESIAN_POINT('',(-30.60760181158,0.18432347987,2.955190692437
    ));
#1250 = CARTESIAN_POINT('',(-30.6,9.226877563204E-02,2.95));
#1251 = CARTESIAN_POINT('',(-30.6,2.4E-16,2.95));
#1252 = ORIENTED_EDGE('',*,*,#1253,.T.);
#1253 = EDGE_CURVE('',#1239,#1196,#1254,.T.);
#1254 = CIRCLE('',#1255,2.05);
#1255 = AXIS2_PLACEMENT_3D('',#1256,#1257,#1258);
#1256 = CARTESIAN_POINT('',(-30.6,0.,5.));
#1257 = DIRECTION('',(-1.,0.,0.));
#1258 = DIRECTION('',(0.,-1.,0.));
#1259 = CYLINDRICAL_SURFACE('',#1260,2.05);
#1260 = AXIS2_PLACEMENT_3D('',#1261,#1262,#1263);
#1261 = CARTESIAN_POINT('',(-38.,0.,5.));
#1262 = DIRECTION('',(-1.,0.,0.));
#1263 = DIRECTION('',(0.,-1.,0.));
#1264 = ADVANCED_FACE('',(#1265),#1283,.T.);
#1265 = FACE_BOUND('',#1266,.T.);
#1266 = EDGE_LOOP('',(#1267,#1268,#1269,#1270,#1276,#1277));
#1267 = ORIENTED_EDGE('',*,*,#744,.F.);
#1268 = ORIENTED_EDGE('',*,*,#803,.T.);
#1269 = ORIENTED_EDGE('',*,*,#575,.T.);
#1270 = ORIENTED_EDGE('',*,*,#1271,.T.);
#1271 = EDGE_CURVE('',#567,#1215,#1272,.T.);
#1272 = LINE('',#1273,#1274);
#1273 = CARTESIAN_POINT('',(-30.78756443113,0.699999993814,10.));
#1274 = VECTOR('',#1275,1.);
#1275 = DIRECTION('',(-0.,-0.,-1.));
#1276 = ORIENTED_EDGE('',*,*,#1229,.F.);
#1277 = ORIENTED_EDGE('',*,*,#1278,.T.);
#1278 = EDGE_CURVE('',#1230,#736,#1279,.T.);
#1279 = LINE('',#1280,#1281);
#1280 = CARTESIAN_POINT('',(-30.78756443113,0.699999993814,10.));
#1281 = VECTOR('',#1282,1.);
#1282 = DIRECTION('',(-0.,-0.,-1.));
#1283 = PLANE('',#1284);
#1284 = AXIS2_PLACEMENT_3D('',#1285,#1286,#1287);
#1285 = CARTESIAN_POINT('',(-32.83715789032,4.25,0.));
#1286 = DIRECTION('',(0.866025403784,0.5,0.));
#1287 = DIRECTION('',(0.5,-0.866025403784,0.));
#1288 = ADVANCED_FACE('',(#1289),#1313,.F.);
#1289 = FACE_BOUND('',#1290,.F.);
#1290 = EDGE_LOOP('',(#1291,#1297,#1298,#1304,#1305,#1311,#1312));
#1291 = ORIENTED_EDGE('',*,*,#1292,.T.);
#1292 = EDGE_CURVE('',#1239,#728,#1293,.T.);
#1293 = LINE('',#1294,#1295);
#1294 = CARTESIAN_POINT('',(-30.6,2.2E-16,10.));
#1295 = VECTOR('',#1296,1.);
#1296 = DIRECTION('',(-0.,-0.,-1.));
#1297 = ORIENTED_EDGE('',*,*,#727,.T.);
#1298 = ORIENTED_EDGE('',*,*,#1299,.F.);
#1299 = EDGE_CURVE('',#551,#720,#1300,.T.);
#1300 = LINE('',#1301,#1302);
#1301 = CARTESIAN_POINT('',(-30.6,-5.110414112936,10.));
#1302 = VECTOR('',#1303,1.);
#1303 = DIRECTION('',(-0.,-0.,-1.));
#1304 = ORIENTED_EDGE('',*,*,#558,.F.);
#1305 = ORIENTED_EDGE('',*,*,#1306,.T.);
#1306 = EDGE_CURVE('',#559,#1206,#1307,.T.);
#1307 = LINE('',#1308,#1309);
#1308 = CARTESIAN_POINT('',(-30.6,2.2E-16,10.));
#1309 = VECTOR('',#1310,1.);
#1310 = DIRECTION('',(-0.,-0.,-1.));
#1311 = ORIENTED_EDGE('',*,*,#1205,.F.);
#1312 = ORIENTED_EDGE('',*,*,#1253,.F.);
#1313 = PLANE('',#1314);
#1314 = AXIS2_PLACEMENT_3D('',#1315,#1316,#1317);
#1315 = CARTESIAN_POINT('',(-30.6,2.E-16,10.));
#1316 = DIRECTION('',(-1.,0.,0.));
#1317 = DIRECTION('',(0.,-1.,0.));
#1318 = ADVANCED_FACE('',(#1319),#1330,.F.);
#1319 = FACE_BOUND('',#1320,.F.);
#1320 = EDGE_LOOP('',(#1321,#1322,#1323,#1324));
#1321 = ORIENTED_EDGE('',*,*,#550,.F.);
#1322 = ORIENTED_EDGE('',*,*,#1299,.T.);
#1323 = ORIENTED_EDGE('',*,*,#719,.T.);
#1324 = ORIENTED_EDGE('',*,*,#1325,.F.);
#1325 = EDGE_CURVE('',#543,#712,#1326,.T.);
#1326 = LINE('',#1327,#1328);
#1327 = CARTESIAN_POINT('',(-28.21287422283,-9.245037243051,10.));
#1328 = VECTOR('',#1329,1.);
#1329 = DIRECTION('',(-0.,-0.,-1.));
#1330 = PLANE('',#1331);
#1331 = AXIS2_PLACEMENT_3D('',#1332,#1333,#1334);
#1332 = CARTESIAN_POINT('',(-30.6,-5.110414112936,10.));
#1333 = DIRECTION('',(-0.866025403784,-0.5,0.));
#1334 = DIRECTION('',(0.5,-0.866025403784,0.));
#1335 = ADVANCED_FACE('',(#1336),#1347,.T.);
#1336 = FACE_BOUND('',#1337,.T.);
#1337 = EDGE_LOOP('',(#1338,#1339,#1345,#1346));
#1338 = ORIENTED_EDGE('',*,*,#542,.F.);
#1339 = ORIENTED_EDGE('',*,*,#1340,.T.);
#1340 = EDGE_CURVE('',#535,#704,#1341,.T.);
#1341 = LINE('',#1342,#1343);
#1342 = CARTESIAN_POINT('',(-25.8375644347,-7.873651497466,10.));
#1343 = VECTOR('',#1344,1.);
#1344 = DIRECTION('',(-0.,-0.,-1.));
#1345 = ORIENTED_EDGE('',*,*,#711,.T.);
#1346 = ORIENTED_EDGE('',*,*,#1325,.F.);
#1347 = PLANE('',#1348);
#1348 = AXIS2_PLACEMENT_3D('',#1349,#1350,#1351);
#1349 = CARTESIAN_POINT('',(-25.8375644347,-7.873651497466,10.));
#1350 = DIRECTION('',(-0.5,0.866025403784,0.));
#1351 = DIRECTION('',(-0.866025403784,-0.5,0.));
#1352 = ADVANCED_FACE('',(#1353),#1364,.T.);
#1353 = FACE_BOUND('',#1354,.T.);
#1354 = EDGE_LOOP('',(#1355,#1356,#1357,#1358));
#1355 = ORIENTED_EDGE('',*,*,#703,.F.);
#1356 = ORIENTED_EDGE('',*,*,#1340,.F.);
#1357 = ORIENTED_EDGE('',*,*,#534,.T.);
#1358 = ORIENTED_EDGE('',*,*,#1359,.F.);
#1359 = EDGE_CURVE('',#696,#527,#1360,.T.);
#1360 = LINE('',#1361,#1362);
#1361 = CARTESIAN_POINT('',(-24.9375644347,-9.432497224278,0.));
#1362 = VECTOR('',#1363,1.);
#1363 = DIRECTION('',(0.,0.,1.));
#1364 = PLANE('',#1365);
#1365 = AXIS2_PLACEMENT_3D('',#1366,#1367,#1368);
#1366 = CARTESIAN_POINT('',(-32.83715789032,4.25,0.));
#1367 = DIRECTION('',(0.866025403784,0.5,0.));
#1368 = DIRECTION('',(0.5,-0.866025403784,0.));
#1369 = ADVANCED_FACE('',(#1370),#1395,.T.);
#1370 = FACE_BOUND('',#1371,.T.);
#1371 = EDGE_LOOP('',(#1372,#1373,#1379,#1380,#1386,#1387,#1388,#1389));
#1372 = ORIENTED_EDGE('',*,*,#1080,.F.);
#1373 = ORIENTED_EDGE('',*,*,#1374,.F.);
#1374 = EDGE_CURVE('',#993,#1073,#1375,.T.);
#1375 = LINE('',#1376,#1377);
#1376 = CARTESIAN_POINT('',(-25.62794869659,-9.831090763727,2.15));
#1377 = VECTOR('',#1378,1.);
#1378 = DIRECTION('',(0.,0.,1.));
#1379 = ORIENTED_EDGE('',*,*,#992,.F.);
#1380 = ORIENTED_EDGE('',*,*,#1381,.F.);
#1381 = EDGE_CURVE('',#687,#984,#1382,.T.);
#1382 = LINE('',#1383,#1384);
#1383 = CARTESIAN_POINT('',(-28.22602490794,-11.33109076372,0.));
#1384 = VECTOR('',#1385,1.);
#1385 = DIRECTION('',(0.,0.,1.));
#1386 = ORIENTED_EDGE('',*,*,#695,.F.);
#1387 = ORIENTED_EDGE('',*,*,#1359,.T.);
#1388 = ORIENTED_EDGE('',*,*,#526,.F.);
#1389 = ORIENTED_EDGE('',*,*,#1390,.F.);
#1390 = EDGE_CURVE('',#1081,#518,#1391,.T.);
#1391 = LINE('',#1392,#1393);
#1392 = CARTESIAN_POINT('',(-28.22602490794,-11.33109076372,0.));
#1393 = VECTOR('',#1394,1.);
#1394 = DIRECTION('',(0.,0.,1.));
#1395 = PLANE('',#1396);
#1396 = AXIS2_PLACEMENT_3D('',#1397,#1398,#1399);
#1397 = CARTESIAN_POINT('',(-26.20262756557,-10.16288176342,5.));
#1398 = DIRECTION('',(0.5,-0.866025403784,-3.E-17));
#1399 = DIRECTION('',(-0.866025403784,-0.5,0.));
#1400 = ADVANCED_FACE('',(#1401),#1412,.F.);
#1401 = FACE_BOUND('',#1402,.F.);
#1402 = EDGE_LOOP('',(#1403,#1404,#1410,#1411));
#1403 = ORIENTED_EDGE('',*,*,#1088,.F.);
#1404 = ORIENTED_EDGE('',*,*,#1405,.T.);
#1405 = EDGE_CURVE('',#1089,#510,#1406,.T.);
#1406 = LINE('',#1407,#1408);
#1407 = CARTESIAN_POINT('',(-29.06469139527,-12.42406220935,0.));
#1408 = VECTOR('',#1409,1.);
#1409 = DIRECTION('',(0.,0.,1.));
#1410 = ORIENTED_EDGE('',*,*,#517,.T.);
#1411 = ORIENTED_EDGE('',*,*,#1390,.F.);
#1412 = CYLINDRICAL_SURFACE('',#1413,1.8);
#1413 = AXIS2_PLACEMENT_3D('',#1414,#1415,#1416);
#1414 = CARTESIAN_POINT('',(-27.32602490794,-12.88993649053,0.));
#1415 = DIRECTION('',(0.,0.,-1.));
#1416 = DIRECTION('',(1.,0.,0.));
#1417 = ADVANCED_FACE('',(#1418),#1429,.T.);
#1418 = FACE_BOUND('',#1419,.T.);
#1419 = EDGE_LOOP('',(#1420,#1421,#1422,#1423));
#1420 = ORIENTED_EDGE('',*,*,#1097,.F.);
#1421 = ORIENTED_EDGE('',*,*,#1405,.T.);
#1422 = ORIENTED_EDGE('',*,*,#509,.F.);
#1423 = ORIENTED_EDGE('',*,*,#1424,.F.);
#1424 = EDGE_CURVE('',#1098,#501,#1425,.T.);
#1425 = LINE('',#1426,#1427);
#1426 = CARTESIAN_POINT('',(-30.09996757568,-16.28776551451,0.));
#1427 = VECTOR('',#1428,1.);
#1428 = DIRECTION('',(0.,0.,1.));
#1429 = PLANE('',#1430);
#1430 = AXIS2_PLACEMENT_3D('',#1431,#1432,#1433);
#1431 = CARTESIAN_POINT('',(-29.06469139527,-12.42406220935,0.));
#1432 = DIRECTION('',(0.965925826289,-0.258819045103,0.));
#1433 = DIRECTION('',(-0.258819045103,-0.965925826289,0.));
#1434 = ADVANCED_FACE('',(#1435),#1466,.F.);
#1435 = FACE_BOUND('',#1436,.F.);
#1436 = EDGE_LOOP('',(#1437,#1451,#1457,#1458,#1459,#1460));
#1437 = ORIENTED_EDGE('',*,*,#1438,.F.);
#1438 = EDGE_CURVE('',#1439,#1441,#1443,.T.);
#1439 = VERTEX_POINT('',#1440);
#1440 = CARTESIAN_POINT('',(-29.36700466253,-16.85018773895,
    9.076776695297));
#1441 = VERTEX_POINT('',#1442);
#1442 = CARTESIAN_POINT('',(-29.13404174939,-16.54658455961,
    8.754979568844));
#1443 = B_SPLINE_CURVE_WITH_KNOTS('',6,(#1444,#1445,#1446,#1447,#1448,
    #1449,#1450),.UNSPECIFIED.,.F.,.F.,(7,7),(0.,1.),
  .PIECEWISE_BEZIER_KNOTS.);
#1444 = CARTESIAN_POINT('',(-29.36700466253,-16.85018773895,
    9.076776695297));
#1445 = CARTESIAN_POINT('',(-29.31147902012,-16.81812979637,
    9.017541477347));
#1446 = CARTESIAN_POINT('',(-29.26083923899,-16.7775018343,
    8.958257529622));
#1447 = CARTESIAN_POINT('',(-29.21638940514,-16.72901500771,
    8.900518508315));
#1448 = CARTESIAN_POINT('',(-29.17951123214,-16.67352122891,
    8.846060616803));
#1449 = CARTESIAN_POINT('',(-29.15161663144,-16.61217491237,
    8.796807726776));
#1450 = CARTESIAN_POINT('',(-29.13404174939,-16.54658455961,
    8.754979568844));
#1451 = ORIENTED_EDGE('',*,*,#1452,.F.);
#1452 = EDGE_CURVE('',#493,#1439,#1453,.T.);
#1453 = LINE('',#1454,#1455);
#1454 = CARTESIAN_POINT('',(-29.36700466253,-16.85018773895,-3.E-17));
#1455 = VECTOR('',#1456,1.);
#1456 = DIRECTION('',(0.,0.,-1.));
#1457 = ORIENTED_EDGE('',*,*,#500,.T.);
#1458 = ORIENTED_EDGE('',*,*,#1424,.F.);
#1459 = ORIENTED_EDGE('',*,*,#1105,.F.);
#1460 = ORIENTED_EDGE('',*,*,#1461,.T.);
#1461 = EDGE_CURVE('',#1106,#1441,#1462,.T.);
#1462 = LINE('',#1463,#1464);
#1463 = CARTESIAN_POINT('',(-29.13404174939,-16.54658455961,0.));
#1464 = VECTOR('',#1465,1.);
#1465 = DIRECTION('',(0.,0.,1.));
#1466 = CYLINDRICAL_SURFACE('',#1467,0.5);
#1467 = AXIS2_PLACEMENT_3D('',#1468,#1469,#1470);
#1468 = CARTESIAN_POINT('',(-29.61700466253,-16.41717503706,0.));
#1469 = DIRECTION('',(0.,0.,-1.));
#1470 = DIRECTION('',(1.,0.,0.));
#1471 = ADVANCED_FACE('',(#1472),#1490,.F.);
#1472 = FACE_BOUND('',#1473,.F.);
#1473 = EDGE_LOOP('',(#1474,#1475,#1476,#1484));
#1474 = ORIENTED_EDGE('',*,*,#492,.T.);
#1475 = ORIENTED_EDGE('',*,*,#1452,.T.);
#1476 = ORIENTED_EDGE('',*,*,#1477,.F.);
#1477 = EDGE_CURVE('',#1478,#1439,#1480,.T.);
#1478 = VERTEX_POINT('',#1479);
#1479 = CARTESIAN_POINT('',(-22.8329702801,-13.07776122936,
    9.076776695297));
#1480 = LINE('',#1481,#1482);
#1481 = CARTESIAN_POINT('',(-22.8329702801,-13.07776122936,
    9.076776695297));
#1482 = VECTOR('',#1483,1.);
#1483 = DIRECTION('',(-0.866025403784,-0.5,6.E-17));
#1484 = ORIENTED_EDGE('',*,*,#1485,.F.);
#1485 = EDGE_CURVE('',#485,#1478,#1486,.T.);
#1486 = LINE('',#1487,#1488);
#1487 = CARTESIAN_POINT('',(-22.8329702801,-13.07776122936,10.));
#1488 = VECTOR('',#1489,1.);
#1489 = DIRECTION('',(0.,0.,-1.));
#1490 = PLANE('',#1491);
#1491 = AXIS2_PLACEMENT_3D('',#1492,#1493,#1494);
#1492 = CARTESIAN_POINT('',(-22.8329702801,-13.07776122936,10.));
#1493 = DIRECTION('',(0.5,-0.866025403784,-6.E-17));
#1494 = DIRECTION('',(2.714101615138E-17,8.495190528383E-17,-1.));
#1495 = ADVANCED_FACE('',(#1496),#1585,.T.);
#1496 = FACE_BOUND('',#1497,.T.);
#1497 = EDGE_LOOP('',(#1498,#1508,#1514,#1515,#1521,#1522,#1530,#1538,
    #1546,#1553,#1554,#1555,#1561,#1562,#1570,#1579));
#1498 = ORIENTED_EDGE('',*,*,#1499,.F.);
#1499 = EDGE_CURVE('',#1500,#1502,#1504,.T.);
#1500 = VERTEX_POINT('',#1501);
#1501 = CARTESIAN_POINT('',(-24.4375644347,-10.29852262806,0.));
#1502 = VERTEX_POINT('',#1503);
#1503 = CARTESIAN_POINT('',(-23.25974697539,-12.33856230962,-2.E-15));
#1504 = LINE('',#1505,#1506);
#1505 = CARTESIAN_POINT('',(-32.83715789032,4.25,0.));
#1506 = VECTOR('',#1507,1.);
#1507 = DIRECTION('',(0.5,-0.866025403784,0.));
#1508 = ORIENTED_EDGE('',*,*,#1509,.T.);
#1509 = EDGE_CURVE('',#1500,#910,#1510,.T.);
#1510 = LINE('',#1511,#1512);
#1511 = CARTESIAN_POINT('',(-24.4375644347,-10.29852262806,0.));
#1512 = VECTOR('',#1513,1.);
#1513 = DIRECTION('',(0.,0.,1.));
#1514 = ORIENTED_EDGE('',*,*,#909,.T.);
#1515 = ORIENTED_EDGE('',*,*,#1516,.T.);
#1516 = EDGE_CURVE('',#902,#1164,#1517,.T.);
#1517 = LINE('',#1518,#1519);
#1518 = CARTESIAN_POINT('',(-20.6375644347,-16.88031569682,3.925));
#1519 = VECTOR('',#1520,1.);
#1520 = DIRECTION('',(0.,0.,1.));
#1521 = ORIENTED_EDGE('',*,*,#1163,.T.);
#1522 = ORIENTED_EDGE('',*,*,#1523,.T.);
#1523 = EDGE_CURVE('',#1156,#1524,#1526,.T.);
#1524 = VERTEX_POINT('',#1525);
#1525 = CARTESIAN_POINT('',(-24.4375644347,-10.29852262806,10.));
#1526 = LINE('',#1527,#1528);
#1527 = CARTESIAN_POINT('',(-24.4375644347,-10.29852262806,0.));
#1528 = VECTOR('',#1529,1.);
#1529 = DIRECTION('',(0.,0.,1.));
#1530 = ORIENTED_EDGE('',*,*,#1531,.T.);
#1531 = EDGE_CURVE('',#1524,#1532,#1534,.T.);
#1532 = VERTEX_POINT('',#1533);
#1533 = CARTESIAN_POINT('',(-23.25974697539,-12.33856230962,10.));
#1534 = LINE('',#1535,#1536);
#1535 = CARTESIAN_POINT('',(-32.83715789032,4.25,10.));
#1536 = VECTOR('',#1537,1.);
#1537 = DIRECTION('',(0.5,-0.866025403784,0.));
#1538 = ORIENTED_EDGE('',*,*,#1539,.T.);
#1539 = EDGE_CURVE('',#1532,#1540,#1542,.T.);
#1540 = VERTEX_POINT('',#1541);
#1541 = CARTESIAN_POINT('',(-23.25974697539,-12.33856230962,
    9.076776695297));
#1542 = LINE('',#1543,#1544);
#1543 = CARTESIAN_POINT('',(-23.25974697539,-12.33856230962,10.));
#1544 = VECTOR('',#1545,1.);
#1545 = DIRECTION('',(3.6E-16,-6.235382907248E-16,-1.));
#1546 = ORIENTED_EDGE('',*,*,#1547,.F.);
#1547 = EDGE_CURVE('',#1478,#1540,#1548,.T.);
#1548 = CIRCLE('',#1549,0.426776695297);
#1549 = AXIS2_PLACEMENT_3D('',#1550,#1551,#1552);
#1550 = CARTESIAN_POINT('',(-23.04635862774,-12.70816176949,
    9.076776695297));
#1551 = DIRECTION('',(0.866025403784,0.5,-0.));
#1552 = DIRECTION('',(-0.5,0.866025403784,0.));
#1553 = ORIENTED_EDGE('',*,*,#1485,.F.);
#1554 = ORIENTED_EDGE('',*,*,#484,.T.);
#1555 = ORIENTED_EDGE('',*,*,#1556,.F.);
#1556 = EDGE_CURVE('',#645,#476,#1557,.T.);
#1557 = LINE('',#1558,#1559);
#1558 = CARTESIAN_POINT('',(-19.22983134119,-19.31858093828,0.));
#1559 = VECTOR('',#1560,1.);
#1560 = DIRECTION('',(0.,0.,1.));
#1561 = ORIENTED_EDGE('',*,*,#653,.F.);
#1562 = ORIENTED_EDGE('',*,*,#1563,.T.);
#1563 = EDGE_CURVE('',#654,#1564,#1566,.T.);
#1564 = VERTEX_POINT('',#1565);
#1565 = CARTESIAN_POINT('',(-22.8329702801,-13.07776122936,
    0.923223304703));
#1566 = LINE('',#1567,#1568);
#1567 = CARTESIAN_POINT('',(-22.8329702801,-13.07776122936,-1.78E-15));
#1568 = VECTOR('',#1569,1.);
#1569 = DIRECTION('',(5.758330249198E-17,1.602627944163E-16,1.));
#1570 = ORIENTED_EDGE('',*,*,#1571,.T.);
#1571 = EDGE_CURVE('',#1564,#1572,#1574,.T.);
#1572 = VERTEX_POINT('',#1573);
#1573 = CARTESIAN_POINT('',(-23.25974697539,-12.33856230962,
    0.923223304703));
#1574 = CIRCLE('',#1575,0.426776695297);
#1575 = AXIS2_PLACEMENT_3D('',#1576,#1577,#1578);
#1576 = CARTESIAN_POINT('',(-23.04635862774,-12.70816176949,
    0.923223304703));
#1577 = DIRECTION('',(-0.866025403784,-0.5,1.3E-16));
#1578 = DIRECTION('',(-0.5,0.866025403784,-1.1E-16));
#1579 = ORIENTED_EDGE('',*,*,#1580,.F.);
#1580 = EDGE_CURVE('',#1502,#1572,#1581,.T.);
#1581 = LINE('',#1582,#1583);
#1582 = CARTESIAN_POINT('',(-23.25974697539,-12.33856230962,-1.78E-15));
#1583 = VECTOR('',#1584,1.);
#1584 = DIRECTION('',(4.17583302492E-16,-4.632754963085E-16,1.));
#1585 = PLANE('',#1586);
#1586 = AXIS2_PLACEMENT_3D('',#1587,#1588,#1589);
#1587 = CARTESIAN_POINT('',(-32.83715789032,4.25,0.));
#1588 = DIRECTION('',(0.866025403784,0.5,0.));
#1589 = DIRECTION('',(0.5,-0.866025403784,0.));
#1590 = ADVANCED_FACE('',(#1591),#1597,.T.);
#1591 = FACE_BOUND('',#1592,.F.);
#1592 = EDGE_LOOP('',(#1593,#1594,#1595,#1596));
#1593 = ORIENTED_EDGE('',*,*,#870,.T.);
#1594 = ORIENTED_EDGE('',*,*,#475,.T.);
#1595 = ORIENTED_EDGE('',*,*,#1556,.F.);
#1596 = ORIENTED_EDGE('',*,*,#644,.F.);
#1597 = CYLINDRICAL_SURFACE('',#1598,4.834460069011);
#1598 = AXIS2_PLACEMENT_3D('',#1599,#1600,#1601);
#1599 = CARTESIAN_POINT('',(-23.41659657453,-21.73581097278,0.));
#1600 = DIRECTION('',(-0.,-0.,-1.));
#1601 = DIRECTION('',(1.,0.,0.));
#1602 = ADVANCED_FACE('',(#1603),#1614,.F.);
#1603 = FACE_BOUND('',#1604,.T.);
#1604 = EDGE_LOOP('',(#1605,#1611,#1612,#1613));
#1605 = ORIENTED_EDGE('',*,*,#1606,.T.);
#1606 = EDGE_CURVE('',#762,#593,#1607,.T.);
#1607 = LINE('',#1608,#1609);
#1608 = CARTESIAN_POINT('',(-20.57741699797,-22.62741699797,0.));
#1609 = VECTOR('',#1610,1.);
#1610 = DIRECTION('',(0.,0.,1.));
#1611 = ORIENTED_EDGE('',*,*,#592,.T.);
#1612 = ORIENTED_EDGE('',*,*,#1606,.F.);
#1613 = ORIENTED_EDGE('',*,*,#761,.F.);
#1614 = CYLINDRICAL_SURFACE('',#1615,2.05);
#1615 = AXIS2_PLACEMENT_3D('',#1616,#1617,#1618);
#1616 = CARTESIAN_POINT('',(-22.62741699797,-22.62741699797,0.));
#1617 = DIRECTION('',(-0.,-0.,-1.));
#1618 = DIRECTION('',(1.,0.,0.));
#1619 = ADVANCED_FACE('',(#1620),#1631,.F.);
#1620 = FACE_BOUND('',#1621,.F.);
#1621 = EDGE_LOOP('',(#1622,#1623,#1629,#1630));
#1622 = ORIENTED_EDGE('',*,*,#686,.F.);
#1623 = ORIENTED_EDGE('',*,*,#1624,.T.);
#1624 = EDGE_CURVE('',#679,#976,#1625,.T.);
#1625 = LINE('',#1626,#1627);
#1626 = CARTESIAN_POINT('',(-29.06469139527,-12.42406220935,0.));
#1627 = VECTOR('',#1628,1.);
#1628 = DIRECTION('',(0.,0.,1.));
#1629 = ORIENTED_EDGE('',*,*,#983,.T.);
#1630 = ORIENTED_EDGE('',*,*,#1381,.F.);
#1631 = CYLINDRICAL_SURFACE('',#1632,1.8);
#1632 = AXIS2_PLACEMENT_3D('',#1633,#1634,#1635);
#1633 = CARTESIAN_POINT('',(-27.32602490794,-12.88993649053,0.));
#1634 = DIRECTION('',(0.,0.,-1.));
#1635 = DIRECTION('',(1.,0.,0.));
#1636 = ADVANCED_FACE('',(#1637),#1648,.T.);
#1637 = FACE_BOUND('',#1638,.T.);
#1638 = EDGE_LOOP('',(#1639,#1640,#1641,#1642));
#1639 = ORIENTED_EDGE('',*,*,#678,.F.);
#1640 = ORIENTED_EDGE('',*,*,#1624,.T.);
#1641 = ORIENTED_EDGE('',*,*,#975,.F.);
#1642 = ORIENTED_EDGE('',*,*,#1643,.F.);
#1643 = EDGE_CURVE('',#670,#967,#1644,.T.);
#1644 = LINE('',#1645,#1646);
#1645 = CARTESIAN_POINT('',(-30.09996757568,-16.28776551451,0.));
#1646 = VECTOR('',#1647,1.);
#1647 = DIRECTION('',(0.,0.,1.));
#1648 = PLANE('',#1649);
#1649 = AXIS2_PLACEMENT_3D('',#1650,#1651,#1652);
#1650 = CARTESIAN_POINT('',(-29.06469139527,-12.42406220935,0.));
#1651 = DIRECTION('',(0.965925826289,-0.258819045103,0.));
#1652 = DIRECTION('',(-0.258819045103,-0.965925826289,0.));
#1653 = ADVANCED_FACE('',(#1654),#1685,.F.);
#1654 = FACE_BOUND('',#1655,.F.);
#1655 = EDGE_LOOP('',(#1656,#1657,#1658,#1659,#1667,#1679));
#1656 = ORIENTED_EDGE('',*,*,#966,.T.);
#1657 = ORIENTED_EDGE('',*,*,#1643,.F.);
#1658 = ORIENTED_EDGE('',*,*,#669,.F.);
#1659 = ORIENTED_EDGE('',*,*,#1660,.T.);
#1660 = EDGE_CURVE('',#662,#1661,#1663,.T.);
#1661 = VERTEX_POINT('',#1662);
#1662 = CARTESIAN_POINT('',(-29.36700466253,-16.85018773895,
    0.923223304703));
#1663 = LINE('',#1664,#1665);
#1664 = CARTESIAN_POINT('',(-29.36700466253,-16.85018773895,10.));
#1665 = VECTOR('',#1666,1.);
#1666 = DIRECTION('',(0.,0.,1.));
#1667 = ORIENTED_EDGE('',*,*,#1668,.T.);
#1668 = EDGE_CURVE('',#1661,#1669,#1671,.T.);
#1669 = VERTEX_POINT('',#1670);
#1670 = CARTESIAN_POINT('',(-29.13404174939,-16.54658455961,
    1.245020431156));
#1671 = B_SPLINE_CURVE_WITH_KNOTS('',6,(#1672,#1673,#1674,#1675,#1676,
    #1677,#1678),.UNSPECIFIED.,.F.,.F.,(7,7),(0.,1.),
  .PIECEWISE_BEZIER_KNOTS.);
#1672 = CARTESIAN_POINT('',(-29.36700466253,-16.85018773895,
    0.923223304703));
#1673 = CARTESIAN_POINT('',(-29.31147902012,-16.81812979637,
    0.982458522653));
#1674 = CARTESIAN_POINT('',(-29.26083923899,-16.7775018343,
    1.041742470378));
#1675 = CARTESIAN_POINT('',(-29.21638940514,-16.72901500771,
    1.099481491685));
#1676 = CARTESIAN_POINT('',(-29.17951123214,-16.67352122891,
    1.153939383197));
#1677 = CARTESIAN_POINT('',(-29.15161663144,-16.61217491237,
    1.203192273224));
#1678 = CARTESIAN_POINT('',(-29.13404174939,-16.54658455961,
    1.245020431156));
#1679 = ORIENTED_EDGE('',*,*,#1680,.T.);
#1680 = EDGE_CURVE('',#1669,#959,#1681,.T.);
#1681 = LINE('',#1682,#1683);
#1682 = CARTESIAN_POINT('',(-29.13404174939,-16.54658455961,0.));
#1683 = VECTOR('',#1684,1.);
#1684 = DIRECTION('',(0.,0.,1.));
#1685 = CYLINDRICAL_SURFACE('',#1686,0.5);
#1686 = AXIS2_PLACEMENT_3D('',#1687,#1688,#1689);
#1687 = CARTESIAN_POINT('',(-29.61700466253,-16.41717503706,0.));
#1688 = DIRECTION('',(0.,0.,-1.));
#1689 = DIRECTION('',(1.,0.,0.));
#1690 = ADVANCED_FACE('',(#1691),#1702,.F.);
#1691 = FACE_BOUND('',#1692,.T.);
#1692 = EDGE_LOOP('',(#1693,#1694,#1695,#1701));
#1693 = ORIENTED_EDGE('',*,*,#661,.T.);
#1694 = ORIENTED_EDGE('',*,*,#1660,.T.);
#1695 = ORIENTED_EDGE('',*,*,#1696,.F.);
#1696 = EDGE_CURVE('',#1564,#1661,#1697,.T.);
#1697 = LINE('',#1698,#1699);
#1698 = CARTESIAN_POINT('',(-22.8329702801,-13.07776122936,
    0.923223304703));
#1699 = VECTOR('',#1700,1.);
#1700 = DIRECTION('',(-0.866025403784,-0.5,-6.E-17));
#1701 = ORIENTED_EDGE('',*,*,#1563,.F.);
#1702 = PLANE('',#1703);
#1703 = AXIS2_PLACEMENT_3D('',#1704,#1705,#1706);
#1704 = CARTESIAN_POINT('',(-22.8329702801,-13.07776122936,-1.78E-15));
#1705 = DIRECTION('',(0.5,-0.866025403784,6.E-17));
#1706 = DIRECTION('',(-2.714101615138E-17,-8.495190528383E-17,-1.));
#1707 = ADVANCED_FACE('',(#1708),#1714,.T.);
#1708 = FACE_BOUND('',#1709,.T.);
#1709 = EDGE_LOOP('',(#1710,#1711,#1712,#1713));
#1710 = ORIENTED_EDGE('',*,*,#820,.F.);
#1711 = ORIENTED_EDGE('',*,*,#779,.F.);
#1712 = ORIENTED_EDGE('',*,*,#619,.T.);
#1713 = ORIENTED_EDGE('',*,*,#852,.F.);
#1714 = PLANE('',#1715);
#1715 = AXIS2_PLACEMENT_3D('',#1716,#1717,#1718);
#1716 = CARTESIAN_POINT('',(-35.3,7.,-8.9E-16));
#1717 = DIRECTION('',(-1.,0.,0.));
#1718 = DIRECTION('',(0.,2.2E-16,1.));
#1719 = ADVANCED_FACE('',(#1720),#1726,.F.);
#1720 = FACE_BOUND('',#1721,.F.);
#1721 = EDGE_LOOP('',(#1722,#1723,#1724,#1725));
#1722 = ORIENTED_EDGE('',*,*,#1374,.F.);
#1723 = ORIENTED_EDGE('',*,*,#1000,.T.);
#1724 = ORIENTED_EDGE('',*,*,#1047,.T.);
#1725 = ORIENTED_EDGE('',*,*,#1072,.T.);
#1726 = PLANE('',#1727);
#1727 = AXIS2_PLACEMENT_3D('',#1728,#1729,#1730);
#1728 = CARTESIAN_POINT('',(-23.47794869659,-13.555,5.));
#1729 = DIRECTION('',(0.866025403784,0.5,2.E-17));
#1730 = DIRECTION('',(-0.5,0.866025403784,0.));
#1731 = ADVANCED_FACE('',(#1732),#1767,.F.);
#1732 = FACE_BOUND('',#1733,.F.);
#1733 = EDGE_LOOP('',(#1734,#1744,#1750,#1751,#1752,#1761));
#1734 = ORIENTED_EDGE('',*,*,#1735,.F.);
#1735 = EDGE_CURVE('',#1736,#1738,#1740,.T.);
#1736 = VERTEX_POINT('',#1737);
#1737 = CARTESIAN_POINT('',(-28.09876556898,-12.68288125445,0.));
#1738 = VERTEX_POINT('',#1739);
#1739 = CARTESIAN_POINT('',(-28.87522270428,-15.58065873332,-1.E-15));
#1740 = LINE('',#1741,#1742);
#1741 = CARTESIAN_POINT('',(-28.09876556898,-12.68288125445,0.));
#1742 = VECTOR('',#1743,1.);
#1743 = DIRECTION('',(-0.258819045103,-0.965925826289,0.));
#1744 = ORIENTED_EDGE('',*,*,#1745,.T.);
#1745 = EDGE_CURVE('',#1736,#950,#1746,.T.);
#1746 = LINE('',#1747,#1748);
#1747 = CARTESIAN_POINT('',(-28.09876556898,-12.68288125445,0.));
#1748 = VECTOR('',#1749,1.);
#1749 = DIRECTION('',(0.,0.,1.));
#1750 = ORIENTED_EDGE('',*,*,#958,.F.);
#1751 = ORIENTED_EDGE('',*,*,#1680,.F.);
#1752 = ORIENTED_EDGE('',*,*,#1753,.F.);
#1753 = EDGE_CURVE('',#1754,#1669,#1756,.T.);
#1754 = VERTEX_POINT('',#1755);
#1755 = CARTESIAN_POINT('',(-28.87522270428,-15.58065873332,
    0.923223304703));
#1756 = ELLIPSE('',#1757,0.603553390593,0.426776695297);
#1757 = AXIS2_PLACEMENT_3D('',#1758,#1759,#1760);
#1758 = CARTESIAN_POINT('',(-29.03143381651,-16.16364654084,
    0.923223304703));
#1759 = DIRECTION('',(0.965925826289,-0.258819045103,0.));
#1760 = DIRECTION('',(0.258819045103,0.965925826289,-9.E-17));
#1761 = ORIENTED_EDGE('',*,*,#1762,.F.);
#1762 = EDGE_CURVE('',#1738,#1754,#1763,.T.);
#1763 = LINE('',#1764,#1765);
#1764 = CARTESIAN_POINT('',(-28.87522270428,-15.58065873332,-4.46E-15));
#1765 = VECTOR('',#1766,1.);
#1766 = DIRECTION('',(-2.4E-16,-9.1E-16,1.));
#1767 = PLANE('',#1768);
#1768 = AXIS2_PLACEMENT_3D('',#1769,#1770,#1771);
#1769 = CARTESIAN_POINT('',(-28.09876556898,-12.68288125445,0.));
#1770 = DIRECTION('',(0.965925826289,-0.258819045103,0.));
#1771 = DIRECTION('',(-0.258819045103,-0.965925826289,0.));
#1772 = ADVANCED_FACE('',(#1773),#1792,.T.);
#1773 = FACE_BOUND('',#1774,.T.);
#1774 = EDGE_LOOP('',(#1775,#1784,#1785,#1786));
#1775 = ORIENTED_EDGE('',*,*,#1776,.F.);
#1776 = EDGE_CURVE('',#1736,#1777,#1779,.T.);
#1777 = VERTEX_POINT('',#1778);
#1778 = CARTESIAN_POINT('',(-27.72602490794,-12.19711616751,0.));
#1779 = CIRCLE('',#1780,0.8);
#1780 = AXIS2_PLACEMENT_3D('',#1781,#1782,#1783);
#1781 = CARTESIAN_POINT('',(-27.32602490794,-12.88993649053,0.));
#1782 = DIRECTION('',(0.,0.,-1.));
#1783 = DIRECTION('',(1.,0.,0.));
#1784 = ORIENTED_EDGE('',*,*,#1745,.T.);
#1785 = ORIENTED_EDGE('',*,*,#949,.T.);
#1786 = ORIENTED_EDGE('',*,*,#1787,.F.);
#1787 = EDGE_CURVE('',#1777,#942,#1788,.T.);
#1788 = LINE('',#1789,#1790);
#1789 = CARTESIAN_POINT('',(-27.72602490794,-12.19711616751,0.));
#1790 = VECTOR('',#1791,1.);
#1791 = DIRECTION('',(0.,0.,1.));
#1792 = CYLINDRICAL_SURFACE('',#1793,0.8);
#1793 = AXIS2_PLACEMENT_3D('',#1794,#1795,#1796);
#1794 = CARTESIAN_POINT('',(-27.32602490794,-12.88993649053,0.));
#1795 = DIRECTION('',(0.,0.,-1.));
#1796 = DIRECTION('',(1.,0.,0.));
#1797 = ADVANCED_FACE('',(#1798),#1816,.T.);
#1798 = FACE_BOUND('',#1799,.F.);
#1799 = EDGE_LOOP('',(#1800,#1807,#1808,#1815));
#1800 = ORIENTED_EDGE('',*,*,#1801,.F.);
#1801 = EDGE_CURVE('',#918,#942,#1802,.T.);
#1802 = CIRCLE('',#1803,2.974999999987);
#1803 = AXIS2_PLACEMENT_3D('',#1804,#1805,#1806);
#1804 = CARTESIAN_POINT('',(-26.51358934265,-11.49711616751,
    -0.474999999987));
#1805 = DIRECTION('',(0.5,-0.866025403784,-0.));
#1806 = DIRECTION('',(-0.866025403784,-0.5,0.));
#1807 = ORIENTED_EDGE('',*,*,#925,.T.);
#1808 = ORIENTED_EDGE('',*,*,#1809,.T.);
#1809 = EDGE_CURVE('',#926,#934,#1810,.T.);
#1810 = CIRCLE('',#1811,2.974999999987);
#1811 = AXIS2_PLACEMENT_3D('',#1812,#1813,#1814);
#1812 = CARTESIAN_POINT('',(-25.33577188334,-13.53715584907,
    -0.474999999987));
#1813 = DIRECTION('',(0.5,-0.866025403784,0.));
#1814 = DIRECTION('',(-0.866025403784,-0.5,0.));
#1815 = ORIENTED_EDGE('',*,*,#941,.F.);
#1816 = CYLINDRICAL_SURFACE('',#1817,2.974999999987);
#1817 = AXIS2_PLACEMENT_3D('',#1818,#1819,#1820);
#1818 = CARTESIAN_POINT('',(-26.51358934265,-11.49711616751,
    -0.474999999987));
#1819 = DIRECTION('',(-0.5,0.866025403784,0.));
#1820 = DIRECTION('',(-0.866025403784,-0.5,-0.));
#1821 = ADVANCED_FACE('',(#1822),#1826,.T.);
#1822 = FACE_BOUND('',#1823,.F.);
#1823 = EDGE_LOOP('',(#1824,#1825));
#1824 = ORIENTED_EDGE('',*,*,#1809,.F.);
#1825 = ORIENTED_EDGE('',*,*,#933,.T.);
#1826 = PLANE('',#1827);
#1827 = AXIS2_PLACEMENT_3D('',#1828,#1829,#1830);
#1828 = CARTESIAN_POINT('',(-23.25974697539,-12.33856230962,-1.78E-15));
#1829 = DIRECTION('',(0.5,-0.866025403784,-6.7E-16));
#1830 = DIRECTION('',(-3.893430139593E-16,5.488620667976E-16,-1.));
#1831 = ADVANCED_FACE('',(#1832),#1844,.T.);
#1832 = FACE_BOUND('',#1833,.T.);
#1833 = EDGE_LOOP('',(#1834,#1840,#1841,#1842,#1843));
#1834 = ORIENTED_EDGE('',*,*,#1835,.T.);
#1835 = EDGE_CURVE('',#1500,#1777,#1836,.T.);
#1836 = LINE('',#1837,#1838);
#1837 = CARTESIAN_POINT('',(-24.4375644347,-10.29852262806,0.));
#1838 = VECTOR('',#1839,1.);
#1839 = DIRECTION('',(-0.866025403784,-0.5,0.));
#1840 = ORIENTED_EDGE('',*,*,#1787,.T.);
#1841 = ORIENTED_EDGE('',*,*,#1801,.F.);
#1842 = ORIENTED_EDGE('',*,*,#917,.T.);
#1843 = ORIENTED_EDGE('',*,*,#1509,.F.);
#1844 = PLANE('',#1845);
#1845 = AXIS2_PLACEMENT_3D('',#1846,#1847,#1848);
#1846 = CARTESIAN_POINT('',(-26.08547686893,-11.24994531556,
    1.134231613924));
#1847 = DIRECTION('',(-0.5,0.866025403784,1.1E-16));
#1848 = DIRECTION('',(0.866025403784,0.5,0.));
#1849 = ADVANCED_FACE('',(#1850),#1861,.T.);
#1850 = FACE_BOUND('',#1851,.T.);
#1851 = EDGE_LOOP('',(#1852,#1858,#1859,#1860));
#1852 = ORIENTED_EDGE('',*,*,#1853,.F.);
#1853 = EDGE_CURVE('',#1172,#894,#1854,.T.);
#1854 = LINE('',#1855,#1856);
#1855 = CARTESIAN_POINT('',(-21.32794869659,-17.27890923627,7.85));
#1856 = VECTOR('',#1857,1.);
#1857 = DIRECTION('',(0.,0.,-1.));
#1858 = ORIENTED_EDGE('',*,*,#1171,.T.);
#1859 = ORIENTED_EDGE('',*,*,#1516,.F.);
#1860 = ORIENTED_EDGE('',*,*,#901,.F.);
#1861 = PLANE('',#1862);
#1862 = AXIS2_PLACEMENT_3D('',#1863,#1864,#1865);
#1863 = CARTESIAN_POINT('',(-21.32794869659,-17.27890923627,7.85));
#1864 = DIRECTION('',(-0.5,0.866025403784,0.));
#1865 = DIRECTION('',(0.,0.,-1.));
#1866 = ADVANCED_FACE('',(#1867),#1873,.F.);
#1867 = FACE_BOUND('',#1868,.F.);
#1868 = EDGE_LOOP('',(#1869,#1870,#1871,#1872));
#1869 = ORIENTED_EDGE('',*,*,#1023,.T.);
#1870 = ORIENTED_EDGE('',*,*,#893,.T.);
#1871 = ORIENTED_EDGE('',*,*,#1853,.F.);
#1872 = ORIENTED_EDGE('',*,*,#1179,.T.);
#1873 = PLANE('',#1874);
#1874 = AXIS2_PLACEMENT_3D('',#1875,#1876,#1877);
#1875 = CARTESIAN_POINT('',(-23.47794869659,-13.555,5.));
#1876 = DIRECTION('',(0.866025403784,0.5,2.E-17));
#1877 = DIRECTION('',(-0.5,0.866025403784,0.));
#1878 = ADVANCED_FACE('',(#1879),#1904,.T.);
#1879 = FACE_BOUND('',#1880,.T.);
#1880 = EDGE_LOOP('',(#1881,#1882,#1889,#1897,#1903));
#1881 = ORIENTED_EDGE('',*,*,#1155,.T.);
#1882 = ORIENTED_EDGE('',*,*,#1883,.T.);
#1883 = EDGE_CURVE('',#1148,#1123,#1884,.T.);
#1884 = CIRCLE('',#1885,2.974999999987);
#1885 = AXIS2_PLACEMENT_3D('',#1886,#1887,#1888);
#1886 = CARTESIAN_POINT('',(-26.51358934265,-11.49711616751,
    10.474999999987));
#1887 = DIRECTION('',(-0.5,0.866025403784,0.));
#1888 = DIRECTION('',(-0.866025403784,-0.5,0.));
#1889 = ORIENTED_EDGE('',*,*,#1890,.T.);
#1890 = EDGE_CURVE('',#1123,#1891,#1893,.T.);
#1891 = VERTEX_POINT('',#1892);
#1892 = CARTESIAN_POINT('',(-27.72602490794,-12.19711616751,10.));
#1893 = LINE('',#1894,#1895);
#1894 = CARTESIAN_POINT('',(-27.72602490794,-12.19711616751,0.));
#1895 = VECTOR('',#1896,1.);
#1896 = DIRECTION('',(0.,0.,1.));
#1897 = ORIENTED_EDGE('',*,*,#1898,.T.);
#1898 = EDGE_CURVE('',#1891,#1524,#1899,.T.);
#1899 = LINE('',#1900,#1901);
#1900 = CARTESIAN_POINT('',(-26.50072686661,-11.4896900135,10.));
#1901 = VECTOR('',#1902,1.);
#1902 = DIRECTION('',(0.866025403784,0.5,0.));
#1903 = ORIENTED_EDGE('',*,*,#1523,.F.);
#1904 = PLANE('',#1905);
#1905 = AXIS2_PLACEMENT_3D('',#1906,#1907,#1908);
#1906 = CARTESIAN_POINT('',(-26.08547686893,-11.24994531556,
    8.865768386076));
#1907 = DIRECTION('',(-0.5,0.866025403784,1.E-16));
#1908 = DIRECTION('',(0.866025403784,0.5,0.));
#1909 = ADVANCED_FACE('',(#1910),#1922,.T.);
#1910 = FACE_BOUND('',#1911,.T.);
#1911 = EDGE_LOOP('',(#1912,#1913,#1914,#1921));
#1912 = ORIENTED_EDGE('',*,*,#1883,.F.);
#1913 = ORIENTED_EDGE('',*,*,#1147,.T.);
#1914 = ORIENTED_EDGE('',*,*,#1915,.T.);
#1915 = EDGE_CURVE('',#1140,#1132,#1916,.T.);
#1916 = CIRCLE('',#1917,2.974999999987);
#1917 = AXIS2_PLACEMENT_3D('',#1918,#1919,#1920);
#1918 = CARTESIAN_POINT('',(-25.33577188334,-13.53715584907,
    10.474999999987));
#1919 = DIRECTION('',(-0.5,0.866025403784,0.));
#1920 = DIRECTION('',(-0.866025403784,-0.5,0.));
#1921 = ORIENTED_EDGE('',*,*,#1131,.F.);
#1922 = CYLINDRICAL_SURFACE('',#1923,2.974999999987);
#1923 = AXIS2_PLACEMENT_3D('',#1924,#1925,#1926);
#1924 = CARTESIAN_POINT('',(-26.51358934265,-11.49711616751,
    10.474999999987));
#1925 = DIRECTION('',(-0.5,0.866025403784,0.));
#1926 = DIRECTION('',(-0.866025403784,-0.5,0.));
#1927 = ADVANCED_FACE('',(#1928),#1932,.T.);
#1928 = FACE_BOUND('',#1929,.T.);
#1929 = EDGE_LOOP('',(#1930,#1931));
#1930 = ORIENTED_EDGE('',*,*,#1915,.F.);
#1931 = ORIENTED_EDGE('',*,*,#1139,.T.);
#1932 = PLANE('',#1933);
#1933 = AXIS2_PLACEMENT_3D('',#1934,#1935,#1936);
#1934 = CARTESIAN_POINT('',(-23.25974697539,-12.33856230962,10.));
#1935 = DIRECTION('',(0.5,-0.866025403784,6.7E-16));
#1936 = DIRECTION('',(3.893430139593E-16,-5.488620667976E-16,-1.));
#1937 = ADVANCED_FACE('',(#1938),#1957,.T.);
#1938 = FACE_BOUND('',#1939,.T.);
#1939 = EDGE_LOOP('',(#1940,#1941,#1949,#1956));
#1940 = ORIENTED_EDGE('',*,*,#1122,.F.);
#1941 = ORIENTED_EDGE('',*,*,#1942,.T.);
#1942 = EDGE_CURVE('',#1115,#1943,#1945,.T.);
#1943 = VERTEX_POINT('',#1944);
#1944 = CARTESIAN_POINT('',(-28.09876556898,-12.68288125445,10.));
#1945 = LINE('',#1946,#1947);
#1946 = CARTESIAN_POINT('',(-28.09876556898,-12.68288125445,0.));
#1947 = VECTOR('',#1948,1.);
#1948 = DIRECTION('',(0.,0.,1.));
#1949 = ORIENTED_EDGE('',*,*,#1950,.T.);
#1950 = EDGE_CURVE('',#1943,#1891,#1951,.T.);
#1951 = CIRCLE('',#1952,0.8);
#1952 = AXIS2_PLACEMENT_3D('',#1953,#1954,#1955);
#1953 = CARTESIAN_POINT('',(-27.32602490794,-12.88993649053,10.));
#1954 = DIRECTION('',(0.,0.,-1.));
#1955 = DIRECTION('',(1.,0.,0.));
#1956 = ORIENTED_EDGE('',*,*,#1890,.F.);
#1957 = CYLINDRICAL_SURFACE('',#1958,0.8);
#1958 = AXIS2_PLACEMENT_3D('',#1959,#1960,#1961);
#1959 = CARTESIAN_POINT('',(-27.32602490794,-12.88993649053,0.));
#1960 = DIRECTION('',(0.,0.,-1.));
#1961 = DIRECTION('',(1.,0.,0.));
#1962 = ADVANCED_FACE('',(#1963),#1991,.F.);
#1963 = FACE_BOUND('',#1964,.F.);
#1964 = EDGE_LOOP('',(#1965,#1966,#1967,#1975,#1983,#1990));
#1965 = ORIENTED_EDGE('',*,*,#1114,.F.);
#1966 = ORIENTED_EDGE('',*,*,#1942,.T.);
#1967 = ORIENTED_EDGE('',*,*,#1968,.F.);
#1968 = EDGE_CURVE('',#1969,#1943,#1971,.T.);
#1969 = VERTEX_POINT('',#1970);
#1970 = CARTESIAN_POINT('',(-28.87522270428,-15.58065873332,10.));
#1971 = LINE('',#1972,#1973);
#1972 = CARTESIAN_POINT('',(-28.09498078647,-12.66875625384,10.));
#1973 = VECTOR('',#1974,1.);
#1974 = DIRECTION('',(0.258819045103,0.965925826289,0.));
#1975 = ORIENTED_EDGE('',*,*,#1976,.T.);
#1976 = EDGE_CURVE('',#1969,#1977,#1979,.T.);
#1977 = VERTEX_POINT('',#1978);
#1978 = CARTESIAN_POINT('',(-28.87522270428,-15.58065873332,
    9.076776695297));
#1979 = LINE('',#1980,#1981);
#1980 = CARTESIAN_POINT('',(-28.87522270428,-15.58065873332,5.));
#1981 = VECTOR('',#1982,1.);
#1982 = DIRECTION('',(-2.4E-16,-9.1E-16,-1.));
#1983 = ORIENTED_EDGE('',*,*,#1984,.F.);
#1984 = EDGE_CURVE('',#1441,#1977,#1985,.T.);
#1985 = ELLIPSE('',#1986,0.603553390593,0.426776695297);
#1986 = AXIS2_PLACEMENT_3D('',#1987,#1988,#1989);
#1987 = CARTESIAN_POINT('',(-29.03143381651,-16.16364654084,
    9.076776695297));
#1988 = DIRECTION('',(0.965925826289,-0.258819045103,0.));
#1989 = DIRECTION('',(0.258819045103,0.965925826289,9.E-17));
#1990 = ORIENTED_EDGE('',*,*,#1461,.F.);
#1991 = PLANE('',#1992);
#1992 = AXIS2_PLACEMENT_3D('',#1993,#1994,#1995);
#1993 = CARTESIAN_POINT('',(-28.09876556898,-12.68288125445,0.));
#1994 = DIRECTION('',(0.965925826289,-0.258819045103,0.));
#1995 = DIRECTION('',(-0.258819045103,-0.965925826289,0.));
#1996 = ADVANCED_FACE('',(#1997),#2009,.F.);
#1997 = FACE_BOUND('',#1998,.F.);
#1998 = EDGE_LOOP('',(#1999,#2000,#2001,#2002,#2008));
#1999 = ORIENTED_EDGE('',*,*,#1477,.T.);
#2000 = ORIENTED_EDGE('',*,*,#1438,.T.);
#2001 = ORIENTED_EDGE('',*,*,#1984,.T.);
#2002 = ORIENTED_EDGE('',*,*,#2003,.F.);
#2003 = EDGE_CURVE('',#1540,#1977,#2004,.T.);
#2004 = LINE('',#2005,#2006);
#2005 = CARTESIAN_POINT('',(-23.25974697539,-12.33856230962,
    9.076776695297));
#2006 = VECTOR('',#2007,1.);
#2007 = DIRECTION('',(-0.866025403784,-0.5,6.E-17));
#2008 = ORIENTED_EDGE('',*,*,#1547,.F.);
#2009 = CYLINDRICAL_SURFACE('',#2010,0.426776695297);
#2010 = AXIS2_PLACEMENT_3D('',#2011,#2012,#2013);
#2011 = CARTESIAN_POINT('',(-23.04635862774,-12.70816176949,
    9.076776695297));
#2012 = DIRECTION('',(0.866025403784,0.5,6.E-17));
#2013 = DIRECTION('',(-0.5,0.866025403784,6.E-17));
#2014 = ADVANCED_FACE('',(#2015),#2027,.F.);
#2015 = FACE_BOUND('',#2016,.F.);
#2016 = EDGE_LOOP('',(#2017,#2023,#2024,#2025,#2026));
#2017 = ORIENTED_EDGE('',*,*,#2018,.F.);
#2018 = EDGE_CURVE('',#1502,#1738,#2019,.T.);
#2019 = LINE('',#2020,#2021);
#2020 = CARTESIAN_POINT('',(-23.25974697539,-12.33856230962,-1.78E-15));
#2021 = VECTOR('',#2022,1.);
#2022 = DIRECTION('',(-0.866025403784,-0.5,-6.E-17));
#2023 = ORIENTED_EDGE('',*,*,#1499,.F.);
#2024 = ORIENTED_EDGE('',*,*,#1835,.T.);
#2025 = ORIENTED_EDGE('',*,*,#1776,.F.);
#2026 = ORIENTED_EDGE('',*,*,#1735,.T.);
#2027 = PLANE('',#2028);
#2028 = AXIS2_PLACEMENT_3D('',#2029,#2030,#2031);
#2029 = CARTESIAN_POINT('',(-28.66831096617,-12.49999376517,0.));
#2030 = DIRECTION('',(0.,0.,1.));
#2031 = DIRECTION('',(1.,0.,0.));
#2032 = ADVANCED_FACE('',(#2033),#2044,.T.);
#2033 = FACE_BOUND('',#2034,.F.);
#2034 = EDGE_LOOP('',(#2035,#2036,#2037,#2038));
#2035 = ORIENTED_EDGE('',*,*,#1580,.F.);
#2036 = ORIENTED_EDGE('',*,*,#2018,.T.);
#2037 = ORIENTED_EDGE('',*,*,#1762,.T.);
#2038 = ORIENTED_EDGE('',*,*,#2039,.F.);
#2039 = EDGE_CURVE('',#1572,#1754,#2040,.T.);
#2040 = LINE('',#2041,#2042);
#2041 = CARTESIAN_POINT('',(-23.25974697539,-12.33856230962,
    0.923223304703));
#2042 = VECTOR('',#2043,1.);
#2043 = DIRECTION('',(-0.866025403784,-0.5,-6.E-17));
#2044 = PLANE('',#2045);
#2045 = AXIS2_PLACEMENT_3D('',#2046,#2047,#2048);
#2046 = CARTESIAN_POINT('',(-23.25974697539,-12.33856230962,-1.78E-15));
#2047 = DIRECTION('',(0.5,-0.866025403784,-6.7E-16));
#2048 = DIRECTION('',(-3.893430139593E-16,5.488620667976E-16,-1.));
#2049 = ADVANCED_FACE('',(#2050),#2057,.F.);
#2050 = FACE_BOUND('',#2051,.T.);
#2051 = EDGE_LOOP('',(#2052,#2053,#2054,#2055,#2056));
#2052 = ORIENTED_EDGE('',*,*,#1696,.T.);
#2053 = ORIENTED_EDGE('',*,*,#1668,.T.);
#2054 = ORIENTED_EDGE('',*,*,#1753,.F.);
#2055 = ORIENTED_EDGE('',*,*,#2039,.F.);
#2056 = ORIENTED_EDGE('',*,*,#1571,.F.);
#2057 = CYLINDRICAL_SURFACE('',#2058,0.426776695297);
#2058 = AXIS2_PLACEMENT_3D('',#2059,#2060,#2061);
#2059 = CARTESIAN_POINT('',(-23.04635862774,-12.70816176949,
    0.923223304703));
#2060 = DIRECTION('',(0.866025403784,0.5,-6.E-17));
#2061 = DIRECTION('',(-0.5,0.866025403784,-6.E-17));
#2062 = ADVANCED_FACE('',(#2063),#2074,.T.);
#2063 = FACE_BOUND('',#2064,.T.);
#2064 = EDGE_LOOP('',(#2065,#2066,#2072,#2073));
#2065 = ORIENTED_EDGE('',*,*,#1539,.F.);
#2066 = ORIENTED_EDGE('',*,*,#2067,.T.);
#2067 = EDGE_CURVE('',#1532,#1969,#2068,.T.);
#2068 = LINE('',#2069,#2070);
#2069 = CARTESIAN_POINT('',(-23.25974697539,-12.33856230962,10.));
#2070 = VECTOR('',#2071,1.);
#2071 = DIRECTION('',(-0.866025403784,-0.5,6.E-17));
#2072 = ORIENTED_EDGE('',*,*,#1976,.T.);
#2073 = ORIENTED_EDGE('',*,*,#2003,.F.);
#2074 = PLANE('',#2075);
#2075 = AXIS2_PLACEMENT_3D('',#2076,#2077,#2078);
#2076 = CARTESIAN_POINT('',(-23.25974697539,-12.33856230962,10.));
#2077 = DIRECTION('',(0.5,-0.866025403784,6.7E-16));
#2078 = DIRECTION('',(3.893430139593E-16,-5.488620667976E-16,-1.));
#2079 = ADVANCED_FACE('',(#2080),#2087,.T.);
#2080 = FACE_BOUND('',#2081,.T.);
#2081 = EDGE_LOOP('',(#2082,#2083,#2084,#2085,#2086));
#2082 = ORIENTED_EDGE('',*,*,#2067,.F.);
#2083 = ORIENTED_EDGE('',*,*,#1531,.F.);
#2084 = ORIENTED_EDGE('',*,*,#1898,.F.);
#2085 = ORIENTED_EDGE('',*,*,#1950,.F.);
#2086 = ORIENTED_EDGE('',*,*,#1968,.F.);
#2087 = PLANE('',#2088);
#2088 = AXIS2_PLACEMENT_3D('',#2089,#2090,#2091);
#2089 = CARTESIAN_POINT('',(-28.66831096617,-12.49999376517,10.));
#2090 = DIRECTION('',(0.,0.,1.));
#2091 = DIRECTION('',(1.,0.,0.));
#2092 = ADVANCED_FACE('',(#2093),#2114,.T.);
#2093 = FACE_BOUND('',#2094,.F.);
#2094 = EDGE_LOOP('',(#2095,#2096,#2103,#2110,#2111,#2112,#2113));
#2095 = ORIENTED_EDGE('',*,*,#1306,.F.);
#2096 = ORIENTED_EDGE('',*,*,#2097,.F.);
#2097 = EDGE_CURVE('',#2098,#559,#2100,.T.);
#2098 = VERTEX_POINT('',#2099);
#2099 = CARTESIAN_POINT('',(-30.6,0.,12.5));
#2100 = B_SPLINE_CURVE_WITH_KNOTS('',1,(#2101,#2102),.UNSPECIFIED.,.F.,
  .F.,(2,2),(-2.5,0.),.PIECEWISE_BEZIER_KNOTS.);
#2101 = CARTESIAN_POINT('',(-30.6,-3.4E-16,12.5));
#2102 = CARTESIAN_POINT('',(-30.6,-3.4E-16,10.));
#2103 = ORIENTED_EDGE('',*,*,#2104,.T.);
#2104 = EDGE_CURVE('',#2098,#2098,#2105,.T.);
#2105 = CIRCLE('',#2106,1.4);
#2106 = AXIS2_PLACEMENT_3D('',#2107,#2108,#2109);
#2107 = CARTESIAN_POINT('',(-32.,0.,12.5));
#2108 = DIRECTION('',(0.,0.,1.));
#2109 = DIRECTION('',(1.,0.,-0.));
#2110 = ORIENTED_EDGE('',*,*,#2097,.T.);
#2111 = ORIENTED_EDGE('',*,*,#566,.F.);
#2112 = ORIENTED_EDGE('',*,*,#1271,.T.);
#2113 = ORIENTED_EDGE('',*,*,#1214,.F.);
#2114 = CYLINDRICAL_SURFACE('',#2115,1.4);
#2115 = AXIS2_PLACEMENT_3D('',#2116,#2117,#2118);
#2116 = CARTESIAN_POINT('',(-32.,0.,10.));
#2117 = DIRECTION('',(-0.,-0.,-1.));
#2118 = DIRECTION('',(1.,0.,0.));
#2119 = ADVANCED_FACE('',(#2120),#2123,.T.);
#2120 = FACE_BOUND('',#2121,.T.);
#2121 = EDGE_LOOP('',(#2122));
#2122 = ORIENTED_EDGE('',*,*,#2104,.T.);
#2123 = PLANE('',#2124);
#2124 = AXIS2_PLACEMENT_3D('',#2125,#2126,#2127);
#2125 = CARTESIAN_POINT('',(-32.,1.9E-16,12.5));
#2126 = DIRECTION('',(0.,0.,1.));
#2127 = DIRECTION('',(1.,0.,0.));
#2128 = ADVANCED_FACE('',(#2129),#2159,.T.);
#2129 = FACE_BOUND('',#2130,.T.);
#2130 = EDGE_LOOP('',(#2131,#2132,#2133,#2134,#2141,#2150,#2157,#2158));
#2131 = ORIENTED_EDGE('',*,*,#1278,.F.);
#2132 = ORIENTED_EDGE('',*,*,#1238,.T.);
#2133 = ORIENTED_EDGE('',*,*,#1292,.T.);
#2134 = ORIENTED_EDGE('',*,*,#2135,.F.);
#2135 = EDGE_CURVE('',#2136,#728,#2138,.T.);
#2136 = VERTEX_POINT('',#2137);
#2137 = CARTESIAN_POINT('',(-30.6,0.,-2.5));
#2138 = B_SPLINE_CURVE_WITH_KNOTS('',1,(#2139,#2140),.UNSPECIFIED.,.F.,
  .F.,(2,2),(-2.5,0.),.PIECEWISE_BEZIER_KNOTS.);
#2139 = CARTESIAN_POINT('',(-30.6,-3.4E-16,-2.5));
#2140 = CARTESIAN_POINT('',(-30.6,-3.4E-16,0.));
#2141 = ORIENTED_EDGE('',*,*,#2142,.T.);
#2142 = EDGE_CURVE('',#2136,#2143,#2145,.T.);
#2143 = VERTEX_POINT('',#2144);
#2144 = CARTESIAN_POINT('',(-30.78756443113,0.699999993814,-2.5));
#2145 = CIRCLE('',#2146,1.4);
#2146 = AXIS2_PLACEMENT_3D('',#2147,#2148,#2149);
#2147 = CARTESIAN_POINT('',(-32.,0.,-2.5));
#2148 = DIRECTION('',(0.,0.,1.));
#2149 = DIRECTION('',(1.,0.,-0.));
#2150 = ORIENTED_EDGE('',*,*,#2151,.T.);
#2151 = EDGE_CURVE('',#2143,#2136,#2152,.T.);
#2152 = CIRCLE('',#2153,1.4);
#2153 = AXIS2_PLACEMENT_3D('',#2154,#2155,#2156);
#2154 = CARTESIAN_POINT('',(-32.,0.,-2.5));
#2155 = DIRECTION('',(0.,0.,1.));
#2156 = DIRECTION('',(1.,0.,-0.));
#2157 = ORIENTED_EDGE('',*,*,#2135,.T.);
#2158 = ORIENTED_EDGE('',*,*,#735,.F.);
#2159 = CYLINDRICAL_SURFACE('',#2160,1.4);
#2160 = AXIS2_PLACEMENT_3D('',#2161,#2162,#2163);
#2161 = CARTESIAN_POINT('',(-32.,0.,0.));
#2162 = DIRECTION('',(0.,0.,1.));
#2163 = DIRECTION('',(1.,0.,-0.));
#2164 = ADVANCED_FACE('',(#2165),#2169,.T.);
#2165 = FACE_BOUND('',#2166,.F.);
#2166 = EDGE_LOOP('',(#2167,#2168));
#2167 = ORIENTED_EDGE('',*,*,#2142,.T.);
#2168 = ORIENTED_EDGE('',*,*,#2151,.T.);
#2169 = PLANE('',#2170);
#2170 = AXIS2_PLACEMENT_3D('',#2171,#2172,#2173);
#2171 = CARTESIAN_POINT('',(-32.,1.9E-16,-2.5));
#2172 = DIRECTION('',(0.,0.,-1.));
#2173 = DIRECTION('',(-1.,-0.,-0.));
#2174 = ( GEOMETRIC_REPRESENTATION_CONTEXT(3) 
GLOBAL_UNCERTAINTY_ASSIGNED_CONTEXT((#2178)) 
GLOBAL_UNIT_ASSIGNED_CONTEXT((#2175,#2176,#2177)) REPRESENTATION_CONTEXT
('Context #1','3D Context with UNIT and UNCERTAINTY') );
#2175 = ( LENGTH_UNIT() NAMED_UNIT(*) SI_UNIT(.MILLI.,.METRE.) );
#2176 = ( NAMED_UNIT(*) PLANE_ANGLE_UNIT() SI_UNIT($,.RADIAN.) );
#2177 = ( NAMED_UNIT(*) SI_UNIT($,.STERADIAN.) SOLID_ANGLE_UNIT() );
#2178 = UNCERTAINTY_MEASURE_WITH_UNIT(LENGTH_MEASURE(2.E-05),#2175,
  'distance_accuracy_value','confusion accuracy');
#2179 = PRODUCT_RELATED_PRODUCT_CATEGORY('part',$,(#7));
ENDSEC;
END-ISO-10303-21;
